G04*
G04 #@! TF.GenerationSoftware,Altium Limited,Altium Designer,22.4.2 (48)*
G04*
G04 Layer_Color=8388736*
%FSLAX25Y25*%
%MOIN*%
G70*
G04*
G04 #@! TF.SameCoordinates,7713EA0D-6249-4CA7-80EE-CA65CFE05E5E*
G04*
G04*
G04 #@! TF.FilePolarity,Positive*
G04*
G01*
G75*
%ADD81C,0.00300*%
D81*
X280366Y437077D02*
Y432079D01*
X277033Y437077D01*
Y432079D01*
X275367Y437077D02*
Y432079D01*
X272868D01*
X272035Y432912D01*
Y434578D01*
X272868Y435411D01*
X275367D01*
X270369Y432079D02*
X267037D01*
X268703D01*
Y437077D01*
X265371Y432079D02*
Y437077D01*
Y434578D01*
X262038D01*
Y432079D01*
Y437077D01*
X260372Y437910D02*
X257040D01*
X255374Y432079D02*
Y437077D01*
X252875D01*
X252042Y436244D01*
Y432912D01*
X252875Y432079D01*
X255374D01*
X250376Y437077D02*
Y432079D01*
X247876D01*
X247043Y432912D01*
Y434578D01*
X247876Y435411D01*
X250376D01*
X248709D02*
X247043Y437077D01*
X245377Y432079D02*
X243711D01*
X244544D01*
Y437077D01*
X245377D01*
X243711D01*
X241212Y432079D02*
Y437077D01*
X237879D01*
X236213Y432079D02*
Y437077D01*
X232881D01*
X231215Y437910D02*
X227883D01*
X222884Y432912D02*
X223717Y432079D01*
X225384D01*
X226217Y432912D01*
Y433745D01*
X225384Y434578D01*
X223717D01*
X222884Y435411D01*
Y436244D01*
X223717Y437077D01*
X225384D01*
X226217Y436244D01*
X221218Y432079D02*
X219552D01*
X220385D01*
Y437077D01*
X221218D01*
X219552D01*
X217053Y432079D02*
X213721D01*
Y432912D01*
X217053Y436244D01*
Y437077D01*
X213721D01*
X208722Y432079D02*
X212055D01*
Y437077D01*
X208722D01*
X212055Y434578D02*
X210388D01*
X207056Y433745D02*
X206223D01*
Y434578D01*
X207056D01*
Y433745D01*
Y436244D02*
X206223D01*
Y437077D01*
X207056D01*
Y436244D01*
X202891Y437910D02*
X199559D01*
X197892Y432912D02*
X197059Y432079D01*
X195393D01*
X194560Y432912D01*
Y433745D01*
X195393Y434578D01*
X196226D01*
X195393D01*
X194560Y435411D01*
Y436244D01*
X195393Y437077D01*
X197059D01*
X197892Y436244D01*
X192894Y437077D02*
Y436244D01*
X192061D01*
Y437077D01*
X192894D01*
X188729Y432912D02*
X187896Y432079D01*
X186230D01*
X185397Y432912D01*
Y436244D01*
X186230Y437077D01*
X187896D01*
X188729Y436244D01*
Y432912D01*
X183730Y437910D02*
X180398D01*
X178732Y437077D02*
Y432079D01*
X177066Y433745D01*
X175400Y432079D01*
Y437077D01*
X173734D02*
Y432079D01*
X172067Y433745D01*
X170401Y432079D01*
Y437077D01*
X167902Y437910D02*
X167069Y437077D01*
Y436244D01*
X167902D01*
Y437077D01*
X167069D01*
X167902Y437910D01*
X168735Y438743D01*
X163737Y437910D02*
X160405D01*
X158739Y432079D02*
X155406D01*
X157072D01*
Y437077D01*
X151241Y432079D02*
X152907D01*
X153740Y432912D01*
Y436244D01*
X152907Y437077D01*
X151241D01*
X150408Y436244D01*
Y432912D01*
X151241Y432079D01*
X148742D02*
Y437077D01*
X145410D01*
X140411Y432079D02*
X143743D01*
Y437077D01*
X140411D01*
X143743Y434578D02*
X142077D01*
X138745Y437077D02*
Y432079D01*
X136246D01*
X135413Y432912D01*
Y434578D01*
X136246Y435411D01*
X138745D01*
X137079D02*
X135413Y437077D01*
X133747D02*
Y433745D01*
X132080Y432079D01*
X130414Y433745D01*
Y437077D01*
Y434578D01*
X133747D01*
X128748Y437077D02*
Y432079D01*
X125416Y437077D01*
Y432079D01*
X120418Y432912D02*
X121251Y432079D01*
X122917D01*
X123750Y432912D01*
Y436244D01*
X122917Y437077D01*
X121251D01*
X120418Y436244D01*
X115419Y432079D02*
X118752D01*
Y437077D01*
X115419D01*
X118752Y434578D02*
X117085D01*
X113753Y433745D02*
X112920D01*
Y434578D01*
X113753D01*
Y433745D01*
Y436244D02*
X112920D01*
Y437077D01*
X113753D01*
Y436244D01*
X109588Y437910D02*
X106255D01*
X104589Y434578D02*
X101257D01*
X102923Y432912D02*
Y436244D01*
X99591Y432912D02*
X98758Y432079D01*
X97092D01*
X96259Y432912D01*
Y436244D01*
X97092Y437077D01*
X98758D01*
X99591Y436244D01*
Y432912D01*
X94593Y437077D02*
Y436244D01*
X93760D01*
Y437077D01*
X94593D01*
X90427Y432912D02*
X89594Y432079D01*
X87928D01*
X87095Y432912D01*
Y436244D01*
X87928Y437077D01*
X89594D01*
X90427Y436244D01*
Y432912D01*
X82097Y432079D02*
X85429D01*
Y434578D01*
X83763Y433745D01*
X82930D01*
X82097Y434578D01*
Y436244D01*
X82930Y437077D01*
X84596D01*
X85429Y436244D01*
X80431Y437077D02*
X77098Y433745D01*
X75432Y434578D02*
X72100D01*
X70434Y432912D02*
X69601Y432079D01*
X67935D01*
X67102Y432912D01*
Y436244D01*
X67935Y437077D01*
X69601D01*
X70434Y436244D01*
Y432912D01*
X65435Y437077D02*
Y436244D01*
X64602D01*
Y437077D01*
X65435D01*
X61270Y432912D02*
X60437Y432079D01*
X58771D01*
X57938Y432912D01*
Y436244D01*
X58771Y437077D01*
X60437D01*
X61270Y436244D01*
Y432912D01*
X52939Y432079D02*
X56272D01*
Y434578D01*
X54606Y433745D01*
X53772D01*
X52939Y434578D01*
Y436244D01*
X53772Y437077D01*
X55439D01*
X56272Y436244D01*
X280848Y434636D02*
Y429638D01*
X278349D01*
X277516Y430471D01*
Y432137D01*
X278349Y432970D01*
X280848D01*
X275850Y429638D02*
X272517D01*
X274184D01*
Y434636D01*
X270851Y429638D02*
Y434636D01*
Y432137D01*
X267519D01*
Y429638D01*
Y434636D01*
X265853Y435469D02*
X262521D01*
X260855Y429638D02*
Y434636D01*
X258355D01*
X257522Y433803D01*
Y430471D01*
X258355Y429638D01*
X260855D01*
X255856Y434636D02*
Y429638D01*
X253357D01*
X252524Y430471D01*
Y432137D01*
X253357Y432970D01*
X255856D01*
X254190D02*
X252524Y434636D01*
X250858Y429638D02*
X249192D01*
X250025D01*
Y434636D01*
X250858D01*
X249192D01*
X246692Y429638D02*
Y434636D01*
X243360D01*
X241694Y429638D02*
Y434636D01*
X238362D01*
X236696Y435469D02*
X233364D01*
X228365Y430471D02*
X229198Y429638D01*
X230864D01*
X231697Y430471D01*
Y431304D01*
X230864Y432137D01*
X229198D01*
X228365Y432970D01*
Y433803D01*
X229198Y434636D01*
X230864D01*
X231697Y433803D01*
X226699Y429638D02*
X225033D01*
X225866D01*
Y434636D01*
X226699D01*
X225033D01*
X222534Y429638D02*
X219201D01*
Y430471D01*
X222534Y433803D01*
Y434636D01*
X219201D01*
X214203Y429638D02*
X217535D01*
Y434636D01*
X214203D01*
X217535Y432137D02*
X215869D01*
X212537Y431304D02*
X211704D01*
Y432137D01*
X212537D01*
Y431304D01*
Y433803D02*
X211704D01*
Y434636D01*
X212537D01*
Y433803D01*
X208371Y435469D02*
X205039D01*
X203373Y434636D02*
X201707D01*
X202540D01*
Y429638D01*
X203373Y430471D01*
X199208Y434636D02*
Y433803D01*
X198375D01*
Y434636D01*
X199208D01*
X195043Y430471D02*
X194210Y429638D01*
X192543D01*
X191710Y430471D01*
Y433803D01*
X192543Y434636D01*
X194210D01*
X195043Y433803D01*
Y430471D01*
X186712Y434636D02*
X190044D01*
X186712Y431304D01*
Y430471D01*
X187545Y429638D01*
X189211D01*
X190044Y430471D01*
X185046Y435469D02*
X181713D01*
X180047Y434636D02*
Y429638D01*
X178381Y431304D01*
X176715Y429638D01*
Y434636D01*
X175049D02*
Y429638D01*
X173383Y431304D01*
X171717Y429638D01*
Y434636D01*
X169218Y435469D02*
X168385Y434636D01*
Y433803D01*
X169218D01*
Y434636D01*
X168385D01*
X169218Y435469D01*
X170051Y436303D01*
X165052Y435469D02*
X161720D01*
X160054Y429638D02*
X156722D01*
X158388D01*
Y434636D01*
X152556Y429638D02*
X154222D01*
X155055Y430471D01*
Y433803D01*
X154222Y434636D01*
X152556D01*
X151723Y433803D01*
Y430471D01*
X152556Y429638D01*
X150057D02*
Y434636D01*
X146725D01*
X141727Y429638D02*
X145059D01*
Y434636D01*
X141727D01*
X145059Y432137D02*
X143393D01*
X140060Y434636D02*
Y429638D01*
X137561D01*
X136728Y430471D01*
Y432137D01*
X137561Y432970D01*
X140060D01*
X138394D02*
X136728Y434636D01*
X135062D02*
Y431304D01*
X133396Y429638D01*
X131730Y431304D01*
Y434636D01*
Y432137D01*
X135062D01*
X130064Y434636D02*
Y429638D01*
X126731Y434636D01*
Y429638D01*
X121733Y430471D02*
X122566Y429638D01*
X124232D01*
X125065Y430471D01*
Y433803D01*
X124232Y434636D01*
X122566D01*
X121733Y433803D01*
X116735Y429638D02*
X120067D01*
Y434636D01*
X116735D01*
X120067Y432137D02*
X118401D01*
X115068Y431304D02*
X114235D01*
Y432137D01*
X115068D01*
Y431304D01*
Y433803D02*
X114235D01*
Y434636D01*
X115068D01*
Y433803D01*
X110903Y435469D02*
X107571D01*
X105905Y432137D02*
X102573D01*
X104239Y430471D02*
Y433803D01*
X100906Y430471D02*
X100073Y429638D01*
X98407D01*
X97574Y430471D01*
Y433803D01*
X98407Y434636D01*
X100073D01*
X100906Y433803D01*
Y430471D01*
X95908Y434636D02*
Y433803D01*
X95075D01*
Y434636D01*
X95908D01*
X91743Y430471D02*
X90910Y429638D01*
X89244D01*
X88410Y430471D01*
Y433803D01*
X89244Y434636D01*
X90910D01*
X91743Y433803D01*
Y430471D01*
X83412Y429638D02*
X86744D01*
Y432137D01*
X85078Y431304D01*
X84245D01*
X83412Y432137D01*
Y433803D01*
X84245Y434636D01*
X85911D01*
X86744Y433803D01*
X81746Y434636D02*
X78414Y431304D01*
X76748Y432137D02*
X73415D01*
X71749Y430471D02*
X70916Y429638D01*
X69250D01*
X68417Y430471D01*
Y433803D01*
X69250Y434636D01*
X70916D01*
X71749Y433803D01*
Y430471D01*
X66751Y434636D02*
Y433803D01*
X65918D01*
Y434636D01*
X66751D01*
X62586Y430471D02*
X61752Y429638D01*
X60086D01*
X59253Y430471D01*
Y433803D01*
X60086Y434636D01*
X61752D01*
X62586Y433803D01*
Y430471D01*
X54255Y429638D02*
X57587D01*
Y432137D01*
X55921Y431304D01*
X55088D01*
X54255Y432137D01*
Y433803D01*
X55088Y434636D01*
X56754D01*
X57587Y433803D01*
X589373Y164277D02*
Y169276D01*
X592705Y164277D01*
Y169276D01*
X594372Y164277D02*
Y169276D01*
X596871D01*
X597704Y168443D01*
Y166777D01*
X596871Y165944D01*
X594372D01*
X599370Y169276D02*
X602702D01*
X601036D01*
Y164277D01*
X604368Y169276D02*
Y164277D01*
Y166777D01*
X607701D01*
Y169276D01*
Y164277D01*
X609367Y163444D02*
X612699D01*
X614365Y169276D02*
Y164277D01*
X616864D01*
X617697Y165110D01*
Y168443D01*
X616864Y169276D01*
X614365D01*
X619363Y164277D02*
Y169276D01*
X621863D01*
X622696Y168443D01*
Y166777D01*
X621863Y165944D01*
X619363D01*
X621030D02*
X622696Y164277D01*
X624362Y169276D02*
X626028D01*
X625195D01*
Y164277D01*
X624362D01*
X626028D01*
X628527Y169276D02*
Y164277D01*
X631859D01*
X633526Y169276D02*
Y164277D01*
X636858D01*
X638524Y163444D02*
X641856D01*
X646854Y168443D02*
X646022Y169276D01*
X644355D01*
X643522Y168443D01*
Y167610D01*
X644355Y166777D01*
X646022D01*
X646854Y165944D01*
Y165110D01*
X646022Y164277D01*
X644355D01*
X643522Y165110D01*
X648521Y169276D02*
X650187D01*
X649354D01*
Y164277D01*
X648521D01*
X650187D01*
X652686Y169276D02*
X656018D01*
Y168443D01*
X652686Y165110D01*
Y164277D01*
X656018D01*
X661017Y169276D02*
X657684D01*
Y164277D01*
X661017D01*
X657684Y166777D02*
X659350D01*
X662683Y167610D02*
X663516D01*
Y166777D01*
X662683D01*
Y167610D01*
Y165110D02*
X663516D01*
Y164277D01*
X662683D01*
Y165110D01*
X666848Y163444D02*
X670180D01*
X671846Y168443D02*
X672680Y169276D01*
X674346D01*
X675179Y168443D01*
Y167610D01*
X674346Y166777D01*
X673513D01*
X674346D01*
X675179Y165944D01*
Y165110D01*
X674346Y164277D01*
X672680D01*
X671846Y165110D01*
X676845Y164277D02*
Y165110D01*
X677678D01*
Y164277D01*
X676845D01*
X681010Y168443D02*
X681843Y169276D01*
X683509D01*
X684342Y168443D01*
Y165110D01*
X683509Y164277D01*
X681843D01*
X681010Y165110D01*
Y168443D01*
X686009Y163444D02*
X689341D01*
X691007Y164277D02*
Y169276D01*
X692673Y167610D01*
X694339Y169276D01*
Y164277D01*
X696005D02*
Y169276D01*
X697671Y167610D01*
X699337Y169276D01*
Y164277D01*
X701837Y163444D02*
X702670Y164277D01*
Y165110D01*
X701837D01*
Y164277D01*
X702670D01*
X701837Y163444D01*
X701004Y162611D01*
X706002Y163444D02*
X709334D01*
X711000Y169276D02*
X714333D01*
X712667D01*
Y164277D01*
X718498Y169276D02*
X716832D01*
X715999Y168443D01*
Y165110D01*
X716832Y164277D01*
X718498D01*
X719331Y165110D01*
Y168443D01*
X718498Y169276D01*
X720997D02*
Y164277D01*
X724329D01*
X729328Y169276D02*
X725996D01*
Y164277D01*
X729328D01*
X725996Y166777D02*
X727662D01*
X730994Y164277D02*
Y169276D01*
X733493D01*
X734326Y168443D01*
Y166777D01*
X733493Y165944D01*
X730994D01*
X732660D02*
X734326Y164277D01*
X735992D02*
Y167610D01*
X737658Y169276D01*
X739325Y167610D01*
Y164277D01*
Y166777D01*
X735992D01*
X740991Y164277D02*
Y169276D01*
X744323Y164277D01*
Y169276D01*
X749321Y168443D02*
X748488Y169276D01*
X746822D01*
X745989Y168443D01*
Y165110D01*
X746822Y164277D01*
X748488D01*
X749321Y165110D01*
X754320Y169276D02*
X750987D01*
Y164277D01*
X754320D01*
X750987Y166777D02*
X752654D01*
X755986Y167610D02*
X756819D01*
Y166777D01*
X755986D01*
Y167610D01*
Y165110D02*
X756819D01*
Y164277D01*
X755986D01*
Y165110D01*
X760151Y163444D02*
X763483D01*
X765149Y166777D02*
X768482D01*
X766816Y168443D02*
Y165110D01*
X770148Y168443D02*
X770981Y169276D01*
X772647D01*
X773480Y168443D01*
Y165110D01*
X772647Y164277D01*
X770981D01*
X770148Y165110D01*
Y168443D01*
X775146Y164277D02*
Y165110D01*
X775979D01*
Y164277D01*
X775146D01*
X779312Y168443D02*
X780145Y169276D01*
X781811D01*
X782644Y168443D01*
Y165110D01*
X781811Y164277D01*
X780145D01*
X779312Y165110D01*
Y168443D01*
X787642Y169276D02*
X784310D01*
Y166777D01*
X785976Y167610D01*
X786809D01*
X787642Y166777D01*
Y165110D01*
X786809Y164277D01*
X785143D01*
X784310Y165110D01*
X789308Y164277D02*
X792641Y167610D01*
X794307Y166777D02*
X797639D01*
X799305Y168443D02*
X800138Y169276D01*
X801804D01*
X802637Y168443D01*
Y165110D01*
X801804Y164277D01*
X800138D01*
X799305Y165110D01*
Y168443D01*
X804303Y164277D02*
Y165110D01*
X805137D01*
Y164277D01*
X804303D01*
X808469Y168443D02*
X809302Y169276D01*
X810968D01*
X811801Y168443D01*
Y165110D01*
X810968Y164277D01*
X809302D01*
X808469Y165110D01*
Y168443D01*
X816800Y169276D02*
X813467D01*
Y166777D01*
X815133Y167610D01*
X815966D01*
X816800Y166777D01*
Y165110D01*
X815966Y164277D01*
X814300D01*
X813467Y165110D01*
X577165Y125908D02*
Y130906D01*
X579665D01*
X580498Y130073D01*
Y128407D01*
X579665Y127574D01*
X577165D01*
X582164Y130906D02*
X585496D01*
X583830D01*
Y125908D01*
X587162Y130906D02*
Y125908D01*
Y128407D01*
X590494D01*
Y130906D01*
Y125908D01*
X592160Y125075D02*
X595493D01*
X597159Y130906D02*
Y125908D01*
X599658D01*
X600491Y126741D01*
Y130073D01*
X599658Y130906D01*
X597159D01*
X602157Y125908D02*
Y130906D01*
X604656D01*
X605489Y130073D01*
Y128407D01*
X604656Y127574D01*
X602157D01*
X603823D02*
X605489Y125908D01*
X607156Y130906D02*
X608822D01*
X607989D01*
Y125908D01*
X607156D01*
X608822D01*
X611321Y130906D02*
Y125908D01*
X614653D01*
X616319Y130906D02*
Y125908D01*
X619652D01*
X621318Y125075D02*
X624650D01*
X629648Y130073D02*
X628815Y130906D01*
X627149D01*
X626316Y130073D01*
Y129240D01*
X627149Y128407D01*
X628815D01*
X629648Y127574D01*
Y126741D01*
X628815Y125908D01*
X627149D01*
X626316Y126741D01*
X631314Y130906D02*
X632981D01*
X632148D01*
Y125908D01*
X631314D01*
X632981D01*
X635480Y130906D02*
X638812D01*
Y130073D01*
X635480Y126741D01*
Y125908D01*
X638812D01*
X643810Y130906D02*
X640478D01*
Y125908D01*
X643810D01*
X640478Y128407D02*
X642144D01*
X645476Y129240D02*
X646310D01*
Y128407D01*
X645476D01*
Y129240D01*
Y126741D02*
X646310D01*
Y125908D01*
X645476D01*
Y126741D01*
X649642Y125075D02*
X652974D01*
X654640Y125908D02*
X656306D01*
X655473D01*
Y130906D01*
X654640Y130073D01*
X658806Y125908D02*
Y126741D01*
X659639D01*
Y125908D01*
X658806D01*
X662971Y130073D02*
X663804Y130906D01*
X665470D01*
X666303Y130073D01*
Y126741D01*
X665470Y125908D01*
X663804D01*
X662971Y126741D01*
Y130073D01*
X671302Y125908D02*
X667969D01*
X671302Y129240D01*
Y130073D01*
X670468Y130906D01*
X668802D01*
X667969Y130073D01*
X672968Y125075D02*
X676300D01*
X677966Y125908D02*
Y130906D01*
X679632Y129240D01*
X681298Y130906D01*
Y125908D01*
X682964D02*
Y130906D01*
X684630Y129240D01*
X686297Y130906D01*
Y125908D01*
X688796Y125075D02*
X689629Y125908D01*
Y126741D01*
X688796D01*
Y125908D01*
X689629D01*
X688796Y125075D01*
X687963Y124242D01*
X692961Y125075D02*
X696293D01*
X697960Y130906D02*
X701292D01*
X699626D01*
Y125908D01*
X705457Y130906D02*
X703791D01*
X702958Y130073D01*
Y126741D01*
X703791Y125908D01*
X705457D01*
X706290Y126741D01*
Y130073D01*
X705457Y130906D01*
X707956D02*
Y125908D01*
X711288D01*
X716287Y130906D02*
X712955D01*
Y125908D01*
X716287D01*
X712955Y128407D02*
X714621D01*
X717953Y125908D02*
Y130906D01*
X720452D01*
X721285Y130073D01*
Y128407D01*
X720452Y127574D01*
X717953D01*
X719619D02*
X721285Y125908D01*
X722951D02*
Y129240D01*
X724617Y130906D01*
X726284Y129240D01*
Y125908D01*
Y128407D01*
X722951D01*
X727950Y125908D02*
Y130906D01*
X731282Y125908D01*
Y130906D01*
X736280Y130073D02*
X735447Y130906D01*
X733781D01*
X732948Y130073D01*
Y126741D01*
X733781Y125908D01*
X735447D01*
X736280Y126741D01*
X741279Y130906D02*
X737947D01*
Y125908D01*
X741279D01*
X737947Y128407D02*
X739613D01*
X742945Y129240D02*
X743778D01*
Y128407D01*
X742945D01*
Y129240D01*
Y126741D02*
X743778D01*
Y125908D01*
X742945D01*
Y126741D01*
X747110Y125075D02*
X750443D01*
X752109Y128407D02*
X755441D01*
X753775Y130073D02*
Y126741D01*
X757107Y130073D02*
X757940Y130906D01*
X759606D01*
X760439Y130073D01*
Y126741D01*
X759606Y125908D01*
X757940D01*
X757107Y126741D01*
Y130073D01*
X762105Y125908D02*
Y126741D01*
X762938D01*
Y125908D01*
X762105D01*
X766271Y130073D02*
X767104Y130906D01*
X768770D01*
X769603Y130073D01*
Y126741D01*
X768770Y125908D01*
X767104D01*
X766271Y126741D01*
Y130073D01*
X774601Y130906D02*
X771269D01*
Y128407D01*
X772935Y129240D01*
X773768D01*
X774601Y128407D01*
Y126741D01*
X773768Y125908D01*
X772102D01*
X771269Y126741D01*
X776267Y125908D02*
X779600Y129240D01*
X781266Y128407D02*
X784598D01*
X786264Y130073D02*
X787097Y130906D01*
X788763D01*
X789597Y130073D01*
Y126741D01*
X788763Y125908D01*
X787097D01*
X786264Y126741D01*
Y130073D01*
X791263Y125908D02*
Y126741D01*
X792096D01*
Y125908D01*
X791263D01*
X795428Y130073D02*
X796261Y130906D01*
X797927D01*
X798760Y130073D01*
Y126741D01*
X797927Y125908D01*
X796261D01*
X795428Y126741D01*
Y130073D01*
X803759Y130906D02*
X800426D01*
Y128407D01*
X802092Y129240D01*
X802925D01*
X803759Y128407D01*
Y126741D01*
X802925Y125908D01*
X801259D01*
X800426Y126741D01*
X570866Y107874D02*
Y112872D01*
X574198Y107874D01*
Y112872D01*
X575865Y107874D02*
Y112872D01*
X578364D01*
X579197Y112039D01*
Y110373D01*
X578364Y109540D01*
X575865D01*
X580863Y112872D02*
X584195D01*
X582529D01*
Y107874D01*
X585861Y112872D02*
Y107874D01*
Y110373D01*
X589193D01*
Y112872D01*
Y107874D01*
X590860Y107041D02*
X594192D01*
X595858Y112872D02*
Y107874D01*
X598357D01*
X599190Y108707D01*
Y112039D01*
X598357Y112872D01*
X595858D01*
X600856Y107874D02*
Y112872D01*
X603356D01*
X604189Y112039D01*
Y110373D01*
X603356Y109540D01*
X600856D01*
X602523D02*
X604189Y107874D01*
X605855Y112872D02*
X607521D01*
X606688D01*
Y107874D01*
X605855D01*
X607521D01*
X610020Y112872D02*
Y107874D01*
X613352D01*
X615019Y112872D02*
Y107874D01*
X618351D01*
X620017Y107041D02*
X623349D01*
X628347Y112039D02*
X627515Y112872D01*
X625848D01*
X625015Y112039D01*
Y111206D01*
X625848Y110373D01*
X627515D01*
X628347Y109540D01*
Y108707D01*
X627515Y107874D01*
X625848D01*
X625015Y108707D01*
X630014Y112872D02*
X631680D01*
X630847D01*
Y107874D01*
X630014D01*
X631680D01*
X634179Y112872D02*
X637511D01*
Y112039D01*
X634179Y108707D01*
Y107874D01*
X637511D01*
X642510Y112872D02*
X639177D01*
Y107874D01*
X642510D01*
X639177Y110373D02*
X640843D01*
X644176Y111206D02*
X645009D01*
Y110373D01*
X644176D01*
Y111206D01*
Y108707D02*
X645009D01*
Y107874D01*
X644176D01*
Y108707D01*
X648341Y107041D02*
X651673D01*
X653339Y112039D02*
X654173Y112872D01*
X655839D01*
X656672Y112039D01*
Y111206D01*
X655839Y110373D01*
X655006D01*
X655839D01*
X656672Y109540D01*
Y108707D01*
X655839Y107874D01*
X654173D01*
X653339Y108707D01*
X658338Y107874D02*
Y108707D01*
X659171D01*
Y107874D01*
X658338D01*
X662503Y112039D02*
X663336Y112872D01*
X665002D01*
X665835Y112039D01*
Y108707D01*
X665002Y107874D01*
X663336D01*
X662503Y108707D01*
Y112039D01*
X667501Y107041D02*
X670834D01*
X672500Y107874D02*
Y112872D01*
X674166Y111206D01*
X675832Y112872D01*
Y107874D01*
X677498D02*
Y112872D01*
X679164Y111206D01*
X680830Y112872D01*
Y107874D01*
X683330Y107041D02*
X684163Y107874D01*
Y108707D01*
X683330D01*
Y107874D01*
X684163D01*
X683330Y107041D01*
X682497Y106208D01*
X687495Y107041D02*
X690827D01*
X692493Y112872D02*
X695826D01*
X694160D01*
Y107874D01*
X699991Y112872D02*
X698325D01*
X697492Y112039D01*
Y108707D01*
X698325Y107874D01*
X699991D01*
X700824Y108707D01*
Y112039D01*
X699991Y112872D01*
X702490D02*
Y107874D01*
X705822D01*
X710821Y112872D02*
X707488D01*
Y107874D01*
X710821D01*
X707488Y110373D02*
X709155D01*
X712487Y107874D02*
Y112872D01*
X714986D01*
X715819Y112039D01*
Y110373D01*
X714986Y109540D01*
X712487D01*
X714153D02*
X715819Y107874D01*
X717485D02*
Y111206D01*
X719151Y112872D01*
X720818Y111206D01*
Y107874D01*
Y110373D01*
X717485D01*
X722484Y107874D02*
Y112872D01*
X725816Y107874D01*
Y112872D01*
X730814Y112039D02*
X729981Y112872D01*
X728315D01*
X727482Y112039D01*
Y108707D01*
X728315Y107874D01*
X729981D01*
X730814Y108707D01*
X735813Y112872D02*
X732480D01*
Y107874D01*
X735813D01*
X732480Y110373D02*
X734147D01*
X737479Y111206D02*
X738312D01*
Y110373D01*
X737479D01*
Y111206D01*
Y108707D02*
X738312D01*
Y107874D01*
X737479D01*
Y108707D01*
X741644Y107041D02*
X744976D01*
X746642Y110373D02*
X749975D01*
X748309Y112039D02*
Y108707D01*
X751641Y112039D02*
X752474Y112872D01*
X754140D01*
X754973Y112039D01*
Y108707D01*
X754140Y107874D01*
X752474D01*
X751641Y108707D01*
Y112039D01*
X756639Y107874D02*
Y108707D01*
X757472D01*
Y107874D01*
X756639D01*
X760805Y112039D02*
X761638Y112872D01*
X763304D01*
X764137Y112039D01*
Y108707D01*
X763304Y107874D01*
X761638D01*
X760805Y108707D01*
Y112039D01*
X769135Y112872D02*
X765803D01*
Y110373D01*
X767469Y111206D01*
X768302D01*
X769135Y110373D01*
Y108707D01*
X768302Y107874D01*
X766636D01*
X765803Y108707D01*
X770801Y107874D02*
X774134Y111206D01*
X775800Y110373D02*
X779132D01*
X780798Y112039D02*
X781631Y112872D01*
X783297D01*
X784130Y112039D01*
Y108707D01*
X783297Y107874D01*
X781631D01*
X780798Y108707D01*
Y112039D01*
X785796Y107874D02*
Y108707D01*
X786630D01*
Y107874D01*
X785796D01*
X789962Y112039D02*
X790795Y112872D01*
X792461D01*
X793294Y112039D01*
Y108707D01*
X792461Y107874D01*
X790795D01*
X789962Y108707D01*
Y112039D01*
X798292Y112872D02*
X794960D01*
Y110373D01*
X796626Y111206D01*
X797459D01*
X798292Y110373D01*
Y108707D01*
X797459Y107874D01*
X795793D01*
X794960Y108707D01*
X554939Y139294D02*
Y144292D01*
X557438D01*
X558271Y143459D01*
Y141793D01*
X557438Y140960D01*
X554939D01*
X559937Y144292D02*
X563270D01*
X561604D01*
Y139294D01*
X564936Y144292D02*
Y139294D01*
Y141793D01*
X568268D01*
Y144292D01*
Y139294D01*
X569934Y138461D02*
X573267D01*
X574933Y144292D02*
Y139294D01*
X577432D01*
X578265Y140127D01*
Y143459D01*
X577432Y144292D01*
X574933D01*
X579931Y139294D02*
Y144292D01*
X582430D01*
X583263Y143459D01*
Y141793D01*
X582430Y140960D01*
X579931D01*
X581597D02*
X583263Y139294D01*
X584929Y144292D02*
X586595D01*
X585762D01*
Y139294D01*
X584929D01*
X586595D01*
X589095Y144292D02*
Y139294D01*
X592427D01*
X594093Y144292D02*
Y139294D01*
X597425D01*
X599091Y138461D02*
X602424D01*
X607422Y143459D02*
X606589Y144292D01*
X604923D01*
X604090Y143459D01*
Y142626D01*
X604923Y141793D01*
X606589D01*
X607422Y140960D01*
Y140127D01*
X606589Y139294D01*
X604923D01*
X604090Y140127D01*
X609088Y144292D02*
X610754D01*
X609921D01*
Y139294D01*
X609088D01*
X610754D01*
X613253Y144292D02*
X616586D01*
Y143459D01*
X613253Y140127D01*
Y139294D01*
X616586D01*
X621584Y144292D02*
X618252D01*
Y139294D01*
X621584D01*
X618252Y141793D02*
X619918D01*
X623250Y142626D02*
X624083D01*
Y141793D01*
X623250D01*
Y142626D01*
Y140127D02*
X624083D01*
Y139294D01*
X623250D01*
Y140127D01*
X627416Y138461D02*
X630748D01*
X632414Y139294D02*
X634080D01*
X633247D01*
Y144292D01*
X632414Y143459D01*
X636579Y139294D02*
Y140127D01*
X637412D01*
Y139294D01*
X636579D01*
X640745Y143459D02*
X641578Y144292D01*
X643244D01*
X644077Y143459D01*
Y140127D01*
X643244Y139294D01*
X641578D01*
X640745Y140127D01*
Y143459D01*
X649075Y139294D02*
X645743D01*
X649075Y142626D01*
Y143459D01*
X648242Y144292D01*
X646576D01*
X645743Y143459D01*
X650741Y138461D02*
X654074D01*
X655740Y139294D02*
Y144292D01*
X657406Y142626D01*
X659072Y144292D01*
Y139294D01*
X660738D02*
Y144292D01*
X662404Y142626D01*
X664070Y144292D01*
Y139294D01*
X666570Y138461D02*
X667403Y139294D01*
Y140127D01*
X666570D01*
Y139294D01*
X667403D01*
X666570Y138461D01*
X665736Y137628D01*
X670735Y138461D02*
X674067D01*
X675733Y144292D02*
X679066D01*
X677399D01*
Y139294D01*
X683231Y144292D02*
X681565D01*
X680732Y143459D01*
Y140127D01*
X681565Y139294D01*
X683231D01*
X684064Y140127D01*
Y143459D01*
X683231Y144292D01*
X685730D02*
Y139294D01*
X689062D01*
X694061Y144292D02*
X690728D01*
Y139294D01*
X694061D01*
X690728Y141793D02*
X692395D01*
X695727Y139294D02*
Y144292D01*
X698226D01*
X699059Y143459D01*
Y141793D01*
X698226Y140960D01*
X695727D01*
X697393D02*
X699059Y139294D01*
X700725D02*
Y142626D01*
X702391Y144292D01*
X704058Y142626D01*
Y139294D01*
Y141793D01*
X700725D01*
X705724Y139294D02*
Y144292D01*
X709056Y139294D01*
Y144292D01*
X714054Y143459D02*
X713221Y144292D01*
X711555D01*
X710722Y143459D01*
Y140127D01*
X711555Y139294D01*
X713221D01*
X714054Y140127D01*
X719053Y144292D02*
X715720D01*
Y139294D01*
X719053D01*
X715720Y141793D02*
X717386D01*
X720719Y142626D02*
X721552D01*
Y141793D01*
X720719D01*
Y142626D01*
Y140127D02*
X721552D01*
Y139294D01*
X720719D01*
Y140127D01*
X724884Y138461D02*
X728216D01*
X729882Y141793D02*
X733215D01*
X731549Y143459D02*
Y140127D01*
X734881Y143459D02*
X735714Y144292D01*
X737380D01*
X738213Y143459D01*
Y140127D01*
X737380Y139294D01*
X735714D01*
X734881Y140127D01*
Y143459D01*
X739879Y139294D02*
Y140127D01*
X740712D01*
Y139294D01*
X739879D01*
X744044Y143459D02*
X744878Y144292D01*
X746544D01*
X747377Y143459D01*
Y140127D01*
X746544Y139294D01*
X744878D01*
X744044Y140127D01*
Y143459D01*
X752375Y144292D02*
X749043D01*
Y141793D01*
X750709Y142626D01*
X751542D01*
X752375Y141793D01*
Y140127D01*
X751542Y139294D01*
X749876D01*
X749043Y140127D01*
X754041Y139294D02*
X757374Y142626D01*
X759040Y141793D02*
X762372D01*
X764038Y143459D02*
X764871Y144292D01*
X766537D01*
X767370Y143459D01*
Y140127D01*
X766537Y139294D01*
X764871D01*
X764038Y140127D01*
Y143459D01*
X769036Y139294D02*
Y140127D01*
X769870D01*
Y139294D01*
X769036D01*
X773202Y143459D02*
X774035Y144292D01*
X775701D01*
X776534Y143459D01*
Y140127D01*
X775701Y139294D01*
X774035D01*
X773202Y140127D01*
Y143459D01*
X781532Y144292D02*
X778200D01*
Y141793D01*
X779866Y142626D01*
X780699D01*
X781532Y141793D01*
Y140127D01*
X780699Y139294D01*
X779033D01*
X778200Y140127D01*
X494130Y126695D02*
Y131694D01*
X497463Y126695D01*
Y131694D01*
X499129Y126695D02*
Y131694D01*
X501628D01*
X502461Y130861D01*
Y129194D01*
X501628Y128361D01*
X499129D01*
X504127Y131694D02*
X507459D01*
X505793D01*
Y126695D01*
X509125Y131694D02*
Y126695D01*
Y129194D01*
X512458D01*
Y131694D01*
Y126695D01*
X514124Y125862D02*
X517456D01*
X519122Y131694D02*
Y126695D01*
X521621D01*
X522454Y127528D01*
Y130861D01*
X521621Y131694D01*
X519122D01*
X524121Y126695D02*
Y131694D01*
X526620D01*
X527453Y130861D01*
Y129194D01*
X526620Y128361D01*
X524121D01*
X525787D02*
X527453Y126695D01*
X529119Y131694D02*
X530785D01*
X529952D01*
Y126695D01*
X529119D01*
X530785D01*
X533284Y131694D02*
Y126695D01*
X536617D01*
X538283Y131694D02*
Y126695D01*
X541615D01*
X543281Y125862D02*
X546613D01*
X551612Y130861D02*
X550778Y131694D01*
X549112D01*
X548279Y130861D01*
Y130027D01*
X549112Y129194D01*
X550778D01*
X551612Y128361D01*
Y127528D01*
X550778Y126695D01*
X549112D01*
X548279Y127528D01*
X553278Y131694D02*
X554944D01*
X554111D01*
Y126695D01*
X553278D01*
X554944D01*
X557443Y131694D02*
X560775D01*
Y130861D01*
X557443Y127528D01*
Y126695D01*
X560775D01*
X565774Y131694D02*
X562441D01*
Y126695D01*
X565774D01*
X562441Y129194D02*
X564108D01*
X567440Y130027D02*
X568273D01*
Y129194D01*
X567440D01*
Y130027D01*
Y127528D02*
X568273D01*
Y126695D01*
X567440D01*
Y127528D01*
X571605Y125862D02*
X574937D01*
X576604Y130861D02*
X577437Y131694D01*
X579103D01*
X579936Y130861D01*
Y130027D01*
X579103Y129194D01*
X578270D01*
X579103D01*
X579936Y128361D01*
Y127528D01*
X579103Y126695D01*
X577437D01*
X576604Y127528D01*
X581602Y126695D02*
Y127528D01*
X582435D01*
Y126695D01*
X581602D01*
X585767Y130861D02*
X586600Y131694D01*
X588266D01*
X589100Y130861D01*
Y127528D01*
X588266Y126695D01*
X586600D01*
X585767Y127528D01*
Y130861D01*
X590766Y125862D02*
X594098D01*
X595764Y126695D02*
Y131694D01*
X597430Y130027D01*
X599096Y131694D01*
Y126695D01*
X600762D02*
Y131694D01*
X602428Y130027D01*
X604095Y131694D01*
Y126695D01*
X606594Y125862D02*
X607427Y126695D01*
Y127528D01*
X606594D01*
Y126695D01*
X607427D01*
X606594Y125862D01*
X605761Y125029D01*
X610759Y125862D02*
X614091D01*
X615758Y131694D02*
X619090D01*
X617424D01*
Y126695D01*
X623255Y131694D02*
X621589D01*
X620756Y130861D01*
Y127528D01*
X621589Y126695D01*
X623255D01*
X624088Y127528D01*
Y130861D01*
X623255Y131694D01*
X625754D02*
Y126695D01*
X629086D01*
X634085Y131694D02*
X630753D01*
Y126695D01*
X634085D01*
X630753Y129194D02*
X632419D01*
X635751Y126695D02*
Y131694D01*
X638250D01*
X639083Y130861D01*
Y129194D01*
X638250Y128361D01*
X635751D01*
X637417D02*
X639083Y126695D01*
X640749D02*
Y130027D01*
X642416Y131694D01*
X644082Y130027D01*
Y126695D01*
Y129194D01*
X640749D01*
X645748Y126695D02*
Y131694D01*
X649080Y126695D01*
Y131694D01*
X654078Y130861D02*
X653245Y131694D01*
X651579D01*
X650746Y130861D01*
Y127528D01*
X651579Y126695D01*
X653245D01*
X654078Y127528D01*
X659077Y131694D02*
X655745D01*
Y126695D01*
X659077D01*
X655745Y129194D02*
X657411D01*
X660743Y130027D02*
X661576D01*
Y129194D01*
X660743D01*
Y130027D01*
Y127528D02*
X661576D01*
Y126695D01*
X660743D01*
Y127528D01*
X664908Y125862D02*
X668240D01*
X669907Y129194D02*
X673239D01*
X671573Y130861D02*
Y127528D01*
X674905Y130861D02*
X675738Y131694D01*
X677404D01*
X678237Y130861D01*
Y127528D01*
X677404Y126695D01*
X675738D01*
X674905Y127528D01*
Y130861D01*
X679903Y126695D02*
Y127528D01*
X680736D01*
Y126695D01*
X679903D01*
X684069Y130861D02*
X684902Y131694D01*
X686568D01*
X687401Y130861D01*
Y127528D01*
X686568Y126695D01*
X684902D01*
X684069Y127528D01*
Y130861D01*
X692399Y131694D02*
X689067D01*
Y129194D01*
X690733Y130027D01*
X691566D01*
X692399Y129194D01*
Y127528D01*
X691566Y126695D01*
X689900D01*
X689067Y127528D01*
X694066Y126695D02*
X697398Y130027D01*
X699064Y129194D02*
X702396D01*
X704062Y130861D02*
X704895Y131694D01*
X706561D01*
X707395Y130861D01*
Y127528D01*
X706561Y126695D01*
X704895D01*
X704062Y127528D01*
Y130861D01*
X709061Y126695D02*
Y127528D01*
X709894D01*
Y126695D01*
X709061D01*
X713226Y130861D02*
X714059Y131694D01*
X715725D01*
X716558Y130861D01*
Y127528D01*
X715725Y126695D01*
X714059D01*
X713226Y127528D01*
Y130861D01*
X721557Y131694D02*
X718224D01*
Y129194D01*
X719890Y130027D01*
X720723D01*
X721557Y129194D01*
Y127528D01*
X720723Y126695D01*
X719057D01*
X718224Y127528D01*
X562205Y91732D02*
Y96731D01*
X564704D01*
X565537Y95898D01*
Y94231D01*
X564704Y93398D01*
X562205D01*
X567203Y96731D02*
X570535D01*
X568869D01*
Y91732D01*
X572201Y96731D02*
Y91732D01*
Y94231D01*
X575534D01*
Y96731D01*
Y91732D01*
X577200Y90899D02*
X580532D01*
X582198Y96731D02*
Y91732D01*
X584697D01*
X585531Y92565D01*
Y95898D01*
X584697Y96731D01*
X582198D01*
X587197Y91732D02*
Y96731D01*
X589696D01*
X590529Y95898D01*
Y94231D01*
X589696Y93398D01*
X587197D01*
X588863D02*
X590529Y91732D01*
X592195Y96731D02*
X593861D01*
X593028D01*
Y91732D01*
X592195D01*
X593861D01*
X596360Y96731D02*
Y91732D01*
X599693D01*
X601359Y96731D02*
Y91732D01*
X604691D01*
X606357Y90899D02*
X609689D01*
X614688Y95898D02*
X613855Y96731D01*
X612188D01*
X611355Y95898D01*
Y95065D01*
X612188Y94231D01*
X613855D01*
X614688Y93398D01*
Y92565D01*
X613855Y91732D01*
X612188D01*
X611355Y92565D01*
X616354Y96731D02*
X618020D01*
X617187D01*
Y91732D01*
X616354D01*
X618020D01*
X620519Y96731D02*
X623851D01*
Y95898D01*
X620519Y92565D01*
Y91732D01*
X623851D01*
X628850Y96731D02*
X625518D01*
Y91732D01*
X628850D01*
X625518Y94231D02*
X627184D01*
X630516Y95065D02*
X631349D01*
Y94231D01*
X630516D01*
Y95065D01*
Y92565D02*
X631349D01*
Y91732D01*
X630516D01*
Y92565D01*
X634681Y90899D02*
X638014D01*
X639680Y91732D02*
X641346D01*
X640513D01*
Y96731D01*
X639680Y95898D01*
X643845Y91732D02*
Y92565D01*
X644678D01*
Y91732D01*
X643845D01*
X648010Y95898D02*
X648843Y96731D01*
X650510D01*
X651342Y95898D01*
Y92565D01*
X650510Y91732D01*
X648843D01*
X648010Y92565D01*
Y95898D01*
X656341Y91732D02*
X653009D01*
X656341Y95065D01*
Y95898D01*
X655508Y96731D01*
X653842D01*
X653009Y95898D01*
X658007Y90899D02*
X661339D01*
X663005Y91732D02*
Y96731D01*
X664672Y95065D01*
X666338Y96731D01*
Y91732D01*
X668004D02*
Y96731D01*
X669670Y95065D01*
X671336Y96731D01*
Y91732D01*
X673835Y90899D02*
X674668Y91732D01*
Y92565D01*
X673835D01*
Y91732D01*
X674668D01*
X673835Y90899D01*
X673002Y90066D01*
X678000Y90899D02*
X681333D01*
X682999Y96731D02*
X686331D01*
X684665D01*
Y91732D01*
X690496Y96731D02*
X688830D01*
X687997Y95898D01*
Y92565D01*
X688830Y91732D01*
X690496D01*
X691330Y92565D01*
Y95898D01*
X690496Y96731D01*
X692996D02*
Y91732D01*
X696328D01*
X701326Y96731D02*
X697994D01*
Y91732D01*
X701326D01*
X697994Y94231D02*
X699660D01*
X702992Y91732D02*
Y96731D01*
X705492D01*
X706325Y95898D01*
Y94231D01*
X705492Y93398D01*
X702992D01*
X704659D02*
X706325Y91732D01*
X707991D02*
Y95065D01*
X709657Y96731D01*
X711323Y95065D01*
Y91732D01*
Y94231D01*
X707991D01*
X712989Y91732D02*
Y96731D01*
X716322Y91732D01*
Y96731D01*
X721320Y95898D02*
X720487Y96731D01*
X718821D01*
X717988Y95898D01*
Y92565D01*
X718821Y91732D01*
X720487D01*
X721320Y92565D01*
X726318Y96731D02*
X722986D01*
Y91732D01*
X726318D01*
X722986Y94231D02*
X724652D01*
X727984Y95065D02*
X728817D01*
Y94231D01*
X727984D01*
Y95065D01*
Y92565D02*
X728817D01*
Y91732D01*
X727984D01*
Y92565D01*
X732150Y90899D02*
X735482D01*
X737148Y94231D02*
X740480D01*
X738814Y95898D02*
Y92565D01*
X742146Y95898D02*
X742979Y96731D01*
X744646D01*
X745479Y95898D01*
Y92565D01*
X744646Y91732D01*
X742979D01*
X742146Y92565D01*
Y95898D01*
X747145Y91732D02*
Y92565D01*
X747978D01*
Y91732D01*
X747145D01*
X751310Y95898D02*
X752143Y96731D01*
X753809D01*
X754642Y95898D01*
Y92565D01*
X753809Y91732D01*
X752143D01*
X751310Y92565D01*
Y95898D01*
X759641Y96731D02*
X756309D01*
Y94231D01*
X757975Y95065D01*
X758808D01*
X759641Y94231D01*
Y92565D01*
X758808Y91732D01*
X757142D01*
X756309Y92565D01*
X761307Y91732D02*
X764639Y95065D01*
X766305Y94231D02*
X769637D01*
X771304Y95898D02*
X772137Y96731D01*
X773803D01*
X774636Y95898D01*
Y92565D01*
X773803Y91732D01*
X772137D01*
X771304Y92565D01*
Y95898D01*
X776302Y91732D02*
Y92565D01*
X777135D01*
Y91732D01*
X776302D01*
X780467Y95898D02*
X781300Y96731D01*
X782967D01*
X783800Y95898D01*
Y92565D01*
X782967Y91732D01*
X781300D01*
X780467Y92565D01*
Y95898D01*
X788798Y96731D02*
X785466D01*
Y94231D01*
X787132Y95065D01*
X787965D01*
X788798Y94231D01*
Y92565D01*
X787965Y91732D01*
X786299D01*
X785466Y92565D01*
X420938Y95987D02*
Y100985D01*
X424270Y95987D01*
Y100985D01*
X425936Y95987D02*
Y100985D01*
X428435D01*
X429268Y100152D01*
Y98486D01*
X428435Y97653D01*
X425936D01*
X430934Y100985D02*
X434267D01*
X432601D01*
Y95987D01*
X435933Y100985D02*
Y95987D01*
Y98486D01*
X439265D01*
Y100985D01*
Y95987D01*
X440931Y95154D02*
X444264D01*
X445930Y100985D02*
Y95987D01*
X448429D01*
X449262Y96820D01*
Y100152D01*
X448429Y100985D01*
X445930D01*
X450928Y95987D02*
Y100985D01*
X453427D01*
X454260Y100152D01*
Y98486D01*
X453427Y97653D01*
X450928D01*
X452594D02*
X454260Y95987D01*
X455926Y100985D02*
X457592D01*
X456759D01*
Y95987D01*
X455926D01*
X457592D01*
X460092Y100985D02*
Y95987D01*
X463424D01*
X465090Y100985D02*
Y95987D01*
X468422D01*
X470088Y95154D02*
X473421D01*
X478419Y100152D02*
X477586Y100985D01*
X475920D01*
X475087Y100152D01*
Y99319D01*
X475920Y98486D01*
X477586D01*
X478419Y97653D01*
Y96820D01*
X477586Y95987D01*
X475920D01*
X475087Y96820D01*
X480085Y100985D02*
X481751D01*
X480918D01*
Y95987D01*
X480085D01*
X481751D01*
X484250Y100985D02*
X487583D01*
Y100152D01*
X484250Y96820D01*
Y95987D01*
X487583D01*
X492581Y100985D02*
X489249D01*
Y95987D01*
X492581D01*
X489249Y98486D02*
X490915D01*
X494247Y99319D02*
X495080D01*
Y98486D01*
X494247D01*
Y99319D01*
Y96820D02*
X495080D01*
Y95987D01*
X494247D01*
Y96820D01*
X498413Y95154D02*
X501745D01*
X503411Y100152D02*
X504244Y100985D01*
X505910D01*
X506743Y100152D01*
Y99319D01*
X505910Y98486D01*
X505077D01*
X505910D01*
X506743Y97653D01*
Y96820D01*
X505910Y95987D01*
X504244D01*
X503411Y96820D01*
X508409Y95987D02*
Y96820D01*
X509242D01*
Y95987D01*
X508409D01*
X512575Y100152D02*
X513408Y100985D01*
X515074D01*
X515907Y100152D01*
Y96820D01*
X515074Y95987D01*
X513408D01*
X512575Y96820D01*
Y100152D01*
X517573Y95154D02*
X520905D01*
X522571Y95987D02*
Y100985D01*
X524238Y99319D01*
X525904Y100985D01*
Y95987D01*
X527570D02*
Y100985D01*
X529236Y99319D01*
X530902Y100985D01*
Y95987D01*
X533401Y95154D02*
X534234Y95987D01*
Y96820D01*
X533401D01*
Y95987D01*
X534234D01*
X533401Y95154D01*
X532568Y94320D01*
X537567Y95154D02*
X540899D01*
X542565Y100985D02*
X545897D01*
X544231D01*
Y95987D01*
X550063Y100985D02*
X548396D01*
X547563Y100152D01*
Y96820D01*
X548396Y95987D01*
X550063D01*
X550896Y96820D01*
Y100152D01*
X550063Y100985D01*
X552562D02*
Y95987D01*
X555894D01*
X560892Y100985D02*
X557560D01*
Y95987D01*
X560892D01*
X557560Y98486D02*
X559226D01*
X562559Y95987D02*
Y100985D01*
X565058D01*
X565891Y100152D01*
Y98486D01*
X565058Y97653D01*
X562559D01*
X564225D02*
X565891Y95987D01*
X567557D02*
Y99319D01*
X569223Y100985D01*
X570889Y99319D01*
Y95987D01*
Y98486D01*
X567557D01*
X572555Y95987D02*
Y100985D01*
X575887Y95987D01*
Y100985D01*
X580886Y100152D02*
X580053Y100985D01*
X578387D01*
X577554Y100152D01*
Y96820D01*
X578387Y95987D01*
X580053D01*
X580886Y96820D01*
X585884Y100985D02*
X582552D01*
Y95987D01*
X585884D01*
X582552Y98486D02*
X584218D01*
X587550Y99319D02*
X588383D01*
Y98486D01*
X587550D01*
Y99319D01*
Y96820D02*
X588383D01*
Y95987D01*
X587550D01*
Y96820D01*
X591716Y95154D02*
X595048D01*
X596714Y98486D02*
X600046D01*
X598380Y100152D02*
Y96820D01*
X601712Y100152D02*
X602545Y100985D01*
X604212D01*
X605045Y100152D01*
Y96820D01*
X604212Y95987D01*
X602545D01*
X601712Y96820D01*
Y100152D01*
X606711Y95987D02*
Y96820D01*
X607544D01*
Y95987D01*
X606711D01*
X610876Y100152D02*
X611709Y100985D01*
X613375D01*
X614208Y100152D01*
Y96820D01*
X613375Y95987D01*
X611709D01*
X610876Y96820D01*
Y100152D01*
X619207Y100985D02*
X615874D01*
Y98486D01*
X617541Y99319D01*
X618374D01*
X619207Y98486D01*
Y96820D01*
X618374Y95987D01*
X616708D01*
X615874Y96820D01*
X620873Y95987D02*
X624205Y99319D01*
X625871Y98486D02*
X629204D01*
X630870Y100152D02*
X631703Y100985D01*
X633369D01*
X634202Y100152D01*
Y96820D01*
X633369Y95987D01*
X631703D01*
X630870Y96820D01*
Y100152D01*
X635868Y95987D02*
Y96820D01*
X636701D01*
Y95987D01*
X635868D01*
X640033Y100152D02*
X640866Y100985D01*
X642533D01*
X643366Y100152D01*
Y96820D01*
X642533Y95987D01*
X640866D01*
X640033Y96820D01*
Y100152D01*
X648364Y100985D02*
X645032D01*
Y98486D01*
X646698Y99319D01*
X647531D01*
X648364Y98486D01*
Y96820D01*
X647531Y95987D01*
X645865D01*
X645032Y96820D01*
X407158Y95987D02*
Y100985D01*
X409657D01*
X410490Y100152D01*
Y98486D01*
X409657Y97653D01*
X407158D01*
X412156Y100985D02*
X415489D01*
X413823D01*
Y95987D01*
X417155Y100985D02*
Y95987D01*
Y98486D01*
X420487D01*
Y100985D01*
Y95987D01*
X422153Y95154D02*
X425486D01*
X427152Y100985D02*
Y95987D01*
X429651D01*
X430484Y96820D01*
Y100152D01*
X429651Y100985D01*
X427152D01*
X432150Y95987D02*
Y100985D01*
X434649D01*
X435482Y100152D01*
Y98486D01*
X434649Y97653D01*
X432150D01*
X433816D02*
X435482Y95987D01*
X437148Y100985D02*
X438815D01*
X437982D01*
Y95987D01*
X437148D01*
X438815D01*
X441314Y100985D02*
Y95987D01*
X444646D01*
X446312Y100985D02*
Y95987D01*
X449644D01*
X451310Y95154D02*
X454643D01*
X459641Y100152D02*
X458808Y100985D01*
X457142D01*
X456309Y100152D01*
Y99319D01*
X457142Y98486D01*
X458808D01*
X459641Y97653D01*
Y96820D01*
X458808Y95987D01*
X457142D01*
X456309Y96820D01*
X461307Y100985D02*
X462973D01*
X462140D01*
Y95987D01*
X461307D01*
X462973D01*
X465473Y100985D02*
X468805D01*
Y100152D01*
X465473Y96820D01*
Y95987D01*
X468805D01*
X473803Y100985D02*
X470471D01*
Y95987D01*
X473803D01*
X470471Y98486D02*
X472137D01*
X475469Y99319D02*
X476302D01*
Y98486D01*
X475469D01*
Y99319D01*
Y96820D02*
X476302D01*
Y95987D01*
X475469D01*
Y96820D01*
X479635Y95154D02*
X482967D01*
X484633Y95987D02*
X486299D01*
X485466D01*
Y100985D01*
X484633Y100152D01*
X488798Y95987D02*
Y96820D01*
X489632D01*
Y95987D01*
X488798D01*
X492964Y100152D02*
X493797Y100985D01*
X495463D01*
X496296Y100152D01*
Y96820D01*
X495463Y95987D01*
X493797D01*
X492964Y96820D01*
Y100152D01*
X501294Y95987D02*
X497962D01*
X501294Y99319D01*
Y100152D01*
X500461Y100985D01*
X498795D01*
X497962Y100152D01*
X502960Y95154D02*
X506293D01*
X507959Y95987D02*
Y100985D01*
X509625Y99319D01*
X511291Y100985D01*
Y95987D01*
X512957D02*
Y100985D01*
X514623Y99319D01*
X516290Y100985D01*
Y95987D01*
X518789Y95154D02*
X519622Y95987D01*
Y96820D01*
X518789D01*
Y95987D01*
X519622D01*
X518789Y95154D01*
X517956Y94320D01*
X522954Y95154D02*
X526286D01*
X527952Y100985D02*
X531285D01*
X529619D01*
Y95987D01*
X535450Y100985D02*
X533784D01*
X532951Y100152D01*
Y96820D01*
X533784Y95987D01*
X535450D01*
X536283Y96820D01*
Y100152D01*
X535450Y100985D01*
X537949D02*
Y95987D01*
X541281D01*
X546280Y100985D02*
X542947D01*
Y95987D01*
X546280D01*
X542947Y98486D02*
X544614D01*
X547946Y95987D02*
Y100985D01*
X550445D01*
X551278Y100152D01*
Y98486D01*
X550445Y97653D01*
X547946D01*
X549612D02*
X551278Y95987D01*
X552944D02*
Y99319D01*
X554610Y100985D01*
X556277Y99319D01*
Y95987D01*
Y98486D01*
X552944D01*
X557943Y95987D02*
Y100985D01*
X561275Y95987D01*
Y100985D01*
X566273Y100152D02*
X565440Y100985D01*
X563774D01*
X562941Y100152D01*
Y96820D01*
X563774Y95987D01*
X565440D01*
X566273Y96820D01*
X571272Y100985D02*
X567939D01*
Y95987D01*
X571272D01*
X567939Y98486D02*
X569605D01*
X572938Y99319D02*
X573771D01*
Y98486D01*
X572938D01*
Y99319D01*
Y96820D02*
X573771D01*
Y95987D01*
X572938D01*
Y96820D01*
X577103Y95154D02*
X580435D01*
X582101Y98486D02*
X585434D01*
X583768Y100152D02*
Y96820D01*
X587100Y100152D02*
X587933Y100985D01*
X589599D01*
X590432Y100152D01*
Y96820D01*
X589599Y95987D01*
X587933D01*
X587100Y96820D01*
Y100152D01*
X592098Y95987D02*
Y96820D01*
X592931D01*
Y95987D01*
X592098D01*
X596264Y100152D02*
X597097Y100985D01*
X598763D01*
X599596Y100152D01*
Y96820D01*
X598763Y95987D01*
X597097D01*
X596264Y96820D01*
Y100152D01*
X604594Y100985D02*
X601262D01*
Y98486D01*
X602928Y99319D01*
X603761D01*
X604594Y98486D01*
Y96820D01*
X603761Y95987D01*
X602095D01*
X601262Y96820D01*
X606260Y95987D02*
X609593Y99319D01*
X611259Y98486D02*
X614591D01*
X616257Y100152D02*
X617090Y100985D01*
X618756D01*
X619589Y100152D01*
Y96820D01*
X618756Y95987D01*
X617090D01*
X616257Y96820D01*
Y100152D01*
X621255Y95987D02*
Y96820D01*
X622088D01*
Y95987D01*
X621255D01*
X625421Y100152D02*
X626254Y100985D01*
X627920D01*
X628753Y100152D01*
Y96820D01*
X627920Y95987D01*
X626254D01*
X625421Y96820D01*
Y100152D01*
X633751Y100985D02*
X630419D01*
Y98486D01*
X632085Y99319D01*
X632918D01*
X633751Y98486D01*
Y96820D01*
X632918Y95987D01*
X631252D01*
X630419Y96820D01*
X457731Y103467D02*
Y108465D01*
X461063Y103467D01*
Y108465D01*
X462729Y103467D02*
Y108465D01*
X465228D01*
X466061Y107632D01*
Y105966D01*
X465228Y105133D01*
X462729D01*
X467728Y108465D02*
X471060D01*
X469394D01*
Y103467D01*
X472726Y108465D02*
Y103467D01*
Y105966D01*
X476058D01*
Y108465D01*
Y103467D01*
X477724Y102634D02*
X481057D01*
X482723Y108465D02*
Y103467D01*
X485222D01*
X486055Y104300D01*
Y107632D01*
X485222Y108465D01*
X482723D01*
X487721Y103467D02*
Y108465D01*
X490220D01*
X491053Y107632D01*
Y105966D01*
X490220Y105133D01*
X487721D01*
X489387D02*
X491053Y103467D01*
X492720Y108465D02*
X494386D01*
X493552D01*
Y103467D01*
X492720D01*
X494386D01*
X496885Y108465D02*
Y103467D01*
X500217D01*
X501883Y108465D02*
Y103467D01*
X505215D01*
X506882Y102634D02*
X510214D01*
X515212Y107632D02*
X514379Y108465D01*
X512713D01*
X511880Y107632D01*
Y106799D01*
X512713Y105966D01*
X514379D01*
X515212Y105133D01*
Y104300D01*
X514379Y103467D01*
X512713D01*
X511880Y104300D01*
X516878Y108465D02*
X518544D01*
X517711D01*
Y103467D01*
X516878D01*
X518544D01*
X521044Y108465D02*
X524376D01*
Y107632D01*
X521044Y104300D01*
Y103467D01*
X524376D01*
X529374Y108465D02*
X526042D01*
Y103467D01*
X529374D01*
X526042Y105966D02*
X527708D01*
X531040Y106799D02*
X531874D01*
Y105966D01*
X531040D01*
Y106799D01*
Y104300D02*
X531874D01*
Y103467D01*
X531040D01*
Y104300D01*
X535206Y102634D02*
X538538D01*
X540204Y107632D02*
X541037Y108465D01*
X542703D01*
X543536Y107632D01*
Y106799D01*
X542703Y105966D01*
X541870D01*
X542703D01*
X543536Y105133D01*
Y104300D01*
X542703Y103467D01*
X541037D01*
X540204Y104300D01*
X545202Y103467D02*
Y104300D01*
X546035D01*
Y103467D01*
X545202D01*
X549368Y107632D02*
X550201Y108465D01*
X551867D01*
X552700Y107632D01*
Y104300D01*
X551867Y103467D01*
X550201D01*
X549368Y104300D01*
Y107632D01*
X554366Y102634D02*
X557698D01*
X559365Y103467D02*
Y108465D01*
X561031Y106799D01*
X562697Y108465D01*
Y103467D01*
X564363D02*
Y108465D01*
X566029Y106799D01*
X567695Y108465D01*
Y103467D01*
X570194Y102634D02*
X571028Y103467D01*
Y104300D01*
X570194D01*
Y103467D01*
X571028D01*
X570194Y102634D01*
X569361Y101801D01*
X574360Y102634D02*
X577692D01*
X579358Y108465D02*
X582690D01*
X581024D01*
Y103467D01*
X586856Y108465D02*
X585189D01*
X584356Y107632D01*
Y104300D01*
X585189Y103467D01*
X586856D01*
X587689Y104300D01*
Y107632D01*
X586856Y108465D01*
X589355D02*
Y103467D01*
X592687D01*
X597685Y108465D02*
X594353D01*
Y103467D01*
X597685D01*
X594353Y105966D02*
X596019D01*
X599352Y103467D02*
Y108465D01*
X601851D01*
X602684Y107632D01*
Y105966D01*
X601851Y105133D01*
X599352D01*
X601018D02*
X602684Y103467D01*
X604350D02*
Y106799D01*
X606016Y108465D01*
X607682Y106799D01*
Y103467D01*
Y105966D01*
X604350D01*
X609348Y103467D02*
Y108465D01*
X612681Y103467D01*
Y108465D01*
X617679Y107632D02*
X616846Y108465D01*
X615180D01*
X614347Y107632D01*
Y104300D01*
X615180Y103467D01*
X616846D01*
X617679Y104300D01*
X622677Y108465D02*
X619345D01*
Y103467D01*
X622677D01*
X619345Y105966D02*
X621011D01*
X624343Y106799D02*
X625177D01*
Y105966D01*
X624343D01*
Y106799D01*
Y104300D02*
X625177D01*
Y103467D01*
X624343D01*
Y104300D01*
X628509Y102634D02*
X631841D01*
X633507Y105966D02*
X636839D01*
X635173Y107632D02*
Y104300D01*
X638506Y107632D02*
X639339Y108465D01*
X641005D01*
X641838Y107632D01*
Y104300D01*
X641005Y103467D01*
X639339D01*
X638506Y104300D01*
Y107632D01*
X643504Y103467D02*
Y104300D01*
X644337D01*
Y103467D01*
X643504D01*
X647669Y107632D02*
X648502Y108465D01*
X650169D01*
X651002Y107632D01*
Y104300D01*
X650169Y103467D01*
X648502D01*
X647669Y104300D01*
Y107632D01*
X656000Y108465D02*
X652668D01*
Y105966D01*
X654334Y106799D01*
X655167D01*
X656000Y105966D01*
Y104300D01*
X655167Y103467D01*
X653501D01*
X652668Y104300D01*
X657666Y103467D02*
X660998Y106799D01*
X662664Y105966D02*
X665997D01*
X667663Y107632D02*
X668496Y108465D01*
X670162D01*
X670995Y107632D01*
Y104300D01*
X670162Y103467D01*
X668496D01*
X667663Y104300D01*
Y107632D01*
X672661Y103467D02*
Y104300D01*
X673494D01*
Y103467D01*
X672661D01*
X676826Y107632D02*
X677660Y108465D01*
X679326D01*
X680159Y107632D01*
Y104300D01*
X679326Y103467D01*
X677660D01*
X676826Y104300D01*
Y107632D01*
X685157Y108465D02*
X681825D01*
Y105966D01*
X683491Y106799D01*
X684324D01*
X685157Y105966D01*
Y104300D01*
X684324Y103467D01*
X682658D01*
X681825Y104300D01*
X470329Y102680D02*
Y107678D01*
X472828D01*
X473662Y106845D01*
Y105179D01*
X472828Y104346D01*
X470329D01*
X475328Y107678D02*
X478660D01*
X476994D01*
Y102680D01*
X480326Y107678D02*
Y102680D01*
Y105179D01*
X483658D01*
Y107678D01*
Y102680D01*
X485324Y101847D02*
X488657D01*
X490323Y107678D02*
Y102680D01*
X492822D01*
X493655Y103513D01*
Y106845D01*
X492822Y107678D01*
X490323D01*
X495321Y102680D02*
Y107678D01*
X497820D01*
X498653Y106845D01*
Y105179D01*
X497820Y104346D01*
X495321D01*
X496987D02*
X498653Y102680D01*
X500319Y107678D02*
X501986D01*
X501153D01*
Y102680D01*
X500319D01*
X501986D01*
X504485Y107678D02*
Y102680D01*
X507817D01*
X509483Y107678D02*
Y102680D01*
X512816D01*
X514482Y101847D02*
X517814D01*
X522812Y106845D02*
X521979Y107678D01*
X520313D01*
X519480Y106845D01*
Y106012D01*
X520313Y105179D01*
X521979D01*
X522812Y104346D01*
Y103513D01*
X521979Y102680D01*
X520313D01*
X519480Y103513D01*
X524478Y107678D02*
X526145D01*
X525311D01*
Y102680D01*
X524478D01*
X526145D01*
X528644Y107678D02*
X531976D01*
Y106845D01*
X528644Y103513D01*
Y102680D01*
X531976D01*
X536974Y107678D02*
X533642D01*
Y102680D01*
X536974D01*
X533642Y105179D02*
X535308D01*
X538640Y106012D02*
X539473D01*
Y105179D01*
X538640D01*
Y106012D01*
Y103513D02*
X539473D01*
Y102680D01*
X538640D01*
Y103513D01*
X542806Y101847D02*
X546138D01*
X547804Y102680D02*
X549470D01*
X548637D01*
Y107678D01*
X547804Y106845D01*
X551969Y102680D02*
Y103513D01*
X552803D01*
Y102680D01*
X551969D01*
X556135Y106845D02*
X556968Y107678D01*
X558634D01*
X559467Y106845D01*
Y103513D01*
X558634Y102680D01*
X556968D01*
X556135Y103513D01*
Y106845D01*
X564465Y102680D02*
X561133D01*
X564465Y106012D01*
Y106845D01*
X563632Y107678D01*
X561966D01*
X561133Y106845D01*
X566131Y101847D02*
X569464D01*
X571130Y102680D02*
Y107678D01*
X572796Y106012D01*
X574462Y107678D01*
Y102680D01*
X576128D02*
Y107678D01*
X577794Y106012D01*
X579461Y107678D01*
Y102680D01*
X581960Y101847D02*
X582793Y102680D01*
Y103513D01*
X581960D01*
Y102680D01*
X582793D01*
X581960Y101847D01*
X581127Y101013D01*
X586125Y101847D02*
X589457D01*
X591123Y107678D02*
X594456D01*
X592790D01*
Y102680D01*
X598621Y107678D02*
X596955D01*
X596122Y106845D01*
Y103513D01*
X596955Y102680D01*
X598621D01*
X599454Y103513D01*
Y106845D01*
X598621Y107678D01*
X601120D02*
Y102680D01*
X604453D01*
X609451Y107678D02*
X606119D01*
Y102680D01*
X609451D01*
X606119Y105179D02*
X607785D01*
X611117Y102680D02*
Y107678D01*
X613616D01*
X614449Y106845D01*
Y105179D01*
X613616Y104346D01*
X611117D01*
X612783D02*
X614449Y102680D01*
X616115D02*
Y106012D01*
X617781Y107678D01*
X619448Y106012D01*
Y102680D01*
Y105179D01*
X616115D01*
X621114Y102680D02*
Y107678D01*
X624446Y102680D01*
Y107678D01*
X629444Y106845D02*
X628611Y107678D01*
X626945D01*
X626112Y106845D01*
Y103513D01*
X626945Y102680D01*
X628611D01*
X629444Y103513D01*
X634443Y107678D02*
X631110D01*
Y102680D01*
X634443D01*
X631110Y105179D02*
X632777D01*
X636109Y106012D02*
X636942D01*
Y105179D01*
X636109D01*
Y106012D01*
Y103513D02*
X636942D01*
Y102680D01*
X636109D01*
Y103513D01*
X640274Y101847D02*
X643606D01*
X645273Y105179D02*
X648605D01*
X646939Y106845D02*
Y103513D01*
X650271Y106845D02*
X651104Y107678D01*
X652770D01*
X653603Y106845D01*
Y103513D01*
X652770Y102680D01*
X651104D01*
X650271Y103513D01*
Y106845D01*
X655269Y102680D02*
Y103513D01*
X656102D01*
Y102680D01*
X655269D01*
X659435Y106845D02*
X660268Y107678D01*
X661934D01*
X662767Y106845D01*
Y103513D01*
X661934Y102680D01*
X660268D01*
X659435Y103513D01*
Y106845D01*
X667765Y107678D02*
X664433D01*
Y105179D01*
X666099Y106012D01*
X666932D01*
X667765Y105179D01*
Y103513D01*
X666932Y102680D01*
X665266D01*
X664433Y103513D01*
X669431Y102680D02*
X672764Y106012D01*
X674430Y105179D02*
X677762D01*
X679428Y106845D02*
X680261Y107678D01*
X681927D01*
X682760Y106845D01*
Y103513D01*
X681927Y102680D01*
X680261D01*
X679428Y103513D01*
Y106845D01*
X684426Y102680D02*
Y103513D01*
X685260D01*
Y102680D01*
X684426D01*
X688592Y106845D02*
X689425Y107678D01*
X691091D01*
X691924Y106845D01*
Y103513D01*
X691091Y102680D01*
X689425D01*
X688592Y103513D01*
Y106845D01*
X696922Y107678D02*
X693590D01*
Y105179D01*
X695256Y106012D01*
X696089D01*
X696922Y105179D01*
Y103513D01*
X696089Y102680D01*
X694423D01*
X693590Y103513D01*
X243200Y103861D02*
Y108859D01*
X246532Y103861D01*
Y108859D01*
X248198Y103861D02*
Y108859D01*
X250697D01*
X251530Y108026D01*
Y106360D01*
X250697Y105527D01*
X248198D01*
X253197Y108859D02*
X256529D01*
X254863D01*
Y103861D01*
X258195Y108859D02*
Y103861D01*
Y106360D01*
X261527D01*
Y108859D01*
Y103861D01*
X263193Y103028D02*
X266526D01*
X268192Y108859D02*
Y103861D01*
X270691D01*
X271524Y104694D01*
Y108026D01*
X270691Y108859D01*
X268192D01*
X273190Y103861D02*
Y108859D01*
X275689D01*
X276522Y108026D01*
Y106360D01*
X275689Y105527D01*
X273190D01*
X274856D02*
X276522Y103861D01*
X278188Y108859D02*
X279854D01*
X279021D01*
Y103861D01*
X278188D01*
X279854D01*
X282354Y108859D02*
Y103861D01*
X285686D01*
X287352Y108859D02*
Y103861D01*
X290684D01*
X292350Y103028D02*
X295683D01*
X300681Y108026D02*
X299848Y108859D01*
X298182D01*
X297349Y108026D01*
Y107193D01*
X298182Y106360D01*
X299848D01*
X300681Y105527D01*
Y104694D01*
X299848Y103861D01*
X298182D01*
X297349Y104694D01*
X302347Y108859D02*
X304013D01*
X303180D01*
Y103861D01*
X302347D01*
X304013D01*
X306512Y108859D02*
X309845D01*
Y108026D01*
X306512Y104694D01*
Y103861D01*
X309845D01*
X314843Y108859D02*
X311511D01*
Y103861D01*
X314843D01*
X311511Y106360D02*
X313177D01*
X316509Y107193D02*
X317342D01*
Y106360D01*
X316509D01*
Y107193D01*
Y104694D02*
X317342D01*
Y103861D01*
X316509D01*
Y104694D01*
X320675Y103028D02*
X324007D01*
X325673Y108026D02*
X326506Y108859D01*
X328172D01*
X329005Y108026D01*
Y107193D01*
X328172Y106360D01*
X327339D01*
X328172D01*
X329005Y105527D01*
Y104694D01*
X328172Y103861D01*
X326506D01*
X325673Y104694D01*
X330671Y103861D02*
Y104694D01*
X331504D01*
Y103861D01*
X330671D01*
X334837Y108026D02*
X335670Y108859D01*
X337336D01*
X338169Y108026D01*
Y104694D01*
X337336Y103861D01*
X335670D01*
X334837Y104694D01*
Y108026D01*
X339835Y103028D02*
X343167D01*
X344833Y103861D02*
Y108859D01*
X346500Y107193D01*
X348166Y108859D01*
Y103861D01*
X349832D02*
Y108859D01*
X351498Y107193D01*
X353164Y108859D01*
Y103861D01*
X355663Y103028D02*
X356496Y103861D01*
Y104694D01*
X355663D01*
Y103861D01*
X356496D01*
X355663Y103028D01*
X354830Y102194D01*
X359829Y103028D02*
X363161D01*
X364827Y108859D02*
X368159D01*
X366493D01*
Y103861D01*
X372324Y108859D02*
X370658D01*
X369825Y108026D01*
Y104694D01*
X370658Y103861D01*
X372324D01*
X373158Y104694D01*
Y108026D01*
X372324Y108859D01*
X374824D02*
Y103861D01*
X378156D01*
X383154Y108859D02*
X379822D01*
Y103861D01*
X383154D01*
X379822Y106360D02*
X381488D01*
X384821Y103861D02*
Y108859D01*
X387320D01*
X388153Y108026D01*
Y106360D01*
X387320Y105527D01*
X384821D01*
X386487D02*
X388153Y103861D01*
X389819D02*
Y107193D01*
X391485Y108859D01*
X393151Y107193D01*
Y103861D01*
Y106360D01*
X389819D01*
X394817Y103861D02*
Y108859D01*
X398149Y103861D01*
Y108859D01*
X403148Y108026D02*
X402315Y108859D01*
X400649D01*
X399816Y108026D01*
Y104694D01*
X400649Y103861D01*
X402315D01*
X403148Y104694D01*
X408146Y108859D02*
X404814D01*
Y103861D01*
X408146D01*
X404814Y106360D02*
X406480D01*
X409812Y107193D02*
X410645D01*
Y106360D01*
X409812D01*
Y107193D01*
Y104694D02*
X410645D01*
Y103861D01*
X409812D01*
Y104694D01*
X413978Y103028D02*
X417310D01*
X418976Y106360D02*
X422308D01*
X420642Y108026D02*
Y104694D01*
X423974Y108026D02*
X424808Y108859D01*
X426474D01*
X427307Y108026D01*
Y104694D01*
X426474Y103861D01*
X424808D01*
X423974Y104694D01*
Y108026D01*
X428973Y103861D02*
Y104694D01*
X429806D01*
Y103861D01*
X428973D01*
X433138Y108026D02*
X433971Y108859D01*
X435637D01*
X436470Y108026D01*
Y104694D01*
X435637Y103861D01*
X433971D01*
X433138Y104694D01*
Y108026D01*
X441469Y108859D02*
X438136D01*
Y106360D01*
X439803Y107193D01*
X440636D01*
X441469Y106360D01*
Y104694D01*
X440636Y103861D01*
X438970D01*
X438136Y104694D01*
X443135Y103861D02*
X446467Y107193D01*
X448133Y106360D02*
X451466D01*
X453132Y108026D02*
X453965Y108859D01*
X455631D01*
X456464Y108026D01*
Y104694D01*
X455631Y103861D01*
X453965D01*
X453132Y104694D01*
Y108026D01*
X458130Y103861D02*
Y104694D01*
X458963D01*
Y103861D01*
X458130D01*
X462295Y108026D02*
X463128Y108859D01*
X464795D01*
X465628Y108026D01*
Y104694D01*
X464795Y103861D01*
X463128D01*
X462295Y104694D01*
Y108026D01*
X470626Y108859D02*
X467294D01*
Y106360D01*
X468960Y107193D01*
X469793D01*
X470626Y106360D01*
Y104694D01*
X469793Y103861D01*
X468127D01*
X467294Y104694D01*
X283751Y97168D02*
Y102166D01*
X286250D01*
X287083Y101333D01*
Y99667D01*
X286250Y98834D01*
X283751D01*
X288749Y102166D02*
X292081D01*
X290415D01*
Y97168D01*
X293748Y102166D02*
Y97168D01*
Y99667D01*
X297080D01*
Y102166D01*
Y97168D01*
X298746Y96335D02*
X302078D01*
X303744Y102166D02*
Y97168D01*
X306244D01*
X307077Y98001D01*
Y101333D01*
X306244Y102166D01*
X303744D01*
X308743Y97168D02*
Y102166D01*
X311242D01*
X312075Y101333D01*
Y99667D01*
X311242Y98834D01*
X308743D01*
X310409D02*
X312075Y97168D01*
X313741Y102166D02*
X315407D01*
X314574D01*
Y97168D01*
X313741D01*
X315407D01*
X317906Y102166D02*
Y97168D01*
X321239D01*
X322905Y102166D02*
Y97168D01*
X326237D01*
X327903Y96335D02*
X331236D01*
X336234Y101333D02*
X335401Y102166D01*
X333735D01*
X332902Y101333D01*
Y100500D01*
X333735Y99667D01*
X335401D01*
X336234Y98834D01*
Y98001D01*
X335401Y97168D01*
X333735D01*
X332902Y98001D01*
X337900Y102166D02*
X339566D01*
X338733D01*
Y97168D01*
X337900D01*
X339566D01*
X342065Y102166D02*
X345398D01*
Y101333D01*
X342065Y98001D01*
Y97168D01*
X345398D01*
X350396Y102166D02*
X347064D01*
Y97168D01*
X350396D01*
X347064Y99667D02*
X348730D01*
X352062Y100500D02*
X352895D01*
Y99667D01*
X352062D01*
Y100500D01*
Y98001D02*
X352895D01*
Y97168D01*
X352062D01*
Y98001D01*
X356227Y96335D02*
X359560D01*
X361226Y97168D02*
X362892D01*
X362059D01*
Y102166D01*
X361226Y101333D01*
X365391Y97168D02*
Y98001D01*
X366224D01*
Y97168D01*
X365391D01*
X369556Y101333D02*
X370390Y102166D01*
X372056D01*
X372889Y101333D01*
Y98001D01*
X372056Y97168D01*
X370390D01*
X369556Y98001D01*
Y101333D01*
X377887Y97168D02*
X374555D01*
X377887Y100500D01*
Y101333D01*
X377054Y102166D01*
X375388D01*
X374555Y101333D01*
X379553Y96335D02*
X382885D01*
X384552Y97168D02*
Y102166D01*
X386218Y100500D01*
X387884Y102166D01*
Y97168D01*
X389550D02*
Y102166D01*
X391216Y100500D01*
X392882Y102166D01*
Y97168D01*
X395381Y96335D02*
X396214Y97168D01*
Y98001D01*
X395381D01*
Y97168D01*
X396214D01*
X395381Y96335D01*
X394548Y95502D01*
X399547Y96335D02*
X402879D01*
X404545Y102166D02*
X407877D01*
X406211D01*
Y97168D01*
X412043Y102166D02*
X410377D01*
X409543Y101333D01*
Y98001D01*
X410377Y97168D01*
X412043D01*
X412876Y98001D01*
Y101333D01*
X412043Y102166D01*
X414542D02*
Y97168D01*
X417874D01*
X422872Y102166D02*
X419540D01*
Y97168D01*
X422872D01*
X419540Y99667D02*
X421206D01*
X424539Y97168D02*
Y102166D01*
X427038D01*
X427871Y101333D01*
Y99667D01*
X427038Y98834D01*
X424539D01*
X426205D02*
X427871Y97168D01*
X429537D02*
Y100500D01*
X431203Y102166D01*
X432869Y100500D01*
Y97168D01*
Y99667D01*
X429537D01*
X434535Y97168D02*
Y102166D01*
X437868Y97168D01*
Y102166D01*
X442866Y101333D02*
X442033Y102166D01*
X440367D01*
X439534Y101333D01*
Y98001D01*
X440367Y97168D01*
X442033D01*
X442866Y98001D01*
X447864Y102166D02*
X444532D01*
Y97168D01*
X447864D01*
X444532Y99667D02*
X446198D01*
X449531Y100500D02*
X450364D01*
Y99667D01*
X449531D01*
Y100500D01*
Y98001D02*
X450364D01*
Y97168D01*
X449531D01*
Y98001D01*
X453696Y96335D02*
X457028D01*
X458694Y99667D02*
X462027D01*
X460360Y101333D02*
Y98001D01*
X463693Y101333D02*
X464526Y102166D01*
X466192D01*
X467025Y101333D01*
Y98001D01*
X466192Y97168D01*
X464526D01*
X463693Y98001D01*
Y101333D01*
X468691Y97168D02*
Y98001D01*
X469524D01*
Y97168D01*
X468691D01*
X472856Y101333D02*
X473689Y102166D01*
X475355D01*
X476189Y101333D01*
Y98001D01*
X475355Y97168D01*
X473689D01*
X472856Y98001D01*
Y101333D01*
X481187Y102166D02*
X477855D01*
Y99667D01*
X479521Y100500D01*
X480354D01*
X481187Y99667D01*
Y98001D01*
X480354Y97168D01*
X478688D01*
X477855Y98001D01*
X482853Y97168D02*
X486185Y100500D01*
X487851Y99667D02*
X491184D01*
X492850Y101333D02*
X493683Y102166D01*
X495349D01*
X496182Y101333D01*
Y98001D01*
X495349Y97168D01*
X493683D01*
X492850Y98001D01*
Y101333D01*
X497848Y97168D02*
Y98001D01*
X498681D01*
Y97168D01*
X497848D01*
X502013Y101333D02*
X502847Y102166D01*
X504513D01*
X505346Y101333D01*
Y98001D01*
X504513Y97168D01*
X502847D01*
X502013Y98001D01*
Y101333D01*
X510344Y102166D02*
X507012D01*
Y99667D01*
X508678Y100500D01*
X509511D01*
X510344Y99667D01*
Y98001D01*
X509511Y97168D01*
X507845D01*
X507012Y98001D01*
X252470Y114884D02*
Y119883D01*
X255802Y114884D01*
Y119883D01*
X257468Y114884D02*
Y119883D01*
X259967D01*
X260800Y119050D01*
Y117383D01*
X259967Y116550D01*
X257468D01*
X262466Y119883D02*
X265799D01*
X264132D01*
Y114884D01*
X267465Y119883D02*
Y114884D01*
Y117383D01*
X270797D01*
Y119883D01*
Y114884D01*
X272463Y114051D02*
X275795D01*
X277462Y119883D02*
Y114884D01*
X279961D01*
X280794Y115717D01*
Y119050D01*
X279961Y119883D01*
X277462D01*
X282460Y114884D02*
Y119883D01*
X284959D01*
X285792Y119050D01*
Y117383D01*
X284959Y116550D01*
X282460D01*
X284126D02*
X285792Y114884D01*
X287458Y119883D02*
X289124D01*
X288291D01*
Y114884D01*
X287458D01*
X289124D01*
X291623Y119883D02*
Y114884D01*
X294956D01*
X296622Y119883D02*
Y114884D01*
X299954D01*
X301620Y114051D02*
X304953D01*
X309951Y119050D02*
X309118Y119883D01*
X307452D01*
X306619Y119050D01*
Y118217D01*
X307452Y117383D01*
X309118D01*
X309951Y116550D01*
Y115717D01*
X309118Y114884D01*
X307452D01*
X306619Y115717D01*
X311617Y119883D02*
X313283D01*
X312450D01*
Y114884D01*
X311617D01*
X313283D01*
X315782Y119883D02*
X319115D01*
Y119050D01*
X315782Y115717D01*
Y114884D01*
X319115D01*
X324113Y119883D02*
X320781D01*
Y114884D01*
X324113D01*
X320781Y117383D02*
X322447D01*
X325779Y118217D02*
X326612D01*
Y117383D01*
X325779D01*
Y118217D01*
Y115717D02*
X326612D01*
Y114884D01*
X325779D01*
Y115717D01*
X329944Y114051D02*
X333277D01*
X334943Y119050D02*
X335776Y119883D01*
X337442D01*
X338275Y119050D01*
Y118217D01*
X337442Y117383D01*
X336609D01*
X337442D01*
X338275Y116550D01*
Y115717D01*
X337442Y114884D01*
X335776D01*
X334943Y115717D01*
X339941Y114884D02*
Y115717D01*
X340774D01*
Y114884D01*
X339941D01*
X344107Y119050D02*
X344940Y119883D01*
X346606D01*
X347439Y119050D01*
Y115717D01*
X346606Y114884D01*
X344940D01*
X344107Y115717D01*
Y119050D01*
X349105Y114051D02*
X352437D01*
X354103Y114884D02*
Y119883D01*
X355769Y118217D01*
X357436Y119883D01*
Y114884D01*
X359102D02*
Y119883D01*
X360768Y118217D01*
X362434Y119883D01*
Y114884D01*
X364933Y114051D02*
X365766Y114884D01*
Y115717D01*
X364933D01*
Y114884D01*
X365766D01*
X364933Y114051D01*
X364100Y113218D01*
X369098Y114051D02*
X372431D01*
X374097Y119883D02*
X377429D01*
X375763D01*
Y114884D01*
X381594Y119883D02*
X379928D01*
X379095Y119050D01*
Y115717D01*
X379928Y114884D01*
X381594D01*
X382428Y115717D01*
Y119050D01*
X381594Y119883D01*
X384094D02*
Y114884D01*
X387426D01*
X392424Y119883D02*
X389092D01*
Y114884D01*
X392424D01*
X389092Y117383D02*
X390758D01*
X394090Y114884D02*
Y119883D01*
X396589D01*
X397423Y119050D01*
Y117383D01*
X396589Y116550D01*
X394090D01*
X395757D02*
X397423Y114884D01*
X399089D02*
Y118217D01*
X400755Y119883D01*
X402421Y118217D01*
Y114884D01*
Y117383D01*
X399089D01*
X404087Y114884D02*
Y119883D01*
X407419Y114884D01*
Y119883D01*
X412418Y119050D02*
X411585Y119883D01*
X409918D01*
X409086Y119050D01*
Y115717D01*
X409918Y114884D01*
X411585D01*
X412418Y115717D01*
X417416Y119883D02*
X414084D01*
Y114884D01*
X417416D01*
X414084Y117383D02*
X415750D01*
X419082Y118217D02*
X419915D01*
Y117383D01*
X419082D01*
Y118217D01*
Y115717D02*
X419915D01*
Y114884D01*
X419082D01*
Y115717D01*
X423248Y114051D02*
X426580D01*
X428246Y117383D02*
X431578D01*
X429912Y119050D02*
Y115717D01*
X433244Y119050D02*
X434077Y119883D01*
X435744D01*
X436577Y119050D01*
Y115717D01*
X435744Y114884D01*
X434077D01*
X433244Y115717D01*
Y119050D01*
X438243Y114884D02*
Y115717D01*
X439076D01*
Y114884D01*
X438243D01*
X442408Y119050D02*
X443241Y119883D01*
X444907D01*
X445740Y119050D01*
Y115717D01*
X444907Y114884D01*
X443241D01*
X442408Y115717D01*
Y119050D01*
X450739Y119883D02*
X447406D01*
Y117383D01*
X449073Y118217D01*
X449906D01*
X450739Y117383D01*
Y115717D01*
X449906Y114884D01*
X448240D01*
X447406Y115717D01*
X452405Y114884D02*
X455737Y118217D01*
X457403Y117383D02*
X460735D01*
X462401Y119050D02*
X463235Y119883D01*
X464901D01*
X465734Y119050D01*
Y115717D01*
X464901Y114884D01*
X463235D01*
X462401Y115717D01*
Y119050D01*
X467400Y114884D02*
Y115717D01*
X468233D01*
Y114884D01*
X467400D01*
X471565Y119050D02*
X472398Y119883D01*
X474064D01*
X474897Y119050D01*
Y115717D01*
X474064Y114884D01*
X472398D01*
X471565Y115717D01*
Y119050D01*
X479896Y119883D02*
X476564D01*
Y117383D01*
X478230Y118217D01*
X479063D01*
X479896Y117383D01*
Y115717D01*
X479063Y114884D01*
X477397D01*
X476564Y115717D01*
X263887Y107798D02*
Y112796D01*
X266386D01*
X267219Y111963D01*
Y110297D01*
X266386Y109464D01*
X263887D01*
X268885Y112796D02*
X272217D01*
X270551D01*
Y107798D01*
X273884Y112796D02*
Y107798D01*
Y110297D01*
X277216D01*
Y112796D01*
Y107798D01*
X278882Y106965D02*
X282214D01*
X283880Y112796D02*
Y107798D01*
X286380D01*
X287213Y108631D01*
Y111963D01*
X286380Y112796D01*
X283880D01*
X288879Y107798D02*
Y112796D01*
X291378D01*
X292211Y111963D01*
Y110297D01*
X291378Y109464D01*
X288879D01*
X290545D02*
X292211Y107798D01*
X293877Y112796D02*
X295543D01*
X294710D01*
Y107798D01*
X293877D01*
X295543D01*
X298042Y112796D02*
Y107798D01*
X301375D01*
X303041Y112796D02*
Y107798D01*
X306373D01*
X308039Y106965D02*
X311371D01*
X316370Y111963D02*
X315537Y112796D01*
X313871D01*
X313038Y111963D01*
Y111130D01*
X313871Y110297D01*
X315537D01*
X316370Y109464D01*
Y108631D01*
X315537Y107798D01*
X313871D01*
X313038Y108631D01*
X318036Y112796D02*
X319702D01*
X318869D01*
Y107798D01*
X318036D01*
X319702D01*
X322201Y112796D02*
X325534D01*
Y111963D01*
X322201Y108631D01*
Y107798D01*
X325534D01*
X330532Y112796D02*
X327200D01*
Y107798D01*
X330532D01*
X327200Y110297D02*
X328866D01*
X332198Y111130D02*
X333031D01*
Y110297D01*
X332198D01*
Y111130D01*
Y108631D02*
X333031D01*
Y107798D01*
X332198D01*
Y108631D01*
X336363Y106965D02*
X339696D01*
X341362Y107798D02*
X343028D01*
X342195D01*
Y112796D01*
X341362Y111963D01*
X345527Y107798D02*
Y108631D01*
X346360D01*
Y107798D01*
X345527D01*
X349692Y111963D02*
X350525Y112796D01*
X352192D01*
X353025Y111963D01*
Y108631D01*
X352192Y107798D01*
X350525D01*
X349692Y108631D01*
Y111963D01*
X358023Y107798D02*
X354691D01*
X358023Y111130D01*
Y111963D01*
X357190Y112796D01*
X355524D01*
X354691Y111963D01*
X359689Y106965D02*
X363021D01*
X364688Y107798D02*
Y112796D01*
X366354Y111130D01*
X368020Y112796D01*
Y107798D01*
X369686D02*
Y112796D01*
X371352Y111130D01*
X373018Y112796D01*
Y107798D01*
X375517Y106965D02*
X376350Y107798D01*
Y108631D01*
X375517D01*
Y107798D01*
X376350D01*
X375517Y106965D01*
X374684Y106131D01*
X379683Y106965D02*
X383015D01*
X384681Y112796D02*
X388013D01*
X386347D01*
Y107798D01*
X392179Y112796D02*
X390512D01*
X389680Y111963D01*
Y108631D01*
X390512Y107798D01*
X392179D01*
X393012Y108631D01*
Y111963D01*
X392179Y112796D01*
X394678D02*
Y107798D01*
X398010D01*
X403009Y112796D02*
X399676D01*
Y107798D01*
X403009D01*
X399676Y110297D02*
X401342D01*
X404675Y107798D02*
Y112796D01*
X407174D01*
X408007Y111963D01*
Y110297D01*
X407174Y109464D01*
X404675D01*
X406341D02*
X408007Y107798D01*
X409673D02*
Y111130D01*
X411339Y112796D01*
X413005Y111130D01*
Y107798D01*
Y110297D01*
X409673D01*
X414671Y107798D02*
Y112796D01*
X418004Y107798D01*
Y112796D01*
X423002Y111963D02*
X422169Y112796D01*
X420503D01*
X419670Y111963D01*
Y108631D01*
X420503Y107798D01*
X422169D01*
X423002Y108631D01*
X428000Y112796D02*
X424668D01*
Y107798D01*
X428000D01*
X424668Y110297D02*
X426334D01*
X429667Y111130D02*
X430500D01*
Y110297D01*
X429667D01*
Y111130D01*
Y108631D02*
X430500D01*
Y107798D01*
X429667D01*
Y108631D01*
X433832Y106965D02*
X437164D01*
X438830Y110297D02*
X442163D01*
X440496Y111963D02*
Y108631D01*
X443829Y111963D02*
X444662Y112796D01*
X446328D01*
X447161Y111963D01*
Y108631D01*
X446328Y107798D01*
X444662D01*
X443829Y108631D01*
Y111963D01*
X448827Y107798D02*
Y108631D01*
X449660D01*
Y107798D01*
X448827D01*
X452992Y111963D02*
X453825Y112796D01*
X455491D01*
X456324Y111963D01*
Y108631D01*
X455491Y107798D01*
X453825D01*
X452992Y108631D01*
Y111963D01*
X461323Y112796D02*
X457991D01*
Y110297D01*
X459657Y111130D01*
X460490D01*
X461323Y110297D01*
Y108631D01*
X460490Y107798D01*
X458824D01*
X457991Y108631D01*
X462989Y107798D02*
X466321Y111130D01*
X467987Y110297D02*
X471320D01*
X472986Y111963D02*
X473819Y112796D01*
X475485D01*
X476318Y111963D01*
Y108631D01*
X475485Y107798D01*
X473819D01*
X472986Y108631D01*
Y111963D01*
X477984Y107798D02*
Y108631D01*
X478817D01*
Y107798D01*
X477984D01*
X482150Y111963D02*
X482983Y112796D01*
X484649D01*
X485482Y111963D01*
Y108631D01*
X484649Y107798D01*
X482983D01*
X482150Y108631D01*
Y111963D01*
X490480Y112796D02*
X487148D01*
Y110297D01*
X488814Y111130D01*
X489647D01*
X490480Y110297D01*
Y108631D01*
X489647Y107798D01*
X487981D01*
X487148Y108631D01*
X229850Y116853D02*
Y121851D01*
X233182Y116853D01*
Y121851D01*
X234848Y116853D02*
Y121851D01*
X237347D01*
X238180Y121018D01*
Y119352D01*
X237347Y118519D01*
X234848D01*
X239846Y121851D02*
X243179D01*
X241513D01*
Y116853D01*
X244845Y121851D02*
Y116853D01*
Y119352D01*
X248177D01*
Y121851D01*
Y116853D01*
X249843Y116020D02*
X253175D01*
X254842Y121851D02*
Y116853D01*
X257341D01*
X258174Y117686D01*
Y121018D01*
X257341Y121851D01*
X254842D01*
X259840Y116853D02*
Y121851D01*
X262339D01*
X263172Y121018D01*
Y119352D01*
X262339Y118519D01*
X259840D01*
X261506D02*
X263172Y116853D01*
X264838Y121851D02*
X266504D01*
X265671D01*
Y116853D01*
X264838D01*
X266504D01*
X269004Y121851D02*
Y116853D01*
X272336D01*
X274002Y121851D02*
Y116853D01*
X277334D01*
X279000Y116020D02*
X282333D01*
X287331Y121018D02*
X286498Y121851D01*
X284832D01*
X283999Y121018D01*
Y120185D01*
X284832Y119352D01*
X286498D01*
X287331Y118519D01*
Y117686D01*
X286498Y116853D01*
X284832D01*
X283999Y117686D01*
X288997Y121851D02*
X290663D01*
X289830D01*
Y116853D01*
X288997D01*
X290663D01*
X293162Y121851D02*
X296495D01*
Y121018D01*
X293162Y117686D01*
Y116853D01*
X296495D01*
X301493Y121851D02*
X298161D01*
Y116853D01*
X301493D01*
X298161Y119352D02*
X299827D01*
X303159Y120185D02*
X303992D01*
Y119352D01*
X303159D01*
Y120185D01*
Y117686D02*
X303992D01*
Y116853D01*
X303159D01*
Y117686D01*
X307325Y116020D02*
X310657D01*
X312323Y121018D02*
X313156Y121851D01*
X314822D01*
X315655Y121018D01*
Y120185D01*
X314822Y119352D01*
X313989D01*
X314822D01*
X315655Y118519D01*
Y117686D01*
X314822Y116853D01*
X313156D01*
X312323Y117686D01*
X317321Y116853D02*
Y117686D01*
X318154D01*
Y116853D01*
X317321D01*
X321487Y121018D02*
X322320Y121851D01*
X323986D01*
X324819Y121018D01*
Y117686D01*
X323986Y116853D01*
X322320D01*
X321487Y117686D01*
Y121018D01*
X326485Y116020D02*
X329817D01*
X331483Y116853D02*
Y121851D01*
X333150Y120185D01*
X334816Y121851D01*
Y116853D01*
X336482D02*
Y121851D01*
X338148Y120185D01*
X339814Y121851D01*
Y116853D01*
X342313Y116020D02*
X343146Y116853D01*
Y117686D01*
X342313D01*
Y116853D01*
X343146D01*
X342313Y116020D01*
X341480Y115187D01*
X346479Y116020D02*
X349811D01*
X351477Y121851D02*
X354809D01*
X353143D01*
Y116853D01*
X358975Y121851D02*
X357308D01*
X356475Y121018D01*
Y117686D01*
X357308Y116853D01*
X358975D01*
X359808Y117686D01*
Y121018D01*
X358975Y121851D01*
X361474D02*
Y116853D01*
X364806D01*
X369804Y121851D02*
X366472D01*
Y116853D01*
X369804D01*
X366472Y119352D02*
X368138D01*
X371470Y116853D02*
Y121851D01*
X373970D01*
X374803Y121018D01*
Y119352D01*
X373970Y118519D01*
X371470D01*
X373137D02*
X374803Y116853D01*
X376469D02*
Y120185D01*
X378135Y121851D01*
X379801Y120185D01*
Y116853D01*
Y119352D01*
X376469D01*
X381467Y116853D02*
Y121851D01*
X384800Y116853D01*
Y121851D01*
X389798Y121018D02*
X388965Y121851D01*
X387299D01*
X386466Y121018D01*
Y117686D01*
X387299Y116853D01*
X388965D01*
X389798Y117686D01*
X394796Y121851D02*
X391464D01*
Y116853D01*
X394796D01*
X391464Y119352D02*
X393130D01*
X396462Y120185D02*
X397295D01*
Y119352D01*
X396462D01*
Y120185D01*
Y117686D02*
X397295D01*
Y116853D01*
X396462D01*
Y117686D01*
X400628Y116020D02*
X403960D01*
X405626Y119352D02*
X408958D01*
X407292Y121018D02*
Y117686D01*
X410624Y121018D02*
X411457Y121851D01*
X413124D01*
X413957Y121018D01*
Y117686D01*
X413124Y116853D01*
X411457D01*
X410624Y117686D01*
Y121018D01*
X415623Y116853D02*
Y117686D01*
X416456D01*
Y116853D01*
X415623D01*
X419788Y121018D02*
X420621Y121851D01*
X422287D01*
X423120Y121018D01*
Y117686D01*
X422287Y116853D01*
X420621D01*
X419788Y117686D01*
Y121018D01*
X428119Y121851D02*
X424787D01*
Y119352D01*
X426453Y120185D01*
X427286D01*
X428119Y119352D01*
Y117686D01*
X427286Y116853D01*
X425620D01*
X424787Y117686D01*
X429785Y116853D02*
X433117Y120185D01*
X434783Y119352D02*
X438116D01*
X439782Y121018D02*
X440615Y121851D01*
X442281D01*
X443114Y121018D01*
Y117686D01*
X442281Y116853D01*
X440615D01*
X439782Y117686D01*
Y121018D01*
X444780Y116853D02*
Y117686D01*
X445613D01*
Y116853D01*
X444780D01*
X448945Y121018D02*
X449778Y121851D01*
X451444D01*
X452278Y121018D01*
Y117686D01*
X451444Y116853D01*
X449778D01*
X448945Y117686D01*
Y121018D01*
X457276Y121851D02*
X453944D01*
Y119352D01*
X455610Y120185D01*
X456443D01*
X457276Y119352D01*
Y117686D01*
X456443Y116853D01*
X454777D01*
X453944Y117686D01*
X226306Y88900D02*
Y93898D01*
X228805D01*
X229639Y93065D01*
Y91399D01*
X228805Y90566D01*
X226306D01*
X231305Y93898D02*
X234637D01*
X232971D01*
Y88900D01*
X236303Y93898D02*
Y88900D01*
Y91399D01*
X239635D01*
Y93898D01*
Y88900D01*
X241301Y88067D02*
X244634D01*
X246300Y93898D02*
Y88900D01*
X248799D01*
X249632Y89733D01*
Y93065D01*
X248799Y93898D01*
X246300D01*
X251298Y88900D02*
Y93898D01*
X253797D01*
X254630Y93065D01*
Y91399D01*
X253797Y90566D01*
X251298D01*
X252964D02*
X254630Y88900D01*
X256297Y93898D02*
X257963D01*
X257130D01*
Y88900D01*
X256297D01*
X257963D01*
X260462Y93898D02*
Y88900D01*
X263794D01*
X265460Y93898D02*
Y88900D01*
X268793D01*
X270459Y88067D02*
X273791D01*
X278789Y93065D02*
X277956Y93898D01*
X276290D01*
X275457Y93065D01*
Y92232D01*
X276290Y91399D01*
X277956D01*
X278789Y90566D01*
Y89733D01*
X277956Y88900D01*
X276290D01*
X275457Y89733D01*
X280455Y93898D02*
X282122D01*
X281289D01*
Y88900D01*
X280455D01*
X282122D01*
X284621Y93898D02*
X287953D01*
Y93065D01*
X284621Y89733D01*
Y88900D01*
X287953D01*
X292951Y93898D02*
X289619D01*
Y88900D01*
X292951D01*
X289619Y91399D02*
X291285D01*
X294618Y92232D02*
X295451D01*
Y91399D01*
X294618D01*
Y92232D01*
Y89733D02*
X295451D01*
Y88900D01*
X294618D01*
Y89733D01*
X298783Y88067D02*
X302115D01*
X303781Y88900D02*
X305447D01*
X304614D01*
Y93898D01*
X303781Y93065D01*
X307947Y88900D02*
Y89733D01*
X308780D01*
Y88900D01*
X307947D01*
X312112Y93065D02*
X312945Y93898D01*
X314611D01*
X315444Y93065D01*
Y89733D01*
X314611Y88900D01*
X312945D01*
X312112Y89733D01*
Y93065D01*
X320443Y88900D02*
X317110D01*
X320443Y92232D01*
Y93065D01*
X319609Y93898D01*
X317943D01*
X317110Y93065D01*
X322109Y88067D02*
X325441D01*
X327107Y88900D02*
Y93898D01*
X328773Y92232D01*
X330439Y93898D01*
Y88900D01*
X332105D02*
Y93898D01*
X333771Y92232D01*
X335438Y93898D01*
Y88900D01*
X337937Y88067D02*
X338770Y88900D01*
Y89733D01*
X337937D01*
Y88900D01*
X338770D01*
X337937Y88067D01*
X337104Y87234D01*
X342102Y88067D02*
X345434D01*
X347101Y93898D02*
X350433D01*
X348767D01*
Y88900D01*
X354598Y93898D02*
X352932D01*
X352099Y93065D01*
Y89733D01*
X352932Y88900D01*
X354598D01*
X355431Y89733D01*
Y93065D01*
X354598Y93898D01*
X357097D02*
Y88900D01*
X360430D01*
X365428Y93898D02*
X362096D01*
Y88900D01*
X365428D01*
X362096Y91399D02*
X363762D01*
X367094Y88900D02*
Y93898D01*
X369593D01*
X370426Y93065D01*
Y91399D01*
X369593Y90566D01*
X367094D01*
X368760D02*
X370426Y88900D01*
X372093D02*
Y92232D01*
X373759Y93898D01*
X375425Y92232D01*
Y88900D01*
Y91399D01*
X372093D01*
X377091Y88900D02*
Y93898D01*
X380423Y88900D01*
Y93898D01*
X385421Y93065D02*
X384588Y93898D01*
X382922D01*
X382089Y93065D01*
Y89733D01*
X382922Y88900D01*
X384588D01*
X385421Y89733D01*
X390420Y93898D02*
X387088D01*
Y88900D01*
X390420D01*
X387088Y91399D02*
X388754D01*
X392086Y92232D02*
X392919D01*
Y91399D01*
X392086D01*
Y92232D01*
Y89733D02*
X392919D01*
Y88900D01*
X392086D01*
Y89733D01*
X396251Y88067D02*
X399584D01*
X401250Y91399D02*
X404582D01*
X402916Y93065D02*
Y89733D01*
X406248Y93065D02*
X407081Y93898D01*
X408747D01*
X409580Y93065D01*
Y89733D01*
X408747Y88900D01*
X407081D01*
X406248Y89733D01*
Y93065D01*
X411246Y88900D02*
Y89733D01*
X412079D01*
Y88900D01*
X411246D01*
X415412Y93065D02*
X416245Y93898D01*
X417911D01*
X418744Y93065D01*
Y89733D01*
X417911Y88900D01*
X416245D01*
X415412Y89733D01*
Y93065D01*
X423742Y93898D02*
X420410D01*
Y91399D01*
X422076Y92232D01*
X422909D01*
X423742Y91399D01*
Y89733D01*
X422909Y88900D01*
X421243D01*
X420410Y89733D01*
X425409Y88900D02*
X428741Y92232D01*
X430407Y91399D02*
X433739D01*
X435405Y93065D02*
X436238Y93898D01*
X437905D01*
X438737Y93065D01*
Y89733D01*
X437905Y88900D01*
X436238D01*
X435405Y89733D01*
Y93065D01*
X440404Y88900D02*
Y89733D01*
X441237D01*
Y88900D01*
X440404D01*
X444569Y93065D02*
X445402Y93898D01*
X447068D01*
X447901Y93065D01*
Y89733D01*
X447068Y88900D01*
X445402D01*
X444569Y89733D01*
Y93065D01*
X452900Y93898D02*
X449567D01*
Y91399D01*
X451233Y92232D01*
X452067D01*
X452900Y91399D01*
Y89733D01*
X452067Y88900D01*
X450400D01*
X449567Y89733D01*
X173765Y90081D02*
Y95079D01*
X177097Y90081D01*
Y95079D01*
X178764Y90081D02*
Y95079D01*
X181263D01*
X182096Y94246D01*
Y92580D01*
X181263Y91747D01*
X178764D01*
X183762Y95079D02*
X187094D01*
X185428D01*
Y90081D01*
X188760Y95079D02*
Y90081D01*
Y92580D01*
X192093D01*
Y95079D01*
Y90081D01*
X193759Y89248D02*
X197091D01*
X198757Y95079D02*
Y90081D01*
X201256D01*
X202089Y90914D01*
Y94246D01*
X201256Y95079D01*
X198757D01*
X203755Y90081D02*
Y95079D01*
X206255D01*
X207088Y94246D01*
Y92580D01*
X206255Y91747D01*
X203755D01*
X205422D02*
X207088Y90081D01*
X208754Y95079D02*
X210420D01*
X209587D01*
Y90081D01*
X208754D01*
X210420D01*
X212919Y95079D02*
Y90081D01*
X216251D01*
X217918Y95079D02*
Y90081D01*
X221250D01*
X222916Y89248D02*
X226248D01*
X231247Y94246D02*
X230414Y95079D01*
X228747D01*
X227914Y94246D01*
Y93413D01*
X228747Y92580D01*
X230414D01*
X231247Y91747D01*
Y90914D01*
X230414Y90081D01*
X228747D01*
X227914Y90914D01*
X232913Y95079D02*
X234579D01*
X233746D01*
Y90081D01*
X232913D01*
X234579D01*
X237078Y95079D02*
X240410D01*
Y94246D01*
X237078Y90914D01*
Y90081D01*
X240410D01*
X245409Y95079D02*
X242076D01*
Y90081D01*
X245409D01*
X242076Y92580D02*
X243742D01*
X247075Y93413D02*
X247908D01*
Y92580D01*
X247075D01*
Y93413D01*
Y90914D02*
X247908D01*
Y90081D01*
X247075D01*
Y90914D01*
X251240Y89248D02*
X254572D01*
X256239Y94246D02*
X257071Y95079D01*
X258738D01*
X259571Y94246D01*
Y93413D01*
X258738Y92580D01*
X257905D01*
X258738D01*
X259571Y91747D01*
Y90914D01*
X258738Y90081D01*
X257071D01*
X256239Y90914D01*
X261237Y90081D02*
Y90914D01*
X262070D01*
Y90081D01*
X261237D01*
X265402Y94246D02*
X266235Y95079D01*
X267901D01*
X268734Y94246D01*
Y90914D01*
X267901Y90081D01*
X266235D01*
X265402Y90914D01*
Y94246D01*
X270401Y89248D02*
X273733D01*
X275399Y90081D02*
Y95079D01*
X277065Y93413D01*
X278731Y95079D01*
Y90081D01*
X280397D02*
Y95079D01*
X282064Y93413D01*
X283730Y95079D01*
Y90081D01*
X286229Y89248D02*
X287062Y90081D01*
Y90914D01*
X286229D01*
Y90081D01*
X287062D01*
X286229Y89248D01*
X285396Y88415D01*
X290394Y89248D02*
X293726D01*
X295392Y95079D02*
X298725D01*
X297059D01*
Y90081D01*
X302890Y95079D02*
X301224D01*
X300391Y94246D01*
Y90914D01*
X301224Y90081D01*
X302890D01*
X303723Y90914D01*
Y94246D01*
X302890Y95079D01*
X305389D02*
Y90081D01*
X308721D01*
X313720Y95079D02*
X310388D01*
Y90081D01*
X313720D01*
X310388Y92580D02*
X312054D01*
X315386Y90081D02*
Y95079D01*
X317885D01*
X318718Y94246D01*
Y92580D01*
X317885Y91747D01*
X315386D01*
X317052D02*
X318718Y90081D01*
X320384D02*
Y93413D01*
X322050Y95079D01*
X323717Y93413D01*
Y90081D01*
Y92580D01*
X320384D01*
X325383Y90081D02*
Y95079D01*
X328715Y90081D01*
Y95079D01*
X333713Y94246D02*
X332880Y95079D01*
X331214D01*
X330381Y94246D01*
Y90914D01*
X331214Y90081D01*
X332880D01*
X333713Y90914D01*
X338712Y95079D02*
X335380D01*
Y90081D01*
X338712D01*
X335380Y92580D02*
X337046D01*
X340378Y93413D02*
X341211D01*
Y92580D01*
X340378D01*
Y93413D01*
Y90914D02*
X341211D01*
Y90081D01*
X340378D01*
Y90914D01*
X344543Y89248D02*
X347875D01*
X349542Y92580D02*
X352874D01*
X351208Y94246D02*
Y90914D01*
X354540Y94246D02*
X355373Y95079D01*
X357039D01*
X357872Y94246D01*
Y90914D01*
X357039Y90081D01*
X355373D01*
X354540Y90914D01*
Y94246D01*
X359538Y90081D02*
Y90914D01*
X360371D01*
Y90081D01*
X359538D01*
X363704Y94246D02*
X364537Y95079D01*
X366203D01*
X367036Y94246D01*
Y90914D01*
X366203Y90081D01*
X364537D01*
X363704Y90914D01*
Y94246D01*
X372034Y95079D02*
X368702D01*
Y92580D01*
X370368Y93413D01*
X371201D01*
X372034Y92580D01*
Y90914D01*
X371201Y90081D01*
X369535D01*
X368702Y90914D01*
X373700Y90081D02*
X377033Y93413D01*
X378699Y92580D02*
X382031D01*
X383697Y94246D02*
X384530Y95079D01*
X386196D01*
X387029Y94246D01*
Y90914D01*
X386196Y90081D01*
X384530D01*
X383697Y90914D01*
Y94246D01*
X388696Y90081D02*
Y90914D01*
X389529D01*
Y90081D01*
X388696D01*
X392861Y94246D02*
X393694Y95079D01*
X395360D01*
X396193Y94246D01*
Y90914D01*
X395360Y90081D01*
X393694D01*
X392861Y90914D01*
Y94246D01*
X401192Y95079D02*
X397859D01*
Y92580D01*
X399525Y93413D01*
X400358D01*
X401192Y92580D01*
Y90914D01*
X400358Y90081D01*
X398692D01*
X397859Y90914D01*
X209592Y92443D02*
Y97442D01*
X212091D01*
X212924Y96609D01*
Y94942D01*
X212091Y94109D01*
X209592D01*
X214590Y97442D02*
X217923D01*
X216256D01*
Y92443D01*
X219589Y97442D02*
Y92443D01*
Y94942D01*
X222921D01*
Y97442D01*
Y92443D01*
X224587Y91610D02*
X227919D01*
X229586Y97442D02*
Y92443D01*
X232085D01*
X232918Y93276D01*
Y96609D01*
X232085Y97442D01*
X229586D01*
X234584Y92443D02*
Y97442D01*
X237083D01*
X237916Y96609D01*
Y94942D01*
X237083Y94109D01*
X234584D01*
X236250D02*
X237916Y92443D01*
X239582Y97442D02*
X241248D01*
X240415D01*
Y92443D01*
X239582D01*
X241248D01*
X243748Y97442D02*
Y92443D01*
X247080D01*
X248746Y97442D02*
Y92443D01*
X252078D01*
X253744Y91610D02*
X257077D01*
X262075Y96609D02*
X261242Y97442D01*
X259576D01*
X258743Y96609D01*
Y95776D01*
X259576Y94942D01*
X261242D01*
X262075Y94109D01*
Y93276D01*
X261242Y92443D01*
X259576D01*
X258743Y93276D01*
X263741Y97442D02*
X265407D01*
X264574D01*
Y92443D01*
X263741D01*
X265407D01*
X267906Y97442D02*
X271239D01*
Y96609D01*
X267906Y93276D01*
Y92443D01*
X271239D01*
X276237Y97442D02*
X272905D01*
Y92443D01*
X276237D01*
X272905Y94942D02*
X274571D01*
X277903Y95776D02*
X278736D01*
Y94942D01*
X277903D01*
Y95776D01*
Y93276D02*
X278736D01*
Y92443D01*
X277903D01*
Y93276D01*
X282068Y91610D02*
X285401D01*
X287067Y92443D02*
X288733D01*
X287900D01*
Y97442D01*
X287067Y96609D01*
X291232Y92443D02*
Y93276D01*
X292065D01*
Y92443D01*
X291232D01*
X295397Y96609D02*
X296231Y97442D01*
X297897D01*
X298730Y96609D01*
Y93276D01*
X297897Y92443D01*
X296231D01*
X295397Y93276D01*
Y96609D01*
X303728Y92443D02*
X300396D01*
X303728Y95776D01*
Y96609D01*
X302895Y97442D01*
X301229D01*
X300396Y96609D01*
X305394Y91610D02*
X308727D01*
X310393Y92443D02*
Y97442D01*
X312059Y95776D01*
X313725Y97442D01*
Y92443D01*
X315391D02*
Y97442D01*
X317057Y95776D01*
X318723Y97442D01*
Y92443D01*
X321222Y91610D02*
X322056Y92443D01*
Y93276D01*
X321222D01*
Y92443D01*
X322056D01*
X321222Y91610D01*
X320389Y90777D01*
X325388Y91610D02*
X328720D01*
X330386Y97442D02*
X333718D01*
X332052D01*
Y92443D01*
X337884Y97442D02*
X336218D01*
X335384Y96609D01*
Y93276D01*
X336218Y92443D01*
X337884D01*
X338717Y93276D01*
Y96609D01*
X337884Y97442D01*
X340383D02*
Y92443D01*
X343715D01*
X348714Y97442D02*
X345381D01*
Y92443D01*
X348714D01*
X345381Y94942D02*
X347047D01*
X350380Y92443D02*
Y97442D01*
X352879D01*
X353712Y96609D01*
Y94942D01*
X352879Y94109D01*
X350380D01*
X352046D02*
X353712Y92443D01*
X355378D02*
Y95776D01*
X357044Y97442D01*
X358710Y95776D01*
Y92443D01*
Y94942D01*
X355378D01*
X360377Y92443D02*
Y97442D01*
X363709Y92443D01*
Y97442D01*
X368707Y96609D02*
X367874Y97442D01*
X366208D01*
X365375Y96609D01*
Y93276D01*
X366208Y92443D01*
X367874D01*
X368707Y93276D01*
X373706Y97442D02*
X370373D01*
Y92443D01*
X373706D01*
X370373Y94942D02*
X372039D01*
X375372Y95776D02*
X376205D01*
Y94942D01*
X375372D01*
Y95776D01*
Y93276D02*
X376205D01*
Y92443D01*
X375372D01*
Y93276D01*
X379537Y91610D02*
X382869D01*
X384535Y94942D02*
X387867D01*
X386201Y96609D02*
Y93276D01*
X389534Y96609D02*
X390367Y97442D01*
X392033D01*
X392866Y96609D01*
Y93276D01*
X392033Y92443D01*
X390367D01*
X389534Y93276D01*
Y96609D01*
X394532Y92443D02*
Y93276D01*
X395365D01*
Y92443D01*
X394532D01*
X398697Y96609D02*
X399530Y97442D01*
X401197D01*
X402030Y96609D01*
Y93276D01*
X401197Y92443D01*
X399530D01*
X398697Y93276D01*
Y96609D01*
X407028Y97442D02*
X403696D01*
Y94942D01*
X405362Y95776D01*
X406195D01*
X407028Y94942D01*
Y93276D01*
X406195Y92443D01*
X404529D01*
X403696Y93276D01*
X408694Y92443D02*
X412026Y95776D01*
X413693Y94942D02*
X417025D01*
X418691Y96609D02*
X419524Y97442D01*
X421190D01*
X422023Y96609D01*
Y93276D01*
X421190Y92443D01*
X419524D01*
X418691Y93276D01*
Y96609D01*
X423689Y92443D02*
Y93276D01*
X424522D01*
Y92443D01*
X423689D01*
X427855Y96609D02*
X428688Y97442D01*
X430354D01*
X431187Y96609D01*
Y93276D01*
X430354Y92443D01*
X428688D01*
X427855Y93276D01*
Y96609D01*
X436185Y97442D02*
X432853D01*
Y94942D01*
X434519Y95776D01*
X435352D01*
X436185Y94942D01*
Y93276D01*
X435352Y92443D01*
X433686D01*
X432853Y93276D01*
X120830Y90869D02*
Y95867D01*
X124163Y90869D01*
Y95867D01*
X125829Y90869D02*
Y95867D01*
X128328D01*
X129161Y95034D01*
Y93368D01*
X128328Y92535D01*
X125829D01*
X130827Y95867D02*
X134159D01*
X132493D01*
Y90869D01*
X135826Y95867D02*
Y90869D01*
Y93368D01*
X139158D01*
Y95867D01*
Y90869D01*
X140824Y90035D02*
X144156D01*
X145822Y95867D02*
Y90869D01*
X148321D01*
X149154Y91702D01*
Y95034D01*
X148321Y95867D01*
X145822D01*
X150821Y90869D02*
Y95867D01*
X153320D01*
X154153Y95034D01*
Y93368D01*
X153320Y92535D01*
X150821D01*
X152487D02*
X154153Y90869D01*
X155819Y95867D02*
X157485D01*
X156652D01*
Y90869D01*
X155819D01*
X157485D01*
X159984Y95867D02*
Y90869D01*
X163317D01*
X164983Y95867D02*
Y90869D01*
X168315D01*
X169981Y90035D02*
X173313D01*
X178312Y95034D02*
X177479Y95867D01*
X175812D01*
X174979Y95034D01*
Y94201D01*
X175812Y93368D01*
X177479D01*
X178312Y92535D01*
Y91702D01*
X177479Y90869D01*
X175812D01*
X174979Y91702D01*
X179978Y95867D02*
X181644D01*
X180811D01*
Y90869D01*
X179978D01*
X181644D01*
X184143Y95867D02*
X187475D01*
Y95034D01*
X184143Y91702D01*
Y90869D01*
X187475D01*
X192474Y95867D02*
X189141D01*
Y90869D01*
X192474D01*
X189141Y93368D02*
X190808D01*
X194140Y94201D02*
X194973D01*
Y93368D01*
X194140D01*
Y94201D01*
Y91702D02*
X194973D01*
Y90869D01*
X194140D01*
Y91702D01*
X198305Y90035D02*
X201638D01*
X203304Y95034D02*
X204137Y95867D01*
X205803D01*
X206636Y95034D01*
Y94201D01*
X205803Y93368D01*
X204970D01*
X205803D01*
X206636Y92535D01*
Y91702D01*
X205803Y90869D01*
X204137D01*
X203304Y91702D01*
X208302Y90869D02*
Y91702D01*
X209135D01*
Y90869D01*
X208302D01*
X212467Y95034D02*
X213300Y95867D01*
X214967D01*
X215800Y95034D01*
Y91702D01*
X214967Y90869D01*
X213300D01*
X212467Y91702D01*
Y95034D01*
X217466Y90035D02*
X220798D01*
X222464Y90869D02*
Y95867D01*
X224130Y94201D01*
X225796Y95867D01*
Y90869D01*
X227463D02*
Y95867D01*
X229129Y94201D01*
X230795Y95867D01*
Y90869D01*
X233294Y90035D02*
X234127Y90869D01*
Y91702D01*
X233294D01*
Y90869D01*
X234127D01*
X233294Y90035D01*
X232461Y89202D01*
X237459Y90035D02*
X240792D01*
X242458Y95867D02*
X245790D01*
X244124D01*
Y90869D01*
X249955Y95867D02*
X248289D01*
X247456Y95034D01*
Y91702D01*
X248289Y90869D01*
X249955D01*
X250788Y91702D01*
Y95034D01*
X249955Y95867D01*
X252454D02*
Y90869D01*
X255787D01*
X260785Y95867D02*
X257453D01*
Y90869D01*
X260785D01*
X257453Y93368D02*
X259119D01*
X262451Y90869D02*
Y95867D01*
X264950D01*
X265783Y95034D01*
Y93368D01*
X264950Y92535D01*
X262451D01*
X264117D02*
X265783Y90869D01*
X267449D02*
Y94201D01*
X269116Y95867D01*
X270782Y94201D01*
Y90869D01*
Y93368D01*
X267449D01*
X272448Y90869D02*
Y95867D01*
X275780Y90869D01*
Y95867D01*
X280779Y95034D02*
X279945Y95867D01*
X278279D01*
X277446Y95034D01*
Y91702D01*
X278279Y90869D01*
X279945D01*
X280779Y91702D01*
X285777Y95867D02*
X282445D01*
Y90869D01*
X285777D01*
X282445Y93368D02*
X284111D01*
X287443Y94201D02*
X288276D01*
Y93368D01*
X287443D01*
Y94201D01*
Y91702D02*
X288276D01*
Y90869D01*
X287443D01*
Y91702D01*
X291608Y90035D02*
X294941D01*
X296607Y93368D02*
X299939D01*
X298273Y95034D02*
Y91702D01*
X301605Y95034D02*
X302438Y95867D01*
X304104D01*
X304937Y95034D01*
Y91702D01*
X304104Y90869D01*
X302438D01*
X301605Y91702D01*
Y95034D01*
X306604Y90869D02*
Y91702D01*
X307436D01*
Y90869D01*
X306604D01*
X310769Y95034D02*
X311602Y95867D01*
X313268D01*
X314101Y95034D01*
Y91702D01*
X313268Y90869D01*
X311602D01*
X310769Y91702D01*
Y95034D01*
X319099Y95867D02*
X315767D01*
Y93368D01*
X317433Y94201D01*
X318266D01*
X319099Y93368D01*
Y91702D01*
X318266Y90869D01*
X316600D01*
X315767Y91702D01*
X320766Y90869D02*
X324098Y94201D01*
X325764Y93368D02*
X329096D01*
X330762Y95034D02*
X331595Y95867D01*
X333261D01*
X334095Y95034D01*
Y91702D01*
X333261Y90869D01*
X331595D01*
X330762Y91702D01*
Y95034D01*
X335761Y90869D02*
Y91702D01*
X336594D01*
Y90869D01*
X335761D01*
X339926Y95034D02*
X340759Y95867D01*
X342425D01*
X343258Y95034D01*
Y91702D01*
X342425Y90869D01*
X340759D01*
X339926Y91702D01*
Y95034D01*
X348257Y95867D02*
X344924D01*
Y93368D01*
X346590Y94201D01*
X347424D01*
X348257Y93368D01*
Y91702D01*
X347424Y90869D01*
X345758D01*
X344924Y91702D01*
X228776Y12205D02*
Y17203D01*
X231275D01*
X232108Y16370D01*
Y14704D01*
X231275Y13871D01*
X228776D01*
X233774Y17203D02*
X237107D01*
X235440D01*
Y12205D01*
X238773Y17203D02*
Y12205D01*
Y14704D01*
X242105D01*
Y17203D01*
Y12205D01*
X243771Y11372D02*
X247103D01*
X248769Y17203D02*
Y12205D01*
X251269D01*
X252102Y13038D01*
Y16370D01*
X251269Y17203D01*
X248769D01*
X253768Y12205D02*
Y17203D01*
X256267D01*
X257100Y16370D01*
Y14704D01*
X256267Y13871D01*
X253768D01*
X255434D02*
X257100Y12205D01*
X258766Y17203D02*
X260432D01*
X259599D01*
Y12205D01*
X258766D01*
X260432D01*
X262932Y17203D02*
Y12205D01*
X266264D01*
X267930Y17203D02*
Y12205D01*
X271262D01*
X272928Y11372D02*
X276261D01*
X281259Y16370D02*
X280426Y17203D01*
X278760D01*
X277927Y16370D01*
Y15537D01*
X278760Y14704D01*
X280426D01*
X281259Y13871D01*
Y13038D01*
X280426Y12205D01*
X278760D01*
X277927Y13038D01*
X282925Y17203D02*
X284591D01*
X283758D01*
Y12205D01*
X282925D01*
X284591D01*
X287090Y17203D02*
X290423D01*
Y16370D01*
X287090Y13038D01*
Y12205D01*
X290423D01*
X295421Y17203D02*
X292089D01*
Y12205D01*
X295421D01*
X292089Y14704D02*
X293755D01*
X297087Y15537D02*
X297920D01*
Y14704D01*
X297087D01*
Y15537D01*
Y13038D02*
X297920D01*
Y12205D01*
X297087D01*
Y13038D01*
X301253Y11372D02*
X304585D01*
X306251Y12205D02*
X307917D01*
X307084D01*
Y17203D01*
X306251Y16370D01*
X310416Y12205D02*
Y13038D01*
X311249D01*
Y12205D01*
X310416D01*
X314581Y16370D02*
X315415Y17203D01*
X317081D01*
X317914Y16370D01*
Y13038D01*
X317081Y12205D01*
X315415D01*
X314581Y13038D01*
Y16370D01*
X322912Y12205D02*
X319580D01*
X322912Y15537D01*
Y16370D01*
X322079Y17203D01*
X320413D01*
X319580Y16370D01*
X324578Y11372D02*
X327910D01*
X329577Y12205D02*
Y17203D01*
X331243Y15537D01*
X332909Y17203D01*
Y12205D01*
X334575D02*
Y17203D01*
X336241Y15537D01*
X337907Y17203D01*
Y12205D01*
X340406Y11372D02*
X341240Y12205D01*
Y13038D01*
X340406D01*
Y12205D01*
X341240D01*
X340406Y11372D01*
X339573Y10539D01*
X344572Y11372D02*
X347904D01*
X349570Y17203D02*
X352902D01*
X351236D01*
Y12205D01*
X357068Y17203D02*
X355402D01*
X354569Y16370D01*
Y13038D01*
X355402Y12205D01*
X357068D01*
X357901Y13038D01*
Y16370D01*
X357068Y17203D01*
X359567D02*
Y12205D01*
X362899D01*
X367898Y17203D02*
X364565D01*
Y12205D01*
X367898D01*
X364565Y14704D02*
X366231D01*
X369564Y12205D02*
Y17203D01*
X372063D01*
X372896Y16370D01*
Y14704D01*
X372063Y13871D01*
X369564D01*
X371230D02*
X372896Y12205D01*
X374562D02*
Y15537D01*
X376228Y17203D01*
X377894Y15537D01*
Y12205D01*
Y14704D01*
X374562D01*
X379560Y12205D02*
Y17203D01*
X382893Y12205D01*
Y17203D01*
X387891Y16370D02*
X387058Y17203D01*
X385392D01*
X384559Y16370D01*
Y13038D01*
X385392Y12205D01*
X387058D01*
X387891Y13038D01*
X392889Y17203D02*
X389557D01*
Y12205D01*
X392889D01*
X389557Y14704D02*
X391223D01*
X394556Y15537D02*
X395389D01*
Y14704D01*
X394556D01*
Y15537D01*
Y13038D02*
X395389D01*
Y12205D01*
X394556D01*
Y13038D01*
X398721Y11372D02*
X402053D01*
X403719Y14704D02*
X407052D01*
X405385Y16370D02*
Y13038D01*
X408718Y16370D02*
X409551Y17203D01*
X411217D01*
X412050Y16370D01*
Y13038D01*
X411217Y12205D01*
X409551D01*
X408718Y13038D01*
Y16370D01*
X413716Y12205D02*
Y13038D01*
X414549D01*
Y12205D01*
X413716D01*
X417881Y16370D02*
X418714Y17203D01*
X420380D01*
X421214Y16370D01*
Y13038D01*
X420380Y12205D01*
X418714D01*
X417881Y13038D01*
Y16370D01*
X426212Y17203D02*
X422880D01*
Y14704D01*
X424546Y15537D01*
X425379D01*
X426212Y14704D01*
Y13038D01*
X425379Y12205D01*
X423713D01*
X422880Y13038D01*
X427878Y12205D02*
X431210Y15537D01*
X432876Y14704D02*
X436209D01*
X437875Y16370D02*
X438708Y17203D01*
X440374D01*
X441207Y16370D01*
Y13038D01*
X440374Y12205D01*
X438708D01*
X437875Y13038D01*
Y16370D01*
X442873Y12205D02*
Y13038D01*
X443706D01*
Y12205D01*
X442873D01*
X447039Y16370D02*
X447872Y17203D01*
X449538D01*
X450371Y16370D01*
Y13038D01*
X449538Y12205D01*
X447872D01*
X447039Y13038D01*
Y16370D01*
X455369Y17203D02*
X452037D01*
Y14704D01*
X453703Y15537D01*
X454536D01*
X455369Y14704D01*
Y13038D01*
X454536Y12205D01*
X452870D01*
X452037Y13038D01*
X56085Y99924D02*
Y104922D01*
X59417Y99924D01*
Y104922D01*
X61083Y99924D02*
Y104922D01*
X63582D01*
X64415Y104089D01*
Y102423D01*
X63582Y101590D01*
X61083D01*
X66081Y104922D02*
X69414D01*
X67747D01*
Y99924D01*
X71080Y104922D02*
Y99924D01*
Y102423D01*
X74412D01*
Y104922D01*
Y99924D01*
X76078Y99091D02*
X79410D01*
X81076Y104922D02*
Y99924D01*
X83576D01*
X84409Y100757D01*
Y104089D01*
X83576Y104922D01*
X81076D01*
X86075Y99924D02*
Y104922D01*
X88574D01*
X89407Y104089D01*
Y102423D01*
X88574Y101590D01*
X86075D01*
X87741D02*
X89407Y99924D01*
X91073Y104922D02*
X92739D01*
X91906D01*
Y99924D01*
X91073D01*
X92739D01*
X95239Y104922D02*
Y99924D01*
X98571D01*
X100237Y104922D02*
Y99924D01*
X103569D01*
X105235Y99091D02*
X108568D01*
X113566Y104089D02*
X112733Y104922D01*
X111067D01*
X110234Y104089D01*
Y103256D01*
X111067Y102423D01*
X112733D01*
X113566Y101590D01*
Y100757D01*
X112733Y99924D01*
X111067D01*
X110234Y100757D01*
X115232Y104922D02*
X116898D01*
X116065D01*
Y99924D01*
X115232D01*
X116898D01*
X119397Y104922D02*
X122730D01*
Y104089D01*
X119397Y100757D01*
Y99924D01*
X122730D01*
X127728Y104922D02*
X124396D01*
Y99924D01*
X127728D01*
X124396Y102423D02*
X126062D01*
X129394Y103256D02*
X130227D01*
Y102423D01*
X129394D01*
Y103256D01*
Y100757D02*
X130227D01*
Y99924D01*
X129394D01*
Y100757D01*
X133559Y99091D02*
X136892D01*
X138558Y104089D02*
X139391Y104922D01*
X141057D01*
X141890Y104089D01*
Y103256D01*
X141057Y102423D01*
X140224D01*
X141057D01*
X141890Y101590D01*
Y100757D01*
X141057Y99924D01*
X139391D01*
X138558Y100757D01*
X143556Y99924D02*
Y100757D01*
X144389D01*
Y99924D01*
X143556D01*
X147722Y104089D02*
X148555Y104922D01*
X150221D01*
X151054Y104089D01*
Y100757D01*
X150221Y99924D01*
X148555D01*
X147722Y100757D01*
Y104089D01*
X152720Y99091D02*
X156052D01*
X157718Y99924D02*
Y104922D01*
X159384Y103256D01*
X161050Y104922D01*
Y99924D01*
X162717D02*
Y104922D01*
X164383Y103256D01*
X166049Y104922D01*
Y99924D01*
X168548Y99091D02*
X169381Y99924D01*
Y100757D01*
X168548D01*
Y99924D01*
X169381D01*
X168548Y99091D01*
X167715Y98257D01*
X172713Y99091D02*
X176046D01*
X177712Y104922D02*
X181044D01*
X179378D01*
Y99924D01*
X185209Y104922D02*
X183543D01*
X182710Y104089D01*
Y100757D01*
X183543Y99924D01*
X185209D01*
X186042Y100757D01*
Y104089D01*
X185209Y104922D01*
X187708D02*
Y99924D01*
X191041D01*
X196039Y104922D02*
X192707D01*
Y99924D01*
X196039D01*
X192707Y102423D02*
X194373D01*
X197705Y99924D02*
Y104922D01*
X200204D01*
X201038Y104089D01*
Y102423D01*
X200204Y101590D01*
X197705D01*
X199371D02*
X201038Y99924D01*
X202704D02*
Y103256D01*
X204370Y104922D01*
X206036Y103256D01*
Y99924D01*
Y102423D01*
X202704D01*
X207702Y99924D02*
Y104922D01*
X211034Y99924D01*
Y104922D01*
X216033Y104089D02*
X215200Y104922D01*
X213533D01*
X212700Y104089D01*
Y100757D01*
X213533Y99924D01*
X215200D01*
X216033Y100757D01*
X221031Y104922D02*
X217699D01*
Y99924D01*
X221031D01*
X217699Y102423D02*
X219365D01*
X222697Y103256D02*
X223530D01*
Y102423D01*
X222697D01*
Y103256D01*
Y100757D02*
X223530D01*
Y99924D01*
X222697D01*
Y100757D01*
X226863Y99091D02*
X230195D01*
X231861Y102423D02*
X235193D01*
X233527Y104089D02*
Y100757D01*
X236859Y104089D02*
X237692Y104922D01*
X239358D01*
X240192Y104089D01*
Y100757D01*
X239358Y99924D01*
X237692D01*
X236859Y100757D01*
Y104089D01*
X241858Y99924D02*
Y100757D01*
X242691D01*
Y99924D01*
X241858D01*
X246023Y104089D02*
X246856Y104922D01*
X248522D01*
X249355Y104089D01*
Y100757D01*
X248522Y99924D01*
X246856D01*
X246023Y100757D01*
Y104089D01*
X254354Y104922D02*
X251021D01*
Y102423D01*
X252687Y103256D01*
X253520D01*
X254354Y102423D01*
Y100757D01*
X253520Y99924D01*
X251854D01*
X251021Y100757D01*
X256020Y99924D02*
X259352Y103256D01*
X261018Y102423D02*
X264350D01*
X266016Y104089D02*
X266849Y104922D01*
X268516D01*
X269349Y104089D01*
Y100757D01*
X268516Y99924D01*
X266849D01*
X266016Y100757D01*
Y104089D01*
X271015Y99924D02*
Y100757D01*
X271848D01*
Y99924D01*
X271015D01*
X275180Y104089D02*
X276013Y104922D01*
X277679D01*
X278512Y104089D01*
Y100757D01*
X277679Y99924D01*
X276013D01*
X275180Y100757D01*
Y104089D01*
X283511Y104922D02*
X280178D01*
Y102423D01*
X281845Y103256D01*
X282678D01*
X283511Y102423D01*
Y100757D01*
X282678Y99924D01*
X281012D01*
X280178Y100757D01*
X80494Y90081D02*
Y95079D01*
X82993D01*
X83826Y94246D01*
Y92580D01*
X82993Y91747D01*
X80494D01*
X85492Y95079D02*
X88824D01*
X87158D01*
Y90081D01*
X90491Y95079D02*
Y90081D01*
Y92580D01*
X93823D01*
Y95079D01*
Y90081D01*
X95489Y89248D02*
X98821D01*
X100487Y95079D02*
Y90081D01*
X102987D01*
X103820Y90914D01*
Y94246D01*
X102987Y95079D01*
X100487D01*
X105486Y90081D02*
Y95079D01*
X107985D01*
X108818Y94246D01*
Y92580D01*
X107985Y91747D01*
X105486D01*
X107152D02*
X108818Y90081D01*
X110484Y95079D02*
X112150D01*
X111317D01*
Y90081D01*
X110484D01*
X112150D01*
X114649Y95079D02*
Y90081D01*
X117982D01*
X119648Y95079D02*
Y90081D01*
X122980D01*
X124646Y89248D02*
X127979D01*
X132977Y94246D02*
X132144Y95079D01*
X130478D01*
X129645Y94246D01*
Y93413D01*
X130478Y92580D01*
X132144D01*
X132977Y91747D01*
Y90914D01*
X132144Y90081D01*
X130478D01*
X129645Y90914D01*
X134643Y95079D02*
X136309D01*
X135476D01*
Y90081D01*
X134643D01*
X136309D01*
X138808Y95079D02*
X142141D01*
Y94246D01*
X138808Y90914D01*
Y90081D01*
X142141D01*
X147139Y95079D02*
X143807D01*
Y90081D01*
X147139D01*
X143807Y92580D02*
X145473D01*
X148805Y93413D02*
X149638D01*
Y92580D01*
X148805D01*
Y93413D01*
Y90914D02*
X149638D01*
Y90081D01*
X148805D01*
Y90914D01*
X152970Y89248D02*
X156303D01*
X157969Y90081D02*
X159635D01*
X158802D01*
Y95079D01*
X157969Y94246D01*
X162134Y90081D02*
Y90914D01*
X162967D01*
Y90081D01*
X162134D01*
X166299Y94246D02*
X167132Y95079D01*
X168799D01*
X169632Y94246D01*
Y90914D01*
X168799Y90081D01*
X167132D01*
X166299Y90914D01*
Y94246D01*
X174630Y90081D02*
X171298D01*
X174630Y93413D01*
Y94246D01*
X173797Y95079D01*
X172131D01*
X171298Y94246D01*
X176296Y89248D02*
X179629D01*
X181295Y90081D02*
Y95079D01*
X182961Y93413D01*
X184627Y95079D01*
Y90081D01*
X186293D02*
Y95079D01*
X187959Y93413D01*
X189625Y95079D01*
Y90081D01*
X192124Y89248D02*
X192957Y90081D01*
Y90914D01*
X192124D01*
Y90081D01*
X192957D01*
X192124Y89248D01*
X191291Y88415D01*
X196290Y89248D02*
X199622D01*
X201288Y95079D02*
X204620D01*
X202954D01*
Y90081D01*
X208786Y95079D02*
X207119D01*
X206287Y94246D01*
Y90914D01*
X207119Y90081D01*
X208786D01*
X209619Y90914D01*
Y94246D01*
X208786Y95079D01*
X211285D02*
Y90081D01*
X214617D01*
X219616Y95079D02*
X216283D01*
Y90081D01*
X219616D01*
X216283Y92580D02*
X217949D01*
X221282Y90081D02*
Y95079D01*
X223781D01*
X224614Y94246D01*
Y92580D01*
X223781Y91747D01*
X221282D01*
X222948D02*
X224614Y90081D01*
X226280D02*
Y93413D01*
X227946Y95079D01*
X229612Y93413D01*
Y90081D01*
Y92580D01*
X226280D01*
X231278Y90081D02*
Y95079D01*
X234611Y90081D01*
Y95079D01*
X239609Y94246D02*
X238776Y95079D01*
X237110D01*
X236277Y94246D01*
Y90914D01*
X237110Y90081D01*
X238776D01*
X239609Y90914D01*
X244607Y95079D02*
X241275D01*
Y90081D01*
X244607D01*
X241275Y92580D02*
X242941D01*
X246273Y93413D02*
X247107D01*
Y92580D01*
X246273D01*
Y93413D01*
Y90914D02*
X247107D01*
Y90081D01*
X246273D01*
Y90914D01*
X250439Y89248D02*
X253771D01*
X255437Y92580D02*
X258769D01*
X257103Y94246D02*
Y90914D01*
X260436Y94246D02*
X261269Y95079D01*
X262935D01*
X263768Y94246D01*
Y90914D01*
X262935Y90081D01*
X261269D01*
X260436Y90914D01*
Y94246D01*
X265434Y90081D02*
Y90914D01*
X266267D01*
Y90081D01*
X265434D01*
X269599Y94246D02*
X270432Y95079D01*
X272098D01*
X272932Y94246D01*
Y90914D01*
X272098Y90081D01*
X270432D01*
X269599Y90914D01*
Y94246D01*
X277930Y95079D02*
X274598D01*
Y92580D01*
X276264Y93413D01*
X277097D01*
X277930Y92580D01*
Y90914D01*
X277097Y90081D01*
X275431D01*
X274598Y90914D01*
X279596Y90081D02*
X282928Y93413D01*
X284594Y92580D02*
X287927D01*
X289593Y94246D02*
X290426Y95079D01*
X292092D01*
X292925Y94246D01*
Y90914D01*
X292092Y90081D01*
X290426D01*
X289593Y90914D01*
Y94246D01*
X294591Y90081D02*
Y90914D01*
X295424D01*
Y90081D01*
X294591D01*
X298757Y94246D02*
X299590Y95079D01*
X301256D01*
X302089Y94246D01*
Y90914D01*
X301256Y90081D01*
X299590D01*
X298757Y90914D01*
Y94246D01*
X307087Y95079D02*
X303755D01*
Y92580D01*
X305421Y93413D01*
X306254D01*
X307087Y92580D01*
Y90914D01*
X306254Y90081D01*
X304588D01*
X303755Y90914D01*
X22047Y83388D02*
Y88387D01*
X25379Y83388D01*
Y88387D01*
X27046Y83388D02*
Y88387D01*
X29545D01*
X30378Y87554D01*
Y85887D01*
X29545Y85054D01*
X27046D01*
X32044Y88387D02*
X35376D01*
X33710D01*
Y83388D01*
X37042Y88387D02*
Y83388D01*
Y85887D01*
X40375D01*
Y88387D01*
Y83388D01*
X42041Y82555D02*
X45373D01*
X47039Y88387D02*
Y83388D01*
X49538D01*
X50371Y84221D01*
Y87554D01*
X49538Y88387D01*
X47039D01*
X52038Y83388D02*
Y88387D01*
X54537D01*
X55370Y87554D01*
Y85887D01*
X54537Y85054D01*
X52038D01*
X53704D02*
X55370Y83388D01*
X57036Y88387D02*
X58702D01*
X57869D01*
Y83388D01*
X57036D01*
X58702D01*
X61201Y88387D02*
Y83388D01*
X64534D01*
X66200Y88387D02*
Y83388D01*
X69532D01*
X71198Y82555D02*
X74530D01*
X79529Y87554D02*
X78696Y88387D01*
X77029D01*
X76196Y87554D01*
Y86721D01*
X77029Y85887D01*
X78696D01*
X79529Y85054D01*
Y84221D01*
X78696Y83388D01*
X77029D01*
X76196Y84221D01*
X81195Y88387D02*
X82861D01*
X82028D01*
Y83388D01*
X81195D01*
X82861D01*
X85360Y88387D02*
X88692D01*
Y87554D01*
X85360Y84221D01*
Y83388D01*
X88692D01*
X93691Y88387D02*
X90359D01*
Y83388D01*
X93691D01*
X90359Y85887D02*
X92025D01*
X95357Y86721D02*
X96190D01*
Y85887D01*
X95357D01*
Y86721D01*
Y84221D02*
X96190D01*
Y83388D01*
X95357D01*
Y84221D01*
X99522Y82555D02*
X102854D01*
X104520Y87554D02*
X105354Y88387D01*
X107020D01*
X107853Y87554D01*
Y86721D01*
X107020Y85887D01*
X106187D01*
X107020D01*
X107853Y85054D01*
Y84221D01*
X107020Y83388D01*
X105354D01*
X104520Y84221D01*
X109519Y83388D02*
Y84221D01*
X110352D01*
Y83388D01*
X109519D01*
X113684Y87554D02*
X114517Y88387D01*
X116183D01*
X117016Y87554D01*
Y84221D01*
X116183Y83388D01*
X114517D01*
X113684Y84221D01*
Y87554D01*
X118683Y82555D02*
X122015D01*
X123681Y83388D02*
Y88387D01*
X125347Y86721D01*
X127013Y88387D01*
Y83388D01*
X128679D02*
Y88387D01*
X130345Y86721D01*
X132012Y88387D01*
Y83388D01*
X134511Y82555D02*
X135344Y83388D01*
Y84221D01*
X134511D01*
Y83388D01*
X135344D01*
X134511Y82555D01*
X133678Y81722D01*
X138676Y82555D02*
X142008D01*
X143675Y88387D02*
X147007D01*
X145341D01*
Y83388D01*
X151172Y88387D02*
X149506D01*
X148673Y87554D01*
Y84221D01*
X149506Y83388D01*
X151172D01*
X152005Y84221D01*
Y87554D01*
X151172Y88387D01*
X153671D02*
Y83388D01*
X157003D01*
X162002Y88387D02*
X158670D01*
Y83388D01*
X162002D01*
X158670Y85887D02*
X160336D01*
X163668Y83388D02*
Y88387D01*
X166167D01*
X167000Y87554D01*
Y85887D01*
X166167Y85054D01*
X163668D01*
X165334D02*
X167000Y83388D01*
X168666D02*
Y86721D01*
X170333Y88387D01*
X171999Y86721D01*
Y83388D01*
Y85887D01*
X168666D01*
X173665Y83388D02*
Y88387D01*
X176997Y83388D01*
Y88387D01*
X181995Y87554D02*
X181162Y88387D01*
X179496D01*
X178663Y87554D01*
Y84221D01*
X179496Y83388D01*
X181162D01*
X181995Y84221D01*
X186994Y88387D02*
X183662D01*
Y83388D01*
X186994D01*
X183662Y85887D02*
X185328D01*
X188660Y86721D02*
X189493D01*
Y85887D01*
X188660D01*
Y86721D01*
Y84221D02*
X189493D01*
Y83388D01*
X188660D01*
Y84221D01*
X192825Y82555D02*
X196158D01*
X197824Y85887D02*
X201156D01*
X199490Y87554D02*
Y84221D01*
X202822Y87554D02*
X203655Y88387D01*
X205321D01*
X206154Y87554D01*
Y84221D01*
X205321Y83388D01*
X203655D01*
X202822Y84221D01*
Y87554D01*
X207820Y83388D02*
Y84221D01*
X208653D01*
Y83388D01*
X207820D01*
X211986Y87554D02*
X212819Y88387D01*
X214485D01*
X215318Y87554D01*
Y84221D01*
X214485Y83388D01*
X212819D01*
X211986Y84221D01*
Y87554D01*
X220316Y88387D02*
X216984D01*
Y85887D01*
X218650Y86721D01*
X219483D01*
X220316Y85887D01*
Y84221D01*
X219483Y83388D01*
X217817D01*
X216984Y84221D01*
X221983Y83388D02*
X225315Y86721D01*
X226981Y85887D02*
X230313D01*
X231979Y87554D02*
X232812Y88387D01*
X234478D01*
X235312Y87554D01*
Y84221D01*
X234478Y83388D01*
X232812D01*
X231979Y84221D01*
Y87554D01*
X236978Y83388D02*
Y84221D01*
X237811D01*
Y83388D01*
X236978D01*
X241143Y87554D02*
X241976Y88387D01*
X243642D01*
X244475Y87554D01*
Y84221D01*
X243642Y83388D01*
X241976D01*
X241143Y84221D01*
Y87554D01*
X249474Y88387D02*
X246141D01*
Y85887D01*
X247807Y86721D01*
X248640D01*
X249474Y85887D01*
Y84221D01*
X248640Y83388D01*
X246974D01*
X246141Y84221D01*
X27165Y78664D02*
Y83662D01*
X29665D01*
X30498Y82829D01*
Y81163D01*
X29665Y80330D01*
X27165D01*
X32164Y83662D02*
X35496D01*
X33830D01*
Y78664D01*
X37162Y83662D02*
Y78664D01*
Y81163D01*
X40494D01*
Y83662D01*
Y78664D01*
X42160Y77831D02*
X45493D01*
X47159Y83662D02*
Y78664D01*
X49658D01*
X50491Y79497D01*
Y82829D01*
X49658Y83662D01*
X47159D01*
X52157Y78664D02*
Y83662D01*
X54656D01*
X55489Y82829D01*
Y81163D01*
X54656Y80330D01*
X52157D01*
X53823D02*
X55489Y78664D01*
X57156Y83662D02*
X58822D01*
X57989D01*
Y78664D01*
X57156D01*
X58822D01*
X61321Y83662D02*
Y78664D01*
X64653D01*
X66319Y83662D02*
Y78664D01*
X69652D01*
X71318Y77831D02*
X74650D01*
X79648Y82829D02*
X78815Y83662D01*
X77149D01*
X76316Y82829D01*
Y81996D01*
X77149Y81163D01*
X78815D01*
X79648Y80330D01*
Y79497D01*
X78815Y78664D01*
X77149D01*
X76316Y79497D01*
X81314Y83662D02*
X82981D01*
X82148D01*
Y78664D01*
X81314D01*
X82981D01*
X85480Y83662D02*
X88812D01*
Y82829D01*
X85480Y79497D01*
Y78664D01*
X88812D01*
X93810Y83662D02*
X90478D01*
Y78664D01*
X93810D01*
X90478Y81163D02*
X92144D01*
X95477Y81996D02*
X96310D01*
Y81163D01*
X95477D01*
Y81996D01*
Y79497D02*
X96310D01*
Y78664D01*
X95477D01*
Y79497D01*
X99642Y77831D02*
X102974D01*
X104640Y78664D02*
X106306D01*
X105473D01*
Y83662D01*
X104640Y82829D01*
X108806Y78664D02*
Y79497D01*
X109639D01*
Y78664D01*
X108806D01*
X112971Y82829D02*
X113804Y83662D01*
X115470D01*
X116303Y82829D01*
Y79497D01*
X115470Y78664D01*
X113804D01*
X112971Y79497D01*
Y82829D01*
X121301Y78664D02*
X117969D01*
X121301Y81996D01*
Y82829D01*
X120468Y83662D01*
X118802D01*
X117969Y82829D01*
X122968Y77831D02*
X126300D01*
X127966Y78664D02*
Y83662D01*
X129632Y81996D01*
X131298Y83662D01*
Y78664D01*
X132964D02*
Y83662D01*
X134631Y81996D01*
X136297Y83662D01*
Y78664D01*
X138796Y77831D02*
X139629Y78664D01*
Y79497D01*
X138796D01*
Y78664D01*
X139629D01*
X138796Y77831D01*
X137963Y76998D01*
X142961Y77831D02*
X146293D01*
X147960Y83662D02*
X151292D01*
X149626D01*
Y78664D01*
X155457Y83662D02*
X153791D01*
X152958Y82829D01*
Y79497D01*
X153791Y78664D01*
X155457D01*
X156290Y79497D01*
Y82829D01*
X155457Y83662D01*
X157956D02*
Y78664D01*
X161289D01*
X166287Y83662D02*
X162955D01*
Y78664D01*
X166287D01*
X162955Y81163D02*
X164621D01*
X167953Y78664D02*
Y83662D01*
X170452D01*
X171285Y82829D01*
Y81163D01*
X170452Y80330D01*
X167953D01*
X169619D02*
X171285Y78664D01*
X172951D02*
Y81996D01*
X174618Y83662D01*
X176284Y81996D01*
Y78664D01*
Y81163D01*
X172951D01*
X177950Y78664D02*
Y83662D01*
X181282Y78664D01*
Y83662D01*
X186281Y82829D02*
X185447Y83662D01*
X183781D01*
X182948Y82829D01*
Y79497D01*
X183781Y78664D01*
X185447D01*
X186281Y79497D01*
X191279Y83662D02*
X187947D01*
Y78664D01*
X191279D01*
X187947Y81163D02*
X189613D01*
X192945Y81996D02*
X193778D01*
Y81163D01*
X192945D01*
Y81996D01*
Y79497D02*
X193778D01*
Y78664D01*
X192945D01*
Y79497D01*
X197110Y77831D02*
X200443D01*
X202109Y81163D02*
X205441D01*
X203775Y82829D02*
Y79497D01*
X207107Y82829D02*
X207940Y83662D01*
X209606D01*
X210439Y82829D01*
Y79497D01*
X209606Y78664D01*
X207940D01*
X207107Y79497D01*
Y82829D01*
X212105Y78664D02*
Y79497D01*
X212938D01*
Y78664D01*
X212105D01*
X216271Y82829D02*
X217104Y83662D01*
X218770D01*
X219603Y82829D01*
Y79497D01*
X218770Y78664D01*
X217104D01*
X216271Y79497D01*
Y82829D01*
X224601Y83662D02*
X221269D01*
Y81163D01*
X222935Y81996D01*
X223768D01*
X224601Y81163D01*
Y79497D01*
X223768Y78664D01*
X222102D01*
X221269Y79497D01*
X226268Y78664D02*
X229600Y81996D01*
X231266Y81163D02*
X234598D01*
X236264Y82829D02*
X237097Y83662D01*
X238763D01*
X239597Y82829D01*
Y79497D01*
X238763Y78664D01*
X237097D01*
X236264Y79497D01*
Y82829D01*
X241263Y78664D02*
Y79497D01*
X242096D01*
Y78664D01*
X241263D01*
X245428Y82829D02*
X246261Y83662D01*
X247927D01*
X248760Y82829D01*
Y79497D01*
X247927Y78664D01*
X246261D01*
X245428Y79497D01*
Y82829D01*
X253759Y83662D02*
X250426D01*
Y81163D01*
X252093Y81996D01*
X252926D01*
X253759Y81163D01*
Y79497D01*
X252926Y78664D01*
X251259D01*
X250426Y79497D01*
X227421Y434636D02*
Y429638D01*
X224922D01*
X224089Y430471D01*
Y432137D01*
X224922Y432970D01*
X227421D01*
X222423Y429638D02*
X219091D01*
X220757D01*
Y434636D01*
X217425Y429638D02*
Y434636D01*
Y432137D01*
X214092D01*
Y429638D01*
Y434636D01*
X212426Y435469D02*
X209094D01*
X207428Y429638D02*
Y434636D01*
X204928D01*
X204095Y433803D01*
Y430471D01*
X204928Y429638D01*
X207428D01*
X202429Y434636D02*
Y429638D01*
X199930D01*
X199097Y430471D01*
Y432137D01*
X199930Y432970D01*
X202429D01*
X200763D02*
X199097Y434636D01*
X197431Y429638D02*
X195765D01*
X196598D01*
Y434636D01*
X197431D01*
X195765D01*
X193266Y429638D02*
Y434636D01*
X189933D01*
X188267Y429638D02*
Y434636D01*
X184935D01*
X183269Y435469D02*
X179937D01*
X174938Y430471D02*
X175771Y429638D01*
X177437D01*
X178270Y430471D01*
Y431304D01*
X177437Y432137D01*
X175771D01*
X174938Y432970D01*
Y433803D01*
X175771Y434636D01*
X177437D01*
X178270Y433803D01*
X173272Y429638D02*
X171606D01*
X172439D01*
Y434636D01*
X173272D01*
X171606D01*
X169107Y429638D02*
X165775D01*
Y430471D01*
X169107Y433803D01*
Y434636D01*
X165775D01*
X160776Y429638D02*
X164108D01*
Y434636D01*
X160776D01*
X164108Y432137D02*
X162442D01*
X159110Y431304D02*
X158277D01*
Y432137D01*
X159110D01*
Y431304D01*
Y433803D02*
X158277D01*
Y434636D01*
X159110D01*
Y433803D01*
X154945Y435469D02*
X151612D01*
X149946Y434636D02*
X148280D01*
X149113D01*
Y429638D01*
X149946Y430471D01*
X145781Y434636D02*
Y433803D01*
X144948D01*
Y434636D01*
X145781D01*
X141616Y430471D02*
X140783Y429638D01*
X139117D01*
X138283Y430471D01*
Y433803D01*
X139117Y434636D01*
X140783D01*
X141616Y433803D01*
Y430471D01*
X133285Y434636D02*
X136617D01*
X133285Y431304D01*
Y430471D01*
X134118Y429638D01*
X135784D01*
X136617Y430471D01*
X131619Y435469D02*
X128287D01*
X126620Y434636D02*
Y429638D01*
X124954Y431304D01*
X123288Y429638D01*
Y434636D01*
X121622D02*
Y429638D01*
X119956Y431304D01*
X118290Y429638D01*
Y434636D01*
X115791Y435469D02*
X114958Y434636D01*
Y433803D01*
X115791D01*
Y434636D01*
X114958D01*
X115791Y435469D01*
X116624Y436303D01*
X111625Y435469D02*
X108293D01*
X106627Y429638D02*
X103295D01*
X104961D01*
Y434636D01*
X99129Y429638D02*
X100796D01*
X101629Y430471D01*
Y433803D01*
X100796Y434636D01*
X99129D01*
X98296Y433803D01*
Y430471D01*
X99129Y429638D01*
X96630D02*
Y434636D01*
X93298D01*
X88300Y429638D02*
X91632D01*
Y434636D01*
X88300D01*
X91632Y432137D02*
X89966D01*
X86633Y434636D02*
Y429638D01*
X84134D01*
X83301Y430471D01*
Y432137D01*
X84134Y432970D01*
X86633D01*
X84967D02*
X83301Y434636D01*
X81635D02*
Y431304D01*
X79969Y429638D01*
X78303Y431304D01*
Y434636D01*
Y432137D01*
X81635D01*
X76637Y434636D02*
Y429638D01*
X73304Y434636D01*
Y429638D01*
X68306Y430471D02*
X69139Y429638D01*
X70805D01*
X71638Y430471D01*
Y433803D01*
X70805Y434636D01*
X69139D01*
X68306Y433803D01*
X63308Y429638D02*
X66640D01*
Y434636D01*
X63308D01*
X66640Y432137D02*
X64974D01*
X61642Y431304D02*
X60808D01*
Y432137D01*
X61642D01*
Y431304D01*
Y433803D02*
X60808D01*
Y434636D01*
X61642D01*
Y433803D01*
X57476Y435469D02*
X54144D01*
X52478Y432137D02*
X49146D01*
X50812Y430471D02*
Y433803D01*
X47480Y430471D02*
X46646Y429638D01*
X44980D01*
X44147Y430471D01*
Y433803D01*
X44980Y434636D01*
X46646D01*
X47480Y433803D01*
Y430471D01*
X42481Y434636D02*
Y433803D01*
X41648D01*
Y434636D01*
X42481D01*
X38316Y430471D02*
X37483Y429638D01*
X35817D01*
X34984Y430471D01*
Y433803D01*
X35817Y434636D01*
X37483D01*
X38316Y433803D01*
Y430471D01*
X29985Y429638D02*
X33317D01*
Y432137D01*
X31651Y431304D01*
X30818D01*
X29985Y432137D01*
Y433803D01*
X30818Y434636D01*
X32484D01*
X33317Y433803D01*
X28319Y434636D02*
X24987Y431304D01*
X23321Y432137D02*
X19988D01*
X18322Y430471D02*
X17489Y429638D01*
X15823D01*
X14990Y430471D01*
Y433803D01*
X15823Y434636D01*
X17489D01*
X18322Y433803D01*
Y430471D01*
X13324Y434636D02*
Y433803D01*
X12491D01*
Y434636D01*
X13324D01*
X9159Y430471D02*
X8326Y429638D01*
X6659D01*
X5826Y430471D01*
Y433803D01*
X6659Y434636D01*
X8326D01*
X9159Y433803D01*
Y430471D01*
X828Y429638D02*
X4160D01*
Y432137D01*
X2494Y431304D01*
X1661D01*
X828Y432137D01*
Y433803D01*
X1661Y434636D01*
X3327D01*
X4160Y433803D01*
X228514Y437865D02*
Y432866D01*
X225182Y437865D01*
Y432866D01*
X223515Y437865D02*
Y432866D01*
X221016D01*
X220183Y433699D01*
Y435365D01*
X221016Y436199D01*
X223515D01*
X218517Y432866D02*
X215185D01*
X216851D01*
Y437865D01*
X213519Y432866D02*
Y437865D01*
Y435365D01*
X210186D01*
Y432866D01*
Y437865D01*
X208520Y438698D02*
X205188D01*
X203522Y432866D02*
Y437865D01*
X201023D01*
X200190Y437032D01*
Y433699D01*
X201023Y432866D01*
X203522D01*
X198523Y437865D02*
Y432866D01*
X196024D01*
X195191Y433699D01*
Y435365D01*
X196024Y436199D01*
X198523D01*
X196857D02*
X195191Y437865D01*
X193525Y432866D02*
X191859D01*
X192692D01*
Y437865D01*
X193525D01*
X191859D01*
X189360Y432866D02*
Y437865D01*
X186028D01*
X184361Y432866D02*
Y437865D01*
X181029D01*
X179363Y438698D02*
X176031D01*
X171032Y433699D02*
X171865Y432866D01*
X173531D01*
X174365Y433699D01*
Y434532D01*
X173531Y435365D01*
X171865D01*
X171032Y436199D01*
Y437032D01*
X171865Y437865D01*
X173531D01*
X174365Y437032D01*
X169366Y432866D02*
X167700D01*
X168533D01*
Y437865D01*
X169366D01*
X167700D01*
X165201Y432866D02*
X161869D01*
Y433699D01*
X165201Y437032D01*
Y437865D01*
X161869D01*
X156870Y432866D02*
X160203D01*
Y437865D01*
X156870D01*
X160203Y435365D02*
X158536D01*
X155204Y434532D02*
X154371D01*
Y435365D01*
X155204D01*
Y434532D01*
Y437032D02*
X154371D01*
Y437865D01*
X155204D01*
Y437032D01*
X151039Y438698D02*
X147707D01*
X146040Y433699D02*
X145207Y432866D01*
X143541D01*
X142708Y433699D01*
Y434532D01*
X143541Y435365D01*
X144374D01*
X143541D01*
X142708Y436199D01*
Y437032D01*
X143541Y437865D01*
X145207D01*
X146040Y437032D01*
X141042Y437865D02*
Y437032D01*
X140209D01*
Y437865D01*
X141042D01*
X136877Y433699D02*
X136044Y432866D01*
X134378D01*
X133545Y433699D01*
Y437032D01*
X134378Y437865D01*
X136044D01*
X136877Y437032D01*
Y433699D01*
X131878Y438698D02*
X128546D01*
X126880Y437865D02*
Y432866D01*
X125214Y434532D01*
X123548Y432866D01*
Y437865D01*
X121882D02*
Y432866D01*
X120215Y434532D01*
X118549Y432866D01*
Y437865D01*
X116050Y438698D02*
X115217Y437865D01*
Y437032D01*
X116050D01*
Y437865D01*
X115217D01*
X116050Y438698D01*
X116883Y439531D01*
X111885Y438698D02*
X108553D01*
X106886Y432866D02*
X103554D01*
X105220D01*
Y437865D01*
X99389Y432866D02*
X101055D01*
X101888Y433699D01*
Y437032D01*
X101055Y437865D01*
X99389D01*
X98556Y437032D01*
Y433699D01*
X99389Y432866D01*
X96890D02*
Y437865D01*
X93557D01*
X88559Y432866D02*
X91891D01*
Y437865D01*
X88559D01*
X91891Y435365D02*
X90225D01*
X86893Y437865D02*
Y432866D01*
X84394D01*
X83561Y433699D01*
Y435365D01*
X84394Y436199D01*
X86893D01*
X85227D02*
X83561Y437865D01*
X81895D02*
Y434532D01*
X80228Y432866D01*
X78562Y434532D01*
Y437865D01*
Y435365D01*
X81895D01*
X76896Y437865D02*
Y432866D01*
X73564Y437865D01*
Y432866D01*
X68565Y433699D02*
X69399Y432866D01*
X71065D01*
X71898Y433699D01*
Y437032D01*
X71065Y437865D01*
X69399D01*
X68565Y437032D01*
X63567Y432866D02*
X66899D01*
Y437865D01*
X63567D01*
X66899Y435365D02*
X65233D01*
X61901Y434532D02*
X61068D01*
Y435365D01*
X61901D01*
Y434532D01*
Y437032D02*
X61068D01*
Y437865D01*
X61901D01*
Y437032D01*
X57736Y438698D02*
X54404D01*
X52737Y435365D02*
X49405D01*
X51071Y433699D02*
Y437032D01*
X47739Y433699D02*
X46906Y432866D01*
X45240D01*
X44407Y433699D01*
Y437032D01*
X45240Y437865D01*
X46906D01*
X47739Y437032D01*
Y433699D01*
X42741Y437865D02*
Y437032D01*
X41908D01*
Y437865D01*
X42741D01*
X38575Y433699D02*
X37742Y432866D01*
X36076D01*
X35243Y433699D01*
Y437032D01*
X36076Y437865D01*
X37742D01*
X38575Y437032D01*
Y433699D01*
X30245Y432866D02*
X33577D01*
Y435365D01*
X31911Y434532D01*
X31078D01*
X30245Y435365D01*
Y437032D01*
X31078Y437865D01*
X32744D01*
X33577Y437032D01*
X28578Y437865D02*
X25246Y434532D01*
X23580Y435365D02*
X20248D01*
X18582Y433699D02*
X17749Y432866D01*
X16083D01*
X15249Y433699D01*
Y437032D01*
X16083Y437865D01*
X17749D01*
X18582Y437032D01*
Y433699D01*
X13583Y437865D02*
Y437032D01*
X12750D01*
Y437865D01*
X13583D01*
X9418Y433699D02*
X8585Y432866D01*
X6919D01*
X6086Y433699D01*
Y437032D01*
X6919Y437865D01*
X8585D01*
X9418Y437032D01*
Y433699D01*
X1087Y432866D02*
X4420D01*
Y435365D01*
X2754Y434532D01*
X1921D01*
X1087Y435365D01*
Y437032D01*
X1921Y437865D01*
X3587D01*
X4420Y437032D01*
M02*
