G04*
G04 #@! TF.GenerationSoftware,Altium Limited,Altium Designer,22.4.2 (48)*
G04*
G04 Layer_Color=8421504*
%FSLAX25Y25*%
%MOIN*%
G70*
G04*
G04 #@! TF.SameCoordinates,7713EA0D-6249-4CA7-80EE-CA65CFE05E5E*
G04*
G04*
G04 #@! TF.FilePolarity,Positive*
G04*
G01*
G75*
%ADD19R,0.08661X0.31496*%
%ADD20R,0.03740X0.03150*%
%ADD21R,0.03543X0.08858*%
%ADD22R,0.21850X0.24803*%
%ADD23R,0.03150X0.03740*%
G04:AMPARAMS|DCode=24|XSize=39.37mil|YSize=163.39mil|CornerRadius=1.97mil|HoleSize=0mil|Usage=FLASHONLY|Rotation=270.000|XOffset=0mil|YOffset=0mil|HoleType=Round|Shape=RoundedRectangle|*
%AMROUNDEDRECTD24*
21,1,0.03937,0.15945,0,0,270.0*
21,1,0.03543,0.16339,0,0,270.0*
1,1,0.00394,-0.07972,-0.01772*
1,1,0.00394,-0.07972,0.01772*
1,1,0.00394,0.07972,0.01772*
1,1,0.00394,0.07972,-0.01772*
%
%ADD24ROUNDEDRECTD24*%
G04:AMPARAMS|DCode=25|XSize=251.97mil|YSize=322.84mil|CornerRadius=2.52mil|HoleSize=0mil|Usage=FLASHONLY|Rotation=270.000|XOffset=0mil|YOffset=0mil|HoleType=Round|Shape=RoundedRectangle|*
%AMROUNDEDRECTD25*
21,1,0.25197,0.31780,0,0,270.0*
21,1,0.24693,0.32284,0,0,270.0*
1,1,0.00504,-0.15890,-0.12347*
1,1,0.00504,-0.15890,0.12347*
1,1,0.00504,0.15890,0.12347*
1,1,0.00504,0.15890,-0.12347*
%
%ADD25ROUNDEDRECTD25*%
%ADD26R,0.10000X0.10512*%
%ADD27R,0.05000X0.03000*%
%ADD28R,0.07008X0.12402*%
%ADD29R,0.04331X0.11024*%
%ADD30R,0.02200X0.05000*%
%ADD31R,0.02362X0.06102*%
%ADD32R,0.10512X0.10000*%
%ADD33R,0.03000X0.05000*%
D19*
X177904Y271184D02*
D03*
X155464D02*
D03*
D20*
X546682Y143993D02*
D03*
Y138875D02*
D03*
X509445Y143993D02*
D03*
Y138875D02*
D03*
X474874Y143993D02*
D03*
Y138875D02*
D03*
X410687Y143993D02*
D03*
Y138875D02*
D03*
X378631Y143993D02*
D03*
Y138875D02*
D03*
X442308Y143993D02*
D03*
Y138875D02*
D03*
X499069Y225061D02*
D03*
Y230179D02*
D03*
X384628Y221695D02*
D03*
Y226814D02*
D03*
X424501Y221695D02*
D03*
Y226814D02*
D03*
X408707Y221695D02*
D03*
Y226814D02*
D03*
X443014Y221695D02*
D03*
Y226814D02*
D03*
X346999Y143870D02*
D03*
Y138752D02*
D03*
X315027Y143993D02*
D03*
Y138875D02*
D03*
X283038Y143993D02*
D03*
Y138875D02*
D03*
X251075Y144007D02*
D03*
Y138889D02*
D03*
X218802Y143993D02*
D03*
Y138875D02*
D03*
X175720Y143993D02*
D03*
Y138875D02*
D03*
X232975Y309075D02*
D03*
Y314193D02*
D03*
X114505Y340445D02*
D03*
Y345564D02*
D03*
D21*
X442777Y159055D02*
D03*
X460730D02*
D03*
X410816D02*
D03*
X428769D02*
D03*
X506700D02*
D03*
X524653D02*
D03*
X219048D02*
D03*
X237001D02*
D03*
X556614D02*
D03*
X538661D02*
D03*
X492691D02*
D03*
X474739D02*
D03*
X396807D02*
D03*
X378855D02*
D03*
X364846D02*
D03*
X346893D02*
D03*
X332885D02*
D03*
X314932D02*
D03*
X300923D02*
D03*
X282971D02*
D03*
X268962D02*
D03*
X251009D02*
D03*
X205039D02*
D03*
X187087D02*
D03*
D22*
X451754Y185039D02*
D03*
X419792D02*
D03*
X515676D02*
D03*
X228024D02*
D03*
X547638D02*
D03*
X483715D02*
D03*
X387831D02*
D03*
X355870D02*
D03*
X323908D02*
D03*
X291947D02*
D03*
X259986D02*
D03*
X196063D02*
D03*
D23*
X309836Y223553D02*
D03*
X314954D02*
D03*
X250365Y229816D02*
D03*
X255483D02*
D03*
X357707Y217249D02*
D03*
X362825D02*
D03*
X335193Y218278D02*
D03*
X340312D02*
D03*
X272474Y224787D02*
D03*
X277592D02*
D03*
X208504Y227547D02*
D03*
X213622D02*
D03*
X472629Y221406D02*
D03*
X467511D02*
D03*
D24*
X106370Y257798D02*
D03*
Y264491D02*
D03*
Y271184D02*
D03*
Y277877D02*
D03*
Y284570D02*
D03*
D25*
X65229Y271184D02*
D03*
D26*
X113385Y238096D02*
D03*
D27*
Y228840D02*
D03*
D28*
X68438Y221112D02*
D03*
X89029D02*
D03*
D29*
X256127Y305763D02*
D03*
X243922D02*
D03*
D30*
X160808Y349499D02*
D03*
X153603D02*
D03*
X157206Y341857D02*
D03*
D31*
X114471Y310070D02*
D03*
X119471D02*
D03*
X124471D02*
D03*
X129471D02*
D03*
X114471Y331330D02*
D03*
X119471D02*
D03*
X124471D02*
D03*
X129471D02*
D03*
D32*
X127480Y256747D02*
D03*
D33*
X136736D02*
D03*
M02*
