G04*
G04 #@! TF.GenerationSoftware,Altium Limited,Altium Designer,22.4.2 (48)*
G04*
G04 Layer_Color=65535*
%FSLAX25Y25*%
%MOIN*%
G70*
G04*
G04 #@! TF.SameCoordinates,7713EA0D-6249-4CA7-80EE-CA65CFE05E5E*
G04*
G04*
G04 #@! TF.FilePolarity,Positive*
G04*
G01*
G75*
%ADD10C,0.00984*%
%ADD11C,0.00787*%
%ADD12C,0.01575*%
%ADD13C,0.02362*%
%ADD14C,0.00600*%
%ADD15C,0.00500*%
%ADD16C,0.01000*%
%ADD17C,0.00800*%
%ADD18C,0.00591*%
G36*
X691503Y141566D02*
X691361D01*
Y140288D01*
X691219D01*
Y139863D01*
X691077D01*
Y139579D01*
X690935D01*
Y139295D01*
X690793D01*
Y139011D01*
X690651D01*
Y138869D01*
X690509D01*
Y138585D01*
X690367D01*
Y138444D01*
X690225D01*
Y138302D01*
X690083D01*
Y138160D01*
X689941D01*
Y138018D01*
X689799D01*
Y137876D01*
X689516D01*
Y137734D01*
X689374D01*
Y137592D01*
X689232D01*
Y137450D01*
X688948D01*
Y137308D01*
X688664D01*
Y137166D01*
X688380D01*
Y137024D01*
X687813D01*
Y136882D01*
X686961D01*
Y136740D01*
X686393D01*
Y136882D01*
X685542D01*
Y137024D01*
X684974D01*
Y137166D01*
X684690D01*
Y137308D01*
X684406D01*
Y137450D01*
X684123D01*
Y137592D01*
X683981D01*
Y137734D01*
X683839D01*
Y137876D01*
X683555D01*
Y138018D01*
X683413D01*
Y138160D01*
X683271D01*
Y138302D01*
X683129D01*
Y138444D01*
X682987D01*
Y138585D01*
X682845D01*
Y138727D01*
X682703D01*
Y139011D01*
X682561D01*
Y139295D01*
X682419D01*
Y139579D01*
X682277D01*
Y139863D01*
X682135D01*
Y140288D01*
X681994D01*
Y141140D01*
X681852D01*
Y157461D01*
X684406D01*
Y141282D01*
X684548D01*
Y140714D01*
X684690D01*
Y140430D01*
X684832D01*
Y140288D01*
X684974D01*
Y140005D01*
X685116D01*
Y139863D01*
X685400D01*
Y139721D01*
X685542D01*
Y139579D01*
X685826D01*
Y139437D01*
X686251D01*
Y139295D01*
X687103D01*
Y139437D01*
X687529D01*
Y139579D01*
X687813D01*
Y139721D01*
X687954D01*
Y139863D01*
X688238D01*
Y140005D01*
X688380D01*
Y140288D01*
X688522D01*
Y140430D01*
X688664D01*
Y140714D01*
X688806D01*
Y157461D01*
X691503D01*
Y141566D01*
D02*
G37*
G36*
X679865Y142985D02*
X679723D01*
Y142133D01*
X679581D01*
Y141566D01*
X679439D01*
Y140998D01*
X679297D01*
Y140572D01*
X679155D01*
Y140288D01*
X679013D01*
Y140147D01*
Y140005D01*
X678871D01*
Y139721D01*
X678729D01*
Y139579D01*
X678587D01*
Y139295D01*
X678445D01*
Y139011D01*
X678304D01*
Y138869D01*
X678162D01*
Y138727D01*
X678020D01*
Y138585D01*
X677878D01*
Y138444D01*
X677736D01*
Y138302D01*
X677594D01*
Y138160D01*
X677452D01*
Y138018D01*
X677310D01*
Y137876D01*
X677168D01*
Y137734D01*
X677026D01*
Y137592D01*
X676884D01*
Y137450D01*
X676601D01*
Y137308D01*
X676459D01*
Y137166D01*
X676175D01*
Y137024D01*
X676033D01*
Y136882D01*
X675749D01*
Y136740D01*
X675465D01*
Y136599D01*
X675039D01*
Y136457D01*
X674614D01*
Y136315D01*
X674046D01*
Y136173D01*
X673336D01*
Y136031D01*
X670924D01*
Y136173D01*
X670214D01*
Y136315D01*
X669646D01*
Y136457D01*
X669220D01*
Y136599D01*
X668795D01*
Y136740D01*
X668511D01*
Y136882D01*
X668227D01*
Y137024D01*
X668085D01*
Y137166D01*
X667801D01*
Y137308D01*
X667517D01*
Y137450D01*
X667376D01*
Y137592D01*
X667234D01*
Y137734D01*
X666950D01*
Y137876D01*
X666808D01*
Y138018D01*
X666666D01*
Y138160D01*
X666524D01*
Y138302D01*
X666382D01*
Y138444D01*
X666098D01*
Y138727D01*
X665956D01*
Y138869D01*
X665814D01*
Y139011D01*
X665672D01*
Y139153D01*
X665530D01*
Y139295D01*
X665389D01*
Y139579D01*
X665247D01*
Y139721D01*
X665105D01*
Y140005D01*
X664963D01*
Y140147D01*
X664821D01*
Y140430D01*
X664679D01*
Y140714D01*
X664537D01*
Y140998D01*
X664395D01*
Y141282D01*
X664253D01*
Y141708D01*
X664111D01*
Y142276D01*
X663969D01*
Y142843D01*
X663827D01*
Y145966D01*
X663969D01*
Y146675D01*
X664111D01*
Y147101D01*
X664253D01*
Y147527D01*
X664395D01*
Y147810D01*
X664537D01*
Y148094D01*
X664679D01*
Y148520D01*
X664821D01*
Y148662D01*
X664963D01*
Y148946D01*
X665105D01*
Y149230D01*
X665247D01*
Y149372D01*
X665389D01*
Y149513D01*
X665530D01*
Y149797D01*
X665672D01*
Y149939D01*
X665814D01*
Y150081D01*
X665956D01*
Y150223D01*
X666098D01*
Y150365D01*
X666240D01*
Y150507D01*
X666382D01*
Y150649D01*
X666524D01*
Y150791D01*
X666666D01*
Y150933D01*
X666808D01*
Y151075D01*
X667092D01*
Y151217D01*
X667234D01*
Y151358D01*
X667376D01*
Y151500D01*
X667659D01*
Y151642D01*
X667801D01*
Y151784D01*
X668085D01*
Y151926D01*
X668369D01*
Y152068D01*
X668653D01*
Y152210D01*
X668937D01*
Y152352D01*
X669362D01*
Y152494D01*
X669646D01*
Y152636D01*
X670356D01*
Y152778D01*
X671066D01*
Y152920D01*
X674330D01*
Y150365D01*
X671349D01*
Y150223D01*
X670640D01*
Y150081D01*
X670214D01*
Y149939D01*
X669788D01*
Y149797D01*
X669646D01*
Y149655D01*
X669362D01*
Y149513D01*
X669079D01*
Y149372D01*
X668937D01*
Y149230D01*
X668653D01*
Y149088D01*
X668511D01*
Y148946D01*
X668369D01*
Y148804D01*
X668227D01*
Y148662D01*
X668085D01*
Y148520D01*
X667943D01*
Y148378D01*
X667801D01*
Y148236D01*
X667659D01*
Y148094D01*
X667517D01*
Y147810D01*
X667376D01*
Y147669D01*
X667234D01*
Y147385D01*
X667092D01*
Y147101D01*
X666950D01*
Y146959D01*
X666808D01*
Y146533D01*
X666666D01*
Y146107D01*
X666524D01*
Y145682D01*
X666382D01*
Y143127D01*
X666524D01*
Y142559D01*
X666666D01*
Y142276D01*
X666808D01*
Y141850D01*
X666950D01*
Y141566D01*
X667092D01*
Y141424D01*
X667234D01*
Y141140D01*
X667376D01*
Y140998D01*
X667517D01*
Y140714D01*
X667659D01*
Y140572D01*
X667801D01*
Y140430D01*
X667943D01*
Y140288D01*
X668085D01*
Y140147D01*
X668227D01*
Y140005D01*
X668369D01*
Y139863D01*
X668653D01*
Y139721D01*
X668795D01*
Y139579D01*
X668937D01*
Y139437D01*
X669220D01*
Y139295D01*
X669504D01*
Y139153D01*
X669788D01*
Y139011D01*
X670072D01*
Y138869D01*
X670498D01*
Y138727D01*
X671207D01*
Y138585D01*
X673194D01*
Y138727D01*
X673762D01*
Y138869D01*
X674188D01*
Y139011D01*
X674614D01*
Y139153D01*
X674755D01*
Y139295D01*
X675039D01*
Y139437D01*
X675181D01*
Y139579D01*
X675465D01*
Y139721D01*
X675607D01*
Y139863D01*
X675749D01*
Y140005D01*
X675891D01*
Y140147D01*
X676033D01*
Y140288D01*
X676175D01*
Y140572D01*
X676317D01*
Y140714D01*
X676459D01*
Y140998D01*
X676601D01*
Y141282D01*
X676743D01*
Y141566D01*
X676884D01*
Y141850D01*
X677026D01*
Y142417D01*
X677168D01*
Y143269D01*
X677310D01*
Y157461D01*
X679865D01*
Y142985D01*
D02*
G37*
G36*
X717475Y157461D02*
X719036D01*
Y157319D01*
X719603D01*
Y157177D01*
X720171D01*
Y157036D01*
X720597D01*
Y156894D01*
X720881D01*
Y156752D01*
X721306D01*
Y156610D01*
X721590D01*
Y156468D01*
X721874D01*
Y156326D01*
X722016D01*
Y156184D01*
X722300D01*
Y156042D01*
X722584D01*
Y155900D01*
X722726D01*
Y155758D01*
X723009D01*
Y155616D01*
X723151D01*
Y155474D01*
X723293D01*
Y155332D01*
X723435D01*
Y155191D01*
X723577D01*
Y155049D01*
X723719D01*
Y154907D01*
X723861D01*
Y154765D01*
X724003D01*
Y154623D01*
X724145D01*
Y154481D01*
X724287D01*
Y154339D01*
X724429D01*
Y154197D01*
X724571D01*
Y154055D01*
X724713D01*
Y153913D01*
X724855D01*
Y153629D01*
X724996D01*
Y153346D01*
X725138D01*
Y153203D01*
X725280D01*
Y152920D01*
X725422D01*
Y152636D01*
X725564D01*
Y152352D01*
X725706D01*
Y151926D01*
X725848D01*
Y151642D01*
X725990D01*
Y151075D01*
X726132D01*
Y150365D01*
X726274D01*
Y147952D01*
X726132D01*
Y147101D01*
X725990D01*
Y146675D01*
X725848D01*
Y146249D01*
X725706D01*
Y145966D01*
X725564D01*
Y145682D01*
X725422D01*
Y145398D01*
X725280D01*
Y145114D01*
X725138D01*
Y144830D01*
X724996D01*
Y144546D01*
X724855D01*
Y144404D01*
X724713D01*
Y144121D01*
X724571D01*
Y143979D01*
X724429D01*
Y143837D01*
X724287D01*
Y143695D01*
X724145D01*
Y143553D01*
X724003D01*
Y143269D01*
X723861D01*
Y143127D01*
X723719D01*
Y142985D01*
X723577D01*
Y142843D01*
X723435D01*
Y142701D01*
X723293D01*
Y142559D01*
X723151D01*
Y142417D01*
X723009D01*
Y141850D01*
X723151D01*
Y141566D01*
X723293D01*
Y141140D01*
X723435D01*
Y140856D01*
X723577D01*
Y140572D01*
X723719D01*
Y140147D01*
X723861D01*
Y139863D01*
X724003D01*
Y139579D01*
X724145D01*
Y139153D01*
X724287D01*
Y138869D01*
X724429D01*
Y138444D01*
X724571D01*
Y138160D01*
X724713D01*
Y137876D01*
X724855D01*
Y137450D01*
X724996D01*
Y137166D01*
X725138D01*
Y136882D01*
X725280D01*
Y136457D01*
X725422D01*
Y136173D01*
X725564D01*
Y135747D01*
X725706D01*
Y135463D01*
X725848D01*
Y135179D01*
X725990D01*
Y134754D01*
X726132D01*
Y134470D01*
X726274D01*
Y134186D01*
X726416D01*
Y133760D01*
X726558D01*
Y133476D01*
X726699D01*
Y133050D01*
X726841D01*
Y132767D01*
X726983D01*
Y132483D01*
X727125D01*
Y132199D01*
X724429D01*
Y132625D01*
X724287D01*
Y132908D01*
X724145D01*
Y133192D01*
X724003D01*
Y133618D01*
X723861D01*
Y133902D01*
X723719D01*
Y134186D01*
X723577D01*
Y134470D01*
X723435D01*
Y134895D01*
X723293D01*
Y135179D01*
X723151D01*
Y135463D01*
X723009D01*
Y135889D01*
X722868D01*
Y136173D01*
X722726D01*
Y136457D01*
X722584D01*
Y136740D01*
X722442D01*
Y137166D01*
X722300D01*
Y137450D01*
X722158D01*
Y137734D01*
X722016D01*
Y138160D01*
X721874D01*
Y138444D01*
X721732D01*
Y138727D01*
X721590D01*
Y139011D01*
X721448D01*
Y139437D01*
X721306D01*
Y139721D01*
X721165D01*
Y140005D01*
X721023D01*
Y140430D01*
X720881D01*
Y140714D01*
X720739D01*
Y140998D01*
X720597D01*
Y141282D01*
X720455D01*
Y143837D01*
X720597D01*
Y143979D01*
X720881D01*
Y144121D01*
X721023D01*
Y144262D01*
X721306D01*
Y144404D01*
X721448D01*
Y144546D01*
X721590D01*
Y144688D01*
X721732D01*
Y144830D01*
X721874D01*
Y144972D01*
X722016D01*
Y145114D01*
X722158D01*
Y145256D01*
X722300D01*
Y145398D01*
X722442D01*
Y145540D01*
X722584D01*
Y145824D01*
X722726D01*
Y145966D01*
X722868D01*
Y146249D01*
X723009D01*
Y146533D01*
X723151D01*
Y146817D01*
X723293D01*
Y147101D01*
X723435D01*
Y147527D01*
X723577D01*
Y148236D01*
X723719D01*
Y150081D01*
X723577D01*
Y150791D01*
X723435D01*
Y151217D01*
X723293D01*
Y151500D01*
X723151D01*
Y151784D01*
X723009D01*
Y151926D01*
X722868D01*
Y152210D01*
X722726D01*
Y152352D01*
X722584D01*
Y152636D01*
X722442D01*
Y152778D01*
X722300D01*
Y152920D01*
X722158D01*
Y153062D01*
X722016D01*
Y153203D01*
X721874D01*
Y153346D01*
X721732D01*
Y153487D01*
X721448D01*
Y153629D01*
X721306D01*
Y153771D01*
X721165D01*
Y153913D01*
X720881D01*
Y154055D01*
X720597D01*
Y154197D01*
X720455D01*
Y154339D01*
X720029D01*
Y154481D01*
X719745D01*
Y154623D01*
X719319D01*
Y154765D01*
X718752D01*
Y154907D01*
X704559D01*
Y154765D01*
X704134D01*
Y154623D01*
X703708D01*
Y154481D01*
X703424D01*
Y154339D01*
X703140D01*
Y154197D01*
X702856D01*
Y154055D01*
X702714D01*
Y153913D01*
X702572D01*
Y153771D01*
X702431D01*
Y153629D01*
X702289D01*
Y153487D01*
X702147D01*
Y153346D01*
X702005D01*
Y153203D01*
X701863D01*
Y153062D01*
X701721D01*
Y152778D01*
X701579D01*
Y152494D01*
X701437D01*
Y152210D01*
X701295D01*
Y151926D01*
X701153D01*
Y151500D01*
X701011D01*
Y150649D01*
X700869D01*
Y139011D01*
X701011D01*
Y138160D01*
X701153D01*
Y137734D01*
X701295D01*
Y137450D01*
X701437D01*
Y137166D01*
X701579D01*
Y136882D01*
X701721D01*
Y136740D01*
X701863D01*
Y136599D01*
X702005D01*
Y136315D01*
X702147D01*
Y136173D01*
X702289D01*
Y136031D01*
X702431D01*
Y135889D01*
X702572D01*
Y135747D01*
X702856D01*
Y135605D01*
X702998D01*
Y135463D01*
X703282D01*
Y135321D01*
X703566D01*
Y135179D01*
X703850D01*
Y135037D01*
X704276D01*
Y134895D01*
X704701D01*
Y134754D01*
X709952D01*
Y136740D01*
X705411D01*
Y136882D01*
X704701D01*
Y137024D01*
X704418D01*
Y137166D01*
X704134D01*
Y137308D01*
X703992D01*
Y137450D01*
X703850D01*
Y137592D01*
X703566D01*
Y137876D01*
X703424D01*
Y138018D01*
X703282D01*
Y138302D01*
X703140D01*
Y138727D01*
X702998D01*
Y143979D01*
X709952D01*
Y145966D01*
X702998D01*
Y151075D01*
X703140D01*
Y151358D01*
X703282D01*
Y151642D01*
X703424D01*
Y151926D01*
X703566D01*
Y152068D01*
X703708D01*
Y152210D01*
X703850D01*
Y152352D01*
X704134D01*
Y152494D01*
X704276D01*
Y152636D01*
X704559D01*
Y152778D01*
X704985D01*
Y152920D01*
X718184D01*
Y152778D01*
X718752D01*
Y152636D01*
X719177D01*
Y152494D01*
X719461D01*
Y152352D01*
X719745D01*
Y152210D01*
X720029D01*
Y152068D01*
X720171D01*
Y151926D01*
X720313D01*
Y151784D01*
X720455D01*
Y151642D01*
X720597D01*
Y151500D01*
X720739D01*
Y151358D01*
X720881D01*
Y151217D01*
X721023D01*
Y151075D01*
X721165D01*
Y150791D01*
X721306D01*
Y150649D01*
X721448D01*
Y150223D01*
X721590D01*
Y149513D01*
X721732D01*
Y148520D01*
X721590D01*
Y147952D01*
X721448D01*
Y147669D01*
X721306D01*
Y147385D01*
X721165D01*
Y147101D01*
X721023D01*
Y146959D01*
X720881D01*
Y146817D01*
X720739D01*
Y146533D01*
X720597D01*
Y146391D01*
X720455D01*
Y146249D01*
X720313D01*
Y146107D01*
X720171D01*
Y145966D01*
X719887D01*
Y145824D01*
X719745D01*
Y145682D01*
X719461D01*
Y145540D01*
X719177D01*
Y145398D01*
X718894D01*
Y145256D01*
X718610D01*
Y145114D01*
X718468D01*
Y140714D01*
X718610D01*
Y140430D01*
X718752D01*
Y140147D01*
X718894D01*
Y139721D01*
X719036D01*
Y139437D01*
X719177D01*
Y139153D01*
X719319D01*
Y138727D01*
X719461D01*
Y138444D01*
X719603D01*
Y138160D01*
X719745D01*
Y137734D01*
X719887D01*
Y137450D01*
X720029D01*
Y137166D01*
X720171D01*
Y136740D01*
X720313D01*
Y136457D01*
X720455D01*
Y136173D01*
X720597D01*
Y135747D01*
X720739D01*
Y135463D01*
X720881D01*
Y135179D01*
X721023D01*
Y134895D01*
X721165D01*
Y134470D01*
X721306D01*
Y134186D01*
X721448D01*
Y133902D01*
X721590D01*
Y133476D01*
X721732D01*
Y133192D01*
X721874D01*
Y132908D01*
X722016D01*
Y132483D01*
X722158D01*
Y132199D01*
X719319D01*
Y132483D01*
X719177D01*
Y132908D01*
X719036D01*
Y133192D01*
X718894D01*
Y133476D01*
X718752D01*
Y133902D01*
X718610D01*
Y134186D01*
X718468D01*
Y134470D01*
X718326D01*
Y134895D01*
X718184D01*
Y135179D01*
X718042D01*
Y135463D01*
X717900D01*
Y135889D01*
X717758D01*
Y136173D01*
X717616D01*
Y136457D01*
X717475D01*
Y136882D01*
X717333D01*
Y137166D01*
X717191D01*
Y137592D01*
X717049D01*
Y137876D01*
X716907D01*
Y138160D01*
X716765D01*
Y138585D01*
X716623D01*
Y138869D01*
X716481D01*
Y139153D01*
X716339D01*
Y139579D01*
X716197D01*
Y139863D01*
X716055D01*
Y140147D01*
X715913D01*
Y147101D01*
X717049D01*
Y147243D01*
X717900D01*
Y147385D01*
X718184D01*
Y147527D01*
X718326D01*
Y147669D01*
X718468D01*
Y147810D01*
X718610D01*
Y148094D01*
X718752D01*
Y148378D01*
X718894D01*
Y149372D01*
X718752D01*
Y149655D01*
X718610D01*
Y149939D01*
X718468D01*
Y150081D01*
X718184D01*
Y150223D01*
X717900D01*
Y150365D01*
X706830D01*
Y150223D01*
X706404D01*
Y150081D01*
X706262D01*
Y149939D01*
X705979D01*
Y149797D01*
X705837D01*
Y149513D01*
X705695D01*
Y148520D01*
X705837D01*
Y148378D01*
X705979D01*
Y148236D01*
X706121D01*
Y148094D01*
X706262D01*
Y147952D01*
X706546D01*
Y147810D01*
X712223D01*
Y142133D01*
X706546D01*
Y141992D01*
X706121D01*
Y141850D01*
X705837D01*
Y141708D01*
X705695D01*
Y141566D01*
X705553D01*
Y141424D01*
X705411D01*
Y141140D01*
X705269D01*
Y140430D01*
X705411D01*
Y140147D01*
X705553D01*
Y140005D01*
X705695D01*
Y139863D01*
X705837D01*
Y139721D01*
X706121D01*
Y139579D01*
X712649D01*
Y132341D01*
X704985D01*
Y132483D01*
X703992D01*
Y132625D01*
X703424D01*
Y132767D01*
X702998D01*
Y132908D01*
X702714D01*
Y133050D01*
X702289D01*
Y133192D01*
X702005D01*
Y133334D01*
X701863D01*
Y133476D01*
X701579D01*
Y133618D01*
X701437D01*
Y133760D01*
X701153D01*
Y133902D01*
X701011D01*
Y134044D01*
X700869D01*
Y134186D01*
X700728D01*
Y134328D01*
X700586D01*
Y134470D01*
X700444D01*
Y134612D01*
X700160D01*
Y134754D01*
X700018D01*
Y134895D01*
X699876D01*
Y135179D01*
X699734D01*
Y135321D01*
X699592D01*
Y135605D01*
X699450D01*
Y135747D01*
X699308D01*
Y136031D01*
X699166D01*
Y136315D01*
X699024D01*
Y136457D01*
X698882D01*
Y136882D01*
X698741D01*
Y137308D01*
X698599D01*
Y137876D01*
X698457D01*
Y138585D01*
X698315D01*
Y151075D01*
X698457D01*
Y151926D01*
X698599D01*
Y152494D01*
X698741D01*
Y152920D01*
X698882D01*
Y153203D01*
X699024D01*
Y153487D01*
X699166D01*
Y153771D01*
X699308D01*
Y154055D01*
X699450D01*
Y154197D01*
X699592D01*
Y154481D01*
X699734D01*
Y154623D01*
X699876D01*
Y154765D01*
X700018D01*
Y155049D01*
X700160D01*
Y155191D01*
X700302D01*
Y155332D01*
X700444D01*
Y155474D01*
X700728D01*
Y155616D01*
X700869D01*
Y155758D01*
X701011D01*
Y155900D01*
X701153D01*
Y156042D01*
X701295D01*
Y156184D01*
X701579D01*
Y156326D01*
X701721D01*
Y156468D01*
X702005D01*
Y156610D01*
X702289D01*
Y156752D01*
X702572D01*
Y156894D01*
X702856D01*
Y157036D01*
X703140D01*
Y157177D01*
X703566D01*
Y157319D01*
X704134D01*
Y157461D01*
X705695D01*
Y157603D01*
X717475D01*
Y157461D01*
D02*
G37*
G36*
X674330Y154907D02*
X670640D01*
Y154765D01*
X669788D01*
Y154623D01*
X669220D01*
Y154481D01*
X668795D01*
Y154339D01*
X668511D01*
Y154197D01*
X668085D01*
Y154055D01*
X667801D01*
Y153913D01*
X667517D01*
Y153771D01*
X667234D01*
Y153629D01*
X666950D01*
Y153487D01*
X666808D01*
Y153346D01*
X666524D01*
Y153203D01*
X666240D01*
Y153062D01*
X666098D01*
Y152920D01*
X665956D01*
Y152778D01*
X665814D01*
Y152636D01*
X665530D01*
Y152494D01*
X665389D01*
Y152352D01*
X665247D01*
Y152210D01*
X665105D01*
Y152068D01*
X664963D01*
Y151926D01*
X664821D01*
Y151784D01*
X664679D01*
Y151642D01*
X664537D01*
Y151500D01*
X664395D01*
Y151358D01*
X664253D01*
Y151217D01*
X664111D01*
Y151075D01*
X663969D01*
Y150791D01*
X663827D01*
Y150649D01*
X663686D01*
Y150507D01*
X663544D01*
Y150223D01*
X663402D01*
Y150081D01*
X663260D01*
Y149797D01*
X663118D01*
Y149513D01*
X662976D01*
Y149372D01*
X662834D01*
Y149088D01*
X662692D01*
Y148662D01*
X662550D01*
Y148378D01*
X662408D01*
Y147952D01*
X662266D01*
Y147527D01*
X662124D01*
Y147101D01*
X661982D01*
Y146391D01*
X661840D01*
Y145682D01*
X661699D01*
Y143411D01*
X661840D01*
Y142276D01*
X661982D01*
Y141708D01*
X662124D01*
Y141140D01*
X662266D01*
Y140856D01*
X662408D01*
Y140430D01*
X662550D01*
Y140147D01*
X662692D01*
Y139863D01*
X662834D01*
Y139579D01*
X662976D01*
Y139295D01*
X663118D01*
Y139011D01*
X663260D01*
Y138869D01*
X663402D01*
Y138585D01*
X663544D01*
Y138444D01*
X663686D01*
Y138160D01*
X663827D01*
Y138018D01*
X663969D01*
Y137876D01*
X664111D01*
Y137592D01*
X664253D01*
Y137450D01*
X664395D01*
Y137308D01*
X664537D01*
Y137166D01*
X664679D01*
Y137024D01*
X664821D01*
Y136882D01*
X664963D01*
Y136740D01*
X665105D01*
Y136599D01*
X665247D01*
Y136457D01*
X665389D01*
Y136315D01*
X665672D01*
Y136173D01*
X665814D01*
Y136031D01*
X665956D01*
Y135889D01*
X666240D01*
Y135747D01*
X666382D01*
Y135605D01*
X666666D01*
Y135463D01*
X666950D01*
Y135321D01*
X667234D01*
Y135179D01*
X667517D01*
Y135037D01*
X667801D01*
Y134895D01*
X668085D01*
Y134754D01*
X668369D01*
Y134612D01*
X668795D01*
Y134470D01*
X669220D01*
Y134328D01*
X669788D01*
Y134186D01*
X670498D01*
Y134044D01*
X673762D01*
Y134186D01*
X674472D01*
Y134328D01*
X675039D01*
Y134470D01*
X675465D01*
Y134612D01*
X675891D01*
Y134754D01*
X676175D01*
Y134895D01*
X676601D01*
Y135037D01*
X676884D01*
Y135179D01*
X677026D01*
Y135321D01*
X677310D01*
Y135463D01*
X677594D01*
Y135605D01*
X677736D01*
Y135747D01*
X678020D01*
Y135889D01*
X678162D01*
Y136031D01*
X678304D01*
Y136173D01*
X678445D01*
Y136315D01*
X678729D01*
Y136457D01*
X678871D01*
Y136599D01*
X679013D01*
Y136740D01*
X679155D01*
Y136882D01*
X679297D01*
Y137024D01*
X679439D01*
Y137308D01*
X679581D01*
Y137450D01*
X679723D01*
Y137592D01*
X679865D01*
Y137734D01*
X680007D01*
Y138018D01*
X680149D01*
Y138160D01*
X680291D01*
Y138444D01*
X680433D01*
Y138585D01*
X680574D01*
Y138302D01*
X680716D01*
Y138018D01*
X680858D01*
Y137876D01*
X681000D01*
Y137592D01*
X681142D01*
Y137450D01*
X681284D01*
Y137308D01*
X681426D01*
Y137166D01*
X681568D01*
Y137024D01*
X681710D01*
Y136882D01*
X681852D01*
Y136740D01*
X681994D01*
Y136599D01*
X682135D01*
Y136457D01*
X682277D01*
Y136315D01*
X682419D01*
Y136173D01*
X682561D01*
Y136031D01*
X682845D01*
Y135889D01*
X682987D01*
Y135747D01*
X683271D01*
Y135605D01*
X683555D01*
Y135463D01*
X683839D01*
Y135321D01*
X684123D01*
Y135179D01*
X684548D01*
Y135037D01*
X684974D01*
Y134895D01*
X685684D01*
Y134754D01*
X687529D01*
Y134895D01*
X688380D01*
Y135037D01*
X688806D01*
Y135179D01*
X689232D01*
Y135321D01*
X689516D01*
Y135463D01*
X689799D01*
Y135605D01*
X690083D01*
Y135747D01*
X690367D01*
Y135889D01*
X690509D01*
Y136031D01*
X690793D01*
Y136173D01*
X690935D01*
Y136315D01*
X691077D01*
Y136457D01*
X691219D01*
Y136599D01*
X691361D01*
Y136740D01*
X691503D01*
Y136882D01*
X691644D01*
Y137024D01*
X691786D01*
Y137166D01*
X691928D01*
Y137308D01*
X692070D01*
Y137450D01*
X692212D01*
Y137734D01*
X692354D01*
Y137876D01*
X692496D01*
Y138160D01*
X692638D01*
Y138444D01*
X692780D01*
Y138727D01*
X692922D01*
Y139011D01*
X693064D01*
Y139437D01*
X693206D01*
Y140005D01*
X693348D01*
Y140714D01*
X693489D01*
Y146107D01*
Y146249D01*
Y157461D01*
X696044D01*
Y140288D01*
X695902D01*
Y139579D01*
X695760D01*
Y139011D01*
X695618D01*
Y138585D01*
X695476D01*
Y138160D01*
X695334D01*
Y137876D01*
X695192D01*
Y137592D01*
X695051D01*
Y137308D01*
X694909D01*
Y137024D01*
X694767D01*
Y136740D01*
X694625D01*
Y136457D01*
X694483D01*
Y136315D01*
X694341D01*
Y136031D01*
X694199D01*
Y135889D01*
X694057D01*
Y135747D01*
X693915D01*
Y135463D01*
X693773D01*
Y135321D01*
X693631D01*
Y135179D01*
X693489D01*
Y135037D01*
X693348D01*
Y134895D01*
X693206D01*
Y134754D01*
X693064D01*
Y134612D01*
X692922D01*
Y134470D01*
X692780D01*
Y134328D01*
X692496D01*
Y134186D01*
X692354D01*
Y134044D01*
X692212D01*
Y133902D01*
X691928D01*
Y133760D01*
X691786D01*
Y133618D01*
X691503D01*
Y133476D01*
X691219D01*
Y133334D01*
X690935D01*
Y133192D01*
X690651D01*
Y133050D01*
X690367D01*
Y132908D01*
X690083D01*
Y132767D01*
X689657D01*
Y132625D01*
X689232D01*
Y132483D01*
X688664D01*
Y132341D01*
X687813D01*
Y132199D01*
X685542D01*
Y132341D01*
X684690D01*
Y132483D01*
X684123D01*
Y132625D01*
X683697D01*
Y132767D01*
X683271D01*
Y132908D01*
X682845D01*
Y133050D01*
X682561D01*
Y133192D01*
X682277D01*
Y133334D01*
X681994D01*
Y133476D01*
X681710D01*
Y133618D01*
X681568D01*
Y133760D01*
X681426D01*
Y133902D01*
X681142D01*
Y134044D01*
X681000D01*
Y134186D01*
X680858D01*
Y134328D01*
X680574D01*
Y134470D01*
X680291D01*
Y134328D01*
X680149D01*
Y134186D01*
X680007D01*
Y134044D01*
X679723D01*
Y133902D01*
X679581D01*
Y133760D01*
X679439D01*
Y133618D01*
X679155D01*
Y133476D01*
X679013D01*
Y133334D01*
X678871D01*
Y133192D01*
X678587D01*
Y133050D01*
X678304D01*
Y132908D01*
X678020D01*
Y132767D01*
X677736D01*
Y132625D01*
X677452D01*
Y132483D01*
X677168D01*
Y132341D01*
X676743D01*
Y132199D01*
X676317D01*
Y132057D01*
X675891D01*
Y131915D01*
X675465D01*
Y131773D01*
X674755D01*
Y131631D01*
X673904D01*
Y131489D01*
X672201D01*
Y131347D01*
X672059D01*
Y131489D01*
X670356D01*
Y131631D01*
X669504D01*
Y131773D01*
X668937D01*
Y131915D01*
X668369D01*
Y132057D01*
X667943D01*
Y132199D01*
X667517D01*
Y132341D01*
X667234D01*
Y132483D01*
X666808D01*
Y132625D01*
X666524D01*
Y132767D01*
X666240D01*
Y132908D01*
X665956D01*
Y133050D01*
X665672D01*
Y133192D01*
X665530D01*
Y133334D01*
X665247D01*
Y133476D01*
X665105D01*
Y133618D01*
X664821D01*
Y133760D01*
X664679D01*
Y133902D01*
X664395D01*
Y134044D01*
X664253D01*
Y134186D01*
X664111D01*
Y134328D01*
X663827D01*
Y134470D01*
X663686D01*
Y134612D01*
X663544D01*
Y134754D01*
X663402D01*
Y134895D01*
X663260D01*
Y135037D01*
X663118D01*
Y135179D01*
X662976D01*
Y135321D01*
X662834D01*
Y135463D01*
X662692D01*
Y135605D01*
X662550D01*
Y135747D01*
X662408D01*
Y135889D01*
X662266D01*
Y136031D01*
X662124D01*
Y136173D01*
X661982D01*
Y136457D01*
X661840D01*
Y136599D01*
X661699D01*
Y136740D01*
X661557D01*
Y137024D01*
X661415D01*
Y137166D01*
X661273D01*
Y137450D01*
X661131D01*
Y137592D01*
X660989D01*
Y137876D01*
X660847D01*
Y138160D01*
X660705D01*
Y138444D01*
X660563D01*
Y138727D01*
X660421D01*
Y139011D01*
X660279D01*
Y139295D01*
X660137D01*
Y139579D01*
X659996D01*
Y140005D01*
X659854D01*
Y140288D01*
X659712D01*
Y140856D01*
X659570D01*
Y141424D01*
X659428D01*
Y141992D01*
X659286D01*
Y142985D01*
X659144D01*
Y145682D01*
X659286D01*
Y146675D01*
X659428D01*
Y147385D01*
X659570D01*
Y147952D01*
X659712D01*
Y148378D01*
X659854D01*
Y148804D01*
X659996D01*
Y149230D01*
X660137D01*
Y149655D01*
X660279D01*
Y149939D01*
X660421D01*
Y150223D01*
X660563D01*
Y150507D01*
X660705D01*
Y150649D01*
X660847D01*
Y150933D01*
X660989D01*
Y151217D01*
X661131D01*
Y151358D01*
X661273D01*
Y151642D01*
X661415D01*
Y151926D01*
X661557D01*
Y152068D01*
X661699D01*
Y152210D01*
X661840D01*
Y152494D01*
X661982D01*
Y152636D01*
X662124D01*
Y152778D01*
X662266D01*
Y152920D01*
X662408D01*
Y153203D01*
X662550D01*
Y153346D01*
X662692D01*
Y153487D01*
X662834D01*
Y153629D01*
X662976D01*
Y153771D01*
X663118D01*
Y153913D01*
X663402D01*
Y154055D01*
X663544D01*
Y154197D01*
X663686D01*
Y154339D01*
X663827D01*
Y154481D01*
X663969D01*
Y154623D01*
X664111D01*
Y154765D01*
X664253D01*
Y154907D01*
X664537D01*
Y155049D01*
X664679D01*
Y155191D01*
X664821D01*
Y155332D01*
X665105D01*
Y155474D01*
X665247D01*
Y155616D01*
X665530D01*
Y155758D01*
X665814D01*
Y155900D01*
X665956D01*
Y156042D01*
X666240D01*
Y156184D01*
X666666D01*
Y156326D01*
X666950D01*
Y156468D01*
X667234D01*
Y156610D01*
X667659D01*
Y156752D01*
X667943D01*
Y156894D01*
X668369D01*
Y157036D01*
X668795D01*
Y157177D01*
X669362D01*
Y157319D01*
X670356D01*
Y157461D01*
X672059D01*
Y157603D01*
X674330D01*
Y154907D01*
D02*
G37*
D10*
X439332Y159055D02*
G03*
X439332Y159055I-492J0D01*
G01*
X407371D02*
G03*
X407371Y159055I-492J0D01*
G01*
X503255D02*
G03*
X503255Y159055I-492J0D01*
G01*
X215603D02*
G03*
X215603Y159055I-492J0D01*
G01*
X106863Y253664D02*
G03*
X106863Y253664I-492J0D01*
G01*
X623226Y274107D02*
G03*
X623226Y274107I-492J0D01*
G01*
X600037Y257572D02*
G03*
X600037Y257572I-492J0D01*
G01*
Y345367D02*
G03*
X600037Y345367I-492J0D01*
G01*
X535217Y159055D02*
G03*
X535217Y159055I-492J0D01*
G01*
X471294D02*
G03*
X471294Y159055I-492J0D01*
G01*
X375410D02*
G03*
X375410Y159055I-492J0D01*
G01*
X343448D02*
G03*
X343448Y159055I-492J0D01*
G01*
X311487D02*
G03*
X311487Y159055I-492J0D01*
G01*
X279526D02*
G03*
X279526Y159055I-492J0D01*
G01*
X247564D02*
G03*
X247564Y159055I-492J0D01*
G01*
X183642D02*
G03*
X183642Y159055I-492J0D01*
G01*
X727616Y263836D02*
G03*
X727616Y263836I-492J0D01*
G01*
Y351599D02*
G03*
X727616Y351599I-492J0D01*
G01*
X572900Y305997D02*
G03*
X572900Y305997I-492J0D01*
G01*
X113877Y245518D02*
G03*
X113877Y245518I-492J0D01*
G01*
X240084Y305763D02*
G03*
X240084Y305763I-492J0D01*
G01*
X111616Y310070D02*
G03*
X111616Y310070I-492J0D01*
G01*
X120551Y256747D02*
G03*
X120551Y256747I-492J0D01*
G01*
D11*
X169468Y227867D02*
G03*
X169468Y227867I-20669J0D01*
G01*
X213235Y314600D02*
G03*
X213235Y314600I-20669J0D01*
G01*
X161369Y255436D02*
Y286932D01*
X171999Y255436D02*
Y286932D01*
X161369D02*
X171999D01*
X161369Y255436D02*
X171999D01*
X428742Y351912D02*
Y371912D01*
X328742Y351912D02*
X336242D01*
X328742D02*
Y371912D01*
X336242D01*
X428742D01*
X336242Y351912D02*
X428742D01*
X438565Y167520D02*
Y171063D01*
Y167520D02*
X464943D01*
Y171063D01*
X406603Y167520D02*
Y171063D01*
Y167520D02*
X432981D01*
Y171063D01*
X502487Y167520D02*
Y171063D01*
Y167520D02*
X528865D01*
Y171063D01*
X214835Y167520D02*
Y171063D01*
Y167520D02*
X241213D01*
Y171063D01*
X82945Y250121D02*
X94166D01*
Y292247D01*
X82945D02*
X94166D01*
X620174Y263497D02*
Y282788D01*
X579623Y263497D02*
Y282788D01*
X620174D01*
X579623Y263497D02*
X620174D01*
X579623Y265466D02*
X620174D01*
X587143Y228438D02*
X665096D01*
Y255210D01*
X587143D02*
X665096D01*
X587143Y228438D02*
Y255210D01*
Y316233D02*
X665096D01*
Y343005D01*
X587143D02*
X665096D01*
X587143Y316233D02*
Y343005D01*
X560827Y167520D02*
Y171063D01*
X534449Y167520D02*
X560827D01*
X534449D02*
Y171063D01*
X496904Y167520D02*
Y171063D01*
X470526Y167520D02*
X496904D01*
X470526D02*
Y171063D01*
X401020Y167520D02*
Y171063D01*
X374642Y167520D02*
X401020D01*
X374642D02*
Y171063D01*
X369059Y167520D02*
Y171063D01*
X342681Y167520D02*
X369059D01*
X342681D02*
Y171063D01*
X337097Y167520D02*
Y171063D01*
X310719Y167520D02*
X337097D01*
X310719D02*
Y171063D01*
X305136Y167520D02*
Y171063D01*
X278758Y167520D02*
X305136D01*
X278758D02*
Y171063D01*
X273175Y167520D02*
Y171063D01*
X246797Y167520D02*
X273175D01*
X246797D02*
Y171063D01*
X209252Y167520D02*
Y171063D01*
X182874Y167520D02*
X209252D01*
X182874D02*
Y171063D01*
X731824Y221974D02*
X783324D01*
Y261474D01*
X731824D02*
X783324D01*
X731824Y256864D02*
Y261474D01*
Y240364D02*
Y243084D01*
Y221974D02*
Y226584D01*
Y309737D02*
X783324D01*
Y349237D01*
X731824D02*
X783324D01*
X731824Y344627D02*
Y349237D01*
Y328127D02*
Y330847D01*
Y309737D02*
Y314347D01*
X563766Y308556D02*
Y349107D01*
X561798Y308556D02*
Y349107D01*
X581089Y308556D02*
Y349107D01*
X561798D02*
X581089D01*
X561798Y308556D02*
X581089D01*
X73419Y227824D02*
X84049D01*
X73419Y214399D02*
X84049D01*
X247564Y300842D02*
X252485D01*
X247564Y310684D02*
X252485D01*
X112325Y314696D02*
X131616D01*
X112325Y326704D02*
X131616D01*
X112325Y314696D02*
Y326704D01*
X131616Y314696D02*
Y326704D01*
D12*
X299854Y235640D02*
G03*
X299854Y235640I-787J0D01*
G01*
D13*
X117443Y318633D02*
G03*
X117443Y318633I-1181J0D01*
G01*
D14*
X226159Y360542D02*
X229848D01*
X214348D02*
X218037D01*
X196212D02*
X206226D01*
X196212D02*
Y408731D01*
X247984D01*
Y360542D02*
Y408731D01*
X237970Y360542D02*
X247984D01*
X189212Y376113D02*
X195212Y373613D01*
X189212Y371113D02*
Y376113D01*
Y371113D02*
X195212Y373613D01*
X718628Y60787D02*
X728642D01*
Y12598D02*
Y60787D01*
X700492Y12598D02*
X728642D01*
X700492D02*
Y60787D01*
X710506D01*
X729642Y47717D02*
X735642Y45217D01*
Y50217D01*
X729642Y47717D02*
X735642Y50217D01*
X658964Y60787D02*
X668978D01*
Y12598D02*
Y60787D01*
X640829Y12598D02*
X668978D01*
X640829D02*
Y60787D01*
X650842D01*
X669978Y47717D02*
X675978Y45217D01*
Y50217D01*
X669978Y47717D02*
X675978Y50217D01*
X599301Y60787D02*
X609314D01*
Y12598D02*
Y60787D01*
X581165Y12598D02*
X609314D01*
X581165D02*
Y60787D01*
X591179D01*
X610315Y47717D02*
X616315Y45217D01*
Y50217D01*
X610315Y47717D02*
X616315Y50217D01*
X479974Y60787D02*
X489987D01*
Y12598D02*
Y60787D01*
X461838Y12598D02*
X489987D01*
X461838D02*
Y60787D01*
X471851D01*
X490987Y47717D02*
X496987Y45217D01*
Y50217D01*
X490987Y47717D02*
X496987Y50217D01*
X539637Y60787D02*
X549651D01*
Y12598D02*
Y60787D01*
X521501Y12598D02*
X549651D01*
X521501D02*
Y60787D01*
X531515D01*
X550651Y47717D02*
X556651Y45217D01*
Y50217D01*
X550651Y47717D02*
X556651Y50217D01*
X420310Y60787D02*
X430324D01*
Y12598D02*
Y60787D01*
X402174Y12598D02*
X430324D01*
X402174D02*
Y60787D01*
X412188D01*
X431324Y47717D02*
X437324Y45217D01*
Y50217D01*
X431324Y47717D02*
X437324Y50217D01*
X360647Y60787D02*
X370660D01*
Y12598D02*
Y60787D01*
X342511Y12598D02*
X370660D01*
X342511D02*
Y60787D01*
X352524D01*
X371660Y47717D02*
X377660Y45217D01*
Y50217D01*
X371660Y47717D02*
X377660Y50217D01*
X300983Y60787D02*
X310997D01*
Y12598D02*
Y60787D01*
X282847Y12598D02*
X310997D01*
X282847D02*
Y60787D01*
X292861D01*
X311997Y47717D02*
X317997Y45217D01*
Y50217D01*
X311997Y47717D02*
X317997Y50217D01*
X241320Y60787D02*
X251333D01*
Y12598D02*
Y60787D01*
X223184Y12598D02*
X251333D01*
X223184D02*
Y60787D01*
X233197D01*
X252333Y47717D02*
X258333Y45217D01*
Y50217D01*
X252333Y47717D02*
X258333Y50217D01*
X181656Y60787D02*
X191670D01*
Y12598D02*
Y60787D01*
X163520Y12598D02*
X191670D01*
X163520D02*
Y60787D01*
X173534D01*
X192670Y47717D02*
X198670Y45217D01*
Y50217D01*
X192670Y47717D02*
X198670Y50217D01*
X121993Y60787D02*
X132006D01*
Y12598D02*
Y60787D01*
X103857Y12598D02*
X132006D01*
X103857D02*
Y60787D01*
X113870D01*
X133006Y47717D02*
X139006Y45217D01*
Y50217D01*
X133006Y47717D02*
X139006Y50217D01*
X62329Y60787D02*
X72342D01*
Y12598D02*
Y60787D01*
X44193Y12598D02*
X72342D01*
X44193D02*
Y60787D01*
X54207D01*
X73343Y47717D02*
X79343Y45217D01*
Y50217D01*
X73343Y47717D02*
X79343Y50217D01*
X159616Y342428D02*
X163606D01*
X156013Y348928D02*
X158398D01*
X150806Y342428D02*
Y348928D01*
Y342428D02*
X154796D01*
X163606D02*
Y348928D01*
X135785Y371113D02*
X141785Y373613D01*
X135785Y371113D02*
Y376113D01*
X141785Y373613D01*
X184543Y360542D02*
X194557D01*
Y408731D01*
X142785D02*
X194557D01*
X142785Y360542D02*
Y408731D01*
Y360542D02*
X152799D01*
X160921D02*
X164610D01*
X172732D02*
X176421D01*
D15*
X468063Y239144D02*
Y312137D01*
X270071D02*
X468063D01*
X270071Y239144D02*
Y312137D01*
Y239144D02*
X468063D01*
D16*
X358455Y349811D02*
X354456D01*
Y346812D01*
X356456Y347812D01*
X357455D01*
X358455Y346812D01*
Y344813D01*
X357455Y343813D01*
X355456D01*
X354456Y344813D01*
X360454Y349811D02*
Y345813D01*
X362454Y343813D01*
X364453Y345813D01*
Y349811D01*
X415359Y327753D02*
X409361D01*
Y330752D01*
X410361Y331751D01*
X412360D01*
X413360Y330752D01*
Y327753D01*
X415359Y333751D02*
X411360D01*
X409361Y335750D01*
X411360Y337749D01*
X415359D01*
X412360D01*
Y333751D01*
X415359Y342748D02*
X409361D01*
X412360Y339749D01*
Y343747D01*
X434021Y327753D02*
X428023D01*
Y330752D01*
X429022Y331751D01*
X431022D01*
X432021Y330752D01*
Y327753D01*
X434021Y333751D02*
X430022D01*
X428023Y335750D01*
X430022Y337749D01*
X434021D01*
X431022D01*
Y333751D01*
X429022Y339749D02*
X428023Y340748D01*
Y342748D01*
X429022Y343747D01*
X430022D01*
X431022Y342748D01*
Y341748D01*
Y342748D01*
X432021Y343747D01*
X433021D01*
X434021Y342748D01*
Y340748D01*
X433021Y339749D01*
X426962Y374317D02*
X420964D01*
Y377316D01*
X421963Y378316D01*
X423963D01*
X424962Y377316D01*
Y374317D01*
X426962Y380315D02*
X422963D01*
X420964Y382314D01*
X422963Y384314D01*
X426962D01*
X423963D01*
Y380315D01*
X420964Y390312D02*
Y386313D01*
X423963D01*
X422963Y388312D01*
Y389312D01*
X423963Y390312D01*
X425962D01*
X426962Y389312D01*
Y387313D01*
X425962Y386313D01*
X416715Y374317D02*
X410717D01*
Y377316D01*
X411717Y378316D01*
X413716D01*
X414716Y377316D01*
Y374317D01*
X416715Y380315D02*
X412717D01*
X410717Y382314D01*
X412717Y384314D01*
X416715D01*
X413716D01*
Y380315D01*
X410717Y390312D02*
X411717Y388312D01*
X413716Y386313D01*
X415716D01*
X416715Y387313D01*
Y389312D01*
X415716Y390312D01*
X414716D01*
X413716Y389312D01*
Y386313D01*
X406469Y374317D02*
X400471D01*
Y377316D01*
X401471Y378316D01*
X403470D01*
X404470Y377316D01*
Y374317D01*
X406469Y380315D02*
X402470D01*
X400471Y382314D01*
X402470Y384314D01*
X406469D01*
X403470D01*
Y380315D01*
X400471Y386313D02*
Y390312D01*
X401471D01*
X405469Y386313D01*
X406469D01*
X355298Y379115D02*
X354299Y380114D01*
X352299D01*
X351300Y379115D01*
Y375116D01*
X352299Y374116D01*
X354299D01*
X355298Y375116D01*
Y377115D01*
X353299D01*
X357298Y374116D02*
Y380114D01*
X361297Y374116D01*
Y380114D01*
X363296D02*
Y374116D01*
X366295D01*
X367295Y375116D01*
Y379115D01*
X366295Y380114D01*
X363296D01*
X150840Y18717D02*
X156838D01*
Y21716D01*
X155839Y22715D01*
X154839D01*
X153839Y21716D01*
Y18717D01*
Y21716D01*
X152840Y22715D01*
X151840D01*
X150840Y21716D01*
Y18717D01*
X156838Y24715D02*
X150840D01*
Y27714D01*
X151840Y28713D01*
X153839D01*
X154839Y27714D01*
Y24715D01*
Y26714D02*
X156838Y28713D01*
Y30713D02*
X152840D01*
X150840Y32712D01*
X152840Y34711D01*
X156838D01*
X153839D01*
Y30713D01*
X150840Y36711D02*
X156838D01*
X154839D01*
X150840Y40709D01*
X153839Y37710D01*
X156838Y40709D01*
X150840Y46707D02*
Y42709D01*
X156838D01*
Y46707D01*
X153839Y42709D02*
Y44708D01*
X37583Y18717D02*
X31585D01*
Y21716D01*
X32584Y22715D01*
X34584D01*
X35583Y21716D01*
Y18717D01*
Y20716D02*
X37583Y22715D01*
X31585Y24715D02*
Y26714D01*
Y25714D01*
X37583D01*
Y24715D01*
Y26714D01*
Y29713D02*
X31585D01*
X37583Y33712D01*
X31585D01*
Y35711D02*
X37583D01*
Y38710D01*
X36583Y39710D01*
X32584D01*
X31585Y38710D01*
Y35711D01*
Y41709D02*
Y43708D01*
Y42709D01*
X37583D01*
Y41709D01*
Y43708D01*
X32584Y50706D02*
X31585Y49707D01*
Y47707D01*
X32584Y46707D01*
X36583D01*
X37583Y47707D01*
Y49707D01*
X36583Y50706D01*
X91212Y18717D02*
X97211D01*
Y22715D01*
X91212Y24715D02*
Y26714D01*
Y25714D01*
X97211D01*
Y24715D01*
Y26714D01*
Y29713D02*
X91212D01*
X97211Y33712D01*
X91212D01*
Y35711D02*
X97211D01*
Y38710D01*
X96211Y39710D01*
X92212D01*
X91212Y38710D01*
Y35711D01*
Y41709D02*
Y43708D01*
Y42709D01*
X97211D01*
Y41709D01*
Y43708D01*
X92212Y50706D02*
X91212Y49707D01*
Y47707D01*
X92212Y46707D01*
X96211D01*
X97211Y47707D01*
Y49707D01*
X96211Y50706D01*
X125834Y370645D02*
X124835Y369645D01*
Y367646D01*
X125834Y366646D01*
X129833D01*
X130833Y367646D01*
Y369645D01*
X129833Y370645D01*
X130833Y372644D02*
X126834D01*
X124835Y374644D01*
X126834Y376643D01*
X130833D01*
X127833D01*
Y372644D01*
X130833Y378642D02*
X124835D01*
X130833Y382641D01*
X124835D01*
X130833Y394637D02*
Y390638D01*
X126834Y394637D01*
X125834D01*
X124835Y393637D01*
Y391638D01*
X125834Y390638D01*
X537842Y269958D02*
X531844D01*
X534843D01*
Y265959D01*
X537842D01*
X531844D01*
Y263960D02*
X537842D01*
Y260961D01*
X536842Y259961D01*
X534843D01*
X533843Y260961D01*
Y263960D01*
X531844Y251964D02*
X537842D01*
Y248965D01*
X536842Y247965D01*
X534843D01*
X533843Y248965D01*
Y251964D01*
Y249964D02*
X531844Y247965D01*
Y242967D02*
Y244966D01*
X532843Y245966D01*
X534843D01*
X535842Y244966D01*
Y242967D01*
X534843Y241967D01*
X533843D01*
Y245966D01*
X531844Y239967D02*
Y236968D01*
X532843Y235969D01*
X533843Y236968D01*
Y238968D01*
X534843Y239967D01*
X535842Y238968D01*
Y235969D01*
X531844Y233969D02*
Y231970D01*
Y232970D01*
X535842D01*
Y233969D01*
X531844Y228971D02*
Y225972D01*
X532843Y224972D01*
X533843Y225972D01*
Y227971D01*
X534843Y228971D01*
X535842Y227971D01*
Y224972D01*
X536842Y221973D02*
X535842D01*
Y222973D01*
Y220974D01*
Y221973D01*
X532843D01*
X531844Y220974D01*
Y216975D02*
Y214976D01*
X532843Y213976D01*
X534843D01*
X535842Y214976D01*
Y216975D01*
X534843Y217975D01*
X532843D01*
X531844Y216975D01*
X535842Y211977D02*
X531844D01*
X533843D01*
X534843Y210977D01*
X535842Y209977D01*
Y208978D01*
X687490Y22715D02*
Y18717D01*
X690489D01*
Y20716D01*
Y18717D01*
X693488D01*
Y24715D02*
X687490D01*
Y27714D01*
X688490Y28713D01*
X690489D01*
X691489Y27714D01*
Y24715D01*
Y26714D02*
X693488Y28713D01*
X687490Y33712D02*
Y31712D01*
X688490Y30713D01*
X692488D01*
X693488Y31712D01*
Y33712D01*
X692488Y34711D01*
X688490D01*
X687490Y33712D01*
X693488Y36711D02*
X687490D01*
X693488Y40709D01*
X687490D01*
Y42709D02*
Y46707D01*
Y44708D01*
X693488D01*
X687490Y52706D02*
Y48707D01*
X690489D01*
Y50706D01*
Y48707D01*
X693488D01*
X687490Y54705D02*
X692488D01*
X693488Y55705D01*
Y57704D01*
X692488Y58704D01*
X687490D01*
Y60703D02*
X693488D01*
Y64702D01*
X687490Y66701D02*
X693488D01*
Y70700D01*
X628862Y22715D02*
X627862Y21716D01*
Y19716D01*
X628862Y18717D01*
X629862D01*
X630861Y19716D01*
Y21716D01*
X631861Y22715D01*
X632861D01*
X633860Y21716D01*
Y19716D01*
X632861Y18717D01*
X633860Y24715D02*
X629862D01*
X627862Y26714D01*
X629862Y28713D01*
X633860D01*
X630861D01*
Y24715D01*
X627862Y34711D02*
Y30713D01*
X630861D01*
Y32712D01*
Y30713D01*
X633860D01*
X627862Y40709D02*
Y36711D01*
X633860D01*
Y40709D01*
X630861Y36711D02*
Y38710D01*
X627862Y42709D02*
X633860D01*
Y46707D01*
X627862Y48707D02*
Y50706D01*
Y49707D01*
X633860D01*
Y48707D01*
Y50706D01*
X628862Y57704D02*
X627862Y56704D01*
Y54705D01*
X628862Y53705D01*
X632861D01*
X633860Y54705D01*
Y56704D01*
X632861Y57704D01*
X630861D01*
Y55705D01*
X627862Y59703D02*
X633860D01*
X630861D01*
Y63702D01*
X627862D01*
X633860D01*
X627862Y65701D02*
Y69700D01*
Y67701D01*
X633860D01*
X568235Y18717D02*
X574233D01*
X571234D01*
Y22715D01*
X568235D01*
X574233D01*
X568235Y27714D02*
Y25714D01*
X569234Y24715D01*
X573233D01*
X574233Y25714D01*
Y27714D01*
X573233Y28713D01*
X569234D01*
X568235Y27714D01*
X574233Y30713D02*
X568235D01*
Y33712D01*
X569234Y34711D01*
X571234D01*
X572233Y33712D01*
Y30713D01*
Y32712D02*
X574233Y34711D01*
Y36711D02*
X568235D01*
X574233Y40709D01*
X568235D01*
X508607Y22715D02*
Y18717D01*
X511606D01*
Y20716D01*
Y18717D01*
X514605D01*
Y24715D02*
X508607D01*
Y27714D01*
X509607Y28713D01*
X511606D01*
X512605Y27714D01*
Y24715D01*
Y26714D02*
X514605Y28713D01*
X508607Y33712D02*
Y31712D01*
X509607Y30713D01*
X513605D01*
X514605Y31712D01*
Y33712D01*
X513605Y34711D01*
X509607D01*
X508607Y33712D01*
X514605Y36711D02*
X508607D01*
X514605Y40709D01*
X508607D01*
Y42709D02*
Y46707D01*
Y44708D01*
X514605D01*
X508607Y52706D02*
Y48707D01*
X511606D01*
Y50706D01*
Y48707D01*
X514605D01*
X508607Y57704D02*
Y55705D01*
X509607Y54705D01*
X513605D01*
X514605Y55705D01*
Y57704D01*
X513605Y58704D01*
X509607D01*
X508607Y57704D01*
X509607Y64702D02*
X508607Y63702D01*
Y61703D01*
X509607Y60703D01*
X513605D01*
X514605Y61703D01*
Y63702D01*
X513605Y64702D01*
X511606D01*
Y62702D01*
X448979Y22715D02*
Y18717D01*
X451978D01*
Y20716D01*
Y18717D01*
X454977D01*
Y24715D02*
X448979D01*
Y27714D01*
X449979Y28713D01*
X451978D01*
X452978Y27714D01*
Y24715D01*
Y26714D02*
X454977Y28713D01*
X448979Y33712D02*
Y31712D01*
X449979Y30713D01*
X453977D01*
X454977Y31712D01*
Y33712D01*
X453977Y34711D01*
X449979D01*
X448979Y33712D01*
X454977Y36711D02*
X448979D01*
X454977Y40709D01*
X448979D01*
Y42709D02*
Y46707D01*
Y44708D01*
X454977D01*
X448979Y48707D02*
X454977D01*
X451978D01*
Y52706D01*
X448979D01*
X454977D01*
X448979Y54705D02*
Y56704D01*
Y55705D01*
X454977D01*
Y54705D01*
Y56704D01*
X449979Y63702D02*
X448979Y62702D01*
Y60703D01*
X449979Y59703D01*
X453977D01*
X454977Y60703D01*
Y62702D01*
X453977Y63702D01*
X451978D01*
Y61703D01*
X448979Y65701D02*
X454977D01*
X451978D01*
Y69700D01*
X448979D01*
X454977D01*
X389351Y22715D02*
Y18717D01*
X392350D01*
Y20716D01*
Y18717D01*
X395349D01*
Y24715D02*
X389351D01*
Y27714D01*
X390351Y28713D01*
X392350D01*
X393350Y27714D01*
Y24715D01*
Y26714D02*
X395349Y28713D01*
X389351Y33712D02*
Y31712D01*
X390351Y30713D01*
X394350D01*
X395349Y31712D01*
Y33712D01*
X394350Y34711D01*
X390351D01*
X389351Y33712D01*
X395349Y36711D02*
X389351D01*
X395349Y40709D01*
X389351D01*
Y42709D02*
Y46707D01*
Y44708D01*
X395349D01*
X389351Y48707D02*
X395349D01*
Y51706D01*
X394350Y52706D01*
X390351D01*
X389351Y51706D01*
Y48707D01*
X395349Y54705D02*
X391351D01*
X389351Y56704D01*
X391351Y58704D01*
X395349D01*
X392350D01*
Y54705D01*
X389351Y60703D02*
X390351D01*
X392350Y62702D01*
X390351Y64702D01*
X389351D01*
X392350Y62702D02*
X395349D01*
X335721Y18717D02*
X329724D01*
Y21716D01*
X330723Y22715D01*
X332722D01*
X333722Y21716D01*
Y18717D01*
Y20716D02*
X335721Y22715D01*
X329724Y28713D02*
Y24715D01*
X335721D01*
Y28713D01*
X332722Y24715D02*
Y26714D01*
X335721Y30713D02*
X331723D01*
X329724Y32712D01*
X331723Y34711D01*
X335721D01*
X332722D01*
Y30713D01*
X335721Y36711D02*
X329724D01*
Y39710D01*
X330723Y40709D01*
X332722D01*
X333722Y39710D01*
Y36711D01*
Y38710D02*
X335721Y40709D01*
X329724Y46707D02*
Y42709D01*
X332722D01*
Y44708D01*
Y42709D01*
X335721D01*
X329724Y51706D02*
Y49707D01*
X330723Y48707D01*
X334722D01*
X335721Y49707D01*
Y51706D01*
X334722Y52706D01*
X330723D01*
X329724Y51706D01*
X330723Y58704D02*
X329724Y57704D01*
Y55705D01*
X330723Y54705D01*
X334722D01*
X335721Y55705D01*
Y57704D01*
X334722Y58704D01*
X332722D01*
Y56704D01*
X276094Y18717D02*
X270096D01*
Y21716D01*
X271095Y22715D01*
X273095D01*
X274094Y21716D01*
Y18717D01*
Y20716D02*
X276094Y22715D01*
X270096Y28713D02*
Y24715D01*
X276094D01*
Y28713D01*
X273095Y24715D02*
Y26714D01*
X270096Y30713D02*
X274094D01*
X276094Y32712D01*
X274094Y34711D01*
X270096D01*
Y40709D02*
Y36711D01*
X276094D01*
Y40709D01*
X273095Y36711D02*
Y38710D01*
X276094Y42709D02*
X270096D01*
Y45708D01*
X271095Y46707D01*
X273095D01*
X274094Y45708D01*
Y42709D01*
Y44708D02*
X276094Y46707D01*
X271095Y52706D02*
X270096Y51706D01*
Y49707D01*
X271095Y48707D01*
X272095D01*
X273095Y49707D01*
Y51706D01*
X274094Y52706D01*
X275094D01*
X276094Y51706D01*
Y49707D01*
X275094Y48707D01*
X270096Y58704D02*
Y54705D01*
X276094D01*
Y58704D01*
X273095Y54705D02*
Y56704D01*
X216466Y18717D02*
X210468D01*
Y21716D01*
X211468Y22715D01*
X213467D01*
X214467Y21716D01*
Y18717D01*
Y20716D02*
X216466Y22715D01*
X210468Y28713D02*
Y24715D01*
X216466D01*
Y28713D01*
X213467Y24715D02*
Y26714D01*
X216466Y30713D02*
X212467D01*
X210468Y32712D01*
X212467Y34711D01*
X216466D01*
X213467D01*
Y30713D01*
X216466Y36711D02*
X210468D01*
Y39710D01*
X211468Y40709D01*
X213467D01*
X214467Y39710D01*
Y36711D01*
Y38710D02*
X216466Y40709D01*
Y42709D02*
X210468D01*
Y45708D01*
X211468Y46707D01*
X213467D01*
X214467Y45708D01*
Y42709D01*
X210468Y51706D02*
Y49707D01*
X211468Y48707D01*
X215466D01*
X216466Y49707D01*
Y51706D01*
X215466Y52706D01*
X211468D01*
X210468Y51706D01*
X211468Y58704D02*
X210468Y57704D01*
Y55705D01*
X211468Y54705D01*
X212467D01*
X213467Y55705D01*
Y57704D01*
X214467Y58704D01*
X215466D01*
X216466Y57704D01*
Y55705D01*
X215466Y54705D01*
X579936Y180634D02*
Y176699D01*
X581904D01*
X582560Y177355D01*
Y179979D01*
X581904Y180634D01*
X579936D01*
X585839Y176699D02*
X584527D01*
X583872Y177355D01*
Y178667D01*
X584527Y179323D01*
X585839D01*
X586495Y178667D01*
Y178011D01*
X583872D01*
X587807Y176699D02*
X589775D01*
X590431Y177355D01*
X589775Y178011D01*
X588463D01*
X587807Y178667D01*
X588463Y179323D01*
X590431D01*
X591743Y176699D02*
X593055D01*
X592399D01*
Y179323D01*
X591743D01*
X596335Y175387D02*
X596991D01*
X597647Y176043D01*
Y179323D01*
X595679D01*
X595023Y178667D01*
Y177355D01*
X595679Y176699D01*
X597647D01*
X598958D02*
Y179323D01*
X600926D01*
X601582Y178667D01*
Y176699D01*
X604862D02*
X603550D01*
X602894Y177355D01*
Y178667D01*
X603550Y179323D01*
X604862D01*
X605518Y178667D01*
Y178011D01*
X602894D01*
X609454Y180634D02*
Y176699D01*
X607486D01*
X606830Y177355D01*
Y178667D01*
X607486Y179323D01*
X609454D01*
X614702Y180634D02*
Y176699D01*
X616669D01*
X617325Y177355D01*
Y178011D01*
Y178667D01*
X616669Y179323D01*
X614702D01*
X618637D02*
Y177355D01*
X619293Y176699D01*
X621261D01*
Y176043D01*
X620605Y175387D01*
X619949D01*
X621261Y176699D02*
Y179323D01*
X629133Y180634D02*
X627821D01*
X628477D01*
Y177355D01*
X627821Y176699D01*
X627165D01*
X626509Y177355D01*
X632412Y176699D02*
X631100D01*
X630444Y177355D01*
Y178667D01*
X631100Y179323D01*
X632412D01*
X633068Y178667D01*
Y178011D01*
X630444D01*
X634380Y179323D02*
Y176699D01*
Y178011D01*
X635036Y178667D01*
X635692Y179323D01*
X636348D01*
X640284Y176699D02*
X638972D01*
X638316Y177355D01*
Y178667D01*
X638972Y179323D01*
X640284D01*
X640940Y178667D01*
Y178011D01*
X638316D01*
X642252Y176699D02*
Y179323D01*
X642908D01*
X643564Y178667D01*
Y176699D01*
Y178667D01*
X644219Y179323D01*
X644875Y178667D01*
Y176699D01*
X646187D02*
X647499D01*
X646843D01*
Y179323D01*
X646187D01*
X650123D02*
X651435D01*
X652091Y178667D01*
Y176699D01*
X650123D01*
X649467Y177355D01*
X650123Y178011D01*
X652091D01*
X653403Y176699D02*
X655371D01*
X656027Y177355D01*
X655371Y178011D01*
X654059D01*
X653403Y178667D01*
X654059Y179323D01*
X656027D01*
X661274Y176699D02*
Y180634D01*
X663242D01*
X663898Y179979D01*
Y178667D01*
X663242Y178011D01*
X661274D01*
X665866Y176699D02*
X667178D01*
X667834Y177355D01*
Y178667D01*
X667178Y179323D01*
X665866D01*
X665210Y178667D01*
Y177355D01*
X665866Y176699D01*
X669146Y180634D02*
Y176699D01*
Y178667D01*
X669802Y179323D01*
X671114D01*
X671770Y178667D01*
Y176699D01*
X673082D02*
X674394D01*
X673738D01*
Y180634D01*
X673082D01*
X678329Y176699D02*
X677017D01*
X676361Y177355D01*
Y178667D01*
X677017Y179323D01*
X678329D01*
X678985Y178667D01*
Y178011D01*
X676361D01*
X684233Y178667D02*
X686857D01*
X692104Y175387D02*
X692760D01*
X693416Y176043D01*
Y179323D01*
X698008Y176699D02*
X696696D01*
X696040Y177355D01*
Y178667D01*
X696696Y179323D01*
X698008D01*
X698664Y178667D01*
Y178011D01*
X696040D01*
X699976Y175387D02*
Y179323D01*
X701944D01*
X702600Y178667D01*
Y177355D01*
X701944Y176699D01*
X699976D01*
X703912Y180634D02*
X706535D01*
Y179979D01*
X703912Y177355D01*
Y176699D01*
X707847Y179979D02*
X708503Y180634D01*
X709815D01*
X710471Y179979D01*
Y179323D01*
X709815Y178667D01*
X710471Y178011D01*
Y177355D01*
X709815Y176699D01*
X708503D01*
X707847Y177355D01*
Y178011D01*
X708503Y178667D01*
X707847Y179323D01*
Y179979D01*
X708503Y178667D02*
X709815D01*
X601952Y189059D02*
X601296Y189715D01*
X599984D01*
X599328Y189059D01*
Y186435D01*
X599984Y185779D01*
X601296D01*
X601952Y186435D01*
X603264Y189715D02*
Y186435D01*
X603920Y185779D01*
X605232D01*
X605888Y186435D01*
Y189715D01*
X609824D02*
X607200D01*
Y185779D01*
X609824D01*
X607200Y187747D02*
X608512D01*
X611136Y185779D02*
Y189715D01*
X613103D01*
X613760Y189059D01*
Y187747D01*
X613103Y187091D01*
X611136D01*
X612448D02*
X613760Y185779D01*
X619007Y189715D02*
Y185779D01*
X621631D01*
X622943D02*
X624255D01*
X623599D01*
Y188403D01*
X622943D01*
X627535Y184467D02*
X628191D01*
X628847Y185123D01*
Y188403D01*
X626879D01*
X626223Y187747D01*
Y186435D01*
X626879Y185779D01*
X628847D01*
X630158Y189715D02*
Y185779D01*
Y187747D01*
X630814Y188403D01*
X632126D01*
X632782Y187747D01*
Y185779D01*
X634750Y189059D02*
Y188403D01*
X634094D01*
X635406D01*
X634750D01*
Y186435D01*
X635406Y185779D01*
X637374D02*
X639342D01*
X639998Y186435D01*
X639342Y187091D01*
X638030D01*
X637374Y187747D01*
X638030Y188403D01*
X639998D01*
X645245Y189715D02*
Y187091D01*
X646557Y185779D01*
X647869Y187091D01*
Y189715D01*
X649181Y185779D02*
X650493D01*
X649837D01*
Y189715D01*
X649181Y189059D01*
X652461Y185779D02*
Y186435D01*
X653117D01*
Y185779D01*
X652461D01*
X655741Y189059D02*
X656397Y189715D01*
X657709D01*
X658364Y189059D01*
Y186435D01*
X657709Y185779D01*
X656397D01*
X655741Y186435D01*
Y189059D01*
X666236Y189715D02*
X663612D01*
Y187747D01*
X664924D01*
X663612D01*
Y185779D01*
X669516D02*
X668204D01*
X667548Y186435D01*
Y187747D01*
X668204Y188403D01*
X669516D01*
X670172Y187747D01*
Y187091D01*
X667548D01*
X671484Y189715D02*
Y185779D01*
X673452D01*
X674108Y186435D01*
Y187091D01*
Y187747D01*
X673452Y188403D01*
X671484D01*
X681979Y185779D02*
X679355D01*
X681979Y188403D01*
Y189059D01*
X681323Y189715D01*
X680011D01*
X679355Y189059D01*
X683291D02*
X683947Y189715D01*
X685259D01*
X685915Y189059D01*
Y186435D01*
X685259Y185779D01*
X683947D01*
X683291Y186435D01*
Y189059D01*
X689850Y185779D02*
X687227D01*
X689850Y188403D01*
Y189059D01*
X689194Y189715D01*
X687883D01*
X687227Y189059D01*
X693786Y185779D02*
X691162D01*
X693786Y188403D01*
Y189059D01*
X693130Y189715D01*
X691818D01*
X691162Y189059D01*
X615533Y168705D02*
X616189Y168049D01*
X617501D01*
X618157Y168705D01*
Y171329D01*
X617501Y171985D01*
X616189D01*
X615533Y171329D01*
Y170673D01*
X616189Y170017D01*
X618157D01*
X619469Y171329D02*
X620125Y171985D01*
X621437D01*
X622093Y171329D01*
Y168705D01*
X621437Y168049D01*
X620125D01*
X619469Y168705D01*
Y171329D01*
X623405Y170673D02*
X626028Y168049D01*
X624717Y169361D01*
X626028Y170673D01*
X623405Y168049D01*
X627340D02*
X628652D01*
X627996D01*
Y171985D01*
X627340Y171329D01*
X630620Y168705D02*
X631276Y168049D01*
X632588D01*
X633244Y168705D01*
Y171329D01*
X632588Y171985D01*
X631276D01*
X630620Y171329D01*
Y170673D01*
X631276Y170017D01*
X633244D01*
X634556Y171329D02*
X635212Y171985D01*
X636524D01*
X637180Y171329D01*
Y168705D01*
X636524Y168049D01*
X635212D01*
X634556Y168705D01*
Y171329D01*
X642427Y168049D02*
Y170673D01*
X643083D01*
X643739Y170017D01*
Y168049D01*
Y170017D01*
X644395Y170673D01*
X645051Y170017D01*
Y168049D01*
X646363D02*
Y170673D01*
X647019D01*
X647675Y170017D01*
Y168049D01*
Y170017D01*
X648331Y170673D01*
X648987Y170017D01*
Y168049D01*
X233011Y344152D02*
X234011Y343152D01*
X236010D01*
X237010Y344152D01*
Y348151D01*
X236010Y349150D01*
X234011D01*
X233011Y348151D01*
X231012Y349150D02*
Y345152D01*
X229013Y343152D01*
X227013Y345152D01*
Y349150D01*
Y346151D01*
X231012D01*
X225014Y349150D02*
Y343152D01*
X221015Y349150D01*
Y343152D01*
X213018Y349150D02*
X211018D01*
X212018D01*
Y343152D01*
X213018Y344152D01*
X721485Y293551D02*
X723484D01*
X722484D01*
Y299549D01*
X721485Y298549D01*
X730482Y293551D02*
X726483D01*
X730482Y297550D01*
Y298549D01*
X729482Y299549D01*
X727483D01*
X726483Y298549D01*
X738479Y293551D02*
X742478Y297550D01*
X754474Y293551D02*
X750475D01*
X754474Y297550D01*
Y298549D01*
X753474Y299549D01*
X751475D01*
X750475Y298549D01*
X759472Y293551D02*
Y299549D01*
X756473Y296550D01*
X760472D01*
X768469Y299549D02*
Y295550D01*
X770469Y293551D01*
X772468Y295550D01*
Y299549D01*
X691865Y211844D02*
Y207846D01*
X693864Y205846D01*
X695864Y207846D01*
Y211844D01*
X697863D02*
Y205846D01*
X700862D01*
X701862Y206846D01*
Y207846D01*
Y208845D01*
X700862Y209845D01*
X697863D01*
X704861D02*
X706860D01*
X707860Y208845D01*
Y205846D01*
X704861D01*
X703861Y206846D01*
X704861Y207846D01*
X707860D01*
X710859Y210845D02*
Y209845D01*
X709859D01*
X711858D01*
X710859D01*
Y206846D01*
X711858Y205846D01*
X720856D02*
X722855D01*
X721855D01*
Y211844D01*
X720856Y210845D01*
X729853Y205846D02*
X725854D01*
X729853Y209845D01*
Y210845D01*
X728853Y211844D01*
X726854D01*
X725854Y210845D01*
X737850Y205846D02*
X741849Y209845D01*
X753845Y205846D02*
X749846D01*
X753845Y209845D01*
Y210845D01*
X752845Y211844D01*
X750846D01*
X749846Y210845D01*
X758843Y205846D02*
Y211844D01*
X755844Y208845D01*
X759843D01*
X767840Y211844D02*
Y207846D01*
X769840Y205846D01*
X771839Y207846D01*
Y211844D01*
X323900Y375300D02*
Y381298D01*
X326899D01*
X327899Y380298D01*
Y378299D01*
X326899Y377299D01*
X323900D01*
X329898Y375300D02*
X331897D01*
X330898D01*
Y381298D01*
X329898Y380298D01*
X540201Y134576D02*
X534202D01*
Y137575D01*
X535202Y138575D01*
X537201D01*
X538201Y137575D01*
Y134576D01*
Y136575D02*
X540201Y138575D01*
Y144573D02*
Y140574D01*
X536202Y144573D01*
X535202D01*
X534202Y143573D01*
Y141574D01*
X535202Y140574D01*
X534202Y150571D02*
X535202Y148572D01*
X537201Y146572D01*
X539201D01*
X540201Y147572D01*
Y149571D01*
X539201Y150571D01*
X538201D01*
X537201Y149571D01*
Y146572D01*
X503751Y134401D02*
X497753D01*
Y137400D01*
X498752Y138400D01*
X500752D01*
X501751Y137400D01*
Y134401D01*
Y136400D02*
X503751Y138400D01*
Y144398D02*
Y140399D01*
X499752Y144398D01*
X498752D01*
X497753Y143398D01*
Y141399D01*
X498752Y140399D01*
X497753Y150396D02*
Y146397D01*
X500752D01*
X499752Y148397D01*
Y149396D01*
X500752Y150396D01*
X502751D01*
X503751Y149396D01*
Y147397D01*
X502751Y146397D01*
X469836Y135538D02*
X463838D01*
Y138537D01*
X464837Y139536D01*
X466837D01*
X467837Y138537D01*
Y135538D01*
Y137537D02*
X469836Y139536D01*
Y145534D02*
Y141536D01*
X465837Y145534D01*
X464837D01*
X463838Y144535D01*
Y142535D01*
X464837Y141536D01*
X469836Y150533D02*
X463838D01*
X466837Y147534D01*
Y151532D01*
X406202Y136149D02*
X400204D01*
Y139148D01*
X401203Y140148D01*
X403203D01*
X404202Y139148D01*
Y136149D01*
Y138149D02*
X406202Y140148D01*
Y146146D02*
Y142147D01*
X402203Y146146D01*
X401203D01*
X400204Y145147D01*
Y143147D01*
X401203Y142147D01*
Y148145D02*
X400204Y149145D01*
Y151145D01*
X401203Y152144D01*
X402203D01*
X403203Y151145D01*
Y150145D01*
Y151145D01*
X404202Y152144D01*
X405202D01*
X406202Y151145D01*
Y149145D01*
X405202Y148145D01*
X437232Y134838D02*
X431234D01*
Y137837D01*
X432234Y138837D01*
X434233D01*
X435233Y137837D01*
Y134838D01*
Y136838D02*
X437232Y138837D01*
Y144835D02*
Y140836D01*
X433233Y144835D01*
X432234D01*
X431234Y143835D01*
Y141836D01*
X432234Y140836D01*
X437232Y150833D02*
Y146834D01*
X433233Y150833D01*
X432234D01*
X431234Y149833D01*
Y147834D01*
X432234Y146834D01*
X372462Y136275D02*
X366464D01*
Y139274D01*
X367463Y140274D01*
X369463D01*
X370462Y139274D01*
Y136275D01*
Y138274D02*
X372462Y140274D01*
Y146272D02*
Y142273D01*
X368463Y146272D01*
X367463D01*
X366464Y145272D01*
Y143273D01*
X367463Y142273D01*
X372462Y148271D02*
Y150270D01*
Y149271D01*
X366464D01*
X367463Y148271D01*
X493979Y219070D02*
X487981D01*
Y222069D01*
X488980Y223068D01*
X490980D01*
X491979Y222069D01*
Y219070D01*
Y221069D02*
X493979Y223068D01*
Y229066D02*
Y225067D01*
X489980Y229066D01*
X488980D01*
X487981Y228067D01*
Y226067D01*
X488980Y225067D01*
Y231066D02*
X487981Y232065D01*
Y234065D01*
X488980Y235064D01*
X492979D01*
X493979Y234065D01*
Y232065D01*
X492979Y231066D01*
X488980D01*
X465900Y227500D02*
Y233498D01*
X468899D01*
X469899Y232498D01*
Y230499D01*
X468899Y229499D01*
X465900D01*
X467899D02*
X469899Y227500D01*
X471898D02*
X473897D01*
X472898D01*
Y233498D01*
X471898Y232498D01*
X476896Y228500D02*
X477896Y227500D01*
X479895D01*
X480895Y228500D01*
Y232498D01*
X479895Y233498D01*
X477896D01*
X476896Y232498D01*
Y231499D01*
X477896Y230499D01*
X480895D01*
X437857Y216886D02*
X431859D01*
Y219885D01*
X432858Y220885D01*
X434858D01*
X435857Y219885D01*
Y216886D01*
Y218886D02*
X437857Y220885D01*
Y222884D02*
Y224884D01*
Y223884D01*
X431859D01*
X432858Y222884D01*
Y227883D02*
X431859Y228883D01*
Y230882D01*
X432858Y231881D01*
X433858D01*
X434858Y230882D01*
X435857Y231881D01*
X436857D01*
X437857Y230882D01*
Y228883D01*
X436857Y227883D01*
X435857D01*
X434858Y228883D01*
X433858Y227883D01*
X432858D01*
X434858Y228883D02*
Y230882D01*
X404457Y216886D02*
X398459D01*
Y219885D01*
X399458Y220885D01*
X401458D01*
X402458Y219885D01*
Y216886D01*
Y218886D02*
X404457Y220885D01*
Y222884D02*
Y224884D01*
Y223884D01*
X398459D01*
X399458Y222884D01*
X398459Y227883D02*
Y231881D01*
X399458D01*
X403457Y227883D01*
X404457D01*
X418179Y216498D02*
X412181D01*
Y219497D01*
X413181Y220497D01*
X415180D01*
X416180Y219497D01*
Y216498D01*
Y218497D02*
X418179Y220497D01*
Y222496D02*
Y224495D01*
Y223496D01*
X412181D01*
X413181Y222496D01*
X412181Y231493D02*
X413181Y229494D01*
X415180Y227495D01*
X417180D01*
X418179Y228494D01*
Y230493D01*
X417180Y231493D01*
X416180D01*
X415180Y230493D01*
Y227495D01*
X378047Y217145D02*
X372049D01*
Y220144D01*
X373049Y221144D01*
X375048D01*
X376048Y220144D01*
Y217145D01*
Y219145D02*
X378047Y221144D01*
Y223143D02*
Y225143D01*
Y224143D01*
X372049D01*
X373049Y223143D01*
X372049Y232140D02*
Y228142D01*
X375048D01*
X374049Y230141D01*
Y231141D01*
X375048Y232140D01*
X377048D01*
X378047Y231141D01*
Y229141D01*
X377048Y228142D01*
X342393Y135950D02*
X336395D01*
Y138949D01*
X337394Y139949D01*
X339394D01*
X340393Y138949D01*
Y135950D01*
Y137949D02*
X342393Y139949D01*
Y141948D02*
Y143947D01*
Y142948D01*
X336395D01*
X337394Y141948D01*
X342393Y149945D02*
X336395D01*
X339394Y146946D01*
Y150945D01*
X310663Y136037D02*
X304665D01*
Y139036D01*
X305665Y140036D01*
X307664D01*
X308664Y139036D01*
Y136037D01*
Y138037D02*
X310663Y140036D01*
Y142035D02*
Y144035D01*
Y143035D01*
X304665D01*
X305665Y142035D01*
Y147034D02*
X304665Y148033D01*
Y150033D01*
X305665Y151032D01*
X306664D01*
X307664Y150033D01*
Y149033D01*
Y150033D01*
X308664Y151032D01*
X309663D01*
X310663Y150033D01*
Y148033D01*
X309663Y147034D01*
X279021Y135600D02*
X273023D01*
Y138599D01*
X274023Y139599D01*
X276022D01*
X277022Y138599D01*
Y135600D01*
Y137600D02*
X279021Y139599D01*
Y141598D02*
Y143598D01*
Y142598D01*
X273023D01*
X274023Y141598D01*
X279021Y150595D02*
Y146597D01*
X275022Y150595D01*
X274023D01*
X273023Y149596D01*
Y147596D01*
X274023Y146597D01*
X246942Y136600D02*
X240944D01*
Y139599D01*
X241943Y140599D01*
X243943D01*
X244942Y139599D01*
Y136600D01*
Y138599D02*
X246942Y140599D01*
Y142598D02*
Y144597D01*
Y143598D01*
X240944D01*
X241943Y142598D01*
X246942Y147596D02*
Y149596D01*
Y148596D01*
X240944D01*
X241943Y147596D01*
X213813Y136911D02*
X207815D01*
Y139910D01*
X208815Y140910D01*
X210814D01*
X211814Y139910D01*
Y136911D01*
Y138911D02*
X213813Y140910D01*
Y142910D02*
Y144909D01*
Y143909D01*
X207815D01*
X208815Y142910D01*
Y147908D02*
X207815Y148907D01*
Y150907D01*
X208815Y151907D01*
X212814D01*
X213813Y150907D01*
Y148907D01*
X212814Y147908D01*
X208815D01*
X170773Y136689D02*
X164775D01*
Y139688D01*
X165775Y140688D01*
X167774D01*
X168773Y139688D01*
Y136689D01*
Y138689D02*
X170773Y140688D01*
X169773Y142687D02*
X170773Y143687D01*
Y145686D01*
X169773Y146686D01*
X165775D01*
X164775Y145686D01*
Y143687D01*
X165775Y142687D01*
X166774D01*
X167774Y143687D01*
Y146686D01*
X356000Y223300D02*
Y229298D01*
X358999D01*
X359999Y228298D01*
Y226299D01*
X358999Y225299D01*
X356000D01*
X357999D02*
X359999Y223300D01*
X361998Y228298D02*
X362998Y229298D01*
X364997D01*
X365997Y228298D01*
Y227299D01*
X364997Y226299D01*
X365997Y225299D01*
Y224300D01*
X364997Y223300D01*
X362998D01*
X361998Y224300D01*
Y225299D01*
X362998Y226299D01*
X361998Y227299D01*
Y228298D01*
X362998Y226299D02*
X364997D01*
X333500Y224300D02*
Y230298D01*
X336499D01*
X337499Y229298D01*
Y227299D01*
X336499Y226299D01*
X333500D01*
X335499D02*
X337499Y224300D01*
X339498Y230298D02*
X343497D01*
Y229298D01*
X339498Y225300D01*
Y224300D01*
X307369Y228968D02*
Y234966D01*
X310368D01*
X311368Y233967D01*
Y231967D01*
X310368Y230967D01*
X307369D01*
X309368D02*
X311368Y228968D01*
X317366Y234966D02*
X315366Y233967D01*
X313367Y231967D01*
Y229968D01*
X314367Y228968D01*
X316366D01*
X317366Y229968D01*
Y230967D01*
X316366Y231967D01*
X313367D01*
X270800Y230800D02*
Y236798D01*
X273799D01*
X274799Y235798D01*
Y233799D01*
X273799Y232799D01*
X270800D01*
X272799D02*
X274799Y230800D01*
X280797Y236798D02*
X276798D01*
Y233799D01*
X278797Y234799D01*
X279797D01*
X280797Y233799D01*
Y231800D01*
X279797Y230800D01*
X277798D01*
X276798Y231800D01*
X248300Y233847D02*
Y239845D01*
X251299D01*
X252298Y238845D01*
Y236846D01*
X251299Y235846D01*
X248300D01*
X250299D02*
X252298Y233847D01*
X257297D02*
Y239845D01*
X254298Y236846D01*
X258296D01*
X206800Y233600D02*
Y239598D01*
X209799D01*
X210799Y238598D01*
Y236599D01*
X209799Y235599D01*
X206800D01*
X208799D02*
X210799Y233600D01*
X212798Y238598D02*
X213798Y239598D01*
X215797D01*
X216797Y238598D01*
Y237599D01*
X215797Y236599D01*
X214797D01*
X215797D01*
X216797Y235599D01*
Y234600D01*
X215797Y233600D01*
X213798D01*
X212798Y234600D01*
X80117Y239193D02*
X76118D01*
Y236194D01*
X78118D01*
X76118D01*
Y233195D01*
X82116D02*
X84116D01*
X83116D01*
Y239193D01*
X82116Y238193D01*
X270000Y316200D02*
Y320199D01*
X271999Y322198D01*
X273999Y320199D01*
Y316200D01*
Y319199D01*
X270000D01*
X275998Y316200D02*
X277997D01*
X276998D01*
Y322198D01*
X275998Y321198D01*
X575339Y278318D02*
X569341D01*
Y275319D01*
X570340Y274320D01*
X574339D01*
X575339Y275319D01*
Y278318D01*
Y268322D02*
Y272320D01*
X572340D01*
X573340Y270321D01*
Y269321D01*
X572340Y268322D01*
X570340D01*
X569341Y269321D01*
Y271321D01*
X570340Y272320D01*
X619303Y218051D02*
X623302Y212053D01*
Y218051D02*
X619303Y212053D01*
X629300Y218051D02*
X625301D01*
Y215052D01*
X627300D01*
X625301D01*
Y212053D01*
X635298D02*
X631299D01*
X635298Y216052D01*
Y217052D01*
X634298Y218051D01*
X632299D01*
X631299Y217052D01*
X616366Y306240D02*
X620364Y300242D01*
Y306240D02*
X616366Y300242D01*
X626363Y306240D02*
X622364D01*
Y303241D01*
X624363D01*
X622364D01*
Y300242D01*
X628362D02*
X630361D01*
X629361D01*
Y306240D01*
X628362Y305241D01*
X101255Y315701D02*
X106254D01*
X107253Y316701D01*
Y318700D01*
X106254Y319700D01*
X101255D01*
X107253Y325698D02*
Y321699D01*
X103255Y325698D01*
X102255D01*
X101255Y324698D01*
Y322699D01*
X102255Y321699D01*
X37879Y266534D02*
X42877D01*
X43877Y267533D01*
Y269533D01*
X42877Y270532D01*
X37879D01*
X43877Y272532D02*
Y274531D01*
Y273531D01*
X37879D01*
X38879Y272532D01*
X108843Y339187D02*
X102845D01*
Y342186D01*
X103844Y343186D01*
X105844D01*
X106843Y342186D01*
Y339187D01*
Y341187D02*
X108843Y343186D01*
Y349184D02*
Y345185D01*
X104844Y349184D01*
X103844D01*
X102845Y348184D01*
Y346185D01*
X103844Y345185D01*
X229066Y308226D02*
X223068D01*
Y311225D01*
X224068Y312225D01*
X226067D01*
X227067Y311225D01*
Y308226D01*
Y310225D02*
X229066Y312225D01*
Y314224D02*
Y316223D01*
Y315224D01*
X223068D01*
X224068Y314224D01*
X538741Y201900D02*
Y205898D01*
X537742Y206898D01*
X535742D01*
X534742Y205898D01*
Y201900D01*
X535742Y200900D01*
X537742D01*
X536742Y202899D02*
X538741Y200900D01*
X537742D02*
X538741Y201900D01*
X540741Y200900D02*
X542740D01*
X541740D01*
Y206898D01*
X540741Y205898D01*
X549738Y200900D02*
X545739D01*
X549738Y204899D01*
Y205898D01*
X548738Y206898D01*
X546739D01*
X545739Y205898D01*
X506741Y201900D02*
Y205898D01*
X505742Y206898D01*
X503742D01*
X502742Y205898D01*
Y201900D01*
X503742Y200900D01*
X505742D01*
X504742Y202899D02*
X506741Y200900D01*
X505742D02*
X506741Y201900D01*
X508741Y200900D02*
X510740D01*
X509740D01*
Y206898D01*
X508741Y205898D01*
X513739Y200900D02*
X515738D01*
X514739D01*
Y206898D01*
X513739Y205898D01*
X474841Y201900D02*
Y205898D01*
X473842Y206898D01*
X471842D01*
X470843Y205898D01*
Y201900D01*
X471842Y200900D01*
X473842D01*
X472842Y202899D02*
X474841Y200900D01*
X473842D02*
X474841Y201900D01*
X476841Y200900D02*
X478840D01*
X477840D01*
Y206898D01*
X476841Y205898D01*
X481839D02*
X482839Y206898D01*
X484838D01*
X485838Y205898D01*
Y201900D01*
X484838Y200900D01*
X482839D01*
X481839Y201900D01*
Y205898D01*
X410899Y201900D02*
Y205898D01*
X409899Y206898D01*
X407900D01*
X406900Y205898D01*
Y201900D01*
X407900Y200900D01*
X409899D01*
X408899Y202899D02*
X410899Y200900D01*
X409899D02*
X410899Y201900D01*
X412898D02*
X413898Y200900D01*
X415897D01*
X416897Y201900D01*
Y205898D01*
X415897Y206898D01*
X413898D01*
X412898Y205898D01*
Y204899D01*
X413898Y203899D01*
X416897D01*
X442899Y201900D02*
Y205898D01*
X441899Y206898D01*
X439900D01*
X438900Y205898D01*
Y201900D01*
X439900Y200900D01*
X441899D01*
X440899Y202899D02*
X442899Y200900D01*
X441899D02*
X442899Y201900D01*
X444898Y205898D02*
X445898Y206898D01*
X447897D01*
X448897Y205898D01*
Y204899D01*
X447897Y203899D01*
X448897Y202899D01*
Y201900D01*
X447897Y200900D01*
X445898D01*
X444898Y201900D01*
Y202899D01*
X445898Y203899D01*
X444898Y204899D01*
Y205898D01*
X445898Y203899D02*
X447897D01*
X378941Y201900D02*
Y205898D01*
X377942Y206898D01*
X375942D01*
X374942Y205898D01*
Y201900D01*
X375942Y200900D01*
X377942D01*
X376942Y202899D02*
X378941Y200900D01*
X377942D02*
X378941Y201900D01*
X380941Y206898D02*
X384939D01*
Y205898D01*
X380941Y201900D01*
Y200900D01*
X346941Y201900D02*
Y205898D01*
X345942Y206898D01*
X343942D01*
X342943Y205898D01*
Y201900D01*
X343942Y200900D01*
X345942D01*
X344942Y202899D02*
X346941Y200900D01*
X345942D02*
X346941Y201900D01*
X352939Y206898D02*
X350940Y205898D01*
X348941Y203899D01*
Y201900D01*
X349940Y200900D01*
X351940D01*
X352939Y201900D01*
Y202899D01*
X351940Y203899D01*
X348941D01*
X315041Y201900D02*
Y205898D01*
X314042Y206898D01*
X312042D01*
X311042Y205898D01*
Y201900D01*
X312042Y200900D01*
X314042D01*
X313042Y202899D02*
X315041Y200900D01*
X314042D02*
X315041Y201900D01*
X321039Y206898D02*
X317041D01*
Y203899D01*
X319040Y204899D01*
X320040D01*
X321039Y203899D01*
Y201900D01*
X320040Y200900D01*
X318040D01*
X317041Y201900D01*
X283041D02*
Y205898D01*
X282042Y206898D01*
X280042D01*
X279043Y205898D01*
Y201900D01*
X280042Y200900D01*
X282042D01*
X281042Y202899D02*
X283041Y200900D01*
X282042D02*
X283041Y201900D01*
X288040Y200900D02*
Y206898D01*
X285041Y203899D01*
X289039D01*
X251041Y201900D02*
Y205898D01*
X250042Y206898D01*
X248042D01*
X247042Y205898D01*
Y201900D01*
X248042Y200900D01*
X250042D01*
X249042Y202899D02*
X251041Y200900D01*
X250042D02*
X251041Y201900D01*
X253041Y205898D02*
X254040Y206898D01*
X256040D01*
X257039Y205898D01*
Y204899D01*
X256040Y203899D01*
X255040D01*
X256040D01*
X257039Y202899D01*
Y201900D01*
X256040Y200900D01*
X254040D01*
X253041Y201900D01*
X219141D02*
Y205898D01*
X218142Y206898D01*
X216142D01*
X215142Y205898D01*
Y201900D01*
X216142Y200900D01*
X218142D01*
X217142Y202899D02*
X219141Y200900D01*
X218142D02*
X219141Y201900D01*
X225139Y200900D02*
X221141D01*
X225139Y204899D01*
Y205898D01*
X224140Y206898D01*
X222140D01*
X221141Y205898D01*
X187141Y201900D02*
Y205898D01*
X186142Y206898D01*
X184142D01*
X183142Y205898D01*
Y201900D01*
X184142Y200900D01*
X186142D01*
X185142Y202899D02*
X187141Y200900D01*
X186142D02*
X187141Y201900D01*
X189141Y200900D02*
X191140D01*
X190140D01*
Y206898D01*
X189141Y205898D01*
X169850Y245931D02*
Y251929D01*
X165852D01*
X163852D02*
X161853D01*
X162853D01*
Y245931D01*
X163852Y246931D01*
X739658Y273518D02*
X737659D01*
X738659D01*
Y268519D01*
X737659Y267520D01*
X736659D01*
X735660Y268519D01*
X741658Y267520D02*
X743657D01*
X742657D01*
Y273518D01*
X741658Y272518D01*
X750655Y273518D02*
X748655Y272518D01*
X746656Y270519D01*
Y268519D01*
X747656Y267520D01*
X749655D01*
X750655Y268519D01*
Y269519D01*
X749655Y270519D01*
X746656D01*
X741035Y361886D02*
X739036D01*
X740035D01*
Y356887D01*
X739036Y355888D01*
X738036D01*
X737037Y356887D01*
X743035Y355888D02*
X745034D01*
X744034D01*
Y361886D01*
X743035Y360886D01*
X752032Y361886D02*
X748033D01*
Y358887D01*
X750032Y359886D01*
X751032D01*
X752032Y358887D01*
Y356887D01*
X751032Y355888D01*
X749033D01*
X748033Y356887D01*
X710281Y87645D02*
X708281D01*
X709281D01*
Y82646D01*
X708281Y81647D01*
X707282D01*
X706282Y82646D01*
X712280Y81647D02*
X714279D01*
X713280D01*
Y87645D01*
X712280Y86645D01*
X720277Y81647D02*
Y87645D01*
X717278Y84646D01*
X721277D01*
X651619Y87251D02*
X649620D01*
X650620D01*
Y82253D01*
X649620Y81253D01*
X648620D01*
X647620Y82253D01*
X653619Y81253D02*
X655618D01*
X654618D01*
Y87251D01*
X653619Y86251D01*
X658617D02*
X659617Y87251D01*
X661616D01*
X662616Y86251D01*
Y85252D01*
X661616Y84252D01*
X660616D01*
X661616D01*
X662616Y83252D01*
Y82253D01*
X661616Y81253D01*
X659617D01*
X658617Y82253D01*
X591383Y90794D02*
X589384D01*
X590383D01*
Y85796D01*
X589384Y84796D01*
X588384D01*
X587384Y85796D01*
X593382Y84796D02*
X595382D01*
X594382D01*
Y90794D01*
X593382Y89795D01*
X602380Y84796D02*
X598381D01*
X602380Y88795D01*
Y89795D01*
X601380Y90794D01*
X599380D01*
X598381Y89795D01*
X533328Y88038D02*
X531328D01*
X532328D01*
Y83040D01*
X531328Y82040D01*
X530329D01*
X529329Y83040D01*
X535327Y82040D02*
X537326D01*
X536327D01*
Y88038D01*
X535327Y87039D01*
X540325Y82040D02*
X542325D01*
X541325D01*
Y88038D01*
X540325Y87039D01*
X473666Y86857D02*
X471667D01*
X472667D01*
Y81859D01*
X471667Y80859D01*
X470668D01*
X469668Y81859D01*
X475666Y80859D02*
X477665D01*
X476665D01*
Y86857D01*
X475666Y85858D01*
X480664D02*
X481664Y86857D01*
X483663D01*
X484663Y85858D01*
Y81859D01*
X483663Y80859D01*
X481664D01*
X480664Y81859D01*
Y85858D01*
X415930Y87251D02*
X413930D01*
X414930D01*
Y82253D01*
X413930Y81253D01*
X412930D01*
X411931Y82253D01*
X417929D02*
X418928Y81253D01*
X420928D01*
X421927Y82253D01*
Y86251D01*
X420928Y87251D01*
X418928D01*
X417929Y86251D01*
Y85252D01*
X418928Y84252D01*
X421927D01*
X355693Y85282D02*
X353694D01*
X354694D01*
Y80284D01*
X353694Y79284D01*
X352694D01*
X351694Y80284D01*
X357693Y84283D02*
X358692Y85282D01*
X360692D01*
X361691Y84283D01*
Y83283D01*
X360692Y82284D01*
X361691Y81284D01*
Y80284D01*
X360692Y79284D01*
X358692D01*
X357693Y80284D01*
Y81284D01*
X358692Y82284D01*
X357693Y83283D01*
Y84283D01*
X358692Y82284D02*
X360692D01*
X297426Y85282D02*
X295426D01*
X296426D01*
Y80284D01*
X295426Y79284D01*
X294426D01*
X293427Y80284D01*
X299425Y85282D02*
X303424D01*
Y84283D01*
X299425Y80284D01*
Y79284D01*
X237977Y85282D02*
X235977D01*
X236977D01*
Y80284D01*
X235977Y79284D01*
X234978D01*
X233978Y80284D01*
X243975Y85282D02*
X241975Y84283D01*
X239976Y82284D01*
Y80284D01*
X240976Y79284D01*
X242975D01*
X243975Y80284D01*
Y81284D01*
X242975Y82284D01*
X239976D01*
X177347Y86857D02*
X175347D01*
X176347D01*
Y81859D01*
X175347Y80859D01*
X174348D01*
X173348Y81859D01*
X183345Y86857D02*
X179346D01*
Y83858D01*
X181345Y84858D01*
X182345D01*
X183345Y83858D01*
Y81859D01*
X182345Y80859D01*
X180346D01*
X179346Y81859D01*
X116717Y88826D02*
X114717D01*
X115717D01*
Y83827D01*
X114717Y82828D01*
X113718D01*
X112718Y83827D01*
X121715Y82828D02*
Y88826D01*
X118716Y85827D01*
X122715D01*
X57662Y86857D02*
X55662D01*
X56662D01*
Y81859D01*
X55662Y80859D01*
X54663D01*
X53663Y81859D01*
X59661Y85858D02*
X60661Y86857D01*
X62660D01*
X63660Y85858D01*
Y84858D01*
X62660Y83858D01*
X61660D01*
X62660D01*
X63660Y82859D01*
Y81859D01*
X62660Y80859D01*
X60661D01*
X59661Y81859D01*
X206109Y404384D02*
X204110D01*
X205110D01*
Y399386D01*
X204110Y398386D01*
X203110D01*
X202111Y399386D01*
X212107Y398386D02*
X208109D01*
X212107Y402385D01*
Y403384D01*
X211108Y404384D01*
X209108D01*
X208109Y403384D01*
X152954Y404641D02*
X150955D01*
X151954D01*
Y399643D01*
X150955Y398643D01*
X149955D01*
X148955Y399643D01*
X154954Y398643D02*
X156953D01*
X155953D01*
Y404641D01*
X154954Y403642D01*
X557690Y323594D02*
X551692D01*
Y320595D01*
X552692Y319595D01*
X556691D01*
X557690Y320595D01*
Y323594D01*
X551692Y314597D02*
X557690D01*
X554691Y317596D01*
Y313597D01*
X120971Y250153D02*
Y244155D01*
X123970D01*
X124969Y245155D01*
Y249153D01*
X123970Y250153D01*
X120971D01*
X126969Y249153D02*
X127968Y250153D01*
X129968D01*
X130967Y249153D01*
Y248154D01*
X129968Y247154D01*
X128968D01*
X129968D01*
X130967Y246154D01*
Y245155D01*
X129968Y244155D01*
X127968D01*
X126969Y245155D01*
X245238Y320355D02*
Y314357D01*
X248237D01*
X249237Y315357D01*
Y319356D01*
X248237Y320355D01*
X245238D01*
X255235Y314357D02*
X251236D01*
X255235Y318356D01*
Y319356D01*
X254235Y320355D01*
X252236D01*
X251236Y319356D01*
X97153Y229799D02*
X103151D01*
Y232798D01*
X102151Y233798D01*
X98153D01*
X97153Y232798D01*
Y229799D01*
X103151Y235797D02*
Y237797D01*
Y236797D01*
X97153D01*
X98153Y235797D01*
X172591Y349071D02*
X173591Y350070D01*
Y352070D01*
X172591Y353069D01*
X168592D01*
X167592Y352070D01*
Y350070D01*
X168592Y349071D01*
X167592Y347071D02*
X173591D01*
Y344072D01*
X172591Y343073D01*
X170591D01*
X169592Y344072D01*
Y347071D01*
Y345072D02*
X167592Y343073D01*
Y341073D02*
Y339074D01*
Y340073D01*
X173591D01*
X172591Y341073D01*
X203226Y315599D02*
X204226Y316599D01*
Y318599D01*
X203226Y319598D01*
X199228D01*
X198228Y318599D01*
Y316599D01*
X199228Y315599D01*
X198228Y309601D02*
Y313600D01*
X202227Y309601D01*
X203226D01*
X204226Y310601D01*
Y312600D01*
X203226Y313600D01*
X159460Y228260D02*
X160459Y229260D01*
Y231259D01*
X159460Y232259D01*
X155461D01*
X154461Y231259D01*
Y229260D01*
X155461Y228260D01*
X154461Y226261D02*
Y224261D01*
Y225261D01*
X160459D01*
X159460Y226261D01*
D17*
X434385Y365044D02*
X431053D01*
X434385Y368376D01*
Y369209D01*
X433552Y370042D01*
X431886D01*
X431053Y369209D01*
X436051D02*
X436884Y370042D01*
X438550D01*
X439383Y369209D01*
Y365877D01*
X438550Y365044D01*
X436884D01*
X436051Y365877D01*
Y369209D01*
X430982Y355005D02*
X432648D01*
X431815D01*
Y360003D01*
X430982Y359170D01*
X435148Y355838D02*
X435981Y355005D01*
X437647D01*
X438480Y355838D01*
Y359170D01*
X437647Y360003D01*
X435981D01*
X435148Y359170D01*
Y358337D01*
X435981Y357504D01*
X438480D01*
X323742Y354912D02*
X325408D01*
X324575D01*
Y359910D01*
X323742Y359077D01*
X326491Y364938D02*
X323159D01*
X326491Y368271D01*
Y369104D01*
X325658Y369937D01*
X323991D01*
X323159Y369104D01*
D18*
X148808Y254563D02*
Y250627D01*
X150775Y252595D02*
X146840D01*
X192370Y287828D02*
Y291764D01*
X190402Y289796D02*
X194338D01*
M02*
