G04*
G04 #@! TF.GenerationSoftware,Altium Limited,Altium Designer,22.4.2 (48)*
G04*
G04 Layer_Color=8388736*
%FSLAX25Y25*%
%MOIN*%
G70*
G04*
G04 #@! TF.SameCoordinates,7713EA0D-6249-4CA7-80EE-CA65CFE05E5E*
G04*
G04*
G04 #@! TF.FilePolarity,Negative*
G04*
G01*
G75*
%ADD28R,0.07008X0.12402*%
%ADD29R,0.04331X0.11024*%
%ADD30R,0.02200X0.05000*%
%ADD34R,0.09055X0.31890*%
%ADD35R,0.04134X0.03543*%
%ADD36R,0.03937X0.09252*%
%ADD37R,0.22244X0.25197*%
%ADD38R,0.03543X0.04134*%
G04:AMPARAMS|DCode=39|XSize=43.31mil|YSize=167.32mil|CornerRadius=3.94mil|HoleSize=0mil|Usage=FLASHONLY|Rotation=270.000|XOffset=0mil|YOffset=0mil|HoleType=Round|Shape=RoundedRectangle|*
%AMROUNDEDRECTD39*
21,1,0.04331,0.15945,0,0,270.0*
21,1,0.03543,0.16732,0,0,270.0*
1,1,0.00787,-0.07972,-0.01772*
1,1,0.00787,-0.07972,0.01772*
1,1,0.00787,0.07972,0.01772*
1,1,0.00787,0.07972,-0.01772*
%
%ADD39ROUNDEDRECTD39*%
G04:AMPARAMS|DCode=40|XSize=255.91mil|YSize=326.77mil|CornerRadius=4.49mil|HoleSize=0mil|Usage=FLASHONLY|Rotation=270.000|XOffset=0mil|YOffset=0mil|HoleType=Round|Shape=RoundedRectangle|*
%AMROUNDEDRECTD40*
21,1,0.25591,0.31780,0,0,270.0*
21,1,0.24693,0.32677,0,0,270.0*
1,1,0.00898,-0.15890,-0.12347*
1,1,0.00898,-0.15890,0.12347*
1,1,0.00898,0.15890,0.12347*
1,1,0.00898,0.15890,-0.12347*
%
%ADD40ROUNDEDRECTD40*%
%ADD41R,0.10394X0.10906*%
%ADD42R,0.05394X0.03394*%
%ADD43R,0.02756X0.06496*%
%ADD44R,0.10906X0.10394*%
%ADD45R,0.03394X0.05394*%
%ADD46C,0.12411*%
%ADD47C,0.06584*%
%ADD48R,0.06584X0.06584*%
%ADD49C,0.06394*%
%ADD50R,0.06299X0.06299*%
%ADD51C,0.06299*%
%ADD52C,0.00394*%
%ADD53R,0.07087X0.07087*%
%ADD54C,0.07087*%
%ADD55C,0.08858*%
%ADD56C,0.10827*%
%ADD57R,0.10827X0.10827*%
%ADD58C,0.11800*%
%ADD59R,0.07087X0.07087*%
%ADD60C,0.05906*%
%ADD61R,0.05906X0.05906*%
%ADD62C,0.06417*%
%ADD63R,0.06417X0.06417*%
%ADD64C,0.05394*%
D28*
X68438Y221112D02*
D03*
X89029D02*
D03*
D29*
X256127Y305763D02*
D03*
X243922D02*
D03*
D30*
X160808Y349499D02*
D03*
X153603D02*
D03*
X157206Y341857D02*
D03*
D34*
X177904Y271184D02*
D03*
X155464D02*
D03*
D35*
X546682Y143993D02*
D03*
Y138875D02*
D03*
X509445Y143993D02*
D03*
Y138875D02*
D03*
X474874Y143993D02*
D03*
Y138875D02*
D03*
X410687Y143993D02*
D03*
Y138875D02*
D03*
X378631Y143993D02*
D03*
Y138875D02*
D03*
X442308Y143993D02*
D03*
Y138875D02*
D03*
X499069Y225061D02*
D03*
Y230179D02*
D03*
X384628Y221695D02*
D03*
Y226814D02*
D03*
X424501Y221695D02*
D03*
Y226814D02*
D03*
X408707Y221695D02*
D03*
Y226814D02*
D03*
X443014Y221695D02*
D03*
Y226814D02*
D03*
X346999Y143870D02*
D03*
Y138752D02*
D03*
X315027Y143993D02*
D03*
Y138875D02*
D03*
X283038Y143993D02*
D03*
Y138875D02*
D03*
X251075Y144007D02*
D03*
Y138889D02*
D03*
X218802Y143993D02*
D03*
Y138875D02*
D03*
X175720Y143993D02*
D03*
Y138875D02*
D03*
X232975Y309075D02*
D03*
Y314193D02*
D03*
X114505Y340445D02*
D03*
Y345564D02*
D03*
D36*
X442777Y159055D02*
D03*
X460730D02*
D03*
X410816D02*
D03*
X428769D02*
D03*
X506700D02*
D03*
X524653D02*
D03*
X219048D02*
D03*
X237001D02*
D03*
X556614D02*
D03*
X538661D02*
D03*
X492691D02*
D03*
X474739D02*
D03*
X396807D02*
D03*
X378855D02*
D03*
X364846D02*
D03*
X346893D02*
D03*
X332885D02*
D03*
X314932D02*
D03*
X300923D02*
D03*
X282971D02*
D03*
X268962D02*
D03*
X251009D02*
D03*
X205039D02*
D03*
X187087D02*
D03*
D37*
X451754Y185039D02*
D03*
X419792D02*
D03*
X515676D02*
D03*
X228024D02*
D03*
X547638D02*
D03*
X483715D02*
D03*
X387831D02*
D03*
X355870D02*
D03*
X323908D02*
D03*
X291947D02*
D03*
X259986D02*
D03*
X196063D02*
D03*
D38*
X309836Y223553D02*
D03*
X314954D02*
D03*
X250365Y229816D02*
D03*
X255483D02*
D03*
X357707Y217249D02*
D03*
X362825D02*
D03*
X335193Y218278D02*
D03*
X340312D02*
D03*
X272474Y224787D02*
D03*
X277592D02*
D03*
X208504Y227547D02*
D03*
X213622D02*
D03*
X472629Y221406D02*
D03*
X467511D02*
D03*
D39*
X106370Y257798D02*
D03*
Y264491D02*
D03*
Y271184D02*
D03*
Y277877D02*
D03*
Y284570D02*
D03*
D40*
X65229Y271184D02*
D03*
D41*
X113385Y238096D02*
D03*
D42*
Y228840D02*
D03*
D43*
X114471Y310070D02*
D03*
X119471D02*
D03*
X124471D02*
D03*
X129471D02*
D03*
X114471Y331330D02*
D03*
X119471D02*
D03*
X124471D02*
D03*
X129471D02*
D03*
D44*
X127480Y256747D02*
D03*
D45*
X136736D02*
D03*
D46*
X222098Y390621D02*
D03*
X714567Y30709D02*
D03*
X654903D02*
D03*
X595240D02*
D03*
X475913D02*
D03*
X535576D02*
D03*
X416249D02*
D03*
X356586D02*
D03*
X296922D02*
D03*
X237258D02*
D03*
X177595D02*
D03*
X117931D02*
D03*
X58268D02*
D03*
X168671Y390621D02*
D03*
D47*
X233909Y361802D02*
D03*
X222098D02*
D03*
X210287D02*
D03*
X233909Y373613D02*
D03*
X222098D02*
D03*
X714567Y59527D02*
D03*
X654903D02*
D03*
X595240D02*
D03*
X475913D02*
D03*
X535576D02*
D03*
X416249D02*
D03*
X356586D02*
D03*
X296922D02*
D03*
X237258D02*
D03*
X177595D02*
D03*
X117931D02*
D03*
X58268D02*
D03*
X168671Y373613D02*
D03*
X180482D02*
D03*
X156860Y361802D02*
D03*
X168671D02*
D03*
X180482D02*
D03*
D48*
X210287Y373613D02*
D03*
X714567Y47717D02*
D03*
X654903D02*
D03*
X595240D02*
D03*
X475913D02*
D03*
X535576D02*
D03*
X416249D02*
D03*
X356586D02*
D03*
X296922D02*
D03*
X237258D02*
D03*
X177595D02*
D03*
X117931D02*
D03*
X58268D02*
D03*
X156860Y373613D02*
D03*
D49*
X767717Y393701D02*
D03*
X19685Y39370D02*
D03*
X767717D02*
D03*
X19685Y393701D02*
D03*
X548954Y241824D02*
D03*
X568639D02*
D03*
D50*
X333742Y356912D02*
D03*
D51*
Y366912D02*
D03*
X343742Y356912D02*
D03*
Y366912D02*
D03*
X353742Y356912D02*
D03*
Y366912D02*
D03*
X363742Y356912D02*
D03*
Y366912D02*
D03*
X373742Y356912D02*
D03*
Y366912D02*
D03*
X383742Y356912D02*
D03*
Y366912D02*
D03*
X393742Y356912D02*
D03*
Y366912D02*
D03*
X403742Y356912D02*
D03*
Y366912D02*
D03*
X413742Y356912D02*
D03*
Y366912D02*
D03*
X423742Y356912D02*
D03*
Y366912D02*
D03*
D52*
X19685Y314961D02*
D03*
X767717D02*
D03*
Y78740D02*
D03*
X19685D02*
D03*
D53*
X609899Y274107D02*
D03*
D54*
X599899D02*
D03*
X589899D02*
D03*
X572408Y338832D02*
D03*
Y328832D02*
D03*
D55*
X599544Y248517D02*
D03*
Y235131D02*
D03*
X652694D02*
D03*
Y248517D02*
D03*
X599544Y336312D02*
D03*
Y322926D02*
D03*
X652694D02*
D03*
Y336312D02*
D03*
D56*
X705424Y233474D02*
D03*
Y249974D02*
D03*
X727124Y233474D02*
D03*
X705424Y321237D02*
D03*
Y337737D02*
D03*
X727124Y321237D02*
D03*
D57*
Y249974D02*
D03*
Y337737D02*
D03*
D58*
X755824Y241724D02*
D03*
Y329487D02*
D03*
D59*
X572408Y318832D02*
D03*
D60*
X148799Y218024D02*
D03*
X192566Y324442D02*
D03*
D61*
X148799Y237709D02*
D03*
X192566Y304757D02*
D03*
D62*
X439067Y305640D02*
D03*
Y245640D02*
D03*
X429067Y305640D02*
D03*
Y245640D02*
D03*
X419067Y305640D02*
D03*
Y245640D02*
D03*
X409067Y305640D02*
D03*
Y245640D02*
D03*
X399067Y305640D02*
D03*
Y245640D02*
D03*
X389067Y305640D02*
D03*
Y245640D02*
D03*
X379067Y305640D02*
D03*
Y245640D02*
D03*
X369067Y305640D02*
D03*
Y245640D02*
D03*
X359067Y305640D02*
D03*
Y245640D02*
D03*
X349067Y305640D02*
D03*
Y245640D02*
D03*
X339067Y305640D02*
D03*
Y245640D02*
D03*
X329067Y305640D02*
D03*
Y245640D02*
D03*
X319067Y305640D02*
D03*
Y245640D02*
D03*
X309067Y305640D02*
D03*
Y245640D02*
D03*
D63*
X299067Y305640D02*
D03*
Y245640D02*
D03*
D64*
X130974Y300120D02*
D03*
X151695Y337561D02*
D03*
X189422Y275175D02*
D03*
X555220Y130784D02*
D03*
X520307D02*
D03*
X485394D02*
D03*
X450481D02*
D03*
X415568D02*
D03*
X380655D02*
D03*
X345741D02*
D03*
X310828D02*
D03*
X275915D02*
D03*
X241002D02*
D03*
X171176D02*
D03*
X206089D02*
D03*
X398815Y348662D02*
D03*
X420071Y336173D02*
D03*
X430954Y347806D02*
D03*
X420813Y348046D02*
D03*
X413887Y348293D02*
D03*
X389398Y335926D02*
D03*
X379751D02*
D03*
X386677Y347806D02*
D03*
X332156Y332427D02*
D03*
X69096Y271901D02*
D03*
X68895Y278976D02*
D03*
X61519Y278876D02*
D03*
X61585Y272068D02*
D03*
X118345Y270705D02*
D03*
X118438Y284595D02*
D03*
X121332Y303371D02*
D03*
X125977Y277683D02*
D03*
X142866Y256275D02*
D03*
X233065Y320405D02*
D03*
X69252Y265460D02*
D03*
X61585D02*
D03*
X209644Y293137D02*
D03*
X114781Y354109D02*
D03*
X383951Y259964D02*
D03*
Y276992D02*
D03*
M02*
