G04*
G04 #@! TF.GenerationSoftware,Altium Limited,Altium Designer,22.4.2 (48)*
G04*
G04 Layer_Color=32768*
%FSLAX25Y25*%
%MOIN*%
G70*
G04*
G04 #@! TF.SameCoordinates,7713EA0D-6249-4CA7-80EE-CA65CFE05E5E*
G04*
G04*
G04 #@! TF.FilePolarity,Positive*
G04*
G01*
G75*
%ADD81C,0.00300*%
D81*
X280760Y436290D02*
Y431291D01*
X277427Y436290D01*
Y431291D01*
X275761Y436290D02*
Y431291D01*
X273262D01*
X272429Y432125D01*
Y433791D01*
X273262Y434624D01*
X275761D01*
X270763Y431291D02*
X267430D01*
X269097D01*
Y436290D01*
X265764Y431291D02*
Y436290D01*
Y433791D01*
X262432D01*
Y431291D01*
Y436290D01*
X260766Y437123D02*
X257434D01*
X255768Y431291D02*
Y436290D01*
X253268D01*
X252435Y435457D01*
Y432125D01*
X253268Y431291D01*
X255768D01*
X250769Y436290D02*
Y431291D01*
X248270D01*
X247437Y432125D01*
Y433791D01*
X248270Y434624D01*
X250769D01*
X249103D02*
X247437Y436290D01*
X245771Y431291D02*
X244105D01*
X244938D01*
Y436290D01*
X245771D01*
X244105D01*
X241605Y431291D02*
Y436290D01*
X238273D01*
X236607Y431291D02*
Y436290D01*
X233275D01*
X231609Y437123D02*
X228276D01*
X223278Y432125D02*
X224111Y431291D01*
X225777D01*
X226610Y432125D01*
Y432958D01*
X225777Y433791D01*
X224111D01*
X223278Y434624D01*
Y435457D01*
X224111Y436290D01*
X225777D01*
X226610Y435457D01*
X221612Y431291D02*
X219946D01*
X220779D01*
Y436290D01*
X221612D01*
X219946D01*
X217447Y431291D02*
X214114D01*
Y432125D01*
X217447Y435457D01*
Y436290D01*
X214114D01*
X209116Y431291D02*
X212448D01*
Y436290D01*
X209116D01*
X212448Y433791D02*
X210782D01*
X207450Y432958D02*
X206617D01*
Y433791D01*
X207450D01*
Y432958D01*
Y435457D02*
X206617D01*
Y436290D01*
X207450D01*
Y435457D01*
X203285Y437123D02*
X199952D01*
X198286Y432125D02*
X197453Y431291D01*
X195787D01*
X194954Y432125D01*
Y432958D01*
X195787Y433791D01*
X196620D01*
X195787D01*
X194954Y434624D01*
Y435457D01*
X195787Y436290D01*
X197453D01*
X198286Y435457D01*
X193288Y436290D02*
Y435457D01*
X192455D01*
Y436290D01*
X193288D01*
X189122Y432125D02*
X188289Y431291D01*
X186623D01*
X185790Y432125D01*
Y435457D01*
X186623Y436290D01*
X188289D01*
X189122Y435457D01*
Y432125D01*
X184124Y437123D02*
X180792D01*
X179126Y436290D02*
Y431291D01*
X177460Y432958D01*
X175794Y431291D01*
Y436290D01*
X174127D02*
Y431291D01*
X172461Y432958D01*
X170795Y431291D01*
Y436290D01*
X168296Y437123D02*
X167463Y436290D01*
Y435457D01*
X168296D01*
Y436290D01*
X167463D01*
X168296Y437123D01*
X169129Y437956D01*
X164131Y437123D02*
X160798D01*
X159132Y431291D02*
X155800D01*
X157466D01*
Y436290D01*
X151635Y431291D02*
X153301D01*
X154134Y432125D01*
Y435457D01*
X153301Y436290D01*
X151635D01*
X150802Y435457D01*
Y432125D01*
X151635Y431291D01*
X149135D02*
Y436290D01*
X145803D01*
X140805Y431291D02*
X144137D01*
Y436290D01*
X140805D01*
X144137Y433791D02*
X142471D01*
X139139Y436290D02*
Y431291D01*
X136639D01*
X135806Y432125D01*
Y433791D01*
X136639Y434624D01*
X139139D01*
X137473D02*
X135806Y436290D01*
X134140D02*
Y432958D01*
X132474Y431291D01*
X130808Y432958D01*
Y436290D01*
Y433791D01*
X134140D01*
X129142Y436290D02*
Y431291D01*
X125810Y436290D01*
Y431291D01*
X120811Y432125D02*
X121644Y431291D01*
X123310D01*
X124144Y432125D01*
Y435457D01*
X123310Y436290D01*
X121644D01*
X120811Y435457D01*
X115813Y431291D02*
X119145D01*
Y436290D01*
X115813D01*
X119145Y433791D02*
X117479D01*
X114147Y432958D02*
X113314D01*
Y433791D01*
X114147D01*
Y432958D01*
Y435457D02*
X113314D01*
Y436290D01*
X114147D01*
Y435457D01*
X109982Y437123D02*
X106649D01*
X104983Y433791D02*
X101651D01*
X103317Y432125D02*
Y435457D01*
X99985Y432125D02*
X99152Y431291D01*
X97486D01*
X96652Y432125D01*
Y435457D01*
X97486Y436290D01*
X99152D01*
X99985Y435457D01*
Y432125D01*
X94986Y436290D02*
Y435457D01*
X94153D01*
Y436290D01*
X94986D01*
X90821Y432125D02*
X89988Y431291D01*
X88322D01*
X87489Y432125D01*
Y435457D01*
X88322Y436290D01*
X89988D01*
X90821Y435457D01*
Y432125D01*
X82490Y431291D02*
X85823D01*
Y433791D01*
X84157Y432958D01*
X83323D01*
X82490Y433791D01*
Y435457D01*
X83323Y436290D01*
X84990D01*
X85823Y435457D01*
X80824Y436290D02*
X77492Y432958D01*
X75826Y433791D02*
X72494D01*
X70828Y432125D02*
X69994Y431291D01*
X68328D01*
X67495Y432125D01*
Y435457D01*
X68328Y436290D01*
X69994D01*
X70828Y435457D01*
Y432125D01*
X65829Y436290D02*
Y435457D01*
X64996D01*
Y436290D01*
X65829D01*
X61664Y432125D02*
X60831Y431291D01*
X59165D01*
X58332Y432125D01*
Y435457D01*
X59165Y436290D01*
X60831D01*
X61664Y435457D01*
Y432125D01*
X53333Y431291D02*
X56665D01*
Y433791D01*
X54999Y432958D01*
X54166D01*
X53333Y433791D01*
Y435457D01*
X54166Y436290D01*
X55832D01*
X56665Y435457D01*
X280848Y434636D02*
Y429638D01*
X278349D01*
X277516Y430471D01*
Y432137D01*
X278349Y432970D01*
X280848D01*
X275850Y429638D02*
X272517D01*
X274184D01*
Y434636D01*
X270851Y429638D02*
Y434636D01*
Y432137D01*
X267519D01*
Y429638D01*
Y434636D01*
X265853Y435469D02*
X262521D01*
X260855Y429638D02*
Y434636D01*
X258355D01*
X257522Y433803D01*
Y430471D01*
X258355Y429638D01*
X260855D01*
X255856Y434636D02*
Y429638D01*
X253357D01*
X252524Y430471D01*
Y432137D01*
X253357Y432970D01*
X255856D01*
X254190D02*
X252524Y434636D01*
X250858Y429638D02*
X249192D01*
X250025D01*
Y434636D01*
X250858D01*
X249192D01*
X246692Y429638D02*
Y434636D01*
X243360D01*
X241694Y429638D02*
Y434636D01*
X238362D01*
X236696Y435469D02*
X233364D01*
X228365Y430471D02*
X229198Y429638D01*
X230864D01*
X231697Y430471D01*
Y431304D01*
X230864Y432137D01*
X229198D01*
X228365Y432970D01*
Y433803D01*
X229198Y434636D01*
X230864D01*
X231697Y433803D01*
X226699Y429638D02*
X225033D01*
X225866D01*
Y434636D01*
X226699D01*
X225033D01*
X222534Y429638D02*
X219201D01*
Y430471D01*
X222534Y433803D01*
Y434636D01*
X219201D01*
X214203Y429638D02*
X217535D01*
Y434636D01*
X214203D01*
X217535Y432137D02*
X215869D01*
X212537Y431304D02*
X211704D01*
Y432137D01*
X212537D01*
Y431304D01*
Y433803D02*
X211704D01*
Y434636D01*
X212537D01*
Y433803D01*
X208371Y435469D02*
X205039D01*
X203373Y434636D02*
X201707D01*
X202540D01*
Y429638D01*
X203373Y430471D01*
X199208Y434636D02*
Y433803D01*
X198375D01*
Y434636D01*
X199208D01*
X195043Y430471D02*
X194210Y429638D01*
X192543D01*
X191710Y430471D01*
Y433803D01*
X192543Y434636D01*
X194210D01*
X195043Y433803D01*
Y430471D01*
X186712Y434636D02*
X190044D01*
X186712Y431304D01*
Y430471D01*
X187545Y429638D01*
X189211D01*
X190044Y430471D01*
X185046Y435469D02*
X181713D01*
X180047Y434636D02*
Y429638D01*
X178381Y431304D01*
X176715Y429638D01*
Y434636D01*
X175049D02*
Y429638D01*
X173383Y431304D01*
X171717Y429638D01*
Y434636D01*
X169218Y435469D02*
X168385Y434636D01*
Y433803D01*
X169218D01*
Y434636D01*
X168385D01*
X169218Y435469D01*
X170051Y436303D01*
X165052Y435469D02*
X161720D01*
X160054Y429638D02*
X156722D01*
X158388D01*
Y434636D01*
X152556Y429638D02*
X154222D01*
X155055Y430471D01*
Y433803D01*
X154222Y434636D01*
X152556D01*
X151723Y433803D01*
Y430471D01*
X152556Y429638D01*
X150057D02*
Y434636D01*
X146725D01*
X141727Y429638D02*
X145059D01*
Y434636D01*
X141727D01*
X145059Y432137D02*
X143393D01*
X140060Y434636D02*
Y429638D01*
X137561D01*
X136728Y430471D01*
Y432137D01*
X137561Y432970D01*
X140060D01*
X138394D02*
X136728Y434636D01*
X135062D02*
Y431304D01*
X133396Y429638D01*
X131730Y431304D01*
Y434636D01*
Y432137D01*
X135062D01*
X130064Y434636D02*
Y429638D01*
X126731Y434636D01*
Y429638D01*
X121733Y430471D02*
X122566Y429638D01*
X124232D01*
X125065Y430471D01*
Y433803D01*
X124232Y434636D01*
X122566D01*
X121733Y433803D01*
X116735Y429638D02*
X120067D01*
Y434636D01*
X116735D01*
X120067Y432137D02*
X118401D01*
X115068Y431304D02*
X114235D01*
Y432137D01*
X115068D01*
Y431304D01*
Y433803D02*
X114235D01*
Y434636D01*
X115068D01*
Y433803D01*
X110903Y435469D02*
X107571D01*
X105905Y432137D02*
X102573D01*
X104239Y430471D02*
Y433803D01*
X100906Y430471D02*
X100073Y429638D01*
X98407D01*
X97574Y430471D01*
Y433803D01*
X98407Y434636D01*
X100073D01*
X100906Y433803D01*
Y430471D01*
X95908Y434636D02*
Y433803D01*
X95075D01*
Y434636D01*
X95908D01*
X91743Y430471D02*
X90910Y429638D01*
X89244D01*
X88410Y430471D01*
Y433803D01*
X89244Y434636D01*
X90910D01*
X91743Y433803D01*
Y430471D01*
X83412Y429638D02*
X86744D01*
Y432137D01*
X85078Y431304D01*
X84245D01*
X83412Y432137D01*
Y433803D01*
X84245Y434636D01*
X85911D01*
X86744Y433803D01*
X81746Y434636D02*
X78414Y431304D01*
X76748Y432137D02*
X73415D01*
X71749Y430471D02*
X70916Y429638D01*
X69250D01*
X68417Y430471D01*
Y433803D01*
X69250Y434636D01*
X70916D01*
X71749Y433803D01*
Y430471D01*
X66751Y434636D02*
Y433803D01*
X65918D01*
Y434636D01*
X66751D01*
X62586Y430471D02*
X61752Y429638D01*
X60086D01*
X59253Y430471D01*
Y433803D01*
X60086Y434636D01*
X61752D01*
X62586Y433803D01*
Y430471D01*
X54255Y429638D02*
X57587D01*
Y432137D01*
X55921Y431304D01*
X55088D01*
X54255Y432137D01*
Y433803D01*
X55088Y434636D01*
X56754D01*
X57587Y433803D01*
X579528Y125908D02*
Y130906D01*
X582860Y125908D01*
Y130906D01*
X584526Y125908D02*
Y130906D01*
X587025D01*
X587858Y130073D01*
Y128407D01*
X587025Y127574D01*
X584526D01*
X589524Y130906D02*
X592857D01*
X591190D01*
Y125908D01*
X594523Y130906D02*
Y125908D01*
Y128407D01*
X597855D01*
Y130906D01*
Y125908D01*
X599521Y125075D02*
X602853D01*
X604519Y130906D02*
Y125908D01*
X607019D01*
X607852Y126741D01*
Y130073D01*
X607019Y130906D01*
X604519D01*
X609518Y125908D02*
Y130906D01*
X612017D01*
X612850Y130073D01*
Y128407D01*
X612017Y127574D01*
X609518D01*
X611184D02*
X612850Y125908D01*
X614516Y130906D02*
X616182D01*
X615349D01*
Y125908D01*
X614516D01*
X616182D01*
X618681Y130906D02*
Y125908D01*
X622014D01*
X623680Y130906D02*
Y125908D01*
X627012D01*
X628678Y125075D02*
X632011D01*
X637009Y130073D02*
X636176Y130906D01*
X634510D01*
X633677Y130073D01*
Y129240D01*
X634510Y128407D01*
X636176D01*
X637009Y127574D01*
Y126741D01*
X636176Y125908D01*
X634510D01*
X633677Y126741D01*
X638675Y130906D02*
X640341D01*
X639508D01*
Y125908D01*
X638675D01*
X640341D01*
X642840Y130906D02*
X646173D01*
Y130073D01*
X642840Y126741D01*
Y125908D01*
X646173D01*
X651171Y130906D02*
X647839D01*
Y125908D01*
X651171D01*
X647839Y128407D02*
X649505D01*
X652837Y129240D02*
X653670D01*
Y128407D01*
X652837D01*
Y129240D01*
Y126741D02*
X653670D01*
Y125908D01*
X652837D01*
Y126741D01*
X657002Y125075D02*
X660335D01*
X662001Y130073D02*
X662834Y130906D01*
X664500D01*
X665333Y130073D01*
Y129240D01*
X664500Y128407D01*
X663667D01*
X664500D01*
X665333Y127574D01*
Y126741D01*
X664500Y125908D01*
X662834D01*
X662001Y126741D01*
X666999Y125908D02*
Y126741D01*
X667832D01*
Y125908D01*
X666999D01*
X671165Y130073D02*
X671997Y130906D01*
X673664D01*
X674497Y130073D01*
Y126741D01*
X673664Y125908D01*
X671997D01*
X671165Y126741D01*
Y130073D01*
X676163Y125075D02*
X679495D01*
X681161Y125908D02*
Y130906D01*
X682827Y129240D01*
X684493Y130906D01*
Y125908D01*
X686160D02*
Y130906D01*
X687826Y129240D01*
X689492Y130906D01*
Y125908D01*
X691991Y125075D02*
X692824Y125908D01*
Y126741D01*
X691991D01*
Y125908D01*
X692824D01*
X691991Y125075D01*
X691158Y124242D01*
X696156Y125075D02*
X699489D01*
X701155Y130906D02*
X704487D01*
X702821D01*
Y125908D01*
X708652Y130906D02*
X706986D01*
X706153Y130073D01*
Y126741D01*
X706986Y125908D01*
X708652D01*
X709485Y126741D01*
Y130073D01*
X708652Y130906D01*
X711152D02*
Y125908D01*
X714484D01*
X719482Y130906D02*
X716150D01*
Y125908D01*
X719482D01*
X716150Y128407D02*
X717816D01*
X721148Y125908D02*
Y130906D01*
X723647D01*
X724481Y130073D01*
Y128407D01*
X723647Y127574D01*
X721148D01*
X722814D02*
X724481Y125908D01*
X726147D02*
Y129240D01*
X727813Y130906D01*
X729479Y129240D01*
Y125908D01*
Y128407D01*
X726147D01*
X731145Y125908D02*
Y130906D01*
X734477Y125908D01*
Y130906D01*
X739476Y130073D02*
X738643Y130906D01*
X736976D01*
X736143Y130073D01*
Y126741D01*
X736976Y125908D01*
X738643D01*
X739476Y126741D01*
X744474Y130906D02*
X741142D01*
Y125908D01*
X744474D01*
X741142Y128407D02*
X742808D01*
X746140Y129240D02*
X746973D01*
Y128407D01*
X746140D01*
Y129240D01*
Y126741D02*
X746973D01*
Y125908D01*
X746140D01*
Y126741D01*
X750306Y125075D02*
X753638D01*
X755304Y128407D02*
X758636D01*
X756970Y130073D02*
Y126741D01*
X760302Y130073D02*
X761135Y130906D01*
X762802D01*
X763634Y130073D01*
Y126741D01*
X762802Y125908D01*
X761135D01*
X760302Y126741D01*
Y130073D01*
X765301Y125908D02*
Y126741D01*
X766134D01*
Y125908D01*
X765301D01*
X769466Y130073D02*
X770299Y130906D01*
X771965D01*
X772798Y130073D01*
Y126741D01*
X771965Y125908D01*
X770299D01*
X769466Y126741D01*
Y130073D01*
X777797Y130906D02*
X774464D01*
Y128407D01*
X776130Y129240D01*
X776964D01*
X777797Y128407D01*
Y126741D01*
X776964Y125908D01*
X775297D01*
X774464Y126741D01*
X779463Y125908D02*
X782795Y129240D01*
X784461Y128407D02*
X787793D01*
X789460Y130073D02*
X790293Y130906D01*
X791959D01*
X792792Y130073D01*
Y126741D01*
X791959Y125908D01*
X790293D01*
X789460Y126741D01*
Y130073D01*
X794458Y125908D02*
Y126741D01*
X795291D01*
Y125908D01*
X794458D01*
X798623Y130073D02*
X799456Y130906D01*
X801122D01*
X801956Y130073D01*
Y126741D01*
X801122Y125908D01*
X799456D01*
X798623Y126741D01*
Y130073D01*
X806954Y130906D02*
X803622D01*
Y128407D01*
X805288Y129240D01*
X806121D01*
X806954Y128407D01*
Y126741D01*
X806121Y125908D01*
X804455D01*
X803622Y126741D01*
X562992Y136144D02*
Y141142D01*
X565491D01*
X566324Y140309D01*
Y138643D01*
X565491Y137810D01*
X562992D01*
X567990Y141142D02*
X571323D01*
X569657D01*
Y136144D01*
X572989Y141142D02*
Y136144D01*
Y138643D01*
X576321D01*
Y141142D01*
Y136144D01*
X577987Y135311D02*
X581320D01*
X582986Y141142D02*
Y136144D01*
X585485D01*
X586318Y136977D01*
Y140309D01*
X585485Y141142D01*
X582986D01*
X587984Y136144D02*
Y141142D01*
X590483D01*
X591316Y140309D01*
Y138643D01*
X590483Y137810D01*
X587984D01*
X589650D02*
X591316Y136144D01*
X592982Y141142D02*
X594649D01*
X593815D01*
Y136144D01*
X592982D01*
X594649D01*
X597148Y141142D02*
Y136144D01*
X600480D01*
X602146Y141142D02*
Y136144D01*
X605478D01*
X607144Y135311D02*
X610477D01*
X615475Y140309D02*
X614642Y141142D01*
X612976D01*
X612143Y140309D01*
Y139476D01*
X612976Y138643D01*
X614642D01*
X615475Y137810D01*
Y136977D01*
X614642Y136144D01*
X612976D01*
X612143Y136977D01*
X617141Y141142D02*
X618807D01*
X617974D01*
Y136144D01*
X617141D01*
X618807D01*
X621307Y141142D02*
X624639D01*
Y140309D01*
X621307Y136977D01*
Y136144D01*
X624639D01*
X629637Y141142D02*
X626305D01*
Y136144D01*
X629637D01*
X626305Y138643D02*
X627971D01*
X631303Y139476D02*
X632136D01*
Y138643D01*
X631303D01*
Y139476D01*
Y136977D02*
X632136D01*
Y136144D01*
X631303D01*
Y136977D01*
X635469Y135311D02*
X638801D01*
X640467Y136144D02*
X642133D01*
X641300D01*
Y141142D01*
X640467Y140309D01*
X644632Y136144D02*
Y136977D01*
X645465D01*
Y136144D01*
X644632D01*
X648798Y140309D02*
X649631Y141142D01*
X651297D01*
X652130Y140309D01*
Y136977D01*
X651297Y136144D01*
X649631D01*
X648798Y136977D01*
Y140309D01*
X657128Y136144D02*
X653796D01*
X657128Y139476D01*
Y140309D01*
X656295Y141142D01*
X654629D01*
X653796Y140309D01*
X658794Y135311D02*
X662127D01*
X663793Y136144D02*
Y141142D01*
X665459Y139476D01*
X667125Y141142D01*
Y136144D01*
X668791D02*
Y141142D01*
X670457Y139476D01*
X672123Y141142D01*
Y136144D01*
X674623Y135311D02*
X675456Y136144D01*
Y136977D01*
X674623D01*
Y136144D01*
X675456D01*
X674623Y135311D01*
X673790Y134478D01*
X678788Y135311D02*
X682120D01*
X683786Y141142D02*
X687118D01*
X685452D01*
Y136144D01*
X691284Y141142D02*
X689618D01*
X688785Y140309D01*
Y136977D01*
X689618Y136144D01*
X691284D01*
X692117Y136977D01*
Y140309D01*
X691284Y141142D01*
X693783D02*
Y136144D01*
X697115D01*
X702114Y141142D02*
X698781D01*
Y136144D01*
X702114D01*
X698781Y138643D02*
X700448D01*
X703780Y136144D02*
Y141142D01*
X706279D01*
X707112Y140309D01*
Y138643D01*
X706279Y137810D01*
X703780D01*
X705446D02*
X707112Y136144D01*
X708778D02*
Y139476D01*
X710444Y141142D01*
X712110Y139476D01*
Y136144D01*
Y138643D01*
X708778D01*
X713777Y136144D02*
Y141142D01*
X717109Y136144D01*
Y141142D01*
X722107Y140309D02*
X721274Y141142D01*
X719608D01*
X718775Y140309D01*
Y136977D01*
X719608Y136144D01*
X721274D01*
X722107Y136977D01*
X727106Y141142D02*
X723773D01*
Y136144D01*
X727106D01*
X723773Y138643D02*
X725440D01*
X728772Y139476D02*
X729605D01*
Y138643D01*
X728772D01*
Y139476D01*
Y136977D02*
X729605D01*
Y136144D01*
X728772D01*
Y136977D01*
X732937Y135311D02*
X736269D01*
X737935Y138643D02*
X741268D01*
X739602Y140309D02*
Y136977D01*
X742934Y140309D02*
X743767Y141142D01*
X745433D01*
X746266Y140309D01*
Y136977D01*
X745433Y136144D01*
X743767D01*
X742934Y136977D01*
Y140309D01*
X747932Y136144D02*
Y136977D01*
X748765D01*
Y136144D01*
X747932D01*
X752098Y140309D02*
X752930Y141142D01*
X754597D01*
X755430Y140309D01*
Y136977D01*
X754597Y136144D01*
X752930D01*
X752098Y136977D01*
Y140309D01*
X760428Y141142D02*
X757096D01*
Y138643D01*
X758762Y139476D01*
X759595D01*
X760428Y138643D01*
Y136977D01*
X759595Y136144D01*
X757929D01*
X757096Y136977D01*
X762094Y136144D02*
X765426Y139476D01*
X767093Y138643D02*
X770425D01*
X772091Y140309D02*
X772924Y141142D01*
X774590D01*
X775423Y140309D01*
Y136977D01*
X774590Y136144D01*
X772924D01*
X772091Y136977D01*
Y140309D01*
X777089Y136144D02*
Y136977D01*
X777922D01*
Y136144D01*
X777089D01*
X781255Y140309D02*
X782088Y141142D01*
X783754D01*
X784587Y140309D01*
Y136977D01*
X783754Y136144D01*
X782088D01*
X781255Y136977D01*
Y140309D01*
X789585Y141142D02*
X786253D01*
Y138643D01*
X787919Y139476D01*
X788752D01*
X789585Y138643D01*
Y136977D01*
X788752Y136144D01*
X787086D01*
X786253Y136977D01*
X557301Y123152D02*
Y128150D01*
X560634Y123152D01*
Y128150D01*
X562300Y123152D02*
Y128150D01*
X564799D01*
X565632Y127317D01*
Y125651D01*
X564799Y124818D01*
X562300D01*
X567298Y128150D02*
X570630D01*
X568964D01*
Y123152D01*
X572296Y128150D02*
Y123152D01*
Y125651D01*
X575629D01*
Y128150D01*
Y123152D01*
X577295Y122319D02*
X580627D01*
X582293Y128150D02*
Y123152D01*
X584792D01*
X585626Y123985D01*
Y127317D01*
X584792Y128150D01*
X582293D01*
X587292Y123152D02*
Y128150D01*
X589791D01*
X590624Y127317D01*
Y125651D01*
X589791Y124818D01*
X587292D01*
X588958D02*
X590624Y123152D01*
X592290Y128150D02*
X593956D01*
X593123D01*
Y123152D01*
X592290D01*
X593956D01*
X596455Y128150D02*
Y123152D01*
X599788D01*
X601454Y128150D02*
Y123152D01*
X604786D01*
X606452Y122319D02*
X609784D01*
X614783Y127317D02*
X613950Y128150D01*
X612284D01*
X611450Y127317D01*
Y126484D01*
X612284Y125651D01*
X613950D01*
X614783Y124818D01*
Y123985D01*
X613950Y123152D01*
X612284D01*
X611450Y123985D01*
X616449Y128150D02*
X618115D01*
X617282D01*
Y123152D01*
X616449D01*
X618115D01*
X620614Y128150D02*
X623946D01*
Y127317D01*
X620614Y123985D01*
Y123152D01*
X623946D01*
X628945Y128150D02*
X625612D01*
Y123152D01*
X628945D01*
X625612Y125651D02*
X627279D01*
X630611Y126484D02*
X631444D01*
Y125651D01*
X630611D01*
Y126484D01*
Y123985D02*
X631444D01*
Y123152D01*
X630611D01*
Y123985D01*
X634776Y122319D02*
X638108D01*
X639775Y127317D02*
X640608Y128150D01*
X642274D01*
X643107Y127317D01*
Y126484D01*
X642274Y125651D01*
X641441D01*
X642274D01*
X643107Y124818D01*
Y123985D01*
X642274Y123152D01*
X640608D01*
X639775Y123985D01*
X644773Y123152D02*
Y123985D01*
X645606D01*
Y123152D01*
X644773D01*
X648938Y127317D02*
X649771Y128150D01*
X651438D01*
X652271Y127317D01*
Y123985D01*
X651438Y123152D01*
X649771D01*
X648938Y123985D01*
Y127317D01*
X653937Y122319D02*
X657269D01*
X658935Y123152D02*
Y128150D01*
X660601Y126484D01*
X662267Y128150D01*
Y123152D01*
X663933D02*
Y128150D01*
X665600Y126484D01*
X667266Y128150D01*
Y123152D01*
X669765Y122319D02*
X670598Y123152D01*
Y123985D01*
X669765D01*
Y123152D01*
X670598D01*
X669765Y122319D01*
X668932Y121486D01*
X673930Y122319D02*
X677262D01*
X678929Y128150D02*
X682261D01*
X680595D01*
Y123152D01*
X686426Y128150D02*
X684760D01*
X683927Y127317D01*
Y123985D01*
X684760Y123152D01*
X686426D01*
X687259Y123985D01*
Y127317D01*
X686426Y128150D01*
X688925D02*
Y123152D01*
X692258D01*
X697256Y128150D02*
X693924D01*
Y123152D01*
X697256D01*
X693924Y125651D02*
X695590D01*
X698922Y123152D02*
Y128150D01*
X701421D01*
X702254Y127317D01*
Y125651D01*
X701421Y124818D01*
X698922D01*
X700588D02*
X702254Y123152D01*
X703921D02*
Y126484D01*
X705587Y128150D01*
X707253Y126484D01*
Y123152D01*
Y125651D01*
X703921D01*
X708919Y123152D02*
Y128150D01*
X712251Y123152D01*
Y128150D01*
X717249Y127317D02*
X716416Y128150D01*
X714750D01*
X713917Y127317D01*
Y123985D01*
X714750Y123152D01*
X716416D01*
X717249Y123985D01*
X722248Y128150D02*
X718916D01*
Y123152D01*
X722248D01*
X718916Y125651D02*
X720582D01*
X723914Y126484D02*
X724747D01*
Y125651D01*
X723914D01*
Y126484D01*
Y123985D02*
X724747D01*
Y123152D01*
X723914D01*
Y123985D01*
X728079Y122319D02*
X731412D01*
X733078Y125651D02*
X736410D01*
X734744Y127317D02*
Y123985D01*
X738076Y127317D02*
X738909Y128150D01*
X740575D01*
X741408Y127317D01*
Y123985D01*
X740575Y123152D01*
X738909D01*
X738076Y123985D01*
Y127317D01*
X743074Y123152D02*
Y123985D01*
X743907D01*
Y123152D01*
X743074D01*
X747240Y127317D02*
X748073Y128150D01*
X749739D01*
X750572Y127317D01*
Y123985D01*
X749739Y123152D01*
X748073D01*
X747240Y123985D01*
Y127317D01*
X755570Y128150D02*
X752238D01*
Y125651D01*
X753904Y126484D01*
X754737D01*
X755570Y125651D01*
Y123985D01*
X754737Y123152D01*
X753071D01*
X752238Y123985D01*
X757236Y123152D02*
X760569Y126484D01*
X762235Y125651D02*
X765567D01*
X767233Y127317D02*
X768066Y128150D01*
X769733D01*
X770566Y127317D01*
Y123985D01*
X769733Y123152D01*
X768066D01*
X767233Y123985D01*
Y127317D01*
X772232Y123152D02*
Y123985D01*
X773065D01*
Y123152D01*
X772232D01*
X776397Y127317D02*
X777230Y128150D01*
X778896D01*
X779729Y127317D01*
Y123985D01*
X778896Y123152D01*
X777230D01*
X776397Y123985D01*
Y127317D01*
X784728Y128150D02*
X781395D01*
Y125651D01*
X783062Y126484D01*
X783895D01*
X784728Y125651D01*
Y123985D01*
X783895Y123152D01*
X782228D01*
X781395Y123985D01*
X524222Y163559D02*
Y168557D01*
X526721D01*
X527554Y167724D01*
Y166058D01*
X526721Y165225D01*
X524222D01*
X529220Y168557D02*
X532552D01*
X530886D01*
Y163559D01*
X534219Y168557D02*
Y163559D01*
Y166058D01*
X537551D01*
Y168557D01*
Y163559D01*
X539217Y162726D02*
X542549D01*
X544215Y168557D02*
Y163559D01*
X546714D01*
X547547Y164392D01*
Y167724D01*
X546714Y168557D01*
X544215D01*
X549214Y163559D02*
Y168557D01*
X551713D01*
X552546Y167724D01*
Y166058D01*
X551713Y165225D01*
X549214D01*
X550880D02*
X552546Y163559D01*
X554212Y168557D02*
X555878D01*
X555045D01*
Y163559D01*
X554212D01*
X555878D01*
X558377Y168557D02*
Y163559D01*
X561710D01*
X563376Y168557D02*
Y163559D01*
X566708D01*
X568374Y162726D02*
X571706D01*
X576705Y167724D02*
X575872Y168557D01*
X574206D01*
X573373Y167724D01*
Y166891D01*
X574206Y166058D01*
X575872D01*
X576705Y165225D01*
Y164392D01*
X575872Y163559D01*
X574206D01*
X573373Y164392D01*
X578371Y168557D02*
X580037D01*
X579204D01*
Y163559D01*
X578371D01*
X580037D01*
X582536Y168557D02*
X585869D01*
Y167724D01*
X582536Y164392D01*
Y163559D01*
X585869D01*
X590867Y168557D02*
X587535D01*
Y163559D01*
X590867D01*
X587535Y166058D02*
X589201D01*
X592533Y166891D02*
X593366D01*
Y166058D01*
X592533D01*
Y166891D01*
Y164392D02*
X593366D01*
Y163559D01*
X592533D01*
Y164392D01*
X596698Y162726D02*
X600031D01*
X601697Y163559D02*
X603363D01*
X602530D01*
Y168557D01*
X601697Y167724D01*
X605862Y163559D02*
Y164392D01*
X606695D01*
Y163559D01*
X605862D01*
X610027Y167724D02*
X610860Y168557D01*
X612527D01*
X613360Y167724D01*
Y164392D01*
X612527Y163559D01*
X610860D01*
X610027Y164392D01*
Y167724D01*
X618358Y163559D02*
X615026D01*
X618358Y166891D01*
Y167724D01*
X617525Y168557D01*
X615859D01*
X615026Y167724D01*
X620024Y162726D02*
X623356D01*
X625022Y163559D02*
Y168557D01*
X626689Y166891D01*
X628355Y168557D01*
Y163559D01*
X630021D02*
Y168557D01*
X631687Y166891D01*
X633353Y168557D01*
Y163559D01*
X635852Y162726D02*
X636685Y163559D01*
Y164392D01*
X635852D01*
Y163559D01*
X636685D01*
X635852Y162726D01*
X635019Y161893D01*
X640018Y162726D02*
X643350D01*
X645016Y168557D02*
X648348D01*
X646682D01*
Y163559D01*
X652514Y168557D02*
X650847D01*
X650014Y167724D01*
Y164392D01*
X650847Y163559D01*
X652514D01*
X653347Y164392D01*
Y167724D01*
X652514Y168557D01*
X655013D02*
Y163559D01*
X658345D01*
X663343Y168557D02*
X660011D01*
Y163559D01*
X663343D01*
X660011Y166058D02*
X661677D01*
X665009Y163559D02*
Y168557D01*
X667509D01*
X668342Y167724D01*
Y166058D01*
X667509Y165225D01*
X665009D01*
X666676D02*
X668342Y163559D01*
X670008D02*
Y166891D01*
X671674Y168557D01*
X673340Y166891D01*
Y163559D01*
Y166058D01*
X670008D01*
X675006Y163559D02*
Y168557D01*
X678338Y163559D01*
Y168557D01*
X683337Y167724D02*
X682504Y168557D01*
X680838D01*
X680005Y167724D01*
Y164392D01*
X680838Y163559D01*
X682504D01*
X683337Y164392D01*
X688335Y168557D02*
X685003D01*
Y163559D01*
X688335D01*
X685003Y166058D02*
X686669D01*
X690001Y166891D02*
X690834D01*
Y166058D01*
X690001D01*
Y166891D01*
Y164392D02*
X690834D01*
Y163559D01*
X690001D01*
Y164392D01*
X694167Y162726D02*
X697499D01*
X699165Y166058D02*
X702497D01*
X700831Y167724D02*
Y164392D01*
X704164Y167724D02*
X704996Y168557D01*
X706663D01*
X707496Y167724D01*
Y164392D01*
X706663Y163559D01*
X704996D01*
X704164Y164392D01*
Y167724D01*
X709162Y163559D02*
Y164392D01*
X709995D01*
Y163559D01*
X709162D01*
X713327Y167724D02*
X714160Y168557D01*
X715826D01*
X716659Y167724D01*
Y164392D01*
X715826Y163559D01*
X714160D01*
X713327Y164392D01*
Y167724D01*
X721658Y168557D02*
X718326D01*
Y166058D01*
X719992Y166891D01*
X720825D01*
X721658Y166058D01*
Y164392D01*
X720825Y163559D01*
X719159D01*
X718326Y164392D01*
X723324Y163559D02*
X726656Y166891D01*
X728322Y166058D02*
X731655D01*
X733321Y167724D02*
X734154Y168557D01*
X735820D01*
X736653Y167724D01*
Y164392D01*
X735820Y163559D01*
X734154D01*
X733321Y164392D01*
Y167724D01*
X738319Y163559D02*
Y164392D01*
X739152D01*
Y163559D01*
X738319D01*
X742484Y167724D02*
X743317Y168557D01*
X744984D01*
X745817Y167724D01*
Y164392D01*
X744984Y163559D01*
X743317D01*
X742484Y164392D01*
Y167724D01*
X750815Y168557D02*
X747483D01*
Y166058D01*
X749149Y166891D01*
X749982D01*
X750815Y166058D01*
Y164392D01*
X749982Y163559D01*
X748316D01*
X747483Y164392D01*
X506729Y127483D02*
Y132481D01*
X510061Y127483D01*
Y132481D01*
X511727Y127483D02*
Y132481D01*
X514226D01*
X515059Y131648D01*
Y129982D01*
X514226Y129149D01*
X511727D01*
X516725Y132481D02*
X520058D01*
X518392D01*
Y127483D01*
X521724Y132481D02*
Y127483D01*
Y129982D01*
X525056D01*
Y132481D01*
Y127483D01*
X526722Y126650D02*
X530054D01*
X531721Y132481D02*
Y127483D01*
X534220D01*
X535053Y128316D01*
Y131648D01*
X534220Y132481D01*
X531721D01*
X536719Y127483D02*
Y132481D01*
X539218D01*
X540051Y131648D01*
Y129982D01*
X539218Y129149D01*
X536719D01*
X538385D02*
X540051Y127483D01*
X541717Y132481D02*
X543383D01*
X542550D01*
Y127483D01*
X541717D01*
X543383D01*
X545883Y132481D02*
Y127483D01*
X549215D01*
X550881Y132481D02*
Y127483D01*
X554213D01*
X555879Y126650D02*
X559212D01*
X564210Y131648D02*
X563377Y132481D01*
X561711D01*
X560878Y131648D01*
Y130815D01*
X561711Y129982D01*
X563377D01*
X564210Y129149D01*
Y128316D01*
X563377Y127483D01*
X561711D01*
X560878Y128316D01*
X565876Y132481D02*
X567542D01*
X566709D01*
Y127483D01*
X565876D01*
X567542D01*
X570042Y132481D02*
X573374D01*
Y131648D01*
X570042Y128316D01*
Y127483D01*
X573374D01*
X578372Y132481D02*
X575040D01*
Y127483D01*
X578372D01*
X575040Y129982D02*
X576706D01*
X580038Y130815D02*
X580871D01*
Y129982D01*
X580038D01*
Y130815D01*
Y128316D02*
X580871D01*
Y127483D01*
X580038D01*
Y128316D01*
X584204Y126650D02*
X587536D01*
X589202Y131648D02*
X590035Y132481D01*
X591701D01*
X592534Y131648D01*
Y130815D01*
X591701Y129982D01*
X590868D01*
X591701D01*
X592534Y129149D01*
Y128316D01*
X591701Y127483D01*
X590035D01*
X589202Y128316D01*
X594200Y127483D02*
Y128316D01*
X595033D01*
Y127483D01*
X594200D01*
X598366Y131648D02*
X599199Y132481D01*
X600865D01*
X601698Y131648D01*
Y128316D01*
X600865Y127483D01*
X599199D01*
X598366Y128316D01*
Y131648D01*
X603364Y126650D02*
X606696D01*
X608362Y127483D02*
Y132481D01*
X610029Y130815D01*
X611695Y132481D01*
Y127483D01*
X613361D02*
Y132481D01*
X615027Y130815D01*
X616693Y132481D01*
Y127483D01*
X619192Y126650D02*
X620025Y127483D01*
Y128316D01*
X619192D01*
Y127483D01*
X620025D01*
X619192Y126650D01*
X618359Y125817D01*
X623357Y126650D02*
X626690D01*
X628356Y132481D02*
X631688D01*
X630022D01*
Y127483D01*
X635853Y132481D02*
X634187D01*
X633354Y131648D01*
Y128316D01*
X634187Y127483D01*
X635853D01*
X636687Y128316D01*
Y131648D01*
X635853Y132481D01*
X638353D02*
Y127483D01*
X641685D01*
X646683Y132481D02*
X643351D01*
Y127483D01*
X646683D01*
X643351Y129982D02*
X645017D01*
X648349Y127483D02*
Y132481D01*
X650849D01*
X651682Y131648D01*
Y129982D01*
X650849Y129149D01*
X648349D01*
X650016D02*
X651682Y127483D01*
X653348D02*
Y130815D01*
X655014Y132481D01*
X656680Y130815D01*
Y127483D01*
Y129982D01*
X653348D01*
X658346Y127483D02*
Y132481D01*
X661679Y127483D01*
Y132481D01*
X666677Y131648D02*
X665844Y132481D01*
X664178D01*
X663345Y131648D01*
Y128316D01*
X664178Y127483D01*
X665844D01*
X666677Y128316D01*
X671675Y132481D02*
X668343D01*
Y127483D01*
X671675D01*
X668343Y129982D02*
X670009D01*
X673341Y130815D02*
X674174D01*
Y129982D01*
X673341D01*
Y130815D01*
Y128316D02*
X674174D01*
Y127483D01*
X673341D01*
Y128316D01*
X677507Y126650D02*
X680839D01*
X682505Y129982D02*
X685837D01*
X684171Y131648D02*
Y128316D01*
X687503Y131648D02*
X688337Y132481D01*
X690003D01*
X690836Y131648D01*
Y128316D01*
X690003Y127483D01*
X688337D01*
X687503Y128316D01*
Y131648D01*
X692502Y127483D02*
Y128316D01*
X693335D01*
Y127483D01*
X692502D01*
X696667Y131648D02*
X697500Y132481D01*
X699166D01*
X699999Y131648D01*
Y128316D01*
X699166Y127483D01*
X697500D01*
X696667Y128316D01*
Y131648D01*
X704998Y132481D02*
X701665D01*
Y129982D01*
X703332Y130815D01*
X704165D01*
X704998Y129982D01*
Y128316D01*
X704165Y127483D01*
X702499D01*
X701665Y128316D01*
X706664Y127483D02*
X709996Y130815D01*
X711662Y129982D02*
X714994D01*
X716661Y131648D02*
X717494Y132481D01*
X719160D01*
X719993Y131648D01*
Y128316D01*
X719160Y127483D01*
X717494D01*
X716661Y128316D01*
Y131648D01*
X721659Y127483D02*
Y128316D01*
X722492D01*
Y127483D01*
X721659D01*
X725824Y131648D02*
X726657Y132481D01*
X728324D01*
X729157Y131648D01*
Y128316D01*
X728324Y127483D01*
X726657D01*
X725824Y128316D01*
Y131648D01*
X734155Y132481D02*
X730823D01*
Y129982D01*
X732489Y130815D01*
X733322D01*
X734155Y129982D01*
Y128316D01*
X733322Y127483D01*
X731656D01*
X730823Y128316D01*
X491374Y126695D02*
Y131694D01*
X493874D01*
X494707Y130861D01*
Y129194D01*
X493874Y128361D01*
X491374D01*
X496373Y131694D02*
X499705D01*
X498039D01*
Y126695D01*
X501371Y131694D02*
Y126695D01*
Y129194D01*
X504703D01*
Y131694D01*
Y126695D01*
X506369Y125862D02*
X509702D01*
X511368Y131694D02*
Y126695D01*
X513867D01*
X514700Y127528D01*
Y130861D01*
X513867Y131694D01*
X511368D01*
X516366Y126695D02*
Y131694D01*
X518865D01*
X519698Y130861D01*
Y129194D01*
X518865Y128361D01*
X516366D01*
X518032D02*
X519698Y126695D01*
X521365Y131694D02*
X523031D01*
X522198D01*
Y126695D01*
X521365D01*
X523031D01*
X525530Y131694D02*
Y126695D01*
X528862D01*
X530528Y131694D02*
Y126695D01*
X533861D01*
X535527Y125862D02*
X538859D01*
X543857Y130861D02*
X543024Y131694D01*
X541358D01*
X540525Y130861D01*
Y130027D01*
X541358Y129194D01*
X543024D01*
X543857Y128361D01*
Y127528D01*
X543024Y126695D01*
X541358D01*
X540525Y127528D01*
X545523Y131694D02*
X547190D01*
X546356D01*
Y126695D01*
X545523D01*
X547190D01*
X549689Y131694D02*
X553021D01*
Y130861D01*
X549689Y127528D01*
Y126695D01*
X553021D01*
X558019Y131694D02*
X554687D01*
Y126695D01*
X558019D01*
X554687Y129194D02*
X556353D01*
X559686Y130027D02*
X560519D01*
Y129194D01*
X559686D01*
Y130027D01*
Y127528D02*
X560519D01*
Y126695D01*
X559686D01*
Y127528D01*
X563851Y125862D02*
X567183D01*
X568849Y126695D02*
X570515D01*
X569682D01*
Y131694D01*
X568849Y130861D01*
X573014Y126695D02*
Y127528D01*
X573848D01*
Y126695D01*
X573014D01*
X577180Y130861D02*
X578013Y131694D01*
X579679D01*
X580512Y130861D01*
Y127528D01*
X579679Y126695D01*
X578013D01*
X577180Y127528D01*
Y130861D01*
X585510Y126695D02*
X582178D01*
X585510Y130027D01*
Y130861D01*
X584677Y131694D01*
X583011D01*
X582178Y130861D01*
X587177Y125862D02*
X590509D01*
X592175Y126695D02*
Y131694D01*
X593841Y130027D01*
X595507Y131694D01*
Y126695D01*
X597173D02*
Y131694D01*
X598840Y130027D01*
X600506Y131694D01*
Y126695D01*
X603005Y125862D02*
X603838Y126695D01*
Y127528D01*
X603005D01*
Y126695D01*
X603838D01*
X603005Y125862D01*
X602172Y125029D01*
X607170Y125862D02*
X610502D01*
X612169Y131694D02*
X615501D01*
X613835D01*
Y126695D01*
X619666Y131694D02*
X618000D01*
X617167Y130861D01*
Y127528D01*
X618000Y126695D01*
X619666D01*
X620499Y127528D01*
Y130861D01*
X619666Y131694D01*
X622165D02*
Y126695D01*
X625497D01*
X630496Y131694D02*
X627164D01*
Y126695D01*
X630496D01*
X627164Y129194D02*
X628830D01*
X632162Y126695D02*
Y131694D01*
X634661D01*
X635494Y130861D01*
Y129194D01*
X634661Y128361D01*
X632162D01*
X633828D02*
X635494Y126695D01*
X637160D02*
Y130027D01*
X638827Y131694D01*
X640493Y130027D01*
Y126695D01*
Y129194D01*
X637160D01*
X642159Y126695D02*
Y131694D01*
X645491Y126695D01*
Y131694D01*
X650490Y130861D02*
X649656Y131694D01*
X647990D01*
X647157Y130861D01*
Y127528D01*
X647990Y126695D01*
X649656D01*
X650490Y127528D01*
X655488Y131694D02*
X652156D01*
Y126695D01*
X655488D01*
X652156Y129194D02*
X653822D01*
X657154Y130027D02*
X657987D01*
Y129194D01*
X657154D01*
Y130027D01*
Y127528D02*
X657987D01*
Y126695D01*
X657154D01*
Y127528D01*
X661319Y125862D02*
X664651D01*
X666318Y129194D02*
X669650D01*
X667984Y130861D02*
Y127528D01*
X671316Y130861D02*
X672149Y131694D01*
X673815D01*
X674648Y130861D01*
Y127528D01*
X673815Y126695D01*
X672149D01*
X671316Y127528D01*
Y130861D01*
X676314Y126695D02*
Y127528D01*
X677147D01*
Y126695D01*
X676314D01*
X680480Y130861D02*
X681313Y131694D01*
X682979D01*
X683812Y130861D01*
Y127528D01*
X682979Y126695D01*
X681313D01*
X680480Y127528D01*
Y130861D01*
X688810Y131694D02*
X685478D01*
Y129194D01*
X687144Y130027D01*
X687977D01*
X688810Y129194D01*
Y127528D01*
X687977Y126695D01*
X686311D01*
X685478Y127528D01*
X690477Y126695D02*
X693809Y130027D01*
X695475Y129194D02*
X698807D01*
X700473Y130861D02*
X701306Y131694D01*
X702972D01*
X703805Y130861D01*
Y127528D01*
X702972Y126695D01*
X701306D01*
X700473Y127528D01*
Y130861D01*
X705472Y126695D02*
Y127528D01*
X706305D01*
Y126695D01*
X705472D01*
X709637Y130861D02*
X710470Y131694D01*
X712136D01*
X712969Y130861D01*
Y127528D01*
X712136Y126695D01*
X710470D01*
X709637Y127528D01*
Y130861D01*
X717968Y131694D02*
X714635D01*
Y129194D01*
X716301Y130027D01*
X717135D01*
X717968Y129194D01*
Y127528D01*
X717135Y126695D01*
X715468D01*
X714635Y127528D01*
X418182Y91262D02*
Y96261D01*
X421514Y91262D01*
Y96261D01*
X423180Y91262D02*
Y96261D01*
X425679D01*
X426512Y95428D01*
Y93761D01*
X425679Y92928D01*
X423180D01*
X428179Y96261D02*
X431511D01*
X429845D01*
Y91262D01*
X433177Y96261D02*
Y91262D01*
Y93761D01*
X436509D01*
Y96261D01*
Y91262D01*
X438175Y90429D02*
X441508D01*
X443174Y96261D02*
Y91262D01*
X445673D01*
X446506Y92095D01*
Y95428D01*
X445673Y96261D01*
X443174D01*
X448172Y91262D02*
Y96261D01*
X450671D01*
X451504Y95428D01*
Y93761D01*
X450671Y92928D01*
X448172D01*
X449838D02*
X451504Y91262D01*
X453170Y96261D02*
X454837D01*
X454003D01*
Y91262D01*
X453170D01*
X454837D01*
X457336Y96261D02*
Y91262D01*
X460668D01*
X462334Y96261D02*
Y91262D01*
X465666D01*
X467333Y90429D02*
X470665D01*
X475663Y95428D02*
X474830Y96261D01*
X473164D01*
X472331Y95428D01*
Y94595D01*
X473164Y93761D01*
X474830D01*
X475663Y92928D01*
Y92095D01*
X474830Y91262D01*
X473164D01*
X472331Y92095D01*
X477329Y96261D02*
X478995D01*
X478162D01*
Y91262D01*
X477329D01*
X478995D01*
X481495Y96261D02*
X484827D01*
Y95428D01*
X481495Y92095D01*
Y91262D01*
X484827D01*
X489825Y96261D02*
X486493D01*
Y91262D01*
X489825D01*
X486493Y93761D02*
X488159D01*
X491491Y94595D02*
X492324D01*
Y93761D01*
X491491D01*
Y94595D01*
Y92095D02*
X492324D01*
Y91262D01*
X491491D01*
Y92095D01*
X495657Y90429D02*
X498989D01*
X500655Y95428D02*
X501488Y96261D01*
X503154D01*
X503987Y95428D01*
Y94595D01*
X503154Y93761D01*
X502321D01*
X503154D01*
X503987Y92928D01*
Y92095D01*
X503154Y91262D01*
X501488D01*
X500655Y92095D01*
X505653Y91262D02*
Y92095D01*
X506487D01*
Y91262D01*
X505653D01*
X509819Y95428D02*
X510652Y96261D01*
X512318D01*
X513151Y95428D01*
Y92095D01*
X512318Y91262D01*
X510652D01*
X509819Y92095D01*
Y95428D01*
X514817Y90429D02*
X518149D01*
X519815Y91262D02*
Y96261D01*
X521482Y94595D01*
X523148Y96261D01*
Y91262D01*
X524814D02*
Y96261D01*
X526480Y94595D01*
X528146Y96261D01*
Y91262D01*
X530645Y90429D02*
X531478Y91262D01*
Y92095D01*
X530645D01*
Y91262D01*
X531478D01*
X530645Y90429D01*
X529812Y89596D01*
X534811Y90429D02*
X538143D01*
X539809Y96261D02*
X543141D01*
X541475D01*
Y91262D01*
X547307Y96261D02*
X545641D01*
X544807Y95428D01*
Y92095D01*
X545641Y91262D01*
X547307D01*
X548140Y92095D01*
Y95428D01*
X547307Y96261D01*
X549806D02*
Y91262D01*
X553138D01*
X558136Y96261D02*
X554804D01*
Y91262D01*
X558136D01*
X554804Y93761D02*
X556470D01*
X559803Y91262D02*
Y96261D01*
X562302D01*
X563135Y95428D01*
Y93761D01*
X562302Y92928D01*
X559803D01*
X561469D02*
X563135Y91262D01*
X564801D02*
Y94595D01*
X566467Y96261D01*
X568133Y94595D01*
Y91262D01*
Y93761D01*
X564801D01*
X569799Y91262D02*
Y96261D01*
X573132Y91262D01*
Y96261D01*
X578130Y95428D02*
X577297Y96261D01*
X575631D01*
X574798Y95428D01*
Y92095D01*
X575631Y91262D01*
X577297D01*
X578130Y92095D01*
X583128Y96261D02*
X579796D01*
Y91262D01*
X583128D01*
X579796Y93761D02*
X581462D01*
X584795Y94595D02*
X585628D01*
Y93761D01*
X584795D01*
Y94595D01*
Y92095D02*
X585628D01*
Y91262D01*
X584795D01*
Y92095D01*
X588960Y90429D02*
X592292D01*
X593958Y93761D02*
X597290D01*
X595624Y95428D02*
Y92095D01*
X598956Y95428D02*
X599790Y96261D01*
X601456D01*
X602289Y95428D01*
Y92095D01*
X601456Y91262D01*
X599790D01*
X598956Y92095D01*
Y95428D01*
X603955Y91262D02*
Y92095D01*
X604788D01*
Y91262D01*
X603955D01*
X608120Y95428D02*
X608953Y96261D01*
X610619D01*
X611452Y95428D01*
Y92095D01*
X610619Y91262D01*
X608953D01*
X608120Y92095D01*
Y95428D01*
X616451Y96261D02*
X613119D01*
Y93761D01*
X614785Y94595D01*
X615618D01*
X616451Y93761D01*
Y92095D01*
X615618Y91262D01*
X613952D01*
X613119Y92095D01*
X618117Y91262D02*
X621449Y94595D01*
X623115Y93761D02*
X626448D01*
X628114Y95428D02*
X628947Y96261D01*
X630613D01*
X631446Y95428D01*
Y92095D01*
X630613Y91262D01*
X628947D01*
X628114Y92095D01*
Y95428D01*
X633112Y91262D02*
Y92095D01*
X633945D01*
Y91262D01*
X633112D01*
X637278Y95428D02*
X638110Y96261D01*
X639777D01*
X640610Y95428D01*
Y92095D01*
X639777Y91262D01*
X638110D01*
X637278Y92095D01*
Y95428D01*
X645608Y96261D02*
X642276D01*
Y93761D01*
X643942Y94595D01*
X644775D01*
X645608Y93761D01*
Y92095D01*
X644775Y91262D01*
X643109D01*
X642276Y92095D01*
X420544Y81813D02*
Y86812D01*
X423043D01*
X423876Y85979D01*
Y84313D01*
X423043Y83479D01*
X420544D01*
X425542Y86812D02*
X428875D01*
X427209D01*
Y81813D01*
X430541Y86812D02*
Y81813D01*
Y84313D01*
X433873D01*
Y86812D01*
Y81813D01*
X435539Y80980D02*
X438871D01*
X440538Y86812D02*
Y81813D01*
X443037D01*
X443870Y82647D01*
Y85979D01*
X443037Y86812D01*
X440538D01*
X445536Y81813D02*
Y86812D01*
X448035D01*
X448868Y85979D01*
Y84313D01*
X448035Y83479D01*
X445536D01*
X447202D02*
X448868Y81813D01*
X450534Y86812D02*
X452200D01*
X451367D01*
Y81813D01*
X450534D01*
X452200D01*
X454700Y86812D02*
Y81813D01*
X458032D01*
X459698Y86812D02*
Y81813D01*
X463030D01*
X464696Y80980D02*
X468029D01*
X473027Y85979D02*
X472194Y86812D01*
X470528D01*
X469695Y85979D01*
Y85146D01*
X470528Y84313D01*
X472194D01*
X473027Y83479D01*
Y82647D01*
X472194Y81813D01*
X470528D01*
X469695Y82647D01*
X474693Y86812D02*
X476359D01*
X475526D01*
Y81813D01*
X474693D01*
X476359D01*
X478858Y86812D02*
X482191D01*
Y85979D01*
X478858Y82647D01*
Y81813D01*
X482191D01*
X487189Y86812D02*
X483857D01*
Y81813D01*
X487189D01*
X483857Y84313D02*
X485523D01*
X488855Y85146D02*
X489688D01*
Y84313D01*
X488855D01*
Y85146D01*
Y82647D02*
X489688D01*
Y81813D01*
X488855D01*
Y82647D01*
X493020Y80980D02*
X496353D01*
X498019Y81813D02*
X499685D01*
X498852D01*
Y86812D01*
X498019Y85979D01*
X502184Y81813D02*
Y82647D01*
X503017D01*
Y81813D01*
X502184D01*
X506350Y85979D02*
X507183Y86812D01*
X508849D01*
X509682Y85979D01*
Y82647D01*
X508849Y81813D01*
X507183D01*
X506350Y82647D01*
Y85979D01*
X514680Y81813D02*
X511348D01*
X514680Y85146D01*
Y85979D01*
X513847Y86812D01*
X512181D01*
X511348Y85979D01*
X516346Y80980D02*
X519678D01*
X521345Y81813D02*
Y86812D01*
X523011Y85146D01*
X524677Y86812D01*
Y81813D01*
X526343D02*
Y86812D01*
X528009Y85146D01*
X529675Y86812D01*
Y81813D01*
X532174Y80980D02*
X533008Y81813D01*
Y82647D01*
X532174D01*
Y81813D01*
X533008D01*
X532174Y80980D01*
X531341Y80147D01*
X536340Y80980D02*
X539672D01*
X541338Y86812D02*
X544670D01*
X543004D01*
Y81813D01*
X548836Y86812D02*
X547170D01*
X546337Y85979D01*
Y82647D01*
X547170Y81813D01*
X548836D01*
X549669Y82647D01*
Y85979D01*
X548836Y86812D01*
X551335D02*
Y81813D01*
X554667D01*
X559666Y86812D02*
X556333D01*
Y81813D01*
X559666D01*
X556333Y84313D02*
X558000D01*
X561332Y81813D02*
Y86812D01*
X563831D01*
X564664Y85979D01*
Y84313D01*
X563831Y83479D01*
X561332D01*
X562998D02*
X564664Y81813D01*
X566330D02*
Y85146D01*
X567996Y86812D01*
X569662Y85146D01*
Y81813D01*
Y84313D01*
X566330D01*
X571328Y81813D02*
Y86812D01*
X574661Y81813D01*
Y86812D01*
X579659Y85979D02*
X578826Y86812D01*
X577160D01*
X576327Y85979D01*
Y82647D01*
X577160Y81813D01*
X578826D01*
X579659Y82647D01*
X584657Y86812D02*
X581325D01*
Y81813D01*
X584657D01*
X581325Y84313D02*
X582991D01*
X586324Y85146D02*
X587157D01*
Y84313D01*
X586324D01*
Y85146D01*
Y82647D02*
X587157D01*
Y81813D01*
X586324D01*
Y82647D01*
X590489Y80980D02*
X593821D01*
X595487Y84313D02*
X598820D01*
X597153Y85979D02*
Y82647D01*
X600486Y85979D02*
X601319Y86812D01*
X602985D01*
X603818Y85979D01*
Y82647D01*
X602985Y81813D01*
X601319D01*
X600486Y82647D01*
Y85979D01*
X605484Y81813D02*
Y82647D01*
X606317D01*
Y81813D01*
X605484D01*
X609649Y85979D02*
X610482Y86812D01*
X612149D01*
X612982Y85979D01*
Y82647D01*
X612149Y81813D01*
X610482D01*
X609649Y82647D01*
Y85979D01*
X617980Y86812D02*
X614648D01*
Y84313D01*
X616314Y85146D01*
X617147D01*
X617980Y84313D01*
Y82647D01*
X617147Y81813D01*
X615481D01*
X614648Y82647D01*
X619646Y81813D02*
X622978Y85146D01*
X624645Y84313D02*
X627977D01*
X629643Y85979D02*
X630476Y86812D01*
X632142D01*
X632975Y85979D01*
Y82647D01*
X632142Y81813D01*
X630476D01*
X629643Y82647D01*
Y85979D01*
X634641Y81813D02*
Y82647D01*
X635474D01*
Y81813D01*
X634641D01*
X638807Y85979D02*
X639640Y86812D01*
X641306D01*
X642139Y85979D01*
Y82647D01*
X641306Y81813D01*
X639640D01*
X638807Y82647D01*
Y85979D01*
X647137Y86812D02*
X643805D01*
Y84313D01*
X645471Y85146D01*
X646304D01*
X647137Y84313D01*
Y82647D01*
X646304Y81813D01*
X644638D01*
X643805Y82647D01*
X471510Y73152D02*
Y78150D01*
X474843Y73152D01*
Y78150D01*
X476509Y73152D02*
Y78150D01*
X479008D01*
X479841Y77317D01*
Y75651D01*
X479008Y74818D01*
X476509D01*
X481507Y78150D02*
X484839D01*
X483173D01*
Y73152D01*
X486506Y78150D02*
Y73152D01*
Y75651D01*
X489838D01*
Y78150D01*
Y73152D01*
X491504Y72319D02*
X494836D01*
X496502Y78150D02*
Y73152D01*
X499001D01*
X499834Y73985D01*
Y77317D01*
X499001Y78150D01*
X496502D01*
X501501Y73152D02*
Y78150D01*
X504000D01*
X504833Y77317D01*
Y75651D01*
X504000Y74818D01*
X501501D01*
X503167D02*
X504833Y73152D01*
X506499Y78150D02*
X508165D01*
X507332D01*
Y73152D01*
X506499D01*
X508165D01*
X510664Y78150D02*
Y73152D01*
X513997D01*
X515663Y78150D02*
Y73152D01*
X518995D01*
X520661Y72319D02*
X523993D01*
X528992Y77317D02*
X528159Y78150D01*
X526493D01*
X525660Y77317D01*
Y76484D01*
X526493Y75651D01*
X528159D01*
X528992Y74818D01*
Y73985D01*
X528159Y73152D01*
X526493D01*
X525660Y73985D01*
X530658Y78150D02*
X532324D01*
X531491D01*
Y73152D01*
X530658D01*
X532324D01*
X534823Y78150D02*
X538155D01*
Y77317D01*
X534823Y73985D01*
Y73152D01*
X538155D01*
X543154Y78150D02*
X539821D01*
Y73152D01*
X543154D01*
X539821Y75651D02*
X541488D01*
X544820Y76484D02*
X545653D01*
Y75651D01*
X544820D01*
Y76484D01*
Y73985D02*
X545653D01*
Y73152D01*
X544820D01*
Y73985D01*
X548985Y72319D02*
X552317D01*
X553984Y77317D02*
X554817Y78150D01*
X556483D01*
X557316Y77317D01*
Y76484D01*
X556483Y75651D01*
X555650D01*
X556483D01*
X557316Y74818D01*
Y73985D01*
X556483Y73152D01*
X554817D01*
X553984Y73985D01*
X558982Y73152D02*
Y73985D01*
X559815D01*
Y73152D01*
X558982D01*
X563147Y77317D02*
X563980Y78150D01*
X565647D01*
X566480Y77317D01*
Y73985D01*
X565647Y73152D01*
X563980D01*
X563147Y73985D01*
Y77317D01*
X568146Y72319D02*
X571478D01*
X573144Y73152D02*
Y78150D01*
X574810Y76484D01*
X576476Y78150D01*
Y73152D01*
X578142D02*
Y78150D01*
X579809Y76484D01*
X581475Y78150D01*
Y73152D01*
X583974Y72319D02*
X584807Y73152D01*
Y73985D01*
X583974D01*
Y73152D01*
X584807D01*
X583974Y72319D01*
X583141Y71486D01*
X588139Y72319D02*
X591471D01*
X593138Y78150D02*
X596470D01*
X594804D01*
Y73152D01*
X600635Y78150D02*
X598969D01*
X598136Y77317D01*
Y73985D01*
X598969Y73152D01*
X600635D01*
X601468Y73985D01*
Y77317D01*
X600635Y78150D01*
X603134D02*
Y73152D01*
X606467D01*
X611465Y78150D02*
X608133D01*
Y73152D01*
X611465D01*
X608133Y75651D02*
X609799D01*
X613131Y73152D02*
Y78150D01*
X615630D01*
X616463Y77317D01*
Y75651D01*
X615630Y74818D01*
X613131D01*
X614797D02*
X616463Y73152D01*
X618129D02*
Y76484D01*
X619796Y78150D01*
X621462Y76484D01*
Y73152D01*
Y75651D01*
X618129D01*
X623128Y73152D02*
Y78150D01*
X626460Y73152D01*
Y78150D01*
X631459Y77317D02*
X630625Y78150D01*
X628959D01*
X628126Y77317D01*
Y73985D01*
X628959Y73152D01*
X630625D01*
X631459Y73985D01*
X636457Y78150D02*
X633125D01*
Y73152D01*
X636457D01*
X633125Y75651D02*
X634791D01*
X638123Y76484D02*
X638956D01*
Y75651D01*
X638123D01*
Y76484D01*
Y73985D02*
X638956D01*
Y73152D01*
X638123D01*
Y73985D01*
X642288Y72319D02*
X645621D01*
X647287Y75651D02*
X650619D01*
X648953Y77317D02*
Y73985D01*
X652285Y77317D02*
X653118Y78150D01*
X654784D01*
X655617Y77317D01*
Y73985D01*
X654784Y73152D01*
X653118D01*
X652285Y73985D01*
Y77317D01*
X657283Y73152D02*
Y73985D01*
X658116D01*
Y73152D01*
X657283D01*
X661449Y77317D02*
X662282Y78150D01*
X663948D01*
X664781Y77317D01*
Y73985D01*
X663948Y73152D01*
X662282D01*
X661449Y73985D01*
Y77317D01*
X669779Y78150D02*
X666447D01*
Y75651D01*
X668113Y76484D01*
X668946D01*
X669779Y75651D01*
Y73985D01*
X668946Y73152D01*
X667280D01*
X666447Y73985D01*
X671446Y73152D02*
X674778Y76484D01*
X676444Y75651D02*
X679776D01*
X681442Y77317D02*
X682275Y78150D01*
X683942D01*
X684775Y77317D01*
Y73985D01*
X683942Y73152D01*
X682275D01*
X681442Y73985D01*
Y77317D01*
X686441Y73152D02*
Y73985D01*
X687274D01*
Y73152D01*
X686441D01*
X690606Y77317D02*
X691439Y78150D01*
X693105D01*
X693938Y77317D01*
Y73985D01*
X693105Y73152D01*
X691439D01*
X690606Y73985D01*
Y77317D01*
X698937Y78150D02*
X695604D01*
Y75651D01*
X697270Y76484D01*
X698104D01*
X698937Y75651D01*
Y73985D01*
X698104Y73152D01*
X696438D01*
X695604Y73985D01*
X467573Y96774D02*
Y101772D01*
X470073D01*
X470906Y100939D01*
Y99273D01*
X470073Y98440D01*
X467573D01*
X472572Y101772D02*
X475904D01*
X474238D01*
Y96774D01*
X477570Y101772D02*
Y96774D01*
Y99273D01*
X480902D01*
Y101772D01*
Y96774D01*
X482569Y95941D02*
X485901D01*
X487567Y101772D02*
Y96774D01*
X490066D01*
X490899Y97607D01*
Y100939D01*
X490066Y101772D01*
X487567D01*
X492565Y96774D02*
Y101772D01*
X495064D01*
X495897Y100939D01*
Y99273D01*
X495064Y98440D01*
X492565D01*
X494231D02*
X495897Y96774D01*
X497564Y101772D02*
X499230D01*
X498397D01*
Y96774D01*
X497564D01*
X499230D01*
X501729Y101772D02*
Y96774D01*
X505061D01*
X506727Y101772D02*
Y96774D01*
X510060D01*
X511726Y95941D02*
X515058D01*
X520056Y100939D02*
X519223Y101772D01*
X517557D01*
X516724Y100939D01*
Y100106D01*
X517557Y99273D01*
X519223D01*
X520056Y98440D01*
Y97607D01*
X519223Y96774D01*
X517557D01*
X516724Y97607D01*
X521723Y101772D02*
X523389D01*
X522555D01*
Y96774D01*
X521723D01*
X523389D01*
X525888Y101772D02*
X529220D01*
Y100939D01*
X525888Y97607D01*
Y96774D01*
X529220D01*
X534218Y101772D02*
X530886D01*
Y96774D01*
X534218D01*
X530886Y99273D02*
X532552D01*
X535885Y100106D02*
X536718D01*
Y99273D01*
X535885D01*
Y100106D01*
Y97607D02*
X536718D01*
Y96774D01*
X535885D01*
Y97607D01*
X540050Y95941D02*
X543382D01*
X545048Y96774D02*
X546714D01*
X545881D01*
Y101772D01*
X545048Y100939D01*
X549214Y96774D02*
Y97607D01*
X550047D01*
Y96774D01*
X549214D01*
X553379Y100939D02*
X554212Y101772D01*
X555878D01*
X556711Y100939D01*
Y97607D01*
X555878Y96774D01*
X554212D01*
X553379Y97607D01*
Y100939D01*
X561709Y96774D02*
X558377D01*
X561709Y100106D01*
Y100939D01*
X560877Y101772D01*
X559210D01*
X558377Y100939D01*
X563376Y95941D02*
X566708D01*
X568374Y96774D02*
Y101772D01*
X570040Y100106D01*
X571706Y101772D01*
Y96774D01*
X573372D02*
Y101772D01*
X575038Y100106D01*
X576705Y101772D01*
Y96774D01*
X579204Y95941D02*
X580037Y96774D01*
Y97607D01*
X579204D01*
Y96774D01*
X580037D01*
X579204Y95941D01*
X578371Y95108D01*
X583369Y95941D02*
X586701D01*
X588368Y101772D02*
X591700D01*
X590034D01*
Y96774D01*
X595865Y101772D02*
X594199D01*
X593366Y100939D01*
Y97607D01*
X594199Y96774D01*
X595865D01*
X596698Y97607D01*
Y100939D01*
X595865Y101772D01*
X598364D02*
Y96774D01*
X601697D01*
X606695Y101772D02*
X603363D01*
Y96774D01*
X606695D01*
X603363Y99273D02*
X605029D01*
X608361Y96774D02*
Y101772D01*
X610860D01*
X611693Y100939D01*
Y99273D01*
X610860Y98440D01*
X608361D01*
X610027D02*
X611693Y96774D01*
X613359D02*
Y100106D01*
X615026Y101772D01*
X616692Y100106D01*
Y96774D01*
Y99273D01*
X613359D01*
X618358Y96774D02*
Y101772D01*
X621690Y96774D01*
Y101772D01*
X626688Y100939D02*
X625855Y101772D01*
X624189D01*
X623356Y100939D01*
Y97607D01*
X624189Y96774D01*
X625855D01*
X626688Y97607D01*
X631687Y101772D02*
X628355D01*
Y96774D01*
X631687D01*
X628355Y99273D02*
X630021D01*
X633353Y100106D02*
X634186D01*
Y99273D01*
X633353D01*
Y100106D01*
Y97607D02*
X634186D01*
Y96774D01*
X633353D01*
Y97607D01*
X637518Y95941D02*
X640850D01*
X642517Y99273D02*
X645849D01*
X644183Y100939D02*
Y97607D01*
X647515Y100939D02*
X648348Y101772D01*
X650014D01*
X650847Y100939D01*
Y97607D01*
X650014Y96774D01*
X648348D01*
X647515Y97607D01*
Y100939D01*
X652513Y96774D02*
Y97607D01*
X653346D01*
Y96774D01*
X652513D01*
X656679Y100939D02*
X657512Y101772D01*
X659178D01*
X660011Y100939D01*
Y97607D01*
X659178Y96774D01*
X657512D01*
X656679Y97607D01*
Y100939D01*
X665009Y101772D02*
X661677D01*
Y99273D01*
X663343Y100106D01*
X664176D01*
X665009Y99273D01*
Y97607D01*
X664176Y96774D01*
X662510D01*
X661677Y97607D01*
X666676Y96774D02*
X670008Y100106D01*
X671674Y99273D02*
X675006D01*
X676672Y100939D02*
X677505Y101772D01*
X679172D01*
X680005Y100939D01*
Y97607D01*
X679172Y96774D01*
X677505D01*
X676672Y97607D01*
Y100939D01*
X681671Y96774D02*
Y97607D01*
X682504D01*
Y96774D01*
X681671D01*
X685836Y100939D02*
X686669Y101772D01*
X688335D01*
X689168Y100939D01*
Y97607D01*
X688335Y96774D01*
X686669D01*
X685836Y97607D01*
Y100939D01*
X694167Y101772D02*
X690834D01*
Y99273D01*
X692500Y100106D01*
X693333D01*
X694167Y99273D01*
Y97607D01*
X693333Y96774D01*
X691667D01*
X690834Y97607D01*
X246349Y109372D02*
Y114371D01*
X249682Y109372D01*
Y114371D01*
X251348Y109372D02*
Y114371D01*
X253847D01*
X254680Y113538D01*
Y111872D01*
X253847Y111039D01*
X251348D01*
X256346Y114371D02*
X259678D01*
X258012D01*
Y109372D01*
X261344Y114371D02*
Y109372D01*
Y111872D01*
X264677D01*
Y114371D01*
Y109372D01*
X266343Y108539D02*
X269675D01*
X271341Y114371D02*
Y109372D01*
X273840D01*
X274674Y110205D01*
Y113538D01*
X273840Y114371D01*
X271341D01*
X276340Y109372D02*
Y114371D01*
X278839D01*
X279672Y113538D01*
Y111872D01*
X278839Y111039D01*
X276340D01*
X278006D02*
X279672Y109372D01*
X281338Y114371D02*
X283004D01*
X282171D01*
Y109372D01*
X281338D01*
X283004D01*
X285503Y114371D02*
Y109372D01*
X288836D01*
X290502Y114371D02*
Y109372D01*
X293834D01*
X295500Y108539D02*
X298832D01*
X303831Y113538D02*
X302998Y114371D01*
X301331D01*
X300498Y113538D01*
Y112705D01*
X301331Y111872D01*
X302998D01*
X303831Y111039D01*
Y110205D01*
X302998Y109372D01*
X301331D01*
X300498Y110205D01*
X305497Y114371D02*
X307163D01*
X306330D01*
Y109372D01*
X305497D01*
X307163D01*
X309662Y114371D02*
X312994D01*
Y113538D01*
X309662Y110205D01*
Y109372D01*
X312994D01*
X317993Y114371D02*
X314661D01*
Y109372D01*
X317993D01*
X314661Y111872D02*
X316327D01*
X319659Y112705D02*
X320492D01*
Y111872D01*
X319659D01*
Y112705D01*
Y110205D02*
X320492D01*
Y109372D01*
X319659D01*
Y110205D01*
X323824Y108539D02*
X327156D01*
X328823Y113538D02*
X329656Y114371D01*
X331322D01*
X332155Y113538D01*
Y112705D01*
X331322Y111872D01*
X330489D01*
X331322D01*
X332155Y111039D01*
Y110205D01*
X331322Y109372D01*
X329656D01*
X328823Y110205D01*
X333821Y109372D02*
Y110205D01*
X334654D01*
Y109372D01*
X333821D01*
X337986Y113538D02*
X338819Y114371D01*
X340486D01*
X341318Y113538D01*
Y110205D01*
X340486Y109372D01*
X338819D01*
X337986Y110205D01*
Y113538D01*
X342985Y108539D02*
X346317D01*
X347983Y109372D02*
Y114371D01*
X349649Y112705D01*
X351315Y114371D01*
Y109372D01*
X352981D02*
Y114371D01*
X354647Y112705D01*
X356314Y114371D01*
Y109372D01*
X358813Y108539D02*
X359646Y109372D01*
Y110205D01*
X358813D01*
Y109372D01*
X359646D01*
X358813Y108539D01*
X357980Y107706D01*
X362978Y108539D02*
X366310D01*
X367976Y114371D02*
X371309D01*
X369643D01*
Y109372D01*
X375474Y114371D02*
X373808D01*
X372975Y113538D01*
Y110205D01*
X373808Y109372D01*
X375474D01*
X376307Y110205D01*
Y113538D01*
X375474Y114371D01*
X377973D02*
Y109372D01*
X381306D01*
X386304Y114371D02*
X382972D01*
Y109372D01*
X386304D01*
X382972Y111872D02*
X384638D01*
X387970Y109372D02*
Y114371D01*
X390469D01*
X391302Y113538D01*
Y111872D01*
X390469Y111039D01*
X387970D01*
X389636D02*
X391302Y109372D01*
X392968D02*
Y112705D01*
X394635Y114371D01*
X396301Y112705D01*
Y109372D01*
Y111872D01*
X392968D01*
X397967Y109372D02*
Y114371D01*
X401299Y109372D01*
Y114371D01*
X406297Y113538D02*
X405464Y114371D01*
X403798D01*
X402965Y113538D01*
Y110205D01*
X403798Y109372D01*
X405464D01*
X406297Y110205D01*
X411296Y114371D02*
X407964D01*
Y109372D01*
X411296D01*
X407964Y111872D02*
X409630D01*
X412962Y112705D02*
X413795D01*
Y111872D01*
X412962D01*
Y112705D01*
Y110205D02*
X413795D01*
Y109372D01*
X412962D01*
Y110205D01*
X417127Y108539D02*
X420460D01*
X422126Y111872D02*
X425458D01*
X423792Y113538D02*
Y110205D01*
X427124Y113538D02*
X427957Y114371D01*
X429623D01*
X430456Y113538D01*
Y110205D01*
X429623Y109372D01*
X427957D01*
X427124Y110205D01*
Y113538D01*
X432122Y109372D02*
Y110205D01*
X432956D01*
Y109372D01*
X432122D01*
X436288Y113538D02*
X437121Y114371D01*
X438787D01*
X439620Y113538D01*
Y110205D01*
X438787Y109372D01*
X437121D01*
X436288Y110205D01*
Y113538D01*
X444618Y114371D02*
X441286D01*
Y111872D01*
X442952Y112705D01*
X443785D01*
X444618Y111872D01*
Y110205D01*
X443785Y109372D01*
X442119D01*
X441286Y110205D01*
X446284Y109372D02*
X449617Y112705D01*
X451283Y111872D02*
X454615D01*
X456281Y113538D02*
X457114Y114371D01*
X458780D01*
X459614Y113538D01*
Y110205D01*
X458780Y109372D01*
X457114D01*
X456281Y110205D01*
Y113538D01*
X461280Y109372D02*
Y110205D01*
X462113D01*
Y109372D01*
X461280D01*
X465445Y113538D02*
X466278Y114371D01*
X467944D01*
X468777Y113538D01*
Y110205D01*
X467944Y109372D01*
X466278D01*
X465445Y110205D01*
Y113538D01*
X473776Y114371D02*
X470443D01*
Y111872D01*
X472110Y112705D01*
X472942D01*
X473776Y111872D01*
Y110205D01*
X472942Y109372D01*
X471276D01*
X470443Y110205D01*
X266822Y110947D02*
Y115946D01*
X269321D01*
X270154Y115113D01*
Y113446D01*
X269321Y112613D01*
X266822D01*
X271820Y115946D02*
X275152D01*
X273486D01*
Y110947D01*
X276818Y115946D02*
Y110947D01*
Y113446D01*
X280151D01*
Y115946D01*
Y110947D01*
X281817Y110114D02*
X285149D01*
X286815Y115946D02*
Y110947D01*
X289314D01*
X290147Y111780D01*
Y115113D01*
X289314Y115946D01*
X286815D01*
X291814Y110947D02*
Y115946D01*
X294313D01*
X295146Y115113D01*
Y113446D01*
X294313Y112613D01*
X291814D01*
X293480D02*
X295146Y110947D01*
X296812Y115946D02*
X298478D01*
X297645D01*
Y110947D01*
X296812D01*
X298478D01*
X300977Y115946D02*
Y110947D01*
X304310D01*
X305976Y115946D02*
Y110947D01*
X309308D01*
X310974Y110114D02*
X314306D01*
X319305Y115113D02*
X318472Y115946D01*
X316806D01*
X315972Y115113D01*
Y114279D01*
X316806Y113446D01*
X318472D01*
X319305Y112613D01*
Y111780D01*
X318472Y110947D01*
X316806D01*
X315972Y111780D01*
X320971Y115946D02*
X322637D01*
X321804D01*
Y110947D01*
X320971D01*
X322637D01*
X325136Y115946D02*
X328468D01*
Y115113D01*
X325136Y111780D01*
Y110947D01*
X328468D01*
X333467Y115946D02*
X330135D01*
Y110947D01*
X333467D01*
X330135Y113446D02*
X331801D01*
X335133Y114279D02*
X335966D01*
Y113446D01*
X335133D01*
Y114279D01*
Y111780D02*
X335966D01*
Y110947D01*
X335133D01*
Y111780D01*
X339298Y110114D02*
X342631D01*
X344297Y110947D02*
X345963D01*
X345130D01*
Y115946D01*
X344297Y115113D01*
X348462Y110947D02*
Y111780D01*
X349295D01*
Y110947D01*
X348462D01*
X352627Y115113D02*
X353460Y115946D01*
X355127D01*
X355960Y115113D01*
Y111780D01*
X355127Y110947D01*
X353460D01*
X352627Y111780D01*
Y115113D01*
X360958Y110947D02*
X357626D01*
X360958Y114279D01*
Y115113D01*
X360125Y115946D01*
X358459D01*
X357626Y115113D01*
X362624Y110114D02*
X365956D01*
X367622Y110947D02*
Y115946D01*
X369288Y114279D01*
X370955Y115946D01*
Y110947D01*
X372621D02*
Y115946D01*
X374287Y114279D01*
X375953Y115946D01*
Y110947D01*
X378452Y110114D02*
X379285Y110947D01*
Y111780D01*
X378452D01*
Y110947D01*
X379285D01*
X378452Y110114D01*
X377619Y109281D01*
X382618Y110114D02*
X385950D01*
X387616Y115946D02*
X390948D01*
X389282D01*
Y110947D01*
X395113Y115946D02*
X393447D01*
X392614Y115113D01*
Y111780D01*
X393447Y110947D01*
X395113D01*
X395947Y111780D01*
Y115113D01*
X395113Y115946D01*
X397613D02*
Y110947D01*
X400945D01*
X405943Y115946D02*
X402611D01*
Y110947D01*
X405943D01*
X402611Y113446D02*
X404277D01*
X407610Y110947D02*
Y115946D01*
X410109D01*
X410942Y115113D01*
Y113446D01*
X410109Y112613D01*
X407610D01*
X409276D02*
X410942Y110947D01*
X412608D02*
Y114279D01*
X414274Y115946D01*
X415940Y114279D01*
Y110947D01*
Y113446D01*
X412608D01*
X417606Y110947D02*
Y115946D01*
X420938Y110947D01*
Y115946D01*
X425937Y115113D02*
X425104Y115946D01*
X423438D01*
X422605Y115113D01*
Y111780D01*
X423438Y110947D01*
X425104D01*
X425937Y111780D01*
X430935Y115946D02*
X427603D01*
Y110947D01*
X430935D01*
X427603Y113446D02*
X429269D01*
X432601Y114279D02*
X433434D01*
Y113446D01*
X432601D01*
Y114279D01*
Y111780D02*
X433434D01*
Y110947D01*
X432601D01*
Y111780D01*
X436767Y110114D02*
X440099D01*
X441765Y113446D02*
X445097D01*
X443431Y115113D02*
Y111780D01*
X446763Y115113D02*
X447597Y115946D01*
X449263D01*
X450096Y115113D01*
Y111780D01*
X449263Y110947D01*
X447597D01*
X446763Y111780D01*
Y115113D01*
X451762Y110947D02*
Y111780D01*
X452595D01*
Y110947D01*
X451762D01*
X455927Y115113D02*
X456760Y115946D01*
X458426D01*
X459259Y115113D01*
Y111780D01*
X458426Y110947D01*
X456760D01*
X455927Y111780D01*
Y115113D01*
X464258Y115946D02*
X460925D01*
Y113446D01*
X462592Y114279D01*
X463425D01*
X464258Y113446D01*
Y111780D01*
X463425Y110947D01*
X461759D01*
X460925Y111780D01*
X465924Y110947D02*
X469256Y114279D01*
X470922Y113446D02*
X474255D01*
X475921Y115113D02*
X476754Y115946D01*
X478420D01*
X479253Y115113D01*
Y111780D01*
X478420Y110947D01*
X476754D01*
X475921Y111780D01*
Y115113D01*
X480919Y110947D02*
Y111780D01*
X481752D01*
Y110947D01*
X480919D01*
X485084Y115113D02*
X485917Y115946D01*
X487584D01*
X488417Y115113D01*
Y111780D01*
X487584Y110947D01*
X485917D01*
X485084Y111780D01*
Y115113D01*
X493415Y115946D02*
X490083D01*
Y113446D01*
X491749Y114279D01*
X492582D01*
X493415Y113446D01*
Y111780D01*
X492582Y110947D01*
X490916D01*
X490083Y111780D01*
X230029Y88113D02*
Y93111D01*
X233361Y88113D01*
Y93111D01*
X235027Y88113D02*
Y93111D01*
X237526D01*
X238359Y92278D01*
Y90612D01*
X237526Y89779D01*
X235027D01*
X240025Y93111D02*
X243358D01*
X241691D01*
Y88113D01*
X245024Y93111D02*
Y88113D01*
Y90612D01*
X248356D01*
Y93111D01*
Y88113D01*
X250022Y87279D02*
X253354D01*
X255020Y93111D02*
Y88113D01*
X257520D01*
X258353Y88946D01*
Y92278D01*
X257520Y93111D01*
X255020D01*
X260019Y88113D02*
Y93111D01*
X262518D01*
X263351Y92278D01*
Y90612D01*
X262518Y89779D01*
X260019D01*
X261685D02*
X263351Y88113D01*
X265017Y93111D02*
X266683D01*
X265850D01*
Y88113D01*
X265017D01*
X266683D01*
X269183Y93111D02*
Y88113D01*
X272515D01*
X274181Y93111D02*
Y88113D01*
X277513D01*
X279179Y87279D02*
X282512D01*
X287510Y92278D02*
X286677Y93111D01*
X285011D01*
X284178Y92278D01*
Y91445D01*
X285011Y90612D01*
X286677D01*
X287510Y89779D01*
Y88946D01*
X286677Y88113D01*
X285011D01*
X284178Y88946D01*
X289176Y93111D02*
X290842D01*
X290009D01*
Y88113D01*
X289176D01*
X290842D01*
X293341Y93111D02*
X296674D01*
Y92278D01*
X293341Y88946D01*
Y88113D01*
X296674D01*
X301672Y93111D02*
X298340D01*
Y88113D01*
X301672D01*
X298340Y90612D02*
X300006D01*
X303338Y91445D02*
X304171D01*
Y90612D01*
X303338D01*
Y91445D01*
Y88946D02*
X304171D01*
Y88113D01*
X303338D01*
Y88946D01*
X307504Y87279D02*
X310836D01*
X312502Y92278D02*
X313335Y93111D01*
X315001D01*
X315834Y92278D01*
Y91445D01*
X315001Y90612D01*
X314168D01*
X315001D01*
X315834Y89779D01*
Y88946D01*
X315001Y88113D01*
X313335D01*
X312502Y88946D01*
X317500Y88113D02*
Y88946D01*
X318333D01*
Y88113D01*
X317500D01*
X321666Y92278D02*
X322499Y93111D01*
X324165D01*
X324998Y92278D01*
Y88946D01*
X324165Y88113D01*
X322499D01*
X321666Y88946D01*
Y92278D01*
X326664Y87279D02*
X329996D01*
X331662Y88113D02*
Y93111D01*
X333329Y91445D01*
X334995Y93111D01*
Y88113D01*
X336661D02*
Y93111D01*
X338327Y91445D01*
X339993Y93111D01*
Y88113D01*
X342492Y87279D02*
X343325Y88113D01*
Y88946D01*
X342492D01*
Y88113D01*
X343325D01*
X342492Y87279D01*
X341659Y86446D01*
X346657Y87279D02*
X349990D01*
X351656Y93111D02*
X354988D01*
X353322D01*
Y88113D01*
X359153Y93111D02*
X357487D01*
X356654Y92278D01*
Y88946D01*
X357487Y88113D01*
X359153D01*
X359986Y88946D01*
Y92278D01*
X359153Y93111D01*
X361653D02*
Y88113D01*
X364985D01*
X369983Y93111D02*
X366651D01*
Y88113D01*
X369983D01*
X366651Y90612D02*
X368317D01*
X371649Y88113D02*
Y93111D01*
X374149D01*
X374982Y92278D01*
Y90612D01*
X374149Y89779D01*
X371649D01*
X373316D02*
X374982Y88113D01*
X376648D02*
Y91445D01*
X378314Y93111D01*
X379980Y91445D01*
Y88113D01*
Y90612D01*
X376648D01*
X381646Y88113D02*
Y93111D01*
X384978Y88113D01*
Y93111D01*
X389977Y92278D02*
X389144Y93111D01*
X387478D01*
X386645Y92278D01*
Y88946D01*
X387478Y88113D01*
X389144D01*
X389977Y88946D01*
X394975Y93111D02*
X391643D01*
Y88113D01*
X394975D01*
X391643Y90612D02*
X393309D01*
X396641Y91445D02*
X397474D01*
Y90612D01*
X396641D01*
Y91445D01*
Y88946D02*
X397474D01*
Y88113D01*
X396641D01*
Y88946D01*
X400807Y87279D02*
X404139D01*
X405805Y90612D02*
X409137D01*
X407471Y92278D02*
Y88946D01*
X410803Y92278D02*
X411636Y93111D01*
X413303D01*
X414136Y92278D01*
Y88946D01*
X413303Y88113D01*
X411636D01*
X410803Y88946D01*
Y92278D01*
X415802Y88113D02*
Y88946D01*
X416635D01*
Y88113D01*
X415802D01*
X419967Y92278D02*
X420800Y93111D01*
X422466D01*
X423299Y92278D01*
Y88946D01*
X422466Y88113D01*
X420800D01*
X419967Y88946D01*
Y92278D01*
X428298Y93111D02*
X424965D01*
Y90612D01*
X426632Y91445D01*
X427465D01*
X428298Y90612D01*
Y88946D01*
X427465Y88113D01*
X425799D01*
X424965Y88946D01*
X429964Y88113D02*
X433296Y91445D01*
X434962Y90612D02*
X438295D01*
X439961Y92278D02*
X440794Y93111D01*
X442460D01*
X443293Y92278D01*
Y88946D01*
X442460Y88113D01*
X440794D01*
X439961Y88946D01*
Y92278D01*
X444959Y88113D02*
Y88946D01*
X445792D01*
Y88113D01*
X444959D01*
X449124Y92278D02*
X449957Y93111D01*
X451623D01*
X452457Y92278D01*
Y88946D01*
X451623Y88113D01*
X449957D01*
X449124Y88946D01*
Y92278D01*
X457455Y93111D02*
X454123D01*
Y90612D01*
X455789Y91445D01*
X456622D01*
X457455Y90612D01*
Y88946D01*
X456622Y88113D01*
X454956D01*
X454123Y88946D01*
X250501Y87325D02*
Y92324D01*
X253000D01*
X253833Y91491D01*
Y89824D01*
X253000Y88991D01*
X250501D01*
X255499Y92324D02*
X258832D01*
X257166D01*
Y87325D01*
X260498Y92324D02*
Y87325D01*
Y89824D01*
X263830D01*
Y92324D01*
Y87325D01*
X265496Y86492D02*
X268829D01*
X270495Y92324D02*
Y87325D01*
X272994D01*
X273827Y88158D01*
Y91491D01*
X272994Y92324D01*
X270495D01*
X275493Y87325D02*
Y92324D01*
X277992D01*
X278825Y91491D01*
Y89824D01*
X277992Y88991D01*
X275493D01*
X277159D02*
X278825Y87325D01*
X280491Y92324D02*
X282157D01*
X281324D01*
Y87325D01*
X280491D01*
X282157D01*
X284657Y92324D02*
Y87325D01*
X287989D01*
X289655Y92324D02*
Y87325D01*
X292987D01*
X294653Y86492D02*
X297986D01*
X302984Y91491D02*
X302151Y92324D01*
X300485D01*
X299652Y91491D01*
Y90658D01*
X300485Y89824D01*
X302151D01*
X302984Y88991D01*
Y88158D01*
X302151Y87325D01*
X300485D01*
X299652Y88158D01*
X304650Y92324D02*
X306316D01*
X305483D01*
Y87325D01*
X304650D01*
X306316D01*
X308816Y92324D02*
X312148D01*
Y91491D01*
X308816Y88158D01*
Y87325D01*
X312148D01*
X317146Y92324D02*
X313814D01*
Y87325D01*
X317146D01*
X313814Y89824D02*
X315480D01*
X318812Y90658D02*
X319645D01*
Y89824D01*
X318812D01*
Y90658D01*
Y88158D02*
X319645D01*
Y87325D01*
X318812D01*
Y88158D01*
X322978Y86492D02*
X326310D01*
X327976Y87325D02*
X329642D01*
X328809D01*
Y92324D01*
X327976Y91491D01*
X332141Y87325D02*
Y88158D01*
X332974D01*
Y87325D01*
X332141D01*
X336307Y91491D02*
X337140Y92324D01*
X338806D01*
X339639Y91491D01*
Y88158D01*
X338806Y87325D01*
X337140D01*
X336307Y88158D01*
Y91491D01*
X344637Y87325D02*
X341305D01*
X344637Y90658D01*
Y91491D01*
X343804Y92324D01*
X342138D01*
X341305Y91491D01*
X346303Y86492D02*
X349636D01*
X351302Y87325D02*
Y92324D01*
X352968Y90658D01*
X354634Y92324D01*
Y87325D01*
X356300D02*
Y92324D01*
X357966Y90658D01*
X359632Y92324D01*
Y87325D01*
X362132Y86492D02*
X362965Y87325D01*
Y88158D01*
X362132D01*
Y87325D01*
X362965D01*
X362132Y86492D01*
X361298Y85659D01*
X366297Y86492D02*
X369629D01*
X371295Y92324D02*
X374627D01*
X372961D01*
Y87325D01*
X378793Y92324D02*
X377127D01*
X376294Y91491D01*
Y88158D01*
X377127Y87325D01*
X378793D01*
X379626Y88158D01*
Y91491D01*
X378793Y92324D01*
X381292D02*
Y87325D01*
X384624D01*
X389623Y92324D02*
X386290D01*
Y87325D01*
X389623D01*
X386290Y89824D02*
X387957D01*
X391289Y87325D02*
Y92324D01*
X393788D01*
X394621Y91491D01*
Y89824D01*
X393788Y88991D01*
X391289D01*
X392955D02*
X394621Y87325D01*
X396287D02*
Y90658D01*
X397953Y92324D01*
X399619Y90658D01*
Y87325D01*
Y89824D01*
X396287D01*
X401286Y87325D02*
Y92324D01*
X404618Y87325D01*
Y92324D01*
X409616Y91491D02*
X408783Y92324D01*
X407117D01*
X406284Y91491D01*
Y88158D01*
X407117Y87325D01*
X408783D01*
X409616Y88158D01*
X414614Y92324D02*
X411282D01*
Y87325D01*
X414614D01*
X411282Y89824D02*
X412948D01*
X416281Y90658D02*
X417114D01*
Y89824D01*
X416281D01*
Y90658D01*
Y88158D02*
X417114D01*
Y87325D01*
X416281D01*
Y88158D01*
X420446Y86492D02*
X423778D01*
X425444Y89824D02*
X428777D01*
X427110Y91491D02*
Y88158D01*
X430443Y91491D02*
X431276Y92324D01*
X432942D01*
X433775Y91491D01*
Y88158D01*
X432942Y87325D01*
X431276D01*
X430443Y88158D01*
Y91491D01*
X435441Y87325D02*
Y88158D01*
X436274D01*
Y87325D01*
X435441D01*
X439607Y91491D02*
X440440Y92324D01*
X442106D01*
X442939Y91491D01*
Y88158D01*
X442106Y87325D01*
X440440D01*
X439607Y88158D01*
Y91491D01*
X447937Y92324D02*
X444605D01*
Y89824D01*
X446271Y90658D01*
X447104D01*
X447937Y89824D01*
Y88158D01*
X447104Y87325D01*
X445438D01*
X444605Y88158D01*
X449603Y87325D02*
X452936Y90658D01*
X454602Y89824D02*
X457934D01*
X459600Y91491D02*
X460433Y92324D01*
X462099D01*
X462932Y91491D01*
Y88158D01*
X462099Y87325D01*
X460433D01*
X459600Y88158D01*
Y91491D01*
X464598Y87325D02*
Y88158D01*
X465431D01*
Y87325D01*
X464598D01*
X468764Y91491D02*
X469597Y92324D01*
X471263D01*
X472096Y91491D01*
Y88158D01*
X471263Y87325D01*
X469597D01*
X468764Y88158D01*
Y91491D01*
X477094Y92324D02*
X473762D01*
Y89824D01*
X475428Y90658D01*
X476261D01*
X477094Y89824D01*
Y88158D01*
X476261Y87325D01*
X474595D01*
X473762Y88158D01*
X216464Y118821D02*
Y123820D01*
X219796Y118821D01*
Y123820D01*
X221462Y118821D02*
Y123820D01*
X223961D01*
X224795Y122987D01*
Y121320D01*
X223961Y120487D01*
X221462D01*
X226461Y123820D02*
X229793D01*
X228127D01*
Y118821D01*
X231459Y123820D02*
Y118821D01*
Y121320D01*
X234791D01*
Y123820D01*
Y118821D01*
X236457Y117988D02*
X239790D01*
X241456Y123820D02*
Y118821D01*
X243955D01*
X244788Y119654D01*
Y122987D01*
X243955Y123820D01*
X241456D01*
X246454Y118821D02*
Y123820D01*
X248953D01*
X249786Y122987D01*
Y121320D01*
X248953Y120487D01*
X246454D01*
X248120D02*
X249786Y118821D01*
X251452Y123820D02*
X253119D01*
X252286D01*
Y118821D01*
X251452D01*
X253119D01*
X255618Y123820D02*
Y118821D01*
X258950D01*
X260616Y123820D02*
Y118821D01*
X263948D01*
X265615Y117988D02*
X268947D01*
X273945Y122987D02*
X273112Y123820D01*
X271446D01*
X270613Y122987D01*
Y122153D01*
X271446Y121320D01*
X273112D01*
X273945Y120487D01*
Y119654D01*
X273112Y118821D01*
X271446D01*
X270613Y119654D01*
X275611Y123820D02*
X277277D01*
X276444D01*
Y118821D01*
X275611D01*
X277277D01*
X279777Y123820D02*
X283109D01*
Y122987D01*
X279777Y119654D01*
Y118821D01*
X283109D01*
X288107Y123820D02*
X284775D01*
Y118821D01*
X288107D01*
X284775Y121320D02*
X286441D01*
X289773Y122153D02*
X290606D01*
Y121320D01*
X289773D01*
Y122153D01*
Y119654D02*
X290606D01*
Y118821D01*
X289773D01*
Y119654D01*
X293939Y117988D02*
X297271D01*
X298937Y122987D02*
X299770Y123820D01*
X301436D01*
X302269Y122987D01*
Y122153D01*
X301436Y121320D01*
X300603D01*
X301436D01*
X302269Y120487D01*
Y119654D01*
X301436Y118821D01*
X299770D01*
X298937Y119654D01*
X303936Y118821D02*
Y119654D01*
X304769D01*
Y118821D01*
X303936D01*
X308101Y122987D02*
X308934Y123820D01*
X310600D01*
X311433Y122987D01*
Y119654D01*
X310600Y118821D01*
X308934D01*
X308101Y119654D01*
Y122987D01*
X313099Y117988D02*
X316431D01*
X318098Y118821D02*
Y123820D01*
X319764Y122153D01*
X321430Y123820D01*
Y118821D01*
X323096D02*
Y123820D01*
X324762Y122153D01*
X326428Y123820D01*
Y118821D01*
X328927Y117988D02*
X329761Y118821D01*
Y119654D01*
X328927D01*
Y118821D01*
X329761D01*
X328927Y117988D01*
X328094Y117155D01*
X333093Y117988D02*
X336425D01*
X338091Y123820D02*
X341423D01*
X339757D01*
Y118821D01*
X345589Y123820D02*
X343922D01*
X343090Y122987D01*
Y119654D01*
X343922Y118821D01*
X345589D01*
X346422Y119654D01*
Y122987D01*
X345589Y123820D01*
X348088D02*
Y118821D01*
X351420D01*
X356418Y123820D02*
X353086D01*
Y118821D01*
X356418D01*
X353086Y121320D02*
X354752D01*
X358085Y118821D02*
Y123820D01*
X360584D01*
X361417Y122987D01*
Y121320D01*
X360584Y120487D01*
X358085D01*
X359751D02*
X361417Y118821D01*
X363083D02*
Y122153D01*
X364749Y123820D01*
X366415Y122153D01*
Y118821D01*
Y121320D01*
X363083D01*
X368081Y118821D02*
Y123820D01*
X371414Y118821D01*
Y123820D01*
X376412Y122987D02*
X375579Y123820D01*
X373913D01*
X373080Y122987D01*
Y119654D01*
X373913Y118821D01*
X375579D01*
X376412Y119654D01*
X381410Y123820D02*
X378078D01*
Y118821D01*
X381410D01*
X378078Y121320D02*
X379744D01*
X383077Y122153D02*
X383910D01*
Y121320D01*
X383077D01*
Y122153D01*
Y119654D02*
X383910D01*
Y118821D01*
X383077D01*
Y119654D01*
X387242Y117988D02*
X390574D01*
X392240Y121320D02*
X395572D01*
X393906Y122987D02*
Y119654D01*
X397239Y122987D02*
X398072Y123820D01*
X399738D01*
X400571Y122987D01*
Y119654D01*
X399738Y118821D01*
X398072D01*
X397239Y119654D01*
Y122987D01*
X402237Y118821D02*
Y119654D01*
X403070D01*
Y118821D01*
X402237D01*
X406402Y122987D02*
X407235Y123820D01*
X408902D01*
X409735Y122987D01*
Y119654D01*
X408902Y118821D01*
X407235D01*
X406402Y119654D01*
Y122987D01*
X414733Y123820D02*
X411401D01*
Y121320D01*
X413067Y122153D01*
X413900D01*
X414733Y121320D01*
Y119654D01*
X413900Y118821D01*
X412234D01*
X411401Y119654D01*
X416399Y118821D02*
X419731Y122153D01*
X421397Y121320D02*
X424730D01*
X426396Y122987D02*
X427229Y123820D01*
X428895D01*
X429728Y122987D01*
Y119654D01*
X428895Y118821D01*
X427229D01*
X426396Y119654D01*
Y122987D01*
X431394Y118821D02*
Y119654D01*
X432227D01*
Y118821D01*
X431394D01*
X435560Y122987D02*
X436393Y123820D01*
X438059D01*
X438892Y122987D01*
Y119654D01*
X438059Y118821D01*
X436393D01*
X435560Y119654D01*
Y122987D01*
X443890Y123820D02*
X440558D01*
Y121320D01*
X442224Y122153D01*
X443057D01*
X443890Y121320D01*
Y119654D01*
X443057Y118821D01*
X441391D01*
X440558Y119654D01*
X225913Y94018D02*
Y99016D01*
X228412D01*
X229245Y98183D01*
Y96517D01*
X228412Y95684D01*
X225913D01*
X230911Y99016D02*
X234243D01*
X232577D01*
Y94018D01*
X235909Y99016D02*
Y94018D01*
Y96517D01*
X239242D01*
Y99016D01*
Y94018D01*
X240908Y93185D02*
X244240D01*
X245906Y99016D02*
Y94018D01*
X248405D01*
X249238Y94851D01*
Y98183D01*
X248405Y99016D01*
X245906D01*
X250905Y94018D02*
Y99016D01*
X253404D01*
X254237Y98183D01*
Y96517D01*
X253404Y95684D01*
X250905D01*
X252571D02*
X254237Y94018D01*
X255903Y99016D02*
X257569D01*
X256736D01*
Y94018D01*
X255903D01*
X257569D01*
X260068Y99016D02*
Y94018D01*
X263401D01*
X265067Y99016D02*
Y94018D01*
X268399D01*
X270065Y93185D02*
X273397D01*
X278396Y98183D02*
X277563Y99016D01*
X275897D01*
X275063Y98183D01*
Y97350D01*
X275897Y96517D01*
X277563D01*
X278396Y95684D01*
Y94851D01*
X277563Y94018D01*
X275897D01*
X275063Y94851D01*
X280062Y99016D02*
X281728D01*
X280895D01*
Y94018D01*
X280062D01*
X281728D01*
X284227Y99016D02*
X287559D01*
Y98183D01*
X284227Y94851D01*
Y94018D01*
X287559D01*
X292558Y99016D02*
X289226D01*
Y94018D01*
X292558D01*
X289226Y96517D02*
X290892D01*
X294224Y97350D02*
X295057D01*
Y96517D01*
X294224D01*
Y97350D01*
Y94851D02*
X295057D01*
Y94018D01*
X294224D01*
Y94851D01*
X298389Y93185D02*
X301721D01*
X303388Y94018D02*
X305054D01*
X304221D01*
Y99016D01*
X303388Y98183D01*
X307553Y94018D02*
Y94851D01*
X308386D01*
Y94018D01*
X307553D01*
X311718Y98183D02*
X312551Y99016D01*
X314217D01*
X315051Y98183D01*
Y94851D01*
X314217Y94018D01*
X312551D01*
X311718Y94851D01*
Y98183D01*
X320049Y94018D02*
X316717D01*
X320049Y97350D01*
Y98183D01*
X319216Y99016D01*
X317550D01*
X316717Y98183D01*
X321715Y93185D02*
X325047D01*
X326713Y94018D02*
Y99016D01*
X328380Y97350D01*
X330046Y99016D01*
Y94018D01*
X331712D02*
Y99016D01*
X333378Y97350D01*
X335044Y99016D01*
Y94018D01*
X337543Y93185D02*
X338376Y94018D01*
Y94851D01*
X337543D01*
Y94018D01*
X338376D01*
X337543Y93185D01*
X336710Y92352D01*
X341708Y93185D02*
X345041D01*
X346707Y99016D02*
X350039D01*
X348373D01*
Y94018D01*
X354204Y99016D02*
X352538D01*
X351705Y98183D01*
Y94851D01*
X352538Y94018D01*
X354204D01*
X355037Y94851D01*
Y98183D01*
X354204Y99016D01*
X356704D02*
Y94018D01*
X360036D01*
X365034Y99016D02*
X361702D01*
Y94018D01*
X365034D01*
X361702Y96517D02*
X363368D01*
X366700Y94018D02*
Y99016D01*
X369200D01*
X370033Y98183D01*
Y96517D01*
X369200Y95684D01*
X366700D01*
X368367D02*
X370033Y94018D01*
X371699D02*
Y97350D01*
X373365Y99016D01*
X375031Y97350D01*
Y94018D01*
Y96517D01*
X371699D01*
X376697Y94018D02*
Y99016D01*
X380029Y94018D01*
Y99016D01*
X385028Y98183D02*
X384195Y99016D01*
X382529D01*
X381696Y98183D01*
Y94851D01*
X382529Y94018D01*
X384195D01*
X385028Y94851D01*
X390026Y99016D02*
X386694D01*
Y94018D01*
X390026D01*
X386694Y96517D02*
X388360D01*
X391692Y97350D02*
X392525D01*
Y96517D01*
X391692D01*
Y97350D01*
Y94851D02*
X392525D01*
Y94018D01*
X391692D01*
Y94851D01*
X395858Y93185D02*
X399190D01*
X400856Y96517D02*
X404188D01*
X402522Y98183D02*
Y94851D01*
X405854Y98183D02*
X406687Y99016D01*
X408354D01*
X409187Y98183D01*
Y94851D01*
X408354Y94018D01*
X406687D01*
X405854Y94851D01*
Y98183D01*
X410853Y94018D02*
Y94851D01*
X411686D01*
Y94018D01*
X410853D01*
X415018Y98183D02*
X415851Y99016D01*
X417517D01*
X418350Y98183D01*
Y94851D01*
X417517Y94018D01*
X415851D01*
X415018Y94851D01*
Y98183D01*
X423349Y99016D02*
X420016D01*
Y96517D01*
X421683Y97350D01*
X422516D01*
X423349Y96517D01*
Y94851D01*
X422516Y94018D01*
X420850D01*
X420016Y94851D01*
X425015Y94018D02*
X428347Y97350D01*
X430013Y96517D02*
X433345D01*
X435012Y98183D02*
X435845Y99016D01*
X437511D01*
X438344Y98183D01*
Y94851D01*
X437511Y94018D01*
X435845D01*
X435012Y94851D01*
Y98183D01*
X440010Y94018D02*
Y94851D01*
X440843D01*
Y94018D01*
X440010D01*
X444175Y98183D02*
X445008Y99016D01*
X446674D01*
X447507Y98183D01*
Y94851D01*
X446674Y94018D01*
X445008D01*
X444175Y94851D01*
Y98183D01*
X452506Y99016D02*
X449174D01*
Y96517D01*
X450840Y97350D01*
X451673D01*
X452506Y96517D01*
Y94851D01*
X451673Y94018D01*
X450007D01*
X449174Y94851D01*
X161560Y103861D02*
Y108859D01*
X164893Y103861D01*
Y108859D01*
X166559Y103861D02*
Y108859D01*
X169058D01*
X169891Y108026D01*
Y106360D01*
X169058Y105527D01*
X166559D01*
X171557Y108859D02*
X174890D01*
X173223D01*
Y103861D01*
X176556Y108859D02*
Y103861D01*
Y106360D01*
X179888D01*
Y108859D01*
Y103861D01*
X181554Y103028D02*
X184886D01*
X186552Y108859D02*
Y103861D01*
X189052D01*
X189885Y104694D01*
Y108026D01*
X189052Y108859D01*
X186552D01*
X191551Y103861D02*
Y108859D01*
X194050D01*
X194883Y108026D01*
Y106360D01*
X194050Y105527D01*
X191551D01*
X193217D02*
X194883Y103861D01*
X196549Y108859D02*
X198215D01*
X197382D01*
Y103861D01*
X196549D01*
X198215D01*
X200714Y108859D02*
Y103861D01*
X204047D01*
X205713Y108859D02*
Y103861D01*
X209045D01*
X210711Y103028D02*
X214043D01*
X219042Y108026D02*
X218209Y108859D01*
X216543D01*
X215710Y108026D01*
Y107193D01*
X216543Y106360D01*
X218209D01*
X219042Y105527D01*
Y104694D01*
X218209Y103861D01*
X216543D01*
X215710Y104694D01*
X220708Y108859D02*
X222374D01*
X221541D01*
Y103861D01*
X220708D01*
X222374D01*
X224873Y108859D02*
X228206D01*
Y108026D01*
X224873Y104694D01*
Y103861D01*
X228206D01*
X233204Y108859D02*
X229872D01*
Y103861D01*
X233204D01*
X229872Y106360D02*
X231538D01*
X234870Y107193D02*
X235703D01*
Y106360D01*
X234870D01*
Y107193D01*
Y104694D02*
X235703D01*
Y103861D01*
X234870D01*
Y104694D01*
X239035Y103028D02*
X242368D01*
X244034Y108026D02*
X244867Y108859D01*
X246533D01*
X247366Y108026D01*
Y107193D01*
X246533Y106360D01*
X245700D01*
X246533D01*
X247366Y105527D01*
Y104694D01*
X246533Y103861D01*
X244867D01*
X244034Y104694D01*
X249032Y103861D02*
Y104694D01*
X249865D01*
Y103861D01*
X249032D01*
X253198Y108026D02*
X254030Y108859D01*
X255697D01*
X256530Y108026D01*
Y104694D01*
X255697Y103861D01*
X254030D01*
X253198Y104694D01*
Y108026D01*
X258196Y103028D02*
X261528D01*
X263194Y103861D02*
Y108859D01*
X264860Y107193D01*
X266527Y108859D01*
Y103861D01*
X268193D02*
Y108859D01*
X269859Y107193D01*
X271525Y108859D01*
Y103861D01*
X274024Y103028D02*
X274857Y103861D01*
Y104694D01*
X274024D01*
Y103861D01*
X274857D01*
X274024Y103028D01*
X273191Y102194D01*
X278189Y103028D02*
X281522D01*
X283188Y108859D02*
X286520D01*
X284854D01*
Y103861D01*
X290685Y108859D02*
X289019D01*
X288186Y108026D01*
Y104694D01*
X289019Y103861D01*
X290685D01*
X291518Y104694D01*
Y108026D01*
X290685Y108859D01*
X293184D02*
Y103861D01*
X296517D01*
X301515Y108859D02*
X298183D01*
Y103861D01*
X301515D01*
X298183Y106360D02*
X299849D01*
X303181Y103861D02*
Y108859D01*
X305680D01*
X306514Y108026D01*
Y106360D01*
X305680Y105527D01*
X303181D01*
X304847D02*
X306514Y103861D01*
X308180D02*
Y107193D01*
X309846Y108859D01*
X311512Y107193D01*
Y103861D01*
Y106360D01*
X308180D01*
X313178Y103861D02*
Y108859D01*
X316510Y103861D01*
Y108859D01*
X321509Y108026D02*
X320676Y108859D01*
X319009D01*
X318176Y108026D01*
Y104694D01*
X319009Y103861D01*
X320676D01*
X321509Y104694D01*
X326507Y108859D02*
X323175D01*
Y103861D01*
X326507D01*
X323175Y106360D02*
X324841D01*
X328173Y107193D02*
X329006D01*
Y106360D01*
X328173D01*
Y107193D01*
Y104694D02*
X329006D01*
Y103861D01*
X328173D01*
Y104694D01*
X332339Y103028D02*
X335671D01*
X337337Y106360D02*
X340669D01*
X339003Y108026D02*
Y104694D01*
X342335Y108026D02*
X343168Y108859D01*
X344834D01*
X345668Y108026D01*
Y104694D01*
X344834Y103861D01*
X343168D01*
X342335Y104694D01*
Y108026D01*
X347334Y103861D02*
Y104694D01*
X348167D01*
Y103861D01*
X347334D01*
X351499Y108026D02*
X352332Y108859D01*
X353998D01*
X354831Y108026D01*
Y104694D01*
X353998Y103861D01*
X352332D01*
X351499Y104694D01*
Y108026D01*
X359830Y108859D02*
X356497D01*
Y106360D01*
X358163Y107193D01*
X358997D01*
X359830Y106360D01*
Y104694D01*
X358997Y103861D01*
X357330D01*
X356497Y104694D01*
X361496Y103861D02*
X364828Y107193D01*
X366494Y106360D02*
X369826D01*
X371493Y108026D02*
X372325Y108859D01*
X373992D01*
X374825Y108026D01*
Y104694D01*
X373992Y103861D01*
X372325D01*
X371493Y104694D01*
Y108026D01*
X376491Y103861D02*
Y104694D01*
X377324D01*
Y103861D01*
X376491D01*
X380656Y108026D02*
X381489Y108859D01*
X383155D01*
X383988Y108026D01*
Y104694D01*
X383155Y103861D01*
X381489D01*
X380656Y104694D01*
Y108026D01*
X388987Y108859D02*
X385654D01*
Y106360D01*
X387321Y107193D01*
X388154D01*
X388987Y106360D01*
Y104694D01*
X388154Y103861D01*
X386488D01*
X385654Y104694D01*
X172978Y90081D02*
Y95079D01*
X175477D01*
X176310Y94246D01*
Y92580D01*
X175477Y91747D01*
X172978D01*
X177976Y95079D02*
X181308D01*
X179642D01*
Y90081D01*
X182975Y95079D02*
Y90081D01*
Y92580D01*
X186307D01*
Y95079D01*
Y90081D01*
X187973Y89248D02*
X191305D01*
X192971Y95079D02*
Y90081D01*
X195470D01*
X196304Y90914D01*
Y94246D01*
X195470Y95079D01*
X192971D01*
X197970Y90081D02*
Y95079D01*
X200469D01*
X201302Y94246D01*
Y92580D01*
X200469Y91747D01*
X197970D01*
X199636D02*
X201302Y90081D01*
X202968Y95079D02*
X204634D01*
X203801D01*
Y90081D01*
X202968D01*
X204634D01*
X207133Y95079D02*
Y90081D01*
X210466D01*
X212132Y95079D02*
Y90081D01*
X215464D01*
X217130Y89248D02*
X220462D01*
X225461Y94246D02*
X224628Y95079D01*
X222962D01*
X222129Y94246D01*
Y93413D01*
X222962Y92580D01*
X224628D01*
X225461Y91747D01*
Y90914D01*
X224628Y90081D01*
X222962D01*
X222129Y90914D01*
X227127Y95079D02*
X228793D01*
X227960D01*
Y90081D01*
X227127D01*
X228793D01*
X231292Y95079D02*
X234625D01*
Y94246D01*
X231292Y90914D01*
Y90081D01*
X234625D01*
X239623Y95079D02*
X236291D01*
Y90081D01*
X239623D01*
X236291Y92580D02*
X237957D01*
X241289Y93413D02*
X242122D01*
Y92580D01*
X241289D01*
Y93413D01*
Y90914D02*
X242122D01*
Y90081D01*
X241289D01*
Y90914D01*
X245454Y89248D02*
X248787D01*
X250453Y90081D02*
X252119D01*
X251286D01*
Y95079D01*
X250453Y94246D01*
X254618Y90081D02*
Y90914D01*
X255451D01*
Y90081D01*
X254618D01*
X258783Y94246D02*
X259616Y95079D01*
X261282D01*
X262116Y94246D01*
Y90914D01*
X261282Y90081D01*
X259616D01*
X258783Y90914D01*
Y94246D01*
X267114Y90081D02*
X263782D01*
X267114Y93413D01*
Y94246D01*
X266281Y95079D01*
X264615D01*
X263782Y94246D01*
X268780Y89248D02*
X272112D01*
X273779Y90081D02*
Y95079D01*
X275445Y93413D01*
X277111Y95079D01*
Y90081D01*
X278777D02*
Y95079D01*
X280443Y93413D01*
X282109Y95079D01*
Y90081D01*
X284608Y89248D02*
X285441Y90081D01*
Y90914D01*
X284608D01*
Y90081D01*
X285441D01*
X284608Y89248D01*
X283775Y88415D01*
X288774Y89248D02*
X292106D01*
X293772Y95079D02*
X297104D01*
X295438D01*
Y90081D01*
X301270Y95079D02*
X299603D01*
X298770Y94246D01*
Y90914D01*
X299603Y90081D01*
X301270D01*
X302103Y90914D01*
Y94246D01*
X301270Y95079D01*
X303769D02*
Y90081D01*
X307101D01*
X312099Y95079D02*
X308767D01*
Y90081D01*
X312099D01*
X308767Y92580D02*
X310433D01*
X313766Y90081D02*
Y95079D01*
X316265D01*
X317098Y94246D01*
Y92580D01*
X316265Y91747D01*
X313766D01*
X315432D02*
X317098Y90081D01*
X318764D02*
Y93413D01*
X320430Y95079D01*
X322096Y93413D01*
Y90081D01*
Y92580D01*
X318764D01*
X323762Y90081D02*
Y95079D01*
X327095Y90081D01*
Y95079D01*
X332093Y94246D02*
X331260Y95079D01*
X329594D01*
X328761Y94246D01*
Y90914D01*
X329594Y90081D01*
X331260D01*
X332093Y90914D01*
X337091Y95079D02*
X333759D01*
Y90081D01*
X337091D01*
X333759Y92580D02*
X335425D01*
X338757Y93413D02*
X339591D01*
Y92580D01*
X338757D01*
Y93413D01*
Y90914D02*
X339591D01*
Y90081D01*
X338757D01*
Y90914D01*
X342923Y89248D02*
X346255D01*
X347921Y92580D02*
X351253D01*
X349587Y94246D02*
Y90914D01*
X352920Y94246D02*
X353753Y95079D01*
X355419D01*
X356252Y94246D01*
Y90914D01*
X355419Y90081D01*
X353753D01*
X352920Y90914D01*
Y94246D01*
X357918Y90081D02*
Y90914D01*
X358751D01*
Y90081D01*
X357918D01*
X362083Y94246D02*
X362916Y95079D01*
X364582D01*
X365416Y94246D01*
Y90914D01*
X364582Y90081D01*
X362916D01*
X362083Y90914D01*
Y94246D01*
X370414Y95079D02*
X367082D01*
Y92580D01*
X368748Y93413D01*
X369581D01*
X370414Y92580D01*
Y90914D01*
X369581Y90081D01*
X367915D01*
X367082Y90914D01*
X372080Y90081D02*
X375412Y93413D01*
X377078Y92580D02*
X380411D01*
X382077Y94246D02*
X382910Y95079D01*
X384576D01*
X385409Y94246D01*
Y90914D01*
X384576Y90081D01*
X382910D01*
X382077Y90914D01*
Y94246D01*
X387075Y90081D02*
Y90914D01*
X387908D01*
Y90081D01*
X387075D01*
X391240Y94246D02*
X392073Y95079D01*
X393740D01*
X394573Y94246D01*
Y90914D01*
X393740Y90081D01*
X392073D01*
X391240Y90914D01*
Y94246D01*
X399571Y95079D02*
X396239D01*
Y92580D01*
X397905Y93413D01*
X398738D01*
X399571Y92580D01*
Y90914D01*
X398738Y90081D01*
X397072D01*
X396239Y90914D01*
X125949Y90869D02*
Y95867D01*
X129281Y90869D01*
Y95867D01*
X130947Y90869D02*
Y95867D01*
X133446D01*
X134279Y95034D01*
Y93368D01*
X133446Y92535D01*
X130947D01*
X135945Y95867D02*
X139278D01*
X137611D01*
Y90869D01*
X140944Y95867D02*
Y90869D01*
Y93368D01*
X144276D01*
Y95867D01*
Y90869D01*
X145942Y90035D02*
X149274D01*
X150940Y95867D02*
Y90869D01*
X153440D01*
X154273Y91702D01*
Y95034D01*
X153440Y95867D01*
X150940D01*
X155939Y90869D02*
Y95867D01*
X158438D01*
X159271Y95034D01*
Y93368D01*
X158438Y92535D01*
X155939D01*
X157605D02*
X159271Y90869D01*
X160937Y95867D02*
X162603D01*
X161770D01*
Y90869D01*
X160937D01*
X162603D01*
X165102Y95867D02*
Y90869D01*
X168435D01*
X170101Y95867D02*
Y90869D01*
X173433D01*
X175099Y90035D02*
X178431D01*
X183430Y95034D02*
X182597Y95867D01*
X180931D01*
X180098Y95034D01*
Y94201D01*
X180931Y93368D01*
X182597D01*
X183430Y92535D01*
Y91702D01*
X182597Y90869D01*
X180931D01*
X180098Y91702D01*
X185096Y95867D02*
X186762D01*
X185929D01*
Y90869D01*
X185096D01*
X186762D01*
X189261Y95867D02*
X192594D01*
Y95034D01*
X189261Y91702D01*
Y90869D01*
X192594D01*
X197592Y95867D02*
X194260D01*
Y90869D01*
X197592D01*
X194260Y93368D02*
X195926D01*
X199258Y94201D02*
X200091D01*
Y93368D01*
X199258D01*
Y94201D01*
Y91702D02*
X200091D01*
Y90869D01*
X199258D01*
Y91702D01*
X203423Y90035D02*
X206756D01*
X208422Y95034D02*
X209255Y95867D01*
X210921D01*
X211754Y95034D01*
Y94201D01*
X210921Y93368D01*
X210088D01*
X210921D01*
X211754Y92535D01*
Y91702D01*
X210921Y90869D01*
X209255D01*
X208422Y91702D01*
X213420Y90869D02*
Y91702D01*
X214253D01*
Y90869D01*
X213420D01*
X217585Y95034D02*
X218419Y95867D01*
X220085D01*
X220918Y95034D01*
Y91702D01*
X220085Y90869D01*
X218419D01*
X217585Y91702D01*
Y95034D01*
X222584Y90035D02*
X225916D01*
X227582Y90869D02*
Y95867D01*
X229248Y94201D01*
X230914Y95867D01*
Y90869D01*
X232581D02*
Y95867D01*
X234247Y94201D01*
X235913Y95867D01*
Y90869D01*
X238412Y90035D02*
X239245Y90869D01*
Y91702D01*
X238412D01*
Y90869D01*
X239245D01*
X238412Y90035D01*
X237579Y89202D01*
X242577Y90035D02*
X245910D01*
X247576Y95867D02*
X250908D01*
X249242D01*
Y90869D01*
X255073Y95867D02*
X253407D01*
X252574Y95034D01*
Y91702D01*
X253407Y90869D01*
X255073D01*
X255906Y91702D01*
Y95034D01*
X255073Y95867D01*
X257573D02*
Y90869D01*
X260905D01*
X265903Y95867D02*
X262571D01*
Y90869D01*
X265903D01*
X262571Y93368D02*
X264237D01*
X267569Y90869D02*
Y95867D01*
X270068D01*
X270901Y95034D01*
Y93368D01*
X270068Y92535D01*
X267569D01*
X269235D02*
X270901Y90869D01*
X272568D02*
Y94201D01*
X274234Y95867D01*
X275900Y94201D01*
Y90869D01*
Y93368D01*
X272568D01*
X277566Y90869D02*
Y95867D01*
X280898Y90869D01*
Y95867D01*
X285897Y95034D02*
X285064Y95867D01*
X283397D01*
X282564Y95034D01*
Y91702D01*
X283397Y90869D01*
X285064D01*
X285897Y91702D01*
X290895Y95867D02*
X287563D01*
Y90869D01*
X290895D01*
X287563Y93368D02*
X289229D01*
X292561Y94201D02*
X293394D01*
Y93368D01*
X292561D01*
Y94201D01*
Y91702D02*
X293394D01*
Y90869D01*
X292561D01*
Y91702D01*
X296726Y90035D02*
X300059D01*
X301725Y93368D02*
X305057D01*
X303391Y95034D02*
Y91702D01*
X306723Y95034D02*
X307556Y95867D01*
X309222D01*
X310055Y95034D01*
Y91702D01*
X309222Y90869D01*
X307556D01*
X306723Y91702D01*
Y95034D01*
X311722Y90869D02*
Y91702D01*
X312555D01*
Y90869D01*
X311722D01*
X315887Y95034D02*
X316720Y95867D01*
X318386D01*
X319219Y95034D01*
Y91702D01*
X318386Y90869D01*
X316720D01*
X315887Y91702D01*
Y95034D01*
X324218Y95867D02*
X320885D01*
Y93368D01*
X322551Y94201D01*
X323384D01*
X324218Y93368D01*
Y91702D01*
X323384Y90869D01*
X321718D01*
X320885Y91702D01*
X325884Y90869D02*
X329216Y94201D01*
X330882Y93368D02*
X334214D01*
X335880Y95034D02*
X336714Y95867D01*
X338380D01*
X339213Y95034D01*
Y91702D01*
X338380Y90869D01*
X336714D01*
X335880Y91702D01*
Y95034D01*
X340879Y90869D02*
Y91702D01*
X341712D01*
Y90869D01*
X340879D01*
X345044Y95034D02*
X345877Y95867D01*
X347543D01*
X348376Y95034D01*
Y91702D01*
X347543Y90869D01*
X345877D01*
X345044Y91702D01*
Y95034D01*
X353375Y95867D02*
X350043D01*
Y93368D01*
X351709Y94201D01*
X352542D01*
X353375Y93368D01*
Y91702D01*
X352542Y90869D01*
X350876D01*
X350043Y91702D01*
X118074Y92837D02*
Y97835D01*
X120574D01*
X121407Y97002D01*
Y95336D01*
X120574Y94503D01*
X118074D01*
X123073Y97835D02*
X126405D01*
X124739D01*
Y92837D01*
X128071Y97835D02*
Y92837D01*
Y95336D01*
X131404D01*
Y97835D01*
Y92837D01*
X133070Y92004D02*
X136402D01*
X138068Y97835D02*
Y92837D01*
X140567D01*
X141400Y93670D01*
Y97002D01*
X140567Y97835D01*
X138068D01*
X143066Y92837D02*
Y97835D01*
X145565D01*
X146399Y97002D01*
Y95336D01*
X145565Y94503D01*
X143066D01*
X144732D02*
X146399Y92837D01*
X148065Y97835D02*
X149731D01*
X148898D01*
Y92837D01*
X148065D01*
X149731D01*
X152230Y97835D02*
Y92837D01*
X155562D01*
X157228Y97835D02*
Y92837D01*
X160561D01*
X162227Y92004D02*
X165559D01*
X170557Y97002D02*
X169724Y97835D01*
X168058D01*
X167225Y97002D01*
Y96169D01*
X168058Y95336D01*
X169724D01*
X170557Y94503D01*
Y93670D01*
X169724Y92837D01*
X168058D01*
X167225Y93670D01*
X172224Y97835D02*
X173890D01*
X173057D01*
Y92837D01*
X172224D01*
X173890D01*
X176389Y97835D02*
X179721D01*
Y97002D01*
X176389Y93670D01*
Y92837D01*
X179721D01*
X184720Y97835D02*
X181387D01*
Y92837D01*
X184720D01*
X181387Y95336D02*
X183053D01*
X186386Y96169D02*
X187219D01*
Y95336D01*
X186386D01*
Y96169D01*
Y93670D02*
X187219D01*
Y92837D01*
X186386D01*
Y93670D01*
X190551Y92004D02*
X193883D01*
X195549Y92837D02*
X197215D01*
X196382D01*
Y97835D01*
X195549Y97002D01*
X199715Y92837D02*
Y93670D01*
X200548D01*
Y92837D01*
X199715D01*
X203880Y97002D02*
X204713Y97835D01*
X206379D01*
X207212Y97002D01*
Y93670D01*
X206379Y92837D01*
X204713D01*
X203880Y93670D01*
Y97002D01*
X212211Y92837D02*
X208878D01*
X212211Y96169D01*
Y97002D01*
X211378Y97835D01*
X209711D01*
X208878Y97002D01*
X213877Y92004D02*
X217209D01*
X218875Y92837D02*
Y97835D01*
X220541Y96169D01*
X222207Y97835D01*
Y92837D01*
X223873D02*
Y97835D01*
X225540Y96169D01*
X227206Y97835D01*
Y92837D01*
X229705Y92004D02*
X230538Y92837D01*
Y93670D01*
X229705D01*
Y92837D01*
X230538D01*
X229705Y92004D01*
X228872Y91171D01*
X233870Y92004D02*
X237203D01*
X238869Y97835D02*
X242201D01*
X240535D01*
Y92837D01*
X246366Y97835D02*
X244700D01*
X243867Y97002D01*
Y93670D01*
X244700Y92837D01*
X246366D01*
X247199Y93670D01*
Y97002D01*
X246366Y97835D01*
X248865D02*
Y92837D01*
X252198D01*
X257196Y97835D02*
X253864D01*
Y92837D01*
X257196D01*
X253864Y95336D02*
X255530D01*
X258862Y92837D02*
Y97835D01*
X261361D01*
X262194Y97002D01*
Y95336D01*
X261361Y94503D01*
X258862D01*
X260528D02*
X262194Y92837D01*
X263861D02*
Y96169D01*
X265527Y97835D01*
X267193Y96169D01*
Y92837D01*
Y95336D01*
X263861D01*
X268859Y92837D02*
Y97835D01*
X272191Y92837D01*
Y97835D01*
X277190Y97002D02*
X276357Y97835D01*
X274690D01*
X273857Y97002D01*
Y93670D01*
X274690Y92837D01*
X276357D01*
X277190Y93670D01*
X282188Y97835D02*
X278856D01*
Y92837D01*
X282188D01*
X278856Y95336D02*
X280522D01*
X283854Y96169D02*
X284687D01*
Y95336D01*
X283854D01*
Y96169D01*
Y93670D02*
X284687D01*
Y92837D01*
X283854D01*
Y93670D01*
X288019Y92004D02*
X291352D01*
X293018Y95336D02*
X296350D01*
X294684Y97002D02*
Y93670D01*
X298016Y97002D02*
X298849Y97835D01*
X300515D01*
X301348Y97002D01*
Y93670D01*
X300515Y92837D01*
X298849D01*
X298016Y93670D01*
Y97002D01*
X303014Y92837D02*
Y93670D01*
X303848D01*
Y92837D01*
X303014D01*
X307180Y97002D02*
X308013Y97835D01*
X309679D01*
X310512Y97002D01*
Y93670D01*
X309679Y92837D01*
X308013D01*
X307180Y93670D01*
Y97002D01*
X315511Y97835D02*
X312178D01*
Y95336D01*
X313844Y96169D01*
X314677D01*
X315511Y95336D01*
Y93670D01*
X314677Y92837D01*
X313011D01*
X312178Y93670D01*
X317177Y92837D02*
X320509Y96169D01*
X322175Y95336D02*
X325507D01*
X327173Y97002D02*
X328006Y97835D01*
X329673D01*
X330506Y97002D01*
Y93670D01*
X329673Y92837D01*
X328006D01*
X327173Y93670D01*
Y97002D01*
X332172Y92837D02*
Y93670D01*
X333005D01*
Y92837D01*
X332172D01*
X336337Y97002D02*
X337170Y97835D01*
X338836D01*
X339669Y97002D01*
Y93670D01*
X338836Y92837D01*
X337170D01*
X336337Y93670D01*
Y97002D01*
X344668Y97835D02*
X341335D01*
Y95336D01*
X343002Y96169D01*
X343835D01*
X344668Y95336D01*
Y93670D01*
X343835Y92837D01*
X342168D01*
X341335Y93670D01*
X52541Y84176D02*
Y89174D01*
X55873Y84176D01*
Y89174D01*
X57539Y84176D02*
Y89174D01*
X60039D01*
X60872Y88341D01*
Y86675D01*
X60039Y85842D01*
X57539D01*
X62538Y89174D02*
X65870D01*
X64204D01*
Y84176D01*
X67536Y89174D02*
Y84176D01*
Y86675D01*
X70869D01*
Y89174D01*
Y84176D01*
X72535Y83342D02*
X75867D01*
X77533Y89174D02*
Y84176D01*
X80032D01*
X80865Y85009D01*
Y88341D01*
X80032Y89174D01*
X77533D01*
X82531Y84176D02*
Y89174D01*
X85031D01*
X85864Y88341D01*
Y86675D01*
X85031Y85842D01*
X82531D01*
X84198D02*
X85864Y84176D01*
X87530Y89174D02*
X89196D01*
X88363D01*
Y84176D01*
X87530D01*
X89196D01*
X91695Y89174D02*
Y84176D01*
X95027D01*
X96693Y89174D02*
Y84176D01*
X100026D01*
X101692Y83342D02*
X105024D01*
X110022Y88341D02*
X109189Y89174D01*
X107523D01*
X106690Y88341D01*
Y87508D01*
X107523Y86675D01*
X109189D01*
X110022Y85842D01*
Y85009D01*
X109189Y84176D01*
X107523D01*
X106690Y85009D01*
X111689Y89174D02*
X113355D01*
X112522D01*
Y84176D01*
X111689D01*
X113355D01*
X115854Y89174D02*
X119186D01*
Y88341D01*
X115854Y85009D01*
Y84176D01*
X119186D01*
X124185Y89174D02*
X120852D01*
Y84176D01*
X124185D01*
X120852Y86675D02*
X122519D01*
X125851Y87508D02*
X126684D01*
Y86675D01*
X125851D01*
Y87508D01*
Y85009D02*
X126684D01*
Y84176D01*
X125851D01*
Y85009D01*
X130016Y83342D02*
X133348D01*
X135014Y88341D02*
X135847Y89174D01*
X137514D01*
X138347Y88341D01*
Y87508D01*
X137514Y86675D01*
X136681D01*
X137514D01*
X138347Y85842D01*
Y85009D01*
X137514Y84176D01*
X135847D01*
X135014Y85009D01*
X140013Y84176D02*
Y85009D01*
X140846D01*
Y84176D01*
X140013D01*
X144178Y88341D02*
X145011Y89174D01*
X146677D01*
X147510Y88341D01*
Y85009D01*
X146677Y84176D01*
X145011D01*
X144178Y85009D01*
Y88341D01*
X149177Y83342D02*
X152509D01*
X154175Y84176D02*
Y89174D01*
X155841Y87508D01*
X157507Y89174D01*
Y84176D01*
X159173D02*
Y89174D01*
X160839Y87508D01*
X162505Y89174D01*
Y84176D01*
X165005Y83342D02*
X165838Y84176D01*
Y85009D01*
X165005D01*
Y84176D01*
X165838D01*
X165005Y83342D01*
X164172Y82509D01*
X169170Y83342D02*
X172502D01*
X174168Y89174D02*
X177501D01*
X175835D01*
Y84176D01*
X181666Y89174D02*
X180000D01*
X179167Y88341D01*
Y85009D01*
X180000Y84176D01*
X181666D01*
X182499Y85009D01*
Y88341D01*
X181666Y89174D01*
X184165D02*
Y84176D01*
X187497D01*
X192496Y89174D02*
X189164D01*
Y84176D01*
X192496D01*
X189164Y86675D02*
X190830D01*
X194162Y84176D02*
Y89174D01*
X196661D01*
X197494Y88341D01*
Y86675D01*
X196661Y85842D01*
X194162D01*
X195828D02*
X197494Y84176D01*
X199160D02*
Y87508D01*
X200826Y89174D01*
X202493Y87508D01*
Y84176D01*
Y86675D01*
X199160D01*
X204159Y84176D02*
Y89174D01*
X207491Y84176D01*
Y89174D01*
X212489Y88341D02*
X211656Y89174D01*
X209990D01*
X209157Y88341D01*
Y85009D01*
X209990Y84176D01*
X211656D01*
X212489Y85009D01*
X217488Y89174D02*
X214156D01*
Y84176D01*
X217488D01*
X214156Y86675D02*
X215822D01*
X219154Y87508D02*
X219987D01*
Y86675D01*
X219154D01*
Y87508D01*
Y85009D02*
X219987D01*
Y84176D01*
X219154D01*
Y85009D01*
X223319Y83342D02*
X226651D01*
X228317Y86675D02*
X231650D01*
X229984Y88341D02*
Y85009D01*
X233316Y88341D02*
X234149Y89174D01*
X235815D01*
X236648Y88341D01*
Y85009D01*
X235815Y84176D01*
X234149D01*
X233316Y85009D01*
Y88341D01*
X238314Y84176D02*
Y85009D01*
X239147D01*
Y84176D01*
X238314D01*
X242480Y88341D02*
X243313Y89174D01*
X244979D01*
X245812Y88341D01*
Y85009D01*
X244979Y84176D01*
X243313D01*
X242480Y85009D01*
Y88341D01*
X250810Y89174D02*
X247478D01*
Y86675D01*
X249144Y87508D01*
X249977D01*
X250810Y86675D01*
Y85009D01*
X249977Y84176D01*
X248311D01*
X247478Y85009D01*
X252476Y84176D02*
X255809Y87508D01*
X257475Y86675D02*
X260807D01*
X262473Y88341D02*
X263306Y89174D01*
X264972D01*
X265805Y88341D01*
Y85009D01*
X264972Y84176D01*
X263306D01*
X262473Y85009D01*
Y88341D01*
X267472Y84176D02*
Y85009D01*
X268305D01*
Y84176D01*
X267472D01*
X271637Y88341D02*
X272470Y89174D01*
X274136D01*
X274969Y88341D01*
Y85009D01*
X274136Y84176D01*
X272470D01*
X271637Y85009D01*
Y88341D01*
X279967Y89174D02*
X276635D01*
Y86675D01*
X278301Y87508D01*
X279134D01*
X279967Y86675D01*
Y85009D01*
X279134Y84176D01*
X277468D01*
X276635Y85009D01*
X71439Y102286D02*
Y107284D01*
X73938D01*
X74771Y106451D01*
Y104785D01*
X73938Y103952D01*
X71439D01*
X76437Y107284D02*
X79769D01*
X78103D01*
Y102286D01*
X81436Y107284D02*
Y102286D01*
Y104785D01*
X84768D01*
Y107284D01*
Y102286D01*
X86434Y101453D02*
X89766D01*
X91432Y107284D02*
Y102286D01*
X93932D01*
X94765Y103119D01*
Y106451D01*
X93932Y107284D01*
X91432D01*
X96431Y102286D02*
Y107284D01*
X98930D01*
X99763Y106451D01*
Y104785D01*
X98930Y103952D01*
X96431D01*
X98097D02*
X99763Y102286D01*
X101429Y107284D02*
X103095D01*
X102262D01*
Y102286D01*
X101429D01*
X103095D01*
X105594Y107284D02*
Y102286D01*
X108927D01*
X110593Y107284D02*
Y102286D01*
X113925D01*
X115591Y101453D02*
X118923D01*
X123922Y106451D02*
X123089Y107284D01*
X121423D01*
X120589Y106451D01*
Y105618D01*
X121423Y104785D01*
X123089D01*
X123922Y103952D01*
Y103119D01*
X123089Y102286D01*
X121423D01*
X120589Y103119D01*
X125588Y107284D02*
X127254D01*
X126421D01*
Y102286D01*
X125588D01*
X127254D01*
X129753Y107284D02*
X133086D01*
Y106451D01*
X129753Y103119D01*
Y102286D01*
X133086D01*
X138084Y107284D02*
X134752D01*
Y102286D01*
X138084D01*
X134752Y104785D02*
X136418D01*
X139750Y105618D02*
X140583D01*
Y104785D01*
X139750D01*
Y105618D01*
Y103119D02*
X140583D01*
Y102286D01*
X139750D01*
Y103119D01*
X143915Y101453D02*
X147248D01*
X148914Y102286D02*
X150580D01*
X149747D01*
Y107284D01*
X148914Y106451D01*
X153079Y102286D02*
Y103119D01*
X153912D01*
Y102286D01*
X153079D01*
X157244Y106451D02*
X158077Y107284D01*
X159743D01*
X160577Y106451D01*
Y103119D01*
X159743Y102286D01*
X158077D01*
X157244Y103119D01*
Y106451D01*
X165575Y102286D02*
X162243D01*
X165575Y105618D01*
Y106451D01*
X164742Y107284D01*
X163076D01*
X162243Y106451D01*
X167241Y101453D02*
X170573D01*
X172239Y102286D02*
Y107284D01*
X173906Y105618D01*
X175572Y107284D01*
Y102286D01*
X177238D02*
Y107284D01*
X178904Y105618D01*
X180570Y107284D01*
Y102286D01*
X183069Y101453D02*
X183902Y102286D01*
Y103119D01*
X183069D01*
Y102286D01*
X183902D01*
X183069Y101453D01*
X182236Y100620D01*
X187235Y101453D02*
X190567D01*
X192233Y107284D02*
X195565D01*
X193899D01*
Y102286D01*
X199731Y107284D02*
X198064D01*
X197231Y106451D01*
Y103119D01*
X198064Y102286D01*
X199731D01*
X200564Y103119D01*
Y106451D01*
X199731Y107284D01*
X202230D02*
Y102286D01*
X205562D01*
X210560Y107284D02*
X207228D01*
Y102286D01*
X210560D01*
X207228Y104785D02*
X208894D01*
X212227Y102286D02*
Y107284D01*
X214726D01*
X215559Y106451D01*
Y104785D01*
X214726Y103952D01*
X212227D01*
X213893D02*
X215559Y102286D01*
X217225D02*
Y105618D01*
X218891Y107284D01*
X220557Y105618D01*
Y102286D01*
Y104785D01*
X217225D01*
X222223Y102286D02*
Y107284D01*
X225555Y102286D01*
Y107284D01*
X230554Y106451D02*
X229721Y107284D01*
X228055D01*
X227222Y106451D01*
Y103119D01*
X228055Y102286D01*
X229721D01*
X230554Y103119D01*
X235552Y107284D02*
X232220D01*
Y102286D01*
X235552D01*
X232220Y104785D02*
X233886D01*
X237218Y105618D02*
X238052D01*
Y104785D01*
X237218D01*
Y105618D01*
Y103119D02*
X238052D01*
Y102286D01*
X237218D01*
Y103119D01*
X241384Y101453D02*
X244716D01*
X246382Y104785D02*
X249714D01*
X248048Y106451D02*
Y103119D01*
X251380Y106451D02*
X252214Y107284D01*
X253880D01*
X254713Y106451D01*
Y103119D01*
X253880Y102286D01*
X252214D01*
X251380Y103119D01*
Y106451D01*
X256379Y102286D02*
Y103119D01*
X257212D01*
Y102286D01*
X256379D01*
X260544Y106451D02*
X261377Y107284D01*
X263043D01*
X263877Y106451D01*
Y103119D01*
X263043Y102286D01*
X261377D01*
X260544Y103119D01*
Y106451D01*
X268875Y107284D02*
X265543D01*
Y104785D01*
X267209Y105618D01*
X268042D01*
X268875Y104785D01*
Y103119D01*
X268042Y102286D01*
X266376D01*
X265543Y103119D01*
X270541Y102286D02*
X273873Y105618D01*
X275539Y104785D02*
X278872D01*
X280538Y106451D02*
X281371Y107284D01*
X283037D01*
X283870Y106451D01*
Y103119D01*
X283037Y102286D01*
X281371D01*
X280538Y103119D01*
Y106451D01*
X285536Y102286D02*
Y103119D01*
X286369D01*
Y102286D01*
X285536D01*
X289701Y106451D02*
X290534Y107284D01*
X292201D01*
X293034Y106451D01*
Y103119D01*
X292201Y102286D01*
X290534D01*
X289701Y103119D01*
Y106451D01*
X298032Y107284D02*
X294700D01*
Y104785D01*
X296366Y105618D01*
X297199D01*
X298032Y104785D01*
Y103119D01*
X297199Y102286D01*
X295533D01*
X294700Y103119D01*
X20866Y88506D02*
Y93505D01*
X24198Y88506D01*
Y93505D01*
X25864Y88506D02*
Y93505D01*
X28364D01*
X29197Y92672D01*
Y91005D01*
X28364Y90172D01*
X25864D01*
X30863Y93505D02*
X34195D01*
X32529D01*
Y88506D01*
X35861Y93505D02*
Y88506D01*
Y91005D01*
X39193D01*
Y93505D01*
Y88506D01*
X40860Y87673D02*
X44192D01*
X45858Y93505D02*
Y88506D01*
X48357D01*
X49190Y89339D01*
Y92672D01*
X48357Y93505D01*
X45858D01*
X50856Y88506D02*
Y93505D01*
X53356D01*
X54189Y92672D01*
Y91005D01*
X53356Y90172D01*
X50856D01*
X52523D02*
X54189Y88506D01*
X55855Y93505D02*
X57521D01*
X56688D01*
Y88506D01*
X55855D01*
X57521D01*
X60020Y93505D02*
Y88506D01*
X63352D01*
X65018Y93505D02*
Y88506D01*
X68351D01*
X70017Y87673D02*
X73349D01*
X78347Y92672D02*
X77514Y93505D01*
X75848D01*
X75015Y92672D01*
Y91839D01*
X75848Y91005D01*
X77514D01*
X78347Y90172D01*
Y89339D01*
X77514Y88506D01*
X75848D01*
X75015Y89339D01*
X80014Y93505D02*
X81680D01*
X80847D01*
Y88506D01*
X80014D01*
X81680D01*
X84179Y93505D02*
X87511D01*
Y92672D01*
X84179Y89339D01*
Y88506D01*
X87511D01*
X92510Y93505D02*
X89177D01*
Y88506D01*
X92510D01*
X89177Y91005D02*
X90843D01*
X94176Y91839D02*
X95009D01*
Y91005D01*
X94176D01*
Y91839D01*
Y89339D02*
X95009D01*
Y88506D01*
X94176D01*
Y89339D01*
X98341Y87673D02*
X101673D01*
X103339Y92672D02*
X104173Y93505D01*
X105839D01*
X106672Y92672D01*
Y91839D01*
X105839Y91005D01*
X105006D01*
X105839D01*
X106672Y90172D01*
Y89339D01*
X105839Y88506D01*
X104173D01*
X103339Y89339D01*
X108338Y88506D02*
Y89339D01*
X109171D01*
Y88506D01*
X108338D01*
X112503Y92672D02*
X113336Y93505D01*
X115002D01*
X115835Y92672D01*
Y89339D01*
X115002Y88506D01*
X113336D01*
X112503Y89339D01*
Y92672D01*
X117501Y87673D02*
X120834D01*
X122500Y88506D02*
Y93505D01*
X124166Y91839D01*
X125832Y93505D01*
Y88506D01*
X127498D02*
Y93505D01*
X129164Y91839D01*
X130831Y93505D01*
Y88506D01*
X133330Y87673D02*
X134163Y88506D01*
Y89339D01*
X133330D01*
Y88506D01*
X134163D01*
X133330Y87673D01*
X132497Y86840D01*
X137495Y87673D02*
X140827D01*
X142493Y93505D02*
X145826D01*
X144159D01*
Y88506D01*
X149991Y93505D02*
X148325D01*
X147492Y92672D01*
Y89339D01*
X148325Y88506D01*
X149991D01*
X150824Y89339D01*
Y92672D01*
X149991Y93505D01*
X152490D02*
Y88506D01*
X155822D01*
X160821Y93505D02*
X157489D01*
Y88506D01*
X160821D01*
X157489Y91005D02*
X159155D01*
X162487Y88506D02*
Y93505D01*
X164986D01*
X165819Y92672D01*
Y91005D01*
X164986Y90172D01*
X162487D01*
X164153D02*
X165819Y88506D01*
X167485D02*
Y91839D01*
X169151Y93505D01*
X170818Y91839D01*
Y88506D01*
Y91005D01*
X167485D01*
X172484Y88506D02*
Y93505D01*
X175816Y88506D01*
Y93505D01*
X180814Y92672D02*
X179981Y93505D01*
X178315D01*
X177482Y92672D01*
Y89339D01*
X178315Y88506D01*
X179981D01*
X180814Y89339D01*
X185813Y93505D02*
X182480D01*
Y88506D01*
X185813D01*
X182480Y91005D02*
X184147D01*
X187479Y91839D02*
X188312D01*
Y91005D01*
X187479D01*
Y91839D01*
Y89339D02*
X188312D01*
Y88506D01*
X187479D01*
Y89339D01*
X191644Y87673D02*
X194976D01*
X196642Y91005D02*
X199975D01*
X198309Y92672D02*
Y89339D01*
X201641Y92672D02*
X202474Y93505D01*
X204140D01*
X204973Y92672D01*
Y89339D01*
X204140Y88506D01*
X202474D01*
X201641Y89339D01*
Y92672D01*
X206639Y88506D02*
Y89339D01*
X207472D01*
Y88506D01*
X206639D01*
X210805Y92672D02*
X211638Y93505D01*
X213304D01*
X214137Y92672D01*
Y89339D01*
X213304Y88506D01*
X211638D01*
X210805Y89339D01*
Y92672D01*
X219135Y93505D02*
X215803D01*
Y91005D01*
X217469Y91839D01*
X218302D01*
X219135Y91005D01*
Y89339D01*
X218302Y88506D01*
X216636D01*
X215803Y89339D01*
X220801Y88506D02*
X224134Y91839D01*
X225800Y91005D02*
X229132D01*
X230798Y92672D02*
X231631Y93505D01*
X233297D01*
X234130Y92672D01*
Y89339D01*
X233297Y88506D01*
X231631D01*
X230798Y89339D01*
Y92672D01*
X235796Y88506D02*
Y89339D01*
X236630D01*
Y88506D01*
X235796D01*
X239962Y92672D02*
X240795Y93505D01*
X242461D01*
X243294Y92672D01*
Y89339D01*
X242461Y88506D01*
X240795D01*
X239962Y89339D01*
Y92672D01*
X248292Y93505D02*
X244960D01*
Y91005D01*
X246626Y91839D01*
X247459D01*
X248292Y91005D01*
Y89339D01*
X247459Y88506D01*
X245793D01*
X244960Y89339D01*
X27953Y88113D02*
Y93111D01*
X30452D01*
X31285Y92278D01*
Y90612D01*
X30452Y89779D01*
X27953D01*
X32951Y93111D02*
X36283D01*
X34617D01*
Y88113D01*
X37949Y93111D02*
Y88113D01*
Y90612D01*
X41282D01*
Y93111D01*
Y88113D01*
X42948Y87279D02*
X46280D01*
X47946Y93111D02*
Y88113D01*
X50445D01*
X51279Y88946D01*
Y92278D01*
X50445Y93111D01*
X47946D01*
X52945Y88113D02*
Y93111D01*
X55444D01*
X56277Y92278D01*
Y90612D01*
X55444Y89779D01*
X52945D01*
X54611D02*
X56277Y88113D01*
X57943Y93111D02*
X59609D01*
X58776D01*
Y88113D01*
X57943D01*
X59609D01*
X62108Y93111D02*
Y88113D01*
X65441D01*
X67107Y93111D02*
Y88113D01*
X70439D01*
X72105Y87279D02*
X75437D01*
X80436Y92278D02*
X79603Y93111D01*
X77937D01*
X77104Y92278D01*
Y91445D01*
X77937Y90612D01*
X79603D01*
X80436Y89779D01*
Y88946D01*
X79603Y88113D01*
X77937D01*
X77104Y88946D01*
X82102Y93111D02*
X83768D01*
X82935D01*
Y88113D01*
X82102D01*
X83768D01*
X86267Y93111D02*
X89600D01*
Y92278D01*
X86267Y88946D01*
Y88113D01*
X89600D01*
X94598Y93111D02*
X91266D01*
Y88113D01*
X94598D01*
X91266Y90612D02*
X92932D01*
X96264Y91445D02*
X97097D01*
Y90612D01*
X96264D01*
Y91445D01*
Y88946D02*
X97097D01*
Y88113D01*
X96264D01*
Y88946D01*
X100429Y87279D02*
X103761D01*
X105428Y88113D02*
X107094D01*
X106261D01*
Y93111D01*
X105428Y92278D01*
X109593Y88113D02*
Y88946D01*
X110426D01*
Y88113D01*
X109593D01*
X113758Y92278D02*
X114591Y93111D01*
X116258D01*
X117091Y92278D01*
Y88946D01*
X116258Y88113D01*
X114591D01*
X113758Y88946D01*
Y92278D01*
X122089Y88113D02*
X118757D01*
X122089Y91445D01*
Y92278D01*
X121256Y93111D01*
X119590D01*
X118757Y92278D01*
X123755Y87279D02*
X127087D01*
X128753Y88113D02*
Y93111D01*
X130420Y91445D01*
X132086Y93111D01*
Y88113D01*
X133752D02*
Y93111D01*
X135418Y91445D01*
X137084Y93111D01*
Y88113D01*
X139583Y87279D02*
X140416Y88113D01*
Y88946D01*
X139583D01*
Y88113D01*
X140416D01*
X139583Y87279D01*
X138750Y86446D01*
X143749Y87279D02*
X147081D01*
X148747Y93111D02*
X152079D01*
X150413D01*
Y88113D01*
X156245Y93111D02*
X154578D01*
X153745Y92278D01*
Y88946D01*
X154578Y88113D01*
X156245D01*
X157078Y88946D01*
Y92278D01*
X156245Y93111D01*
X158744D02*
Y88113D01*
X162076D01*
X167074Y93111D02*
X163742D01*
Y88113D01*
X167074D01*
X163742Y90612D02*
X165408D01*
X168740Y88113D02*
Y93111D01*
X171240D01*
X172073Y92278D01*
Y90612D01*
X171240Y89779D01*
X168740D01*
X170407D02*
X172073Y88113D01*
X173739D02*
Y91445D01*
X175405Y93111D01*
X177071Y91445D01*
Y88113D01*
Y90612D01*
X173739D01*
X178737Y88113D02*
Y93111D01*
X182070Y88113D01*
Y93111D01*
X187068Y92278D02*
X186235Y93111D01*
X184569D01*
X183736Y92278D01*
Y88946D01*
X184569Y88113D01*
X186235D01*
X187068Y88946D01*
X192066Y93111D02*
X188734D01*
Y88113D01*
X192066D01*
X188734Y90612D02*
X190400D01*
X193732Y91445D02*
X194565D01*
Y90612D01*
X193732D01*
Y91445D01*
Y88946D02*
X194565D01*
Y88113D01*
X193732D01*
Y88946D01*
X197898Y87279D02*
X201230D01*
X202896Y90612D02*
X206228D01*
X204562Y92278D02*
Y88946D01*
X207894Y92278D02*
X208728Y93111D01*
X210394D01*
X211227Y92278D01*
Y88946D01*
X210394Y88113D01*
X208728D01*
X207894Y88946D01*
Y92278D01*
X212893Y88113D02*
Y88946D01*
X213726D01*
Y88113D01*
X212893D01*
X217058Y92278D02*
X217891Y93111D01*
X219557D01*
X220390Y92278D01*
Y88946D01*
X219557Y88113D01*
X217891D01*
X217058Y88946D01*
Y92278D01*
X225389Y93111D02*
X222057D01*
Y90612D01*
X223723Y91445D01*
X224556D01*
X225389Y90612D01*
Y88946D01*
X224556Y88113D01*
X222890D01*
X222057Y88946D01*
X227055Y88113D02*
X230387Y91445D01*
X232053Y90612D02*
X235386D01*
X237052Y92278D02*
X237885Y93111D01*
X239551D01*
X240384Y92278D01*
Y88946D01*
X239551Y88113D01*
X237885D01*
X237052Y88946D01*
Y92278D01*
X242050Y88113D02*
Y88946D01*
X242883D01*
Y88113D01*
X242050D01*
X246215Y92278D02*
X247048Y93111D01*
X248715D01*
X249548Y92278D01*
Y88946D01*
X248715Y88113D01*
X247048D01*
X246215Y88946D01*
Y92278D01*
X254546Y93111D02*
X251214D01*
Y90612D01*
X252880Y91445D01*
X253713D01*
X254546Y90612D01*
Y88946D01*
X253713Y88113D01*
X252047D01*
X251214Y88946D01*
X227421Y434636D02*
Y429638D01*
X224922D01*
X224089Y430471D01*
Y432137D01*
X224922Y432970D01*
X227421D01*
X222423Y429638D02*
X219091D01*
X220757D01*
Y434636D01*
X217425Y429638D02*
Y434636D01*
Y432137D01*
X214092D01*
Y429638D01*
Y434636D01*
X212426Y435469D02*
X209094D01*
X207428Y429638D02*
Y434636D01*
X204928D01*
X204095Y433803D01*
Y430471D01*
X204928Y429638D01*
X207428D01*
X202429Y434636D02*
Y429638D01*
X199930D01*
X199097Y430471D01*
Y432137D01*
X199930Y432970D01*
X202429D01*
X200763D02*
X199097Y434636D01*
X197431Y429638D02*
X195765D01*
X196598D01*
Y434636D01*
X197431D01*
X195765D01*
X193266Y429638D02*
Y434636D01*
X189933D01*
X188267Y429638D02*
Y434636D01*
X184935D01*
X183269Y435469D02*
X179937D01*
X174938Y430471D02*
X175771Y429638D01*
X177437D01*
X178270Y430471D01*
Y431304D01*
X177437Y432137D01*
X175771D01*
X174938Y432970D01*
Y433803D01*
X175771Y434636D01*
X177437D01*
X178270Y433803D01*
X173272Y429638D02*
X171606D01*
X172439D01*
Y434636D01*
X173272D01*
X171606D01*
X169107Y429638D02*
X165775D01*
Y430471D01*
X169107Y433803D01*
Y434636D01*
X165775D01*
X160776Y429638D02*
X164108D01*
Y434636D01*
X160776D01*
X164108Y432137D02*
X162442D01*
X159110Y431304D02*
X158277D01*
Y432137D01*
X159110D01*
Y431304D01*
Y433803D02*
X158277D01*
Y434636D01*
X159110D01*
Y433803D01*
X154945Y435469D02*
X151612D01*
X149946Y434636D02*
X148280D01*
X149113D01*
Y429638D01*
X149946Y430471D01*
X145781Y434636D02*
Y433803D01*
X144948D01*
Y434636D01*
X145781D01*
X141616Y430471D02*
X140783Y429638D01*
X139117D01*
X138283Y430471D01*
Y433803D01*
X139117Y434636D01*
X140783D01*
X141616Y433803D01*
Y430471D01*
X133285Y434636D02*
X136617D01*
X133285Y431304D01*
Y430471D01*
X134118Y429638D01*
X135784D01*
X136617Y430471D01*
X131619Y435469D02*
X128287D01*
X126620Y434636D02*
Y429638D01*
X124954Y431304D01*
X123288Y429638D01*
Y434636D01*
X121622D02*
Y429638D01*
X119956Y431304D01*
X118290Y429638D01*
Y434636D01*
X115791Y435469D02*
X114958Y434636D01*
Y433803D01*
X115791D01*
Y434636D01*
X114958D01*
X115791Y435469D01*
X116624Y436303D01*
X111625Y435469D02*
X108293D01*
X106627Y429638D02*
X103295D01*
X104961D01*
Y434636D01*
X99129Y429638D02*
X100796D01*
X101629Y430471D01*
Y433803D01*
X100796Y434636D01*
X99129D01*
X98296Y433803D01*
Y430471D01*
X99129Y429638D01*
X96630D02*
Y434636D01*
X93298D01*
X88300Y429638D02*
X91632D01*
Y434636D01*
X88300D01*
X91632Y432137D02*
X89966D01*
X86633Y434636D02*
Y429638D01*
X84134D01*
X83301Y430471D01*
Y432137D01*
X84134Y432970D01*
X86633D01*
X84967D02*
X83301Y434636D01*
X81635D02*
Y431304D01*
X79969Y429638D01*
X78303Y431304D01*
Y434636D01*
Y432137D01*
X81635D01*
X76637Y434636D02*
Y429638D01*
X73304Y434636D01*
Y429638D01*
X68306Y430471D02*
X69139Y429638D01*
X70805D01*
X71638Y430471D01*
Y433803D01*
X70805Y434636D01*
X69139D01*
X68306Y433803D01*
X63308Y429638D02*
X66640D01*
Y434636D01*
X63308D01*
X66640Y432137D02*
X64974D01*
X61642Y431304D02*
X60808D01*
Y432137D01*
X61642D01*
Y431304D01*
Y433803D02*
X60808D01*
Y434636D01*
X61642D01*
Y433803D01*
X57476Y435469D02*
X54144D01*
X52478Y432137D02*
X49146D01*
X50812Y430471D02*
Y433803D01*
X47480Y430471D02*
X46646Y429638D01*
X44980D01*
X44147Y430471D01*
Y433803D01*
X44980Y434636D01*
X46646D01*
X47480Y433803D01*
Y430471D01*
X42481Y434636D02*
Y433803D01*
X41648D01*
Y434636D01*
X42481D01*
X38316Y430471D02*
X37483Y429638D01*
X35817D01*
X34984Y430471D01*
Y433803D01*
X35817Y434636D01*
X37483D01*
X38316Y433803D01*
Y430471D01*
X29985Y429638D02*
X33317D01*
Y432137D01*
X31651Y431304D01*
X30818D01*
X29985Y432137D01*
Y433803D01*
X30818Y434636D01*
X32484D01*
X33317Y433803D01*
X28319Y434636D02*
X24987Y431304D01*
X23321Y432137D02*
X19988D01*
X18322Y430471D02*
X17489Y429638D01*
X15823D01*
X14990Y430471D01*
Y433803D01*
X15823Y434636D01*
X17489D01*
X18322Y433803D01*
Y430471D01*
X13324Y434636D02*
Y433803D01*
X12491D01*
Y434636D01*
X13324D01*
X9159Y430471D02*
X8326Y429638D01*
X6659D01*
X5826Y430471D01*
Y433803D01*
X6659Y434636D01*
X8326D01*
X9159Y433803D01*
Y430471D01*
X828Y429638D02*
X4160D01*
Y432137D01*
X2494Y431304D01*
X1661D01*
X828Y432137D01*
Y433803D01*
X1661Y434636D01*
X3327D01*
X4160Y433803D01*
X227726Y434715D02*
Y429717D01*
X224394Y434715D01*
Y429717D01*
X222728Y434715D02*
Y429717D01*
X220229D01*
X219396Y430550D01*
Y432216D01*
X220229Y433049D01*
X222728D01*
X217730Y429717D02*
X214397D01*
X216063D01*
Y434715D01*
X212731Y429717D02*
Y434715D01*
Y432216D01*
X209399D01*
Y429717D01*
Y434715D01*
X207733Y435548D02*
X204400D01*
X202734Y429717D02*
Y434715D01*
X200235D01*
X199402Y433882D01*
Y430550D01*
X200235Y429717D01*
X202734D01*
X197736Y434715D02*
Y429717D01*
X195237D01*
X194404Y430550D01*
Y432216D01*
X195237Y433049D01*
X197736D01*
X196070D02*
X194404Y434715D01*
X192738Y429717D02*
X191071D01*
X191905D01*
Y434715D01*
X192738D01*
X191071D01*
X188572Y429717D02*
Y434715D01*
X185240D01*
X183574Y429717D02*
Y434715D01*
X180242D01*
X178576Y435548D02*
X175243D01*
X170245Y430550D02*
X171078Y429717D01*
X172744D01*
X173577Y430550D01*
Y431383D01*
X172744Y432216D01*
X171078D01*
X170245Y433049D01*
Y433882D01*
X171078Y434715D01*
X172744D01*
X173577Y433882D01*
X168579Y429717D02*
X166913D01*
X167746D01*
Y434715D01*
X168579D01*
X166913D01*
X164413Y429717D02*
X161081D01*
Y430550D01*
X164413Y433882D01*
Y434715D01*
X161081D01*
X156083Y429717D02*
X159415D01*
Y434715D01*
X156083D01*
X159415Y432216D02*
X157749D01*
X154417Y431383D02*
X153584D01*
Y432216D01*
X154417D01*
Y431383D01*
Y433882D02*
X153584D01*
Y434715D01*
X154417D01*
Y433882D01*
X150251Y435548D02*
X146919D01*
X145253Y430550D02*
X144420Y429717D01*
X142754D01*
X141921Y430550D01*
Y431383D01*
X142754Y432216D01*
X143587D01*
X142754D01*
X141921Y433049D01*
Y433882D01*
X142754Y434715D01*
X144420D01*
X145253Y433882D01*
X140255Y434715D02*
Y433882D01*
X139422D01*
Y434715D01*
X140255D01*
X136089Y430550D02*
X135256Y429717D01*
X133590D01*
X132757Y430550D01*
Y433882D01*
X133590Y434715D01*
X135256D01*
X136089Y433882D01*
Y430550D01*
X131091Y435548D02*
X127759D01*
X126093Y434715D02*
Y429717D01*
X124426Y431383D01*
X122760Y429717D01*
Y434715D01*
X121094D02*
Y429717D01*
X119428Y431383D01*
X117762Y429717D01*
Y434715D01*
X115263Y435548D02*
X114430Y434715D01*
Y433882D01*
X115263D01*
Y434715D01*
X114430D01*
X115263Y435548D01*
X116096Y436381D01*
X111097Y435548D02*
X107765D01*
X106099Y429717D02*
X102767D01*
X104433D01*
Y434715D01*
X98602Y429717D02*
X100268D01*
X101101Y430550D01*
Y433882D01*
X100268Y434715D01*
X98602D01*
X97768Y433882D01*
Y430550D01*
X98602Y429717D01*
X96102D02*
Y434715D01*
X92770D01*
X87772Y429717D02*
X91104D01*
Y434715D01*
X87772D01*
X91104Y432216D02*
X89438D01*
X86106Y434715D02*
Y429717D01*
X83606D01*
X82773Y430550D01*
Y432216D01*
X83606Y433049D01*
X86106D01*
X84439D02*
X82773Y434715D01*
X81107D02*
Y431383D01*
X79441Y429717D01*
X77775Y431383D01*
Y434715D01*
Y432216D01*
X81107D01*
X76109Y434715D02*
Y429717D01*
X72777Y434715D01*
Y429717D01*
X67778Y430550D02*
X68611Y429717D01*
X70277D01*
X71110Y430550D01*
Y433882D01*
X70277Y434715D01*
X68611D01*
X67778Y433882D01*
X62780Y429717D02*
X66112D01*
Y434715D01*
X62780D01*
X66112Y432216D02*
X64446D01*
X61114Y431383D02*
X60281D01*
Y432216D01*
X61114D01*
Y431383D01*
Y433882D02*
X60281D01*
Y434715D01*
X61114D01*
Y433882D01*
X56948Y435548D02*
X53616D01*
X51950Y432216D02*
X48618D01*
X50284Y430550D02*
Y433882D01*
X46952Y430550D02*
X46119Y429717D01*
X44452D01*
X43619Y430550D01*
Y433882D01*
X44452Y434715D01*
X46119D01*
X46952Y433882D01*
Y430550D01*
X41953Y434715D02*
Y433882D01*
X41120D01*
Y434715D01*
X41953D01*
X37788Y430550D02*
X36955Y429717D01*
X35289D01*
X34456Y430550D01*
Y433882D01*
X35289Y434715D01*
X36955D01*
X37788Y433882D01*
Y430550D01*
X29457Y429717D02*
X32789D01*
Y432216D01*
X31123Y431383D01*
X30290D01*
X29457Y432216D01*
Y433882D01*
X30290Y434715D01*
X31956D01*
X32789Y433882D01*
X27791Y434715D02*
X24459Y431383D01*
X22793Y432216D02*
X19460D01*
X17794Y430550D02*
X16961Y429717D01*
X15295D01*
X14462Y430550D01*
Y433882D01*
X15295Y434715D01*
X16961D01*
X17794Y433882D01*
Y430550D01*
X12796Y434715D02*
Y433882D01*
X11963D01*
Y434715D01*
X12796D01*
X8631Y430550D02*
X7798Y429717D01*
X6132D01*
X5298Y430550D01*
Y433882D01*
X6132Y434715D01*
X7798D01*
X8631Y433882D01*
Y430550D01*
X300Y429717D02*
X3632D01*
Y432216D01*
X1966Y431383D01*
X1133D01*
X300Y432216D01*
Y433882D01*
X1133Y434715D01*
X2799D01*
X3632Y433882D01*
M02*
