G04*
G04 #@! TF.GenerationSoftware,Altium Limited,Altium Designer,22.4.2 (48)*
G04*
G04 Layer_Physical_Order=2*
G04 Layer_Color=16711680*
%FSLAX25Y25*%
%MOIN*%
G70*
G04*
G04 #@! TF.SameCoordinates,7713EA0D-6249-4CA7-80EE-CA65CFE05E5E*
G04*
G04*
G04 #@! TF.FilePolarity,Positive*
G04*
G01*
G75*
%ADD56C,0.10827*%
%ADD57R,0.10827X0.10827*%
%ADD58C,0.11800*%
%ADD60C,0.05906*%
%ADD61R,0.05906X0.05906*%
%ADD65C,0.01968*%
%ADD66C,0.03937*%
%ADD68C,0.11811*%
%ADD69C,0.05984*%
%ADD70R,0.05984X0.05984*%
%ADD71C,0.06000*%
%ADD72R,0.06693X0.06693*%
%ADD73C,0.06693*%
%ADD74C,0.08465*%
%ADD75R,0.06693X0.06693*%
%ADD76C,0.05512*%
%ADD77R,0.05512X0.05512*%
%ADD78C,0.06024*%
%ADD79R,0.06024X0.06024*%
%ADD80C,0.05000*%
G36*
X750016Y333214D02*
X749709Y332755D01*
X749189Y331500D01*
X748924Y330167D01*
Y328807D01*
X749189Y327474D01*
X749709Y326219D01*
X750016Y325760D01*
Y245451D01*
X749709Y244992D01*
X749189Y243737D01*
X748924Y242404D01*
Y241044D01*
X749189Y239711D01*
X749709Y238456D01*
X750016Y237997D01*
Y41732D01*
X41716D01*
Y392869D01*
X161632D01*
X161978Y392369D01*
X161766Y391301D01*
Y389941D01*
X162031Y388606D01*
X162552Y387350D01*
X163307Y386219D01*
X164269Y385257D01*
X165400Y384501D01*
X166657Y383980D01*
X167991Y383715D01*
X169351D01*
X170686Y383980D01*
X171942Y384501D01*
X173073Y385257D01*
X174035Y386219D01*
X174791Y387350D01*
X175311Y388606D01*
X175577Y389941D01*
Y391301D01*
X175364Y392369D01*
X175711Y392869D01*
X215058D01*
X215405Y392369D01*
X215193Y391301D01*
Y389941D01*
X215458Y388606D01*
X215979Y387350D01*
X216734Y386219D01*
X217696Y385257D01*
X218827Y384501D01*
X220084Y383980D01*
X221418Y383715D01*
X222778D01*
X224112Y383980D01*
X225369Y384501D01*
X226500Y385257D01*
X227462Y386219D01*
X228218Y387350D01*
X228738Y388606D01*
X229004Y389941D01*
Y391301D01*
X228791Y392369D01*
X229138Y392869D01*
X750016D01*
Y333214D01*
D02*
G37*
%LPC*%
G36*
X234435Y377605D02*
X233383D01*
X232368Y377333D01*
X231458Y376807D01*
X230715Y376064D01*
X230189Y375154D01*
X229917Y374138D01*
Y373087D01*
X230189Y372072D01*
X230715Y371162D01*
X231458Y370418D01*
X232368Y369893D01*
X233383Y369621D01*
X234435D01*
X235450Y369893D01*
X236360Y370418D01*
X237104Y371162D01*
X237629Y372072D01*
X237901Y373087D01*
Y374138D01*
X237629Y375154D01*
X237104Y376064D01*
X236360Y376807D01*
X235450Y377333D01*
X234435Y377605D01*
D02*
G37*
G36*
X214279D02*
X206295D01*
Y369621D01*
X214279D01*
Y377605D01*
D02*
G37*
G36*
X181008D02*
X179957D01*
X178941Y377333D01*
X178031Y376807D01*
X177288Y376064D01*
X176762Y375154D01*
X176490Y374138D01*
Y373087D01*
X176762Y372072D01*
X177288Y371162D01*
X178031Y370418D01*
X178941Y369893D01*
X179957Y369621D01*
X181008D01*
X182023Y369893D01*
X182933Y370418D01*
X183677Y371162D01*
X184202Y372072D01*
X184474Y373087D01*
Y374138D01*
X184202Y375154D01*
X183677Y376064D01*
X182933Y376807D01*
X182023Y377333D01*
X181008Y377605D01*
D02*
G37*
G36*
X160852D02*
X152868D01*
Y369621D01*
X160852D01*
Y377605D01*
D02*
G37*
G36*
X424262Y370865D02*
X423221D01*
X422216Y370596D01*
X421315Y370075D01*
X420579Y369339D01*
X420058Y368438D01*
X419789Y367432D01*
Y366392D01*
X420058Y365386D01*
X420579Y364485D01*
X421315Y363749D01*
X422216Y363229D01*
X423221Y362959D01*
X424262D01*
X425268Y363229D01*
X426169Y363749D01*
X426905Y364485D01*
X427425Y365386D01*
X427695Y366392D01*
Y367432D01*
X427425Y368438D01*
X426905Y369339D01*
X426169Y370075D01*
X425268Y370596D01*
X424262Y370865D01*
D02*
G37*
G36*
X414262D02*
X413222D01*
X412216Y370596D01*
X411315Y370075D01*
X410579Y369339D01*
X410058Y368438D01*
X409789Y367432D01*
Y366392D01*
X410058Y365386D01*
X410579Y364485D01*
X411315Y363749D01*
X412216Y363229D01*
X413222Y362959D01*
X414262D01*
X415268Y363229D01*
X416169Y363749D01*
X416905Y364485D01*
X417425Y365386D01*
X417695Y366392D01*
Y367432D01*
X417425Y368438D01*
X416905Y369339D01*
X416169Y370075D01*
X415268Y370596D01*
X414262Y370865D01*
D02*
G37*
G36*
X404262D02*
X403222D01*
X402216Y370596D01*
X401315Y370075D01*
X400579Y369339D01*
X400059Y368438D01*
X399789Y367432D01*
Y366392D01*
X400059Y365386D01*
X400579Y364485D01*
X401315Y363749D01*
X402216Y363229D01*
X403222Y362959D01*
X404262D01*
X405267Y363229D01*
X406169Y363749D01*
X406905Y364485D01*
X407425Y365386D01*
X407695Y366392D01*
Y367432D01*
X407425Y368438D01*
X406905Y369339D01*
X406169Y370075D01*
X405267Y370596D01*
X404262Y370865D01*
D02*
G37*
G36*
Y360865D02*
X403222D01*
X402216Y360595D01*
X401315Y360075D01*
X401146Y359906D01*
X396338D01*
X396169Y360075D01*
X395268Y360595D01*
X394262Y360865D01*
X393221D01*
X392216Y360595D01*
X391315Y360075D01*
X391146Y359906D01*
X386338D01*
X386169Y360075D01*
X385267Y360595D01*
X384262Y360865D01*
X383222D01*
X382216Y360595D01*
X381315Y360075D01*
X381146Y359906D01*
X376338D01*
X376169Y360075D01*
X375268Y360595D01*
X374262Y360865D01*
X373221D01*
X372216Y360595D01*
X371315Y360075D01*
X371146Y359906D01*
X366338D01*
X366169Y360075D01*
X365267Y360595D01*
X364262Y360865D01*
X363222D01*
X362216Y360595D01*
X361315Y360075D01*
X361146Y359906D01*
X356338D01*
X356169Y360075D01*
X355268Y360595D01*
X354262Y360865D01*
X353222D01*
X352216Y360595D01*
X351315Y360075D01*
X351146Y359906D01*
X346338D01*
X346169Y360075D01*
X345268Y360595D01*
X344262Y360865D01*
X343221D01*
X342216Y360595D01*
X341315Y360075D01*
X341146Y359906D01*
X337695D01*
Y360865D01*
X329789D01*
Y352959D01*
X330748D01*
Y335656D01*
X330007Y335228D01*
X329355Y334576D01*
X328894Y333778D01*
X328656Y332888D01*
Y331966D01*
X328894Y331076D01*
X329355Y330278D01*
X330007Y329626D01*
X330805Y329166D01*
X331695Y328927D01*
X332616D01*
X333507Y329166D01*
X334305Y329626D01*
X334956Y330278D01*
X335417Y331076D01*
X335656Y331966D01*
Y331980D01*
X335859Y332184D01*
X336335Y332804D01*
X336634Y333526D01*
X336736Y334301D01*
Y352959D01*
X337695D01*
Y353918D01*
X341146D01*
X341315Y353749D01*
X342216Y353229D01*
X343221Y352959D01*
X344262D01*
X345268Y353229D01*
X346169Y353749D01*
X346338Y353918D01*
X351146D01*
X351315Y353749D01*
X352216Y353229D01*
X353222Y352959D01*
X354262D01*
X355268Y353229D01*
X356169Y353749D01*
X356338Y353918D01*
X361146D01*
X361315Y353749D01*
X362216Y353229D01*
X363222Y352959D01*
X364262D01*
X365267Y353229D01*
X366169Y353749D01*
X366338Y353918D01*
X371146D01*
X371315Y353749D01*
X372216Y353229D01*
X373221Y352959D01*
X374262D01*
X375268Y353229D01*
X376169Y353749D01*
X376338Y353918D01*
X381146D01*
X381315Y353749D01*
X382216Y353229D01*
X383222Y352959D01*
X384262D01*
X385267Y353229D01*
X386169Y353749D01*
X386338Y353918D01*
X391146D01*
X391315Y353749D01*
X392216Y353229D01*
X393221Y352959D01*
X394262D01*
X395268Y353229D01*
X396169Y353749D01*
X396338Y353918D01*
X401146D01*
X401315Y353749D01*
X402216Y353229D01*
X403222Y352959D01*
X404262D01*
X405267Y353229D01*
X406169Y353749D01*
X406905Y354485D01*
X407425Y355386D01*
X407695Y356392D01*
Y357433D01*
X407425Y358438D01*
X406905Y359339D01*
X406169Y360075D01*
X405267Y360595D01*
X404262Y360865D01*
D02*
G37*
G36*
X234435Y365794D02*
X233383D01*
X232368Y365522D01*
X231458Y364996D01*
X230715Y364253D01*
X230189Y363343D01*
X229917Y362327D01*
Y361276D01*
X230189Y360261D01*
X230715Y359350D01*
X231458Y358607D01*
X232368Y358082D01*
X233383Y357810D01*
X234435D01*
X235450Y358082D01*
X236360Y358607D01*
X237104Y359350D01*
X237629Y360261D01*
X237901Y361276D01*
Y362327D01*
X237629Y363343D01*
X237104Y364253D01*
X236360Y364996D01*
X235450Y365522D01*
X234435Y365794D01*
D02*
G37*
G36*
X222624D02*
X221572D01*
X220557Y365522D01*
X219647Y364996D01*
X218904Y364253D01*
X218378Y363343D01*
X218106Y362327D01*
Y361276D01*
X218378Y360261D01*
X218904Y359350D01*
X219647Y358607D01*
X220557Y358082D01*
X221572Y357810D01*
X222624D01*
X223639Y358082D01*
X224549Y358607D01*
X225292Y359350D01*
X225818Y360261D01*
X226090Y361276D01*
Y362327D01*
X225818Y363343D01*
X225292Y364253D01*
X224549Y364996D01*
X223639Y365522D01*
X222624Y365794D01*
D02*
G37*
G36*
X210813D02*
X209762D01*
X208746Y365522D01*
X207836Y364996D01*
X207092Y364253D01*
X206567Y363343D01*
X206295Y362327D01*
Y361276D01*
X206567Y360261D01*
X207092Y359350D01*
X207836Y358607D01*
X208746Y358082D01*
X209762Y357810D01*
X210813D01*
X211828Y358082D01*
X212738Y358607D01*
X213481Y359350D01*
X214007Y360261D01*
X214279Y361276D01*
Y362327D01*
X214007Y363343D01*
X213481Y364253D01*
X212738Y364996D01*
X211828Y365522D01*
X210813Y365794D01*
D02*
G37*
G36*
X181008D02*
X179957D01*
X178941Y365522D01*
X178031Y364996D01*
X177288Y364253D01*
X176762Y363343D01*
X176490Y362327D01*
Y361276D01*
X176762Y360261D01*
X177288Y359350D01*
X178031Y358607D01*
X178941Y358082D01*
X179957Y357810D01*
X181008D01*
X182023Y358082D01*
X182933Y358607D01*
X183677Y359350D01*
X184202Y360261D01*
X184474Y361276D01*
Y362327D01*
X184202Y363343D01*
X183677Y364253D01*
X182933Y364996D01*
X182023Y365522D01*
X181008Y365794D01*
D02*
G37*
G36*
X169197D02*
X168146D01*
X167130Y365522D01*
X166220Y364996D01*
X165477Y364253D01*
X164951Y363343D01*
X164679Y362327D01*
Y361276D01*
X164951Y360261D01*
X165477Y359350D01*
X166220Y358607D01*
X167130Y358082D01*
X168146Y357810D01*
X169197D01*
X170212Y358082D01*
X171122Y358607D01*
X171866Y359350D01*
X172391Y360261D01*
X172663Y361276D01*
Y362327D01*
X172391Y363343D01*
X171866Y364253D01*
X171122Y364996D01*
X170212Y365522D01*
X169197Y365794D01*
D02*
G37*
G36*
X157386D02*
X156335D01*
X155319Y365522D01*
X154409Y364996D01*
X153666Y364253D01*
X153140Y363343D01*
X152868Y362327D01*
Y361276D01*
X153140Y360261D01*
X153666Y359350D01*
X154409Y358607D01*
X155319Y358082D01*
X156335Y357810D01*
X157386D01*
X158401Y358082D01*
X159311Y358607D01*
X160055Y359350D01*
X160580Y360261D01*
X160852Y361276D01*
Y362327D01*
X160580Y363343D01*
X160055Y364253D01*
X159311Y364996D01*
X158401Y365522D01*
X157386Y365794D01*
D02*
G37*
G36*
X424262Y360865D02*
X423221D01*
X422216Y360595D01*
X421315Y360075D01*
X420579Y359339D01*
X420058Y358438D01*
X419789Y357433D01*
Y356392D01*
X420058Y355386D01*
X420579Y354485D01*
X421315Y353749D01*
X422216Y353229D01*
X423221Y352959D01*
X424262D01*
X425268Y353229D01*
X426169Y353749D01*
X426905Y354485D01*
X427425Y355386D01*
X427695Y356392D01*
Y357433D01*
X427425Y358438D01*
X426905Y359339D01*
X426169Y360075D01*
X425268Y360595D01*
X424262Y360865D01*
D02*
G37*
G36*
X414262D02*
X413222D01*
X412216Y360595D01*
X411315Y360075D01*
X410579Y359339D01*
X410058Y358438D01*
X409789Y357433D01*
Y356392D01*
X410058Y355386D01*
X410579Y354485D01*
X411315Y353749D01*
X412216Y353229D01*
X413222Y352959D01*
X414262D01*
X415268Y353229D01*
X416169Y353749D01*
X416905Y354485D01*
X417425Y355386D01*
X417695Y356392D01*
Y357433D01*
X417425Y358438D01*
X416905Y359339D01*
X416169Y360075D01*
X415268Y360595D01*
X414262Y360865D01*
D02*
G37*
G36*
X387138Y351306D02*
X386216D01*
X385326Y351067D01*
X384528Y350606D01*
X383877Y349955D01*
X383416Y349156D01*
X383177Y348266D01*
Y347345D01*
X383215Y347204D01*
X378820Y342809D01*
X378381Y342153D01*
X378227Y341378D01*
Y339087D01*
X377602Y338726D01*
X376951Y338075D01*
X376490Y337277D01*
X376251Y336386D01*
Y335465D01*
X376490Y334575D01*
X376951Y333776D01*
X377602Y333125D01*
X378400Y332664D01*
X379291Y332426D01*
X380212D01*
X381102Y332664D01*
X381900Y333125D01*
X382552Y333776D01*
X383013Y334575D01*
X383251Y335465D01*
Y336386D01*
X383013Y337277D01*
X382552Y338075D01*
X382273Y338353D01*
Y340540D01*
X386076Y344343D01*
X386216Y344305D01*
X387138D01*
X388028Y344544D01*
X388826Y345005D01*
X389478Y345656D01*
X389939Y346455D01*
X390177Y347345D01*
Y348266D01*
X389939Y349156D01*
X389478Y349955D01*
X388826Y350606D01*
X388028Y351067D01*
X387138Y351306D01*
D02*
G37*
G36*
X399276Y352162D02*
X398354D01*
X397464Y351923D01*
X396666Y351462D01*
X396014Y350811D01*
X395554Y350013D01*
X395315Y349122D01*
Y348201D01*
X395554Y347311D01*
X396014Y346513D01*
X396212Y346315D01*
Y345600D01*
X390000Y339388D01*
X389859Y339426D01*
X388937D01*
X388047Y339187D01*
X387249Y338726D01*
X386598Y338075D01*
X386137Y337277D01*
X385898Y336386D01*
Y335465D01*
X386137Y334575D01*
X386598Y333776D01*
X387249Y333125D01*
X388047Y332664D01*
X388937Y332426D01*
X389859D01*
X390749Y332664D01*
X391547Y333125D01*
X392199Y333776D01*
X392660Y334575D01*
X392898Y335465D01*
Y336386D01*
X392861Y336527D01*
X399666Y343332D01*
X400104Y343988D01*
X400258Y344762D01*
Y345453D01*
X400964Y345861D01*
X401616Y346513D01*
X402077Y347311D01*
X402315Y348201D01*
Y349122D01*
X402077Y350013D01*
X401616Y350811D01*
X400964Y351462D01*
X400166Y351923D01*
X399276Y352162D01*
D02*
G37*
G36*
X706056Y344150D02*
X704792D01*
X703553Y343904D01*
X702386Y343420D01*
X701336Y342719D01*
X700443Y341825D01*
X699741Y340775D01*
X699257Y339608D01*
X699011Y338369D01*
Y337105D01*
X699257Y335866D01*
X699741Y334699D01*
X700443Y333649D01*
X701336Y332755D01*
X702386Y332053D01*
X703553Y331570D01*
X704792Y331324D01*
X706056D01*
X707295Y331570D01*
X708462Y332053D01*
X709512Y332755D01*
X710406Y333649D01*
X711108Y334699D01*
X711591Y335866D01*
X711837Y337105D01*
Y338369D01*
X711591Y339608D01*
X711108Y340775D01*
X710406Y341825D01*
X709512Y342719D01*
X708462Y343420D01*
X707295Y343904D01*
X706056Y344150D01*
D02*
G37*
G36*
X653383Y341544D02*
X652005D01*
X650674Y341188D01*
X649481Y340499D01*
X648507Y339525D01*
X647818Y338332D01*
X647462Y337001D01*
Y335623D01*
X647818Y334293D01*
X648507Y333099D01*
X649481Y332125D01*
X650674Y331436D01*
X652005Y331080D01*
X653383D01*
X654714Y331436D01*
X655907Y332125D01*
X656881Y333099D01*
X657570Y334293D01*
X657926Y335623D01*
Y337001D01*
X657570Y338332D01*
X656881Y339525D01*
X655907Y340499D01*
X654714Y341188D01*
X653383Y341544D01*
D02*
G37*
G36*
Y328159D02*
X652005D01*
X650674Y327802D01*
X649481Y327113D01*
X648507Y326139D01*
X647818Y324946D01*
X647462Y323615D01*
Y322237D01*
X647818Y320907D01*
X648507Y319714D01*
X649481Y318739D01*
X650674Y318051D01*
X652005Y317694D01*
X653383D01*
X654714Y318051D01*
X655907Y318739D01*
X656881Y319714D01*
X657570Y320907D01*
X657926Y322237D01*
Y323615D01*
X657570Y324946D01*
X656881Y326139D01*
X655907Y327113D01*
X654714Y327802D01*
X653383Y328159D01*
D02*
G37*
G36*
X706056Y327650D02*
X704792D01*
X703553Y327404D01*
X702386Y326920D01*
X701336Y326219D01*
X700443Y325325D01*
X699741Y324275D01*
X699257Y323108D01*
X699011Y321869D01*
Y320605D01*
X699257Y319366D01*
X699741Y318199D01*
X700443Y317149D01*
X701336Y316255D01*
X702386Y315553D01*
X703553Y315070D01*
X704792Y314824D01*
X706056D01*
X707295Y315070D01*
X708462Y315553D01*
X709512Y316255D01*
X710406Y317149D01*
X711108Y318199D01*
X711591Y319366D01*
X711837Y320605D01*
Y321869D01*
X711591Y323108D01*
X711108Y324275D01*
X710406Y325325D01*
X709512Y326219D01*
X708462Y326920D01*
X707295Y327404D01*
X706056Y327650D01*
D02*
G37*
G36*
X608235Y346387D02*
X567290D01*
X566899Y346309D01*
X566569Y346088D01*
X566348Y345757D01*
X566270Y345367D01*
Y334344D01*
X566348Y333953D01*
X566569Y333623D01*
X566899Y333402D01*
X567290Y333324D01*
X570547D01*
X570549Y333320D01*
X570630Y332824D01*
X569739Y332310D01*
X568930Y331501D01*
X568358Y330509D01*
X568061Y329404D01*
Y328260D01*
X568358Y327154D01*
X568930Y326163D01*
X569466Y325627D01*
X569259Y325127D01*
X567290D01*
X566899Y325049D01*
X566569Y324828D01*
X566348Y324498D01*
X566270Y324107D01*
Y313477D01*
X566348Y313087D01*
X566569Y312756D01*
X566899Y312536D01*
X567290Y312458D01*
X608235D01*
X608625Y312536D01*
X608955Y312756D01*
X609176Y313087D01*
X609254Y313477D01*
Y345367D01*
X609176Y345757D01*
X608955Y346088D01*
X608625Y346309D01*
X608235Y346387D01*
D02*
G37*
G36*
X414348Y351794D02*
X413426D01*
X412536Y351555D01*
X411738Y351094D01*
X411086Y350443D01*
X410625Y349644D01*
X410387Y348754D01*
Y347833D01*
X410424Y347692D01*
X377636Y314904D01*
X377198Y314248D01*
X377044Y313474D01*
Y309105D01*
X376604Y308851D01*
X375857Y308104D01*
X375328Y307189D01*
X375055Y306169D01*
Y305112D01*
X375328Y304092D01*
X375857Y303177D01*
X376604Y302430D01*
X377518Y301902D01*
X378539Y301629D01*
X379595D01*
X380615Y301902D01*
X381530Y302430D01*
X382277Y303177D01*
X382805Y304092D01*
X383079Y305112D01*
Y306169D01*
X382805Y307189D01*
X382277Y308104D01*
X381530Y308851D01*
X381090Y309105D01*
Y312636D01*
X413285Y344831D01*
X413426Y344794D01*
X414348D01*
X415238Y345032D01*
X416036Y345493D01*
X416687Y346145D01*
X417025Y346729D01*
X417447Y346702D01*
X417567Y346668D01*
X418012Y345897D01*
X418419Y345491D01*
Y339261D01*
X417922Y338974D01*
X417270Y338322D01*
X416809Y337524D01*
X416571Y336634D01*
Y335712D01*
X416809Y334822D01*
X417270Y334024D01*
X417922Y333372D01*
X418720Y332911D01*
X419610Y332673D01*
X419692D01*
X419883Y332211D01*
X410409Y322737D01*
X404140D01*
X403366Y322583D01*
X402710Y322144D01*
X390086Y309521D01*
X389595Y309652D01*
X388539D01*
X387518Y309379D01*
X386604Y308851D01*
X385857Y308104D01*
X385329Y307189D01*
X385055Y306169D01*
Y305112D01*
X385329Y304092D01*
X385857Y303177D01*
X386604Y302430D01*
X387518Y301902D01*
X388539Y301629D01*
X389595D01*
X390615Y301902D01*
X391530Y302430D01*
X392277Y303177D01*
X392805Y304092D01*
X393079Y305112D01*
Y306169D01*
X392947Y306660D01*
X404978Y318691D01*
X411247D01*
X412021Y318845D01*
X412677Y319283D01*
X432385Y338991D01*
X432824Y339647D01*
X432978Y340421D01*
Y344932D01*
X433104Y345005D01*
X433755Y345656D01*
X434216Y346455D01*
X434454Y347345D01*
Y348266D01*
X434216Y349156D01*
X433755Y349955D01*
X433104Y350606D01*
X432305Y351067D01*
X431415Y351306D01*
X430494D01*
X429603Y351067D01*
X428805Y350606D01*
X428154Y349955D01*
X427693Y349156D01*
X427454Y348266D01*
Y347345D01*
X427693Y346455D01*
X428154Y345656D01*
X428805Y345005D01*
X428931Y344932D01*
Y341259D01*
X424033Y336361D01*
X423571Y336552D01*
Y336634D01*
X423332Y337524D01*
X422871Y338322D01*
X422465Y338728D01*
Y344958D01*
X422962Y345246D01*
X423614Y345897D01*
X424074Y346695D01*
X424313Y347585D01*
Y348507D01*
X424074Y349397D01*
X423614Y350195D01*
X422962Y350847D01*
X422164Y351308D01*
X421274Y351546D01*
X420352D01*
X419462Y351308D01*
X418664Y350847D01*
X418012Y350195D01*
X417675Y349611D01*
X417252Y349638D01*
X417133Y349672D01*
X416687Y350443D01*
X416036Y351094D01*
X415238Y351555D01*
X414348Y351794D01*
D02*
G37*
G36*
X439595Y309652D02*
X438539D01*
X437518Y309379D01*
X436604Y308851D01*
X435857Y308104D01*
X435328Y307189D01*
X435055Y306169D01*
Y305112D01*
X435328Y304092D01*
X435857Y303177D01*
X436604Y302430D01*
X437518Y301902D01*
X438539Y301629D01*
X439595D01*
X440615Y301902D01*
X441530Y302430D01*
X442277Y303177D01*
X442805Y304092D01*
X443079Y305112D01*
Y306169D01*
X442805Y307189D01*
X442277Y308104D01*
X441530Y308851D01*
X440615Y309379D01*
X439595Y309652D01*
D02*
G37*
G36*
X429595D02*
X428539D01*
X427518Y309379D01*
X426604Y308851D01*
X425857Y308104D01*
X425328Y307189D01*
X425055Y306169D01*
Y305112D01*
X425328Y304092D01*
X425857Y303177D01*
X426604Y302430D01*
X427518Y301902D01*
X428539Y301629D01*
X429595D01*
X430615Y301902D01*
X431530Y302430D01*
X432277Y303177D01*
X432805Y304092D01*
X433079Y305112D01*
Y306169D01*
X432805Y307189D01*
X432277Y308104D01*
X431530Y308851D01*
X430615Y309379D01*
X429595Y309652D01*
D02*
G37*
G36*
X419595D02*
X418539D01*
X417518Y309379D01*
X416604Y308851D01*
X415857Y308104D01*
X415329Y307189D01*
X415055Y306169D01*
Y305112D01*
X415329Y304092D01*
X415857Y303177D01*
X416604Y302430D01*
X417518Y301902D01*
X418539Y301629D01*
X419595D01*
X420615Y301902D01*
X421530Y302430D01*
X422277Y303177D01*
X422805Y304092D01*
X423079Y305112D01*
Y306169D01*
X422805Y307189D01*
X422277Y308104D01*
X421530Y308851D01*
X420615Y309379D01*
X419595Y309652D01*
D02*
G37*
G36*
X409595D02*
X408539D01*
X407518Y309379D01*
X406604Y308851D01*
X405857Y308104D01*
X405329Y307189D01*
X405055Y306169D01*
Y305112D01*
X405329Y304092D01*
X405857Y303177D01*
X406604Y302430D01*
X407518Y301902D01*
X408539Y301629D01*
X409595D01*
X410615Y301902D01*
X411530Y302430D01*
X412277Y303177D01*
X412805Y304092D01*
X413079Y305112D01*
Y306169D01*
X412805Y307189D01*
X412277Y308104D01*
X411530Y308851D01*
X410615Y309379D01*
X409595Y309652D01*
D02*
G37*
G36*
X399595D02*
X398539D01*
X397518Y309379D01*
X396604Y308851D01*
X395857Y308104D01*
X395328Y307189D01*
X395055Y306169D01*
Y305112D01*
X395328Y304092D01*
X395857Y303177D01*
X396604Y302430D01*
X397518Y301902D01*
X398539Y301629D01*
X399595D01*
X400615Y301902D01*
X401530Y302430D01*
X402277Y303177D01*
X402805Y304092D01*
X403079Y305112D01*
Y306169D01*
X402805Y307189D01*
X402277Y308104D01*
X401530Y308851D01*
X400615Y309379D01*
X399595Y309652D01*
D02*
G37*
G36*
X369595D02*
X368539D01*
X367518Y309379D01*
X366604Y308851D01*
X365857Y308104D01*
X365329Y307189D01*
X365055Y306169D01*
Y305112D01*
X365329Y304092D01*
X365857Y303177D01*
X366604Y302430D01*
X367518Y301902D01*
X368539Y301629D01*
X369595D01*
X370615Y301902D01*
X371530Y302430D01*
X372277Y303177D01*
X372805Y304092D01*
X373079Y305112D01*
Y306169D01*
X372805Y307189D01*
X372277Y308104D01*
X371530Y308851D01*
X370615Y309379D01*
X369595Y309652D01*
D02*
G37*
G36*
X359595D02*
X358539D01*
X357518Y309379D01*
X356604Y308851D01*
X355857Y308104D01*
X355328Y307189D01*
X355055Y306169D01*
Y305112D01*
X355328Y304092D01*
X355857Y303177D01*
X356604Y302430D01*
X357518Y301902D01*
X358539Y301629D01*
X359595D01*
X360615Y301902D01*
X361530Y302430D01*
X362277Y303177D01*
X362805Y304092D01*
X363079Y305112D01*
Y306169D01*
X362805Y307189D01*
X362277Y308104D01*
X361530Y308851D01*
X360615Y309379D01*
X359595Y309652D01*
D02*
G37*
G36*
X349595D02*
X348539D01*
X347518Y309379D01*
X346604Y308851D01*
X345857Y308104D01*
X345328Y307189D01*
X345055Y306169D01*
Y305112D01*
X345328Y304092D01*
X345857Y303177D01*
X346604Y302430D01*
X347518Y301902D01*
X348539Y301629D01*
X349595D01*
X350615Y301902D01*
X351530Y302430D01*
X352277Y303177D01*
X352805Y304092D01*
X353079Y305112D01*
Y306169D01*
X352805Y307189D01*
X352277Y308104D01*
X351530Y308851D01*
X350615Y309379D01*
X349595Y309652D01*
D02*
G37*
G36*
X339595D02*
X338539D01*
X337518Y309379D01*
X336604Y308851D01*
X335857Y308104D01*
X335329Y307189D01*
X335055Y306169D01*
Y305112D01*
X335329Y304092D01*
X335857Y303177D01*
X336604Y302430D01*
X337518Y301902D01*
X338539Y301629D01*
X339595D01*
X340615Y301902D01*
X341530Y302430D01*
X342277Y303177D01*
X342805Y304092D01*
X343079Y305112D01*
Y306169D01*
X342805Y307189D01*
X342277Y308104D01*
X341530Y308851D01*
X340615Y309379D01*
X339595Y309652D01*
D02*
G37*
G36*
X329595D02*
X328539D01*
X327518Y309379D01*
X326604Y308851D01*
X325857Y308104D01*
X325328Y307189D01*
X325055Y306169D01*
Y305112D01*
X325328Y304092D01*
X325857Y303177D01*
X326604Y302430D01*
X327518Y301902D01*
X328539Y301629D01*
X329595D01*
X330615Y301902D01*
X331530Y302430D01*
X332277Y303177D01*
X332805Y304092D01*
X333079Y305112D01*
Y306169D01*
X332805Y307189D01*
X332277Y308104D01*
X331530Y308851D01*
X330615Y309379D01*
X329595Y309652D01*
D02*
G37*
G36*
X319595D02*
X318539D01*
X317518Y309379D01*
X316604Y308851D01*
X315857Y308104D01*
X315329Y307189D01*
X315055Y306169D01*
Y305112D01*
X315329Y304092D01*
X315857Y303177D01*
X316604Y302430D01*
X317518Y301902D01*
X318539Y301629D01*
X319595D01*
X320615Y301902D01*
X321530Y302430D01*
X322277Y303177D01*
X322805Y304092D01*
X323079Y305112D01*
Y306169D01*
X322805Y307189D01*
X322277Y308104D01*
X321530Y308851D01*
X320615Y309379D01*
X319595Y309652D01*
D02*
G37*
G36*
X303079D02*
X295055D01*
Y301629D01*
X303079D01*
Y309652D01*
D02*
G37*
G36*
X196322Y308513D02*
X188810D01*
Y301001D01*
X196322D01*
Y308513D01*
D02*
G37*
G36*
X121792Y306871D02*
X120871D01*
X119981Y306632D01*
X119183Y306171D01*
X118531Y305520D01*
X118070Y304722D01*
X117832Y303832D01*
Y302910D01*
X118070Y302020D01*
X118338Y301557D01*
Y292951D01*
X118440Y292177D01*
X118739Y291454D01*
X119214Y290834D01*
X122983Y287066D01*
Y279498D01*
X122715Y279034D01*
X122477Y278144D01*
Y277223D01*
X122715Y276332D01*
X123176Y275534D01*
X123828Y274883D01*
X124626Y274422D01*
X125516Y274183D01*
X126438D01*
X127328Y274422D01*
X127791Y274689D01*
X155205D01*
X156836Y273058D01*
X157457Y272582D01*
X157756Y272458D01*
X158179Y272283D01*
X158954Y272181D01*
X187608D01*
X188071Y271913D01*
X188961Y271675D01*
X189882D01*
X190773Y271913D01*
X191571Y272374D01*
X192222Y273026D01*
X192683Y273824D01*
X192822Y274340D01*
X208343Y289862D01*
X209183Y289637D01*
X210105D01*
X210995Y289875D01*
X211793Y290336D01*
X212445Y290988D01*
X212905Y291786D01*
X213144Y292676D01*
Y293598D01*
X212905Y294488D01*
X212445Y295286D01*
X211793Y295937D01*
X210995Y296398D01*
X210105Y296637D01*
X209183D01*
X208293Y296398D01*
X207495Y295937D01*
X207485Y295928D01*
X207180D01*
X206405Y295826D01*
X205683Y295526D01*
X205063Y295051D01*
X188587Y278574D01*
X188071Y278436D01*
X187608Y278169D01*
X160194D01*
X158562Y279801D01*
X157942Y280276D01*
X157220Y280575D01*
X156445Y280678D01*
X128971D01*
Y288306D01*
X128869Y289081D01*
X128570Y289803D01*
X128094Y290423D01*
X124326Y294192D01*
Y301557D01*
X124593Y302020D01*
X124832Y302910D01*
Y303832D01*
X124593Y304722D01*
X124132Y305520D01*
X123481Y306171D01*
X122683Y306632D01*
X121792Y306871D01*
D02*
G37*
G36*
X614245Y278454D02*
X605552D01*
Y269761D01*
X614245D01*
Y278454D01*
D02*
G37*
G36*
X600471D02*
X599327D01*
X598221Y278158D01*
X597230Y277585D01*
X596421Y276776D01*
X595849Y275785D01*
X595552Y274680D01*
Y273535D01*
X595849Y272430D01*
X596421Y271439D01*
X597230Y270629D01*
X598221Y270057D01*
X599327Y269761D01*
X600471D01*
X601577Y270057D01*
X602568Y270629D01*
X603377Y271439D01*
X603949Y272430D01*
X604245Y273535D01*
Y274680D01*
X603949Y275785D01*
X603377Y276776D01*
X602568Y277585D01*
X601577Y278158D01*
X600471Y278454D01*
D02*
G37*
G36*
X590471D02*
X589327D01*
X588221Y278158D01*
X587230Y277585D01*
X586421Y276776D01*
X585849Y275785D01*
X585552Y274680D01*
Y273535D01*
X585849Y272430D01*
X586421Y271439D01*
X587230Y270629D01*
X588221Y270057D01*
X589327Y269761D01*
X590471D01*
X591576Y270057D01*
X592568Y270629D01*
X593377Y271439D01*
X593949Y272430D01*
X594245Y273535D01*
Y274680D01*
X593949Y275785D01*
X593377Y276776D01*
X592568Y277585D01*
X591576Y278158D01*
X590471Y278454D01*
D02*
G37*
G36*
X384411Y280492D02*
X383490D01*
X382600Y280254D01*
X381802Y279793D01*
X381150Y279141D01*
X380689Y278343D01*
X380451Y277453D01*
Y276532D01*
X380689Y275641D01*
X381150Y274843D01*
X381802Y274191D01*
X381927Y274119D01*
Y262837D01*
X381802Y262764D01*
X381150Y262113D01*
X380689Y261315D01*
X380451Y260424D01*
Y259503D01*
X380689Y258613D01*
X381150Y257815D01*
X381802Y257163D01*
X382600Y256702D01*
X383490Y256464D01*
X384411D01*
X385302Y256702D01*
X386100Y257163D01*
X386751Y257815D01*
X387212Y258613D01*
X387451Y259503D01*
Y260424D01*
X387212Y261315D01*
X386751Y262113D01*
X386100Y262764D01*
X385974Y262837D01*
Y274119D01*
X386100Y274191D01*
X386751Y274843D01*
X387212Y275641D01*
X387451Y276532D01*
Y277453D01*
X387212Y278343D01*
X386751Y279141D01*
X386100Y279793D01*
X385302Y280254D01*
X384411Y280492D01*
D02*
G37*
G36*
X706056Y256387D02*
X704792D01*
X703553Y256141D01*
X702386Y255658D01*
X701336Y254956D01*
X700443Y254062D01*
X699741Y253012D01*
X699257Y251845D01*
X699011Y250606D01*
Y249342D01*
X699257Y248103D01*
X699741Y246936D01*
X700443Y245886D01*
X701336Y244992D01*
X702386Y244291D01*
X703553Y243807D01*
X704792Y243561D01*
X706056D01*
X707295Y243807D01*
X708462Y244291D01*
X709512Y244992D01*
X710406Y245886D01*
X711108Y246936D01*
X711591Y248103D01*
X711837Y249342D01*
Y250606D01*
X711591Y251845D01*
X711108Y253012D01*
X710406Y254062D01*
X709512Y254956D01*
X708462Y255658D01*
X707295Y256141D01*
X706056Y256387D01*
D02*
G37*
G36*
X653383Y253749D02*
X652005D01*
X650674Y253393D01*
X649481Y252704D01*
X648507Y251729D01*
X647818Y250536D01*
X647462Y249206D01*
Y247828D01*
X647818Y246497D01*
X648507Y245304D01*
X649481Y244330D01*
X650674Y243641D01*
X652005Y243285D01*
X653383D01*
X654714Y243641D01*
X655907Y244330D01*
X656881Y245304D01*
X657570Y246497D01*
X657926Y247828D01*
Y249206D01*
X657570Y250536D01*
X656881Y251729D01*
X655907Y252704D01*
X654714Y253393D01*
X653383Y253749D01*
D02*
G37*
G36*
X600233D02*
X598856D01*
X597525Y253393D01*
X596332Y252704D01*
X595358Y251729D01*
X594669Y250536D01*
X594312Y249206D01*
Y247828D01*
X594669Y246497D01*
X595358Y245304D01*
X596332Y244330D01*
X597525Y243641D01*
X598856Y243285D01*
X600233D01*
X601564Y243641D01*
X602757Y244330D01*
X603731Y245304D01*
X604420Y246497D01*
X604777Y247828D01*
Y249206D01*
X604420Y250536D01*
X603731Y251729D01*
X602757Y252704D01*
X601564Y253393D01*
X600233Y253749D01*
D02*
G37*
G36*
X439595Y249652D02*
X438539D01*
X437518Y249379D01*
X436604Y248851D01*
X435857Y248104D01*
X435328Y247189D01*
X435055Y246169D01*
Y245112D01*
X435328Y244092D01*
X435857Y243177D01*
X436604Y242430D01*
X437518Y241902D01*
X438539Y241629D01*
X439595D01*
X440615Y241902D01*
X441530Y242430D01*
X442277Y243177D01*
X442805Y244092D01*
X443079Y245112D01*
Y246169D01*
X442805Y247189D01*
X442277Y248104D01*
X441530Y248851D01*
X440615Y249379D01*
X439595Y249652D01*
D02*
G37*
G36*
X429595D02*
X428539D01*
X427518Y249379D01*
X426604Y248851D01*
X425857Y248104D01*
X425328Y247189D01*
X425055Y246169D01*
Y245112D01*
X425328Y244092D01*
X425857Y243177D01*
X426604Y242430D01*
X427518Y241902D01*
X428539Y241629D01*
X429595D01*
X430615Y241902D01*
X431530Y242430D01*
X432277Y243177D01*
X432805Y244092D01*
X433079Y245112D01*
Y246169D01*
X432805Y247189D01*
X432277Y248104D01*
X431530Y248851D01*
X430615Y249379D01*
X429595Y249652D01*
D02*
G37*
G36*
X419595D02*
X418539D01*
X417518Y249379D01*
X416604Y248851D01*
X415857Y248104D01*
X415329Y247189D01*
X415055Y246169D01*
Y245112D01*
X415329Y244092D01*
X415857Y243177D01*
X416604Y242430D01*
X417518Y241902D01*
X418539Y241629D01*
X419595D01*
X420615Y241902D01*
X421530Y242430D01*
X422277Y243177D01*
X422805Y244092D01*
X423079Y245112D01*
Y246169D01*
X422805Y247189D01*
X422277Y248104D01*
X421530Y248851D01*
X420615Y249379D01*
X419595Y249652D01*
D02*
G37*
G36*
X409595D02*
X408539D01*
X407518Y249379D01*
X406604Y248851D01*
X405857Y248104D01*
X405329Y247189D01*
X405055Y246169D01*
Y245112D01*
X405329Y244092D01*
X405857Y243177D01*
X406604Y242430D01*
X407518Y241902D01*
X408539Y241629D01*
X409595D01*
X410615Y241902D01*
X411530Y242430D01*
X412277Y243177D01*
X412805Y244092D01*
X413079Y245112D01*
Y246169D01*
X412805Y247189D01*
X412277Y248104D01*
X411530Y248851D01*
X410615Y249379D01*
X409595Y249652D01*
D02*
G37*
G36*
X399595D02*
X398539D01*
X397518Y249379D01*
X396604Y248851D01*
X395857Y248104D01*
X395328Y247189D01*
X395055Y246169D01*
Y245112D01*
X395328Y244092D01*
X395857Y243177D01*
X396604Y242430D01*
X397518Y241902D01*
X398539Y241629D01*
X399595D01*
X400615Y241902D01*
X401530Y242430D01*
X402277Y243177D01*
X402805Y244092D01*
X403079Y245112D01*
Y246169D01*
X402805Y247189D01*
X402277Y248104D01*
X401530Y248851D01*
X400615Y249379D01*
X399595Y249652D01*
D02*
G37*
G36*
X389595D02*
X388539D01*
X387518Y249379D01*
X386604Y248851D01*
X385857Y248104D01*
X385329Y247189D01*
X385055Y246169D01*
Y245112D01*
X385329Y244092D01*
X385857Y243177D01*
X386604Y242430D01*
X387518Y241902D01*
X388539Y241629D01*
X389595D01*
X390615Y241902D01*
X391530Y242430D01*
X392277Y243177D01*
X392805Y244092D01*
X393079Y245112D01*
Y246169D01*
X392805Y247189D01*
X392277Y248104D01*
X391530Y248851D01*
X390615Y249379D01*
X389595Y249652D01*
D02*
G37*
G36*
X379595D02*
X378539D01*
X377518Y249379D01*
X376604Y248851D01*
X375857Y248104D01*
X375328Y247189D01*
X375055Y246169D01*
Y245112D01*
X375328Y244092D01*
X375857Y243177D01*
X376604Y242430D01*
X377518Y241902D01*
X378539Y241629D01*
X379595D01*
X380615Y241902D01*
X381530Y242430D01*
X382277Y243177D01*
X382805Y244092D01*
X383079Y245112D01*
Y246169D01*
X382805Y247189D01*
X382277Y248104D01*
X381530Y248851D01*
X380615Y249379D01*
X379595Y249652D01*
D02*
G37*
G36*
X369595D02*
X368539D01*
X367518Y249379D01*
X366604Y248851D01*
X365857Y248104D01*
X365329Y247189D01*
X365055Y246169D01*
Y245112D01*
X365329Y244092D01*
X365857Y243177D01*
X366604Y242430D01*
X367518Y241902D01*
X368539Y241629D01*
X369595D01*
X370615Y241902D01*
X371530Y242430D01*
X372277Y243177D01*
X372805Y244092D01*
X373079Y245112D01*
Y246169D01*
X372805Y247189D01*
X372277Y248104D01*
X371530Y248851D01*
X370615Y249379D01*
X369595Y249652D01*
D02*
G37*
G36*
X359595D02*
X358539D01*
X357518Y249379D01*
X356604Y248851D01*
X355857Y248104D01*
X355328Y247189D01*
X355055Y246169D01*
Y245112D01*
X355328Y244092D01*
X355857Y243177D01*
X356604Y242430D01*
X357518Y241902D01*
X358539Y241629D01*
X359595D01*
X360615Y241902D01*
X361530Y242430D01*
X362277Y243177D01*
X362805Y244092D01*
X363079Y245112D01*
Y246169D01*
X362805Y247189D01*
X362277Y248104D01*
X361530Y248851D01*
X360615Y249379D01*
X359595Y249652D01*
D02*
G37*
G36*
X349595D02*
X348539D01*
X347518Y249379D01*
X346604Y248851D01*
X345857Y248104D01*
X345328Y247189D01*
X345055Y246169D01*
Y245112D01*
X345328Y244092D01*
X345857Y243177D01*
X346604Y242430D01*
X347518Y241902D01*
X348539Y241629D01*
X349595D01*
X350615Y241902D01*
X351530Y242430D01*
X352277Y243177D01*
X352805Y244092D01*
X353079Y245112D01*
Y246169D01*
X352805Y247189D01*
X352277Y248104D01*
X351530Y248851D01*
X350615Y249379D01*
X349595Y249652D01*
D02*
G37*
G36*
X339595D02*
X338539D01*
X337518Y249379D01*
X336604Y248851D01*
X335857Y248104D01*
X335329Y247189D01*
X335055Y246169D01*
Y245112D01*
X335329Y244092D01*
X335857Y243177D01*
X336604Y242430D01*
X337518Y241902D01*
X338539Y241629D01*
X339595D01*
X340615Y241902D01*
X341530Y242430D01*
X342277Y243177D01*
X342805Y244092D01*
X343079Y245112D01*
Y246169D01*
X342805Y247189D01*
X342277Y248104D01*
X341530Y248851D01*
X340615Y249379D01*
X339595Y249652D01*
D02*
G37*
G36*
X319595D02*
X318539D01*
X317518Y249379D01*
X316604Y248851D01*
X315857Y248104D01*
X315329Y247189D01*
X315055Y246169D01*
Y245112D01*
X315329Y244092D01*
X315857Y243177D01*
X316604Y242430D01*
X317518Y241902D01*
X318539Y241629D01*
X319595D01*
X320615Y241902D01*
X321530Y242430D01*
X322277Y243177D01*
X322805Y244092D01*
X323079Y245112D01*
Y246169D01*
X322805Y247189D01*
X322277Y248104D01*
X321530Y248851D01*
X320615Y249379D01*
X319595Y249652D01*
D02*
G37*
G36*
X309595D02*
X308539D01*
X307518Y249379D01*
X306604Y248851D01*
X305857Y248104D01*
X305328Y247189D01*
X305055Y246169D01*
Y245112D01*
X305328Y244092D01*
X305857Y243177D01*
X306604Y242430D01*
X307518Y241902D01*
X308539Y241629D01*
X309595D01*
X310615Y241902D01*
X311530Y242430D01*
X312277Y243177D01*
X312805Y244092D01*
X313079Y245112D01*
Y246169D01*
X312805Y247189D01*
X312277Y248104D01*
X311530Y248851D01*
X310615Y249379D01*
X309595Y249652D01*
D02*
G37*
G36*
X303079D02*
X295055D01*
Y241629D01*
X303079D01*
Y249652D01*
D02*
G37*
G36*
X569166Y245824D02*
X568112D01*
X567095Y245551D01*
X566183Y245025D01*
X565438Y244280D01*
X564912Y243368D01*
X564639Y242351D01*
Y241297D01*
X564912Y240280D01*
X565438Y239368D01*
X566183Y238623D01*
X567095Y238096D01*
X568112Y237824D01*
X569166D01*
X570183Y238096D01*
X571095Y238623D01*
X571840Y239368D01*
X572366Y240280D01*
X572639Y241297D01*
Y242351D01*
X572366Y243368D01*
X571840Y244280D01*
X571095Y245025D01*
X570183Y245551D01*
X569166Y245824D01*
D02*
G37*
G36*
X549481D02*
X548427D01*
X547410Y245551D01*
X546498Y245025D01*
X545753Y244280D01*
X545226Y243368D01*
X544954Y242351D01*
Y241297D01*
X545226Y240280D01*
X545753Y239368D01*
X546498Y238623D01*
X547410Y238096D01*
X548427Y237824D01*
X549481D01*
X550498Y238096D01*
X551410Y238623D01*
X552155Y239368D01*
X552681Y240280D01*
X552954Y241297D01*
Y242351D01*
X552681Y243368D01*
X552155Y244280D01*
X551410Y245025D01*
X550498Y245551D01*
X549481Y245824D01*
D02*
G37*
G36*
X152555Y241465D02*
X145043D01*
Y233953D01*
X152555D01*
Y241465D01*
D02*
G37*
G36*
X653383Y240363D02*
X652005D01*
X650674Y240007D01*
X649481Y239318D01*
X648507Y238344D01*
X647818Y237151D01*
X647462Y235820D01*
Y234442D01*
X647818Y233111D01*
X648507Y231918D01*
X649481Y230944D01*
X650674Y230255D01*
X652005Y229899D01*
X653383D01*
X654714Y230255D01*
X655907Y230944D01*
X656881Y231918D01*
X657570Y233111D01*
X657926Y234442D01*
Y235820D01*
X657570Y237151D01*
X656881Y238344D01*
X655907Y239318D01*
X654714Y240007D01*
X653383Y240363D01*
D02*
G37*
G36*
X600233D02*
X598856D01*
X597525Y240007D01*
X596332Y239318D01*
X595358Y238344D01*
X594669Y237151D01*
X594312Y235820D01*
Y234442D01*
X594669Y233111D01*
X595358Y231918D01*
X596332Y230944D01*
X597525Y230255D01*
X598856Y229899D01*
X600233D01*
X601564Y230255D01*
X602757Y230944D01*
X603731Y231918D01*
X604420Y233111D01*
X604777Y234442D01*
Y235820D01*
X604420Y237151D01*
X603731Y238344D01*
X602757Y239318D01*
X601564Y240007D01*
X600233Y240363D01*
D02*
G37*
G36*
X706056Y239887D02*
X704792D01*
X703553Y239641D01*
X702386Y239158D01*
X701336Y238456D01*
X700443Y237562D01*
X699741Y236512D01*
X699257Y235345D01*
X699011Y234106D01*
Y232842D01*
X699257Y231603D01*
X699741Y230436D01*
X700443Y229386D01*
X701336Y228492D01*
X702386Y227791D01*
X703553Y227307D01*
X704792Y227061D01*
X706056D01*
X707295Y227307D01*
X708462Y227791D01*
X709512Y228492D01*
X710406Y229386D01*
X711108Y230436D01*
X711591Y231603D01*
X711837Y232842D01*
Y234106D01*
X711591Y235345D01*
X711108Y236512D01*
X710406Y237562D01*
X709512Y238456D01*
X708462Y239158D01*
X707295Y239641D01*
X706056Y239887D01*
D02*
G37*
G36*
X715093Y63520D02*
X714041D01*
X713026Y63248D01*
X712116Y62722D01*
X711372Y61979D01*
X710847Y61068D01*
X710575Y60053D01*
Y59002D01*
X710847Y57987D01*
X711372Y57076D01*
X712116Y56333D01*
X713026Y55808D01*
X714041Y55535D01*
X715093D01*
X716108Y55808D01*
X717018Y56333D01*
X717761Y57076D01*
X718287Y57987D01*
X718559Y59002D01*
Y60053D01*
X718287Y61068D01*
X717761Y61979D01*
X717018Y62722D01*
X716108Y63248D01*
X715093Y63520D01*
D02*
G37*
G36*
X655429D02*
X654378D01*
X653362Y63248D01*
X652452Y62722D01*
X651709Y61979D01*
X651183Y61068D01*
X650911Y60053D01*
Y59002D01*
X651183Y57987D01*
X651709Y57076D01*
X652452Y56333D01*
X653362Y55808D01*
X654378Y55535D01*
X655429D01*
X656444Y55808D01*
X657354Y56333D01*
X658098Y57076D01*
X658623Y57987D01*
X658895Y59002D01*
Y60053D01*
X658623Y61068D01*
X658098Y61979D01*
X657354Y62722D01*
X656444Y63248D01*
X655429Y63520D01*
D02*
G37*
G36*
X595765D02*
X594714D01*
X593699Y63248D01*
X592789Y62722D01*
X592045Y61979D01*
X591520Y61068D01*
X591248Y60053D01*
Y59002D01*
X591520Y57987D01*
X592045Y57076D01*
X592789Y56333D01*
X593699Y55808D01*
X594714Y55535D01*
X595765D01*
X596781Y55808D01*
X597691Y56333D01*
X598434Y57076D01*
X598960Y57987D01*
X599232Y59002D01*
Y60053D01*
X598960Y61068D01*
X598434Y61979D01*
X597691Y62722D01*
X596781Y63248D01*
X595765Y63520D01*
D02*
G37*
G36*
X536102D02*
X535051D01*
X534035Y63248D01*
X533125Y62722D01*
X532382Y61979D01*
X531856Y61068D01*
X531584Y60053D01*
Y59002D01*
X531856Y57987D01*
X532382Y57076D01*
X533125Y56333D01*
X534035Y55808D01*
X535051Y55535D01*
X536102D01*
X537117Y55808D01*
X538027Y56333D01*
X538771Y57076D01*
X539296Y57987D01*
X539568Y59002D01*
Y60053D01*
X539296Y61068D01*
X538771Y61979D01*
X538027Y62722D01*
X537117Y63248D01*
X536102Y63520D01*
D02*
G37*
G36*
X476438D02*
X475387D01*
X474372Y63248D01*
X473461Y62722D01*
X472718Y61979D01*
X472193Y61068D01*
X471920Y60053D01*
Y59002D01*
X472193Y57987D01*
X472718Y57076D01*
X473461Y56333D01*
X474372Y55808D01*
X475387Y55535D01*
X476438D01*
X477454Y55808D01*
X478364Y56333D01*
X479107Y57076D01*
X479633Y57987D01*
X479905Y59002D01*
Y60053D01*
X479633Y61068D01*
X479107Y61979D01*
X478364Y62722D01*
X477454Y63248D01*
X476438Y63520D01*
D02*
G37*
G36*
X416775D02*
X415724D01*
X414708Y63248D01*
X413798Y62722D01*
X413055Y61979D01*
X412529Y61068D01*
X412257Y60053D01*
Y59002D01*
X412529Y57987D01*
X413055Y57076D01*
X413798Y56333D01*
X414708Y55808D01*
X415724Y55535D01*
X416775D01*
X417790Y55808D01*
X418700Y56333D01*
X419444Y57076D01*
X419969Y57987D01*
X420241Y59002D01*
Y60053D01*
X419969Y61068D01*
X419444Y61979D01*
X418700Y62722D01*
X417790Y63248D01*
X416775Y63520D01*
D02*
G37*
G36*
X357111D02*
X356060D01*
X355045Y63248D01*
X354134Y62722D01*
X353391Y61979D01*
X352866Y61068D01*
X352593Y60053D01*
Y59002D01*
X352866Y57987D01*
X353391Y57076D01*
X354134Y56333D01*
X355045Y55808D01*
X356060Y55535D01*
X357111D01*
X358126Y55808D01*
X359037Y56333D01*
X359780Y57076D01*
X360306Y57987D01*
X360578Y59002D01*
Y60053D01*
X360306Y61068D01*
X359780Y61979D01*
X359037Y62722D01*
X358126Y63248D01*
X357111Y63520D01*
D02*
G37*
G36*
X297447D02*
X296396D01*
X295381Y63248D01*
X294471Y62722D01*
X293727Y61979D01*
X293202Y61068D01*
X292930Y60053D01*
Y59002D01*
X293202Y57987D01*
X293727Y57076D01*
X294471Y56333D01*
X295381Y55808D01*
X296396Y55535D01*
X297447D01*
X298463Y55808D01*
X299373Y56333D01*
X300116Y57076D01*
X300642Y57987D01*
X300914Y59002D01*
Y60053D01*
X300642Y61068D01*
X300116Y61979D01*
X299373Y62722D01*
X298463Y63248D01*
X297447Y63520D01*
D02*
G37*
G36*
X237784D02*
X236733D01*
X235718Y63248D01*
X234807Y62722D01*
X234064Y61979D01*
X233538Y61068D01*
X233266Y60053D01*
Y59002D01*
X233538Y57987D01*
X234064Y57076D01*
X234807Y56333D01*
X235718Y55808D01*
X236733Y55535D01*
X237784D01*
X238799Y55808D01*
X239710Y56333D01*
X240453Y57076D01*
X240979Y57987D01*
X241250Y59002D01*
Y60053D01*
X240979Y61068D01*
X240453Y61979D01*
X239710Y62722D01*
X238799Y63248D01*
X237784Y63520D01*
D02*
G37*
G36*
X178120D02*
X177069D01*
X176054Y63248D01*
X175144Y62722D01*
X174400Y61979D01*
X173875Y61068D01*
X173603Y60053D01*
Y59002D01*
X173875Y57987D01*
X174400Y57076D01*
X175144Y56333D01*
X176054Y55808D01*
X177069Y55535D01*
X178120D01*
X179136Y55808D01*
X180046Y56333D01*
X180789Y57076D01*
X181315Y57987D01*
X181587Y59002D01*
Y60053D01*
X181315Y61068D01*
X180789Y61979D01*
X180046Y62722D01*
X179136Y63248D01*
X178120Y63520D01*
D02*
G37*
G36*
X118457D02*
X117406D01*
X116390Y63248D01*
X115480Y62722D01*
X114737Y61979D01*
X114211Y61068D01*
X113939Y60053D01*
Y59002D01*
X114211Y57987D01*
X114737Y57076D01*
X115480Y56333D01*
X116390Y55808D01*
X117406Y55535D01*
X118457D01*
X119472Y55808D01*
X120382Y56333D01*
X121126Y57076D01*
X121651Y57987D01*
X121923Y59002D01*
Y60053D01*
X121651Y61068D01*
X121126Y61979D01*
X120382Y62722D01*
X119472Y63248D01*
X118457Y63520D01*
D02*
G37*
G36*
X58793D02*
X57742D01*
X56727Y63248D01*
X55817Y62722D01*
X55073Y61979D01*
X54548Y61068D01*
X54276Y60053D01*
Y59002D01*
X54548Y57987D01*
X55073Y57076D01*
X55817Y56333D01*
X56727Y55808D01*
X57742Y55535D01*
X58793D01*
X59809Y55808D01*
X60719Y56333D01*
X61462Y57076D01*
X61988Y57987D01*
X62260Y59002D01*
Y60053D01*
X61988Y61068D01*
X61462Y61979D01*
X60719Y62722D01*
X59809Y63248D01*
X58793Y63520D01*
D02*
G37*
%LPD*%
G36*
X608235Y313477D02*
X567290D01*
Y324107D01*
X577526D01*
Y334344D01*
X567290D01*
Y345367D01*
X608235D01*
Y313477D01*
D02*
G37*
D56*
X705424Y233474D02*
D03*
Y249974D02*
D03*
X727124Y233474D02*
D03*
X705424Y321237D02*
D03*
Y337737D02*
D03*
X727124Y321237D02*
D03*
D57*
Y249974D02*
D03*
Y337737D02*
D03*
D58*
X755824Y241724D02*
D03*
Y329487D02*
D03*
D60*
X333742Y366912D02*
D03*
X343742Y356912D02*
D03*
Y366912D02*
D03*
X353742Y356912D02*
D03*
Y366912D02*
D03*
X363742Y356912D02*
D03*
Y366912D02*
D03*
X373742Y356912D02*
D03*
Y366912D02*
D03*
X383742Y356912D02*
D03*
Y366912D02*
D03*
X393742Y356912D02*
D03*
Y366912D02*
D03*
X403742Y356912D02*
D03*
Y366912D02*
D03*
X413742Y356912D02*
D03*
Y366912D02*
D03*
X423742Y356912D02*
D03*
Y366912D02*
D03*
D61*
X333742Y356912D02*
D03*
D65*
X379067Y313474D02*
X413887Y348293D01*
X379067Y305640D02*
Y313474D01*
X398235Y348082D02*
X398815Y348662D01*
X398235Y344762D02*
Y348082D01*
X389398Y335926D02*
X398235Y344762D01*
X420071Y336173D02*
X420442Y336544D01*
Y347675D02*
X420813Y348046D01*
X420442Y336544D02*
Y347675D01*
X430954Y340421D02*
Y347806D01*
X411247Y320714D02*
X430954Y340421D01*
X404140Y320714D02*
X411247D01*
X389067Y305640D02*
X404140Y320714D01*
X379751Y335926D02*
X380250Y336424D01*
Y341378D01*
X386677Y347806D01*
X383951Y259964D02*
Y276992D01*
D66*
X393742Y356912D02*
X403742D01*
X383742D02*
X393742D01*
X373742D02*
X383742D01*
X363742D02*
X373742D01*
X353742D02*
X363742D01*
X343742D02*
X353742D01*
X333742D02*
X343742D01*
X333742Y334301D02*
Y356912D01*
X332156Y332715D02*
X333742Y334301D01*
X332156Y332427D02*
Y332715D01*
X125977Y277683D02*
Y288306D01*
X121332Y292951D02*
X125977Y288306D01*
X121332Y292951D02*
Y303371D01*
X125977Y277683D02*
X156445D01*
X158954Y275175D02*
X189422D01*
X156445Y277683D02*
X158954Y275175D01*
X189422D02*
X207180Y292933D01*
X209440D02*
X209644Y293137D01*
X207180Y292933D02*
X209440D01*
D68*
X222098Y390621D02*
D03*
X714567Y30709D02*
D03*
X654903D02*
D03*
X595240D02*
D03*
X475913D02*
D03*
X535576D02*
D03*
X416249D02*
D03*
X356586D02*
D03*
X296922D02*
D03*
X237258D02*
D03*
X177595D02*
D03*
X117931D02*
D03*
X58268D02*
D03*
X168671Y390621D02*
D03*
D69*
X233909Y361802D02*
D03*
X222098D02*
D03*
X210287D02*
D03*
X233909Y373613D02*
D03*
X222098D02*
D03*
X714567Y59527D02*
D03*
X654903D02*
D03*
X595240D02*
D03*
X475913D02*
D03*
X535576D02*
D03*
X416249D02*
D03*
X356586D02*
D03*
X296922D02*
D03*
X237258D02*
D03*
X177595D02*
D03*
X117931D02*
D03*
X58268D02*
D03*
X168671Y373613D02*
D03*
X180482D02*
D03*
X156860Y361802D02*
D03*
X168671D02*
D03*
X180482D02*
D03*
D70*
X210287Y373613D02*
D03*
X714567Y47717D02*
D03*
X654903D02*
D03*
X595240D02*
D03*
X475913D02*
D03*
X535576D02*
D03*
X416249D02*
D03*
X356586D02*
D03*
X296922D02*
D03*
X237258D02*
D03*
X177595D02*
D03*
X117931D02*
D03*
X58268D02*
D03*
X156860Y373613D02*
D03*
D71*
X767717Y393701D02*
D03*
X19685Y39370D02*
D03*
X767717D02*
D03*
X19685Y393701D02*
D03*
X548954Y241824D02*
D03*
X568639D02*
D03*
D72*
X609899Y274107D02*
D03*
D73*
X599899D02*
D03*
X589899D02*
D03*
X572408Y338832D02*
D03*
Y328832D02*
D03*
D74*
X599544Y248517D02*
D03*
Y235131D02*
D03*
X652694D02*
D03*
Y248517D02*
D03*
X599544Y336312D02*
D03*
Y322926D02*
D03*
X652694D02*
D03*
Y336312D02*
D03*
D75*
X572408Y318832D02*
D03*
D76*
X148799Y218024D02*
D03*
X192566Y324442D02*
D03*
D77*
X148799Y237709D02*
D03*
X192566Y304757D02*
D03*
D78*
X439067Y305640D02*
D03*
Y245640D02*
D03*
X429067Y305640D02*
D03*
Y245640D02*
D03*
X419067Y305640D02*
D03*
Y245640D02*
D03*
X409067Y305640D02*
D03*
Y245640D02*
D03*
X399067Y305640D02*
D03*
Y245640D02*
D03*
X389067Y305640D02*
D03*
Y245640D02*
D03*
X379067Y305640D02*
D03*
Y245640D02*
D03*
X369067Y305640D02*
D03*
Y245640D02*
D03*
X359067Y305640D02*
D03*
Y245640D02*
D03*
X349067Y305640D02*
D03*
Y245640D02*
D03*
X339067Y305640D02*
D03*
Y245640D02*
D03*
X329067Y305640D02*
D03*
Y245640D02*
D03*
X319067Y305640D02*
D03*
Y245640D02*
D03*
X309067Y305640D02*
D03*
Y245640D02*
D03*
D79*
X299067Y305640D02*
D03*
Y245640D02*
D03*
D80*
X130974Y300120D02*
D03*
X151695Y337561D02*
D03*
X189422Y275175D02*
D03*
X555220Y130784D02*
D03*
X520307D02*
D03*
X485394D02*
D03*
X450481D02*
D03*
X415568D02*
D03*
X380655D02*
D03*
X345741D02*
D03*
X310828D02*
D03*
X275915D02*
D03*
X241002D02*
D03*
X171176D02*
D03*
X206089D02*
D03*
X398815Y348662D02*
D03*
X420071Y336173D02*
D03*
X430954Y347806D02*
D03*
X420813Y348046D02*
D03*
X413887Y348293D02*
D03*
X389398Y335926D02*
D03*
X379751D02*
D03*
X386677Y347806D02*
D03*
X332156Y332427D02*
D03*
X69096Y271901D02*
D03*
X68895Y278976D02*
D03*
X61519Y278876D02*
D03*
X61585Y272068D02*
D03*
X118345Y270705D02*
D03*
X118438Y284595D02*
D03*
X121332Y303371D02*
D03*
X125977Y277683D02*
D03*
X142866Y256275D02*
D03*
X233065Y320405D02*
D03*
X69252Y265460D02*
D03*
X61585D02*
D03*
X209644Y293137D02*
D03*
X114781Y354109D02*
D03*
X383951Y259964D02*
D03*
Y276992D02*
D03*
M02*
