M48
;Layer_Color=9474304
;FILE_FORMAT=2:4
INCH,TZ
;TYPE=PLATED
T1F00S00C0.0280
T2F00S00C0.0315
T3F00S00C0.0354
T4F00S00C0.0402
T5F00S00C0.0433
T6F00S00C0.0709
;TYPE=NON_PLATED
T7F00S00C0.0354
T8F00S00C0.1180
T9F00S00C0.1181
T10F00S00C0.1299
%
T01
X17118Y13078
X20609
X24100
X27592
X31083
X34574
X38065
X41557
X45048
X48539
X52031
X55522
X38395Y25996
Y27699
X20964Y29314
X18942Y27517
X14287Y25627
X12598Y27768
X11844Y28459
X11835Y27070
X12133Y30337
X13097Y30012
X6890Y27898
X6910Y27190
X6925Y26546
X6159
Y27207
X6152Y27888
X11478Y35411
X15169Y33756
X23307Y32040
X33216Y33243
X37975Y33593
X38940
X38668Y34781
X39882Y34866
X41389Y34829
X42081Y34805
X43095Y34781
X42007Y33617
T02
X54895Y24182
X56864
T03
X19257Y30476
X14880Y23771
Y21802
X19257Y32444
X33374Y35691
Y36691
X34374
Y35691
X35374
Y36691
X36374
Y35691
X37374
Y36691
X38374
Y35691
X39374
Y36691
X40374
Y35691
X41374
Y36691
X42374
Y35691
T04
X5827Y4772
Y5953
X11793
Y4772
X17759
Y5953
X23726
Y4772
X29692
Y5953
X35659
Y4772
X41625
Y5953
X47591
Y4772
X53558
Y5953
X59524
Y4772
X65490
Y5953
X71457
Y4772
X43907Y24564
X42907
X41907
X40907
X39907
X38907
X37907
X36907
X35907
X34907
X33907
X32907
X31907
Y30564
X32907
X33907
X34907
X35907
X36907
X37907
X38907
X39907
X40907
X41907
X42907
X43907
X30907
X29907
Y24564
X30907
X23391Y36180
X22210
X21029
Y37361
X22210
X23391
X18048
X16867
X15686
Y36180
X16867
X18048
T05
X58990Y27411
X59990
X60990
X57241Y31883
Y32883
Y33883
T06
X65269Y23513
Y24852
X70542Y24997
Y23347
X72712
Y24997
X59954Y24852
Y23513
Y32293
Y33631
X65269
Y32293
X70542Y32124
Y33774
X72712
Y32124
T07
X1969Y7874
X76772
X1969Y31496
X76772
T08
X75582Y24172
Y32949
T09
X5827Y3071
X11793
X17759
X23726
X29692
X35659
X41625
X47591
X53558
X59524
X65490
X71457
X22210Y39062
X16867
T10
X1969Y3937
X76772
X1969Y39370
X76772
M30
